<?xml version="1.0" encoding="UTF-8"?><svg xmlns="http://www.w3.org/2000/svg" width="476.59" height="122.88" viewBox="0 0 476.59 122.88"><defs><style>.cls-1{fill:none;stroke:#bac684;stroke-width:2px;}.cls-2{fill:#3e2517;}.cls-2,.cls-3{stroke-width:0px;}.cls-3{fill:#bac684;}</style></defs><g id="Layer_1"><path class="cls-2" d="m42.12,108.13c-4.86,0-8.58-1.28-11.14-3.84-2.57-2.56-4.66-6.33-6.28-11.32L0,15.16h11.14l22.68,74.78c1.08,3.51,2.63,5.93,4.66,7.28,2.03,1.35,4.12,2.02,6.28,2.02h3.44L75.14,15.16h8.51l-30.99,92.97h-10.53Z"/><path class="cls-2" d="m295.88,122.88c12.54-40.96,25.08-81.92,37.62-122.88h8.51c-12.56,40.96-25.11,81.92-37.67,122.88h-8.46Z"/><path class="cls-2" d="m202.38,15.16v86.3h62.78v6.67h-73.31V20.62c0-1.21.07-2.22.2-3.03.13-.81.47-1.42,1.01-1.82.54-.4,1.48-.61,2.83-.61h6.48Z"/><path class="cls-2" d="m270.93,61.44c0-11.18,1.35-20.01,4.05-26.48,2.7-6.47,6.41-11.25,11.14-14.35,4.72-3.1,10.09-5.08,16.1-5.96,6.01-.88,12.32-1.31,18.94-1.31s12.99.5,18.73,1.52c5.74,1.01,10.8,3.07,15.19,6.16,4.39,3.1,7.8,7.88,10.23,14.35,2.43,6.47,3.65,15.16,3.65,26.07s-1.35,20.01-4.05,26.48c-2.7,6.47-6.41,11.25-11.14,14.35-4.73,3.1-10.09,5.09-16.1,5.96-6.01.88-12.32,1.31-18.94,1.31s-13.03-.51-18.83-1.52c-5.81-1.01-10.87-3.06-15.19-6.17-4.32-3.1-7.7-7.88-10.13-14.35-2.43-6.47-3.65-15.16-3.65-26.07Zm87.29.2c0-9.16-.88-16.54-2.63-22.13-1.76-5.59-4.29-9.8-7.59-12.63-3.31-2.83-7.33-4.71-12.05-5.66-4.73-.94-10.13-1.42-16.2-1.42s-11.27.47-16,1.42c-4.73.94-8.74,2.83-12.05,5.66-3.31,2.83-5.81,7.04-7.49,12.63-1.69,5.59-2.53,12.97-2.53,22.13s.84,16.51,2.53,22.03c1.69,5.53,4.18,9.7,7.49,12.53,3.31,2.83,7.32,4.72,12.05,5.66,4.72.94,10.06,1.42,16,1.42s11.47-.47,16.2-1.42c4.72-.94,8.74-2.83,12.05-5.66,3.31-2.83,5.84-7,7.59-12.53,1.75-5.52,2.63-12.87,2.63-22.03Z"/><path class="cls-2" d="m445.81,67.91h-22.78c-6.96,0-14.82.07-23.59.2v40.02h-10.53V25.06c0-3.91.84-6.5,2.53-7.78,1.69-1.28,4.28-1.99,7.8-2.12,2.03-.13,4.56-.2,7.59-.2s6.45-.03,10.23-.1c3.78-.07,7.63-.1,11.54-.1h11.24c3.58,0,6.82.07,9.72.2,2.9.14,5.23.27,6.99.4,7.02.68,12.08,3.07,15.19,7.17,3.1,4.11,4.66,9.94,4.66,17.48,0,5.79-.91,10.54-2.73,14.25-1.82,3.71-4.49,6.44-8,8.19-.27.27-.78.47-1.52.61-.74.14-1.39.2-1.92.2v.4h2.63c5.13.94,8.23,3,9.32,6.17,1.08,3.17,1.62,6.37,1.62,9.6v24.66c0,.94.1,1.82.3,2.63.2.81.37,1.28.51,1.42h-7.09c-1.35,0-2.46-.27-3.34-.81-.88-.54-1.32-2.02-1.32-4.45v-23.45c0-4.17-.91-7.14-2.73-8.89-1.82-1.75-5.03-2.63-9.62-2.63h-6.68Zm-46.38-6.47c2.16,0,5.4.03,9.72.1,4.32.07,9.04.14,14.18.2,5.13.07,9.85.1,14.18.1h9.52c4.86,0,9.15-1.48,12.86-4.45,3.71-2.96,5.57-8.42,5.57-16.37,0-5.52-1.08-9.93-3.24-13.24-2.16-3.3-5.6-5.15-10.33-5.56-2.97-.4-6.68-.67-11.14-.81-4.46-.13-9.08-.17-13.87-.1-4.79.07-9.18.14-13.16.2-3.98.07-7.06.17-9.21.3-.4,0-1.35.24-2.83.71-1.49.47-2.23,1.92-2.23,4.35v34.56Z"/></g><g id="Layer_2"><path class="cls-3" d="m101.46,32.08c2.2-.79,2.36-2.46,4.69-4.05,1.48-1.01,2.85-1.31,4.41-1.66,5.96-1.31,12.89,1.05,20.53,1.01,8.97-.04,15.83-3.37,21.57-1.38,2.99,1.04,4.41,2.02,4.41,2.02,2.52,1.76,2.89,3.32,5.01,3.85.22.05,2.43.57,3.92-.65,1.6-1.31,1.75-4.14.87-6.06-1.87-4.04-8.75-4.89-12.33-5.34-3.36-.42-4.6-.02-7.5-1.01-2.86-.98-3.17-1.89-5.87-3.11-4.2-1.9-8.11-1.82-10.73-1.77-2.32.05-6.25.13-10.44,2.1-2.08.98-2.95,1.82-5.68,2.77-2.42.84-3.66.85-5.91,1.29-4.32.84-10.25,1.99-11.9,5.72-.9,2.03-.58,4.95,1.06,6.08,1.46,1,3.55.29,3.9.17Z"/><path class="cls-3" d="m131.08,64.37c-12.92-.1-24.52-3.98-27-4.83,0,0-.02,0-.02,0,.04-1.36.07-2.72.11-4.09,2.93-.86,5.86-1.73,8.8-2.59,6.18.02,12.4.05,18.64.1,6.25.05,12.46.12,18.64.21,3.01.97,6.02,1.94,9.03,2.92.1,2.02.15,3.61.07,3.61,0,0-13.54,4.8-28.27,4.68Z"/><line class="cls-1" x1="109.97" y1="78.84" x2="153.66" y2="78.84"/><line class="cls-1" x1="100.92" y1="83.42" x2="161.79" y2="83.42"/><line class="cls-1" x1="100.92" y1="83.42" x2="109.97" y2="78.84"/><line class="cls-1" x1="161.79" y1="83.42" x2="153.66" y2="78.84"/><path class="cls-3" d="m104.11,53.64c-.88,5.95-1.76,11.9-2.64,17.84-1.4,9.44-2.8,18.88-4.2,28.31-.32,2.18-.65,4.37-.97,6.55-.15,1.01.25,2,1.31,2.31.88.25,2.16-.31,2.31-1.31.88-5.95,1.76-11.9,2.64-17.84,1.4-9.44,2.8-18.88,4.2-28.31.32-2.18.65-4.37.97-6.55.15-1.01-.25-2-1.31-2.31-.88-.25-2.16.31-2.31,1.31h0Z"/><path class="cls-3" d="m156.01,54.87c.88,5.95,1.76,11.9,2.64,17.84l4.2,28.31c.32,2.18.65,4.37.97,6.55.15,1,1.42,1.56,2.31,1.31,1.07-.3,1.46-1.3,1.31-2.31-.88-5.95-1.76-11.9-2.64-17.84l-4.2-28.31c-.32-2.18-.65-4.37-.97-6.55-.15-1-1.42-1.56-2.31-1.31-1.07.3-1.46,1.3-1.31,2.31h0Z"/><path class="cls-3" d="m116.87,25.73c-1.22,7.83-2.44,15.67-3.67,23.5l-5.84,37.46c-.45,2.87-.9,5.74-1.34,8.61-.16,1.01.26,2.01,1.31,2.31.89.25,2.15-.31,2.31-1.31,1.22-7.83,2.44-15.67,3.67-23.5l5.84-37.46c.45-2.87.9-5.74,1.34-8.61.16-1.01-.26-2.01-1.31-2.31-.89-.25-2.15.31-2.31,1.31h0Z"/><path class="cls-3" d="m143.03,26.73c1.22,7.83,2.44,15.67,3.67,23.5l5.84,37.46c.45,2.87.9,5.74,1.34,8.61.16,1,1.41,1.56,2.31,1.31,1.07-.3,1.47-1.3,1.31-2.31-1.22-7.83-2.44-15.67-3.67-23.5l-5.84-37.46c-.45-2.87-.9-5.74-1.34-8.61-.16-1-1.41-1.56-2.31-1.31-1.07.3-1.47,1.3-1.31,2.31h0Z"/></g></svg>