<svg width="975" height="800" viewBox="0 0 975 800" fill="none" xmlns="http://www.w3.org/2000/svg">
<rect width="975" height="800" fill="white"/>
<rect y="400" width="975" height="400" fill="#3E2517"/>
<g clip-path="url(#clip0_650_37668)">
<path d="M191.195 672.833C183.557 672.833 177.711 670.822 173.688 666.802C169.649 662.781 166.364 656.859 163.818 649.022L125 526.811H142.507L178.151 644.263C179.848 649.776 182.284 653.577 185.474 655.697C188.665 657.817 191.949 658.87 195.344 658.87H200.75L243.089 526.811H256.463L207.759 672.833H191.211H191.195Z" fill="white"/>
<path d="M590 696C609.708 631.667 629.415 567.333 649.123 503H662.497C642.758 567.333 623.035 631.667 603.296 696H590Z" fill="white"/>
<path d="M443.057 526.811V662.357H541.72V672.833H426.508V535.386C426.508 533.486 426.618 531.899 426.822 530.627C427.026 529.355 427.561 528.397 428.409 527.769C429.258 527.14 430.735 526.811 432.857 526.811H443.041H443.057Z" fill="white"/>
<path d="M550.789 599.5C550.789 581.94 552.911 568.071 557.154 557.909C561.397 547.747 567.228 540.24 574.661 535.371C582.079 530.502 590.519 527.392 599.964 526.01C609.409 524.628 619.326 523.952 629.73 523.952C640.133 523.952 650.144 524.737 659.165 526.34C668.186 527.926 676.138 531.161 683.038 536.015C689.937 540.884 695.296 548.391 699.115 558.553C702.934 568.715 704.851 582.364 704.851 599.5C704.851 616.636 702.73 630.928 698.486 641.09C694.243 651.252 688.412 658.76 680.979 663.629C673.545 668.498 665.122 671.624 655.676 672.99C646.231 674.372 636.315 675.048 625.911 675.048C615.507 675.048 605.433 674.247 596.318 672.66C587.187 671.074 579.235 667.854 572.445 662.969C565.656 658.1 560.344 650.593 556.525 640.431C552.706 630.269 550.789 616.62 550.789 599.484V599.5ZM687.972 599.814C687.972 585.427 686.589 573.836 683.839 565.056C681.073 556.276 677.097 549.663 671.911 545.219C666.709 540.774 660.391 537.821 652.973 536.329C645.54 534.852 637.053 534.098 627.514 534.098C617.974 534.098 609.802 534.837 602.368 536.329C594.935 537.805 588.633 540.774 583.431 545.219C578.229 549.663 574.3 556.276 571.66 565.056C569.004 573.836 567.684 585.427 567.684 599.814C567.684 614.201 569.004 625.745 571.66 634.415C574.316 643.101 578.229 649.65 583.431 654.095C588.633 658.54 594.935 661.509 602.368 662.985C609.786 664.461 618.178 665.215 627.514 665.215C636.849 665.215 645.54 664.477 652.973 662.985C660.391 661.509 666.709 658.54 671.911 654.095C677.113 649.65 681.089 643.101 683.839 634.415C686.589 625.745 687.972 614.201 687.972 599.814Z" fill="white"/>
<path d="M825.626 609.662H789.825C778.887 609.662 766.535 609.772 752.752 609.976V672.833H736.203V542.36C736.203 536.219 737.523 532.151 740.179 530.141C742.835 528.13 746.906 527.015 752.438 526.811C755.628 526.607 759.604 526.497 764.366 526.497C769.128 526.497 774.503 526.45 780.443 526.34C786.384 526.23 792.434 526.183 798.579 526.183H816.244C821.87 526.183 826.962 526.293 831.52 526.497C836.077 526.717 839.739 526.921 842.505 527.125C853.537 528.193 861.49 531.947 866.377 538.386C871.249 544.842 873.701 553.999 873.701 565.841C873.701 574.935 872.271 582.396 869.41 588.223C866.55 594.05 862.354 598.338 856.838 601.086C856.413 601.51 855.612 601.825 854.449 602.044C853.286 602.264 852.264 602.359 851.431 602.359V602.987H855.565C863.627 604.463 868.499 607.699 870.212 612.678C871.909 617.657 872.758 622.683 872.758 627.756V666.488C872.758 667.964 872.915 669.346 873.229 670.619C873.544 671.891 873.811 672.629 874.031 672.849H862.888C860.767 672.849 859.022 672.425 857.639 671.577C856.256 670.728 855.565 668.404 855.565 664.587V627.756C855.565 621.206 854.135 616.541 851.274 613.793C848.414 611.044 843.369 609.662 836.156 609.662H825.658H825.626ZM752.736 599.5C756.131 599.5 761.223 599.547 768.012 599.657C774.801 599.767 782.219 599.877 790.297 599.971C798.359 600.081 805.777 600.128 812.582 600.128H827.543C835.181 600.128 841.923 597.804 847.754 593.139C853.585 588.49 856.508 579.914 856.508 567.428C856.508 558.758 854.81 551.831 851.416 546.632C848.021 541.449 842.615 538.544 835.181 537.9C830.514 537.271 824.683 536.847 817.674 536.627C810.665 536.423 803.404 536.36 795.876 536.47C788.348 536.58 781.449 536.69 775.194 536.784C768.939 536.894 764.099 537.051 760.72 537.256C760.091 537.256 758.598 537.633 756.272 538.371C753.931 539.109 752.768 541.386 752.768 545.203V599.484L752.736 599.5Z" fill="white"/>
<path d="M284.453 553.386C287.91 552.146 288.162 549.523 291.823 547.025C294.149 545.439 296.302 544.968 298.754 544.418C308.121 542.36 319.012 546.067 331.019 546.004C345.116 545.941 355.897 540.711 364.918 543.837C369.617 545.47 371.848 547.01 371.848 547.01C375.809 549.774 376.39 552.224 379.722 553.056C380.068 553.135 383.541 553.952 385.882 552.036C388.397 549.978 388.633 545.533 387.25 542.517C384.311 536.172 373.498 534.837 367.872 534.13C362.592 533.471 360.643 534.099 356.085 532.544C351.591 531.005 351.103 529.575 346.86 527.659C340.259 524.675 334.115 524.801 329.997 524.879C326.351 524.958 320.175 525.083 313.59 528.178C310.321 529.717 308.954 531.036 304.663 532.528C300.86 533.848 298.911 533.863 295.375 534.554C288.586 535.874 279.266 537.68 276.673 543.538C275.259 546.727 275.762 551.313 278.339 553.088C280.634 554.659 283.918 553.543 284.468 553.355L284.453 553.386Z" fill="#BAC684"/>
<path d="M331.003 604.102C310.698 603.945 292.468 597.851 288.571 596.516H288.539C288.602 594.38 288.649 592.244 288.712 590.092C293.317 588.742 297.921 587.375 302.542 586.024C312.254 586.056 322.029 586.103 331.836 586.181C341.659 586.26 351.418 586.37 361.13 586.511C365.861 588.035 370.591 589.558 375.322 591.098C375.479 594.27 375.558 596.768 375.432 596.768C375.432 596.768 354.153 604.307 331.003 604.118V604.102Z" fill="#BAC684"/>
<path d="M297.828 626.829H366.491" stroke="#BAC684" stroke-width="2"/>
<path d="M283.605 634.022H379.268" stroke="#BAC684" stroke-width="2"/>
<path d="M283.605 634.023L297.828 626.829" stroke="#BAC684" stroke-width="2"/>
<path d="M379.265 634.023L366.488 626.829" stroke="#BAC684" stroke-width="2"/>
<path d="M288.619 587.249C287.236 596.595 285.853 605.94 284.47 615.27C282.27 630.096 280.069 644.923 277.869 659.734C277.366 663.158 276.848 666.598 276.345 670.022C276.109 671.608 276.738 673.163 278.403 673.65C279.786 674.043 281.798 673.163 282.034 671.593C283.417 662.247 284.8 652.902 286.183 643.572C288.383 628.746 290.583 613.919 292.783 599.108C293.286 595.684 293.805 592.244 294.308 588.82C294.544 587.234 293.915 585.679 292.249 585.192C290.866 584.799 288.854 585.679 288.619 587.249Z" fill="#BAC684"/>
<path d="M370.181 589.181C371.564 598.527 372.947 607.872 374.33 617.201L380.931 661.666C381.434 665.09 381.953 668.53 382.455 671.954C382.691 673.525 384.687 674.404 386.086 674.011C387.767 673.54 388.38 671.97 388.145 670.383C386.762 661.038 385.379 651.693 383.996 642.363L377.395 597.898C376.892 594.474 376.373 591.035 375.87 587.611C375.635 586.04 373.639 585.16 372.24 585.553C370.559 586.024 369.946 587.595 370.181 589.181Z" fill="#BAC684"/>
<path d="M308.67 543.412C306.753 555.711 304.835 568.024 302.902 580.322L293.724 639.159C293.017 643.666 292.31 648.174 291.618 652.682C291.367 654.268 292.027 655.839 293.677 656.31C295.076 656.703 297.056 655.823 297.307 654.252C299.225 641.954 301.142 629.64 303.075 617.342L312.253 558.506C312.96 553.999 313.668 549.491 314.359 544.983C314.61 543.397 313.95 541.826 312.3 541.355C310.902 540.962 308.921 541.842 308.67 543.412Z" fill="#BAC684"/>
<path d="M349.784 544.983C351.701 557.281 353.619 569.595 355.552 581.893L364.73 640.729C365.437 645.237 366.144 649.745 366.836 654.252C367.087 655.823 369.051 656.703 370.466 656.31C372.147 655.839 372.776 654.268 372.525 652.682C370.607 640.384 368.69 628.07 366.757 615.772L357.579 556.936C356.872 552.428 356.164 547.92 355.473 543.412C355.222 541.842 353.257 540.962 351.843 541.355C350.161 541.826 349.532 543.397 349.784 544.983Z" fill="#BAC684"/>
</g>
<g clip-path="url(#clip1_650_37668)">
<path d="M191.195 272.833C183.557 272.833 177.711 270.822 173.688 266.802C169.649 262.781 166.364 256.859 163.818 249.022L125 126.811H142.507L178.151 244.263C179.848 249.776 182.284 253.577 185.474 255.697C188.665 257.817 191.949 258.87 195.344 258.87H200.75L243.089 126.811H256.463L207.759 272.833H191.211H191.195Z" fill="#3E2517"/>
<path d="M590 296C609.708 231.667 629.415 167.333 649.123 103H662.497C642.758 167.333 623.035 231.667 603.296 296H590Z" fill="#3E2517"/>
<path d="M443.057 126.811V262.357H541.72V272.833H426.508V135.386C426.508 133.486 426.618 131.899 426.822 130.627C427.026 129.355 427.561 128.397 428.409 127.769C429.258 127.14 430.735 126.811 432.857 126.811H443.041H443.057Z" fill="#3E2517"/>
<path d="M550.789 199.5C550.789 181.94 552.911 168.071 557.154 157.909C561.397 147.747 567.228 140.24 574.661 135.371C582.079 130.502 590.519 127.392 599.964 126.01C609.409 124.628 619.326 123.952 629.73 123.952C640.133 123.952 650.144 124.737 659.165 126.34C668.186 127.926 676.138 131.161 683.038 136.015C689.937 140.884 695.296 148.391 699.115 158.553C702.934 168.715 704.851 182.364 704.851 199.5C704.851 216.636 702.73 230.928 698.486 241.09C694.243 251.252 688.412 258.76 680.979 263.629C673.545 268.498 665.122 271.624 655.676 272.99C646.231 274.372 636.315 275.048 625.911 275.048C615.507 275.048 605.433 274.247 596.318 272.66C587.187 271.074 579.235 267.854 572.445 262.969C565.656 258.1 560.344 250.593 556.525 240.431C552.706 230.269 550.789 216.62 550.789 199.484V199.5ZM687.972 199.814C687.972 185.427 686.589 173.836 683.839 165.056C681.073 156.276 677.097 149.663 671.911 145.219C666.709 140.774 660.391 137.821 652.973 136.329C645.54 134.852 637.053 134.098 627.514 134.098C617.974 134.098 609.802 134.837 602.368 136.329C594.935 137.805 588.633 140.774 583.431 145.219C578.229 149.663 574.3 156.276 571.66 165.056C569.004 173.836 567.684 185.427 567.684 199.814C567.684 214.201 569.004 225.745 571.66 234.415C574.316 243.101 578.229 249.65 583.431 254.095C588.633 258.54 594.935 261.509 602.368 262.985C609.786 264.461 618.178 265.215 627.514 265.215C636.849 265.215 645.54 264.477 652.973 262.985C660.391 261.509 666.709 258.54 671.911 254.095C677.113 249.65 681.089 243.101 683.839 234.415C686.589 225.745 687.972 214.201 687.972 199.814Z" fill="#3E2517"/>
<path d="M825.626 209.662H789.825C778.887 209.662 766.535 209.772 752.752 209.976V272.833H736.203V142.36C736.203 136.219 737.523 132.151 740.179 130.141C742.835 128.13 746.906 127.015 752.438 126.811C755.628 126.607 759.604 126.497 764.366 126.497C769.128 126.497 774.503 126.45 780.443 126.34C786.384 126.23 792.434 126.183 798.579 126.183H816.244C821.87 126.183 826.962 126.293 831.52 126.497C836.077 126.717 839.739 126.921 842.505 127.125C853.537 128.193 861.49 131.947 866.377 138.386C871.249 144.842 873.701 153.999 873.701 165.841C873.701 174.935 872.271 182.396 869.41 188.223C866.55 194.05 862.354 198.338 856.838 201.086C856.413 201.51 855.612 201.825 854.449 202.044C853.286 202.264 852.264 202.359 851.431 202.359V202.987H855.565C863.627 204.463 868.499 207.699 870.212 212.678C871.909 217.657 872.758 222.683 872.758 227.756V266.488C872.758 267.964 872.915 269.346 873.229 270.619C873.544 271.891 873.811 272.629 874.031 272.849H862.888C860.767 272.849 859.022 272.425 857.639 271.577C856.256 270.728 855.565 268.404 855.565 264.587V227.756C855.565 221.206 854.135 216.541 851.274 213.793C848.414 211.044 843.369 209.662 836.156 209.662H825.658H825.626ZM752.736 199.5C756.131 199.5 761.223 199.547 768.012 199.657C774.801 199.767 782.219 199.877 790.297 199.971C798.359 200.081 805.777 200.128 812.582 200.128H827.543C835.181 200.128 841.923 197.804 847.754 193.139C853.585 188.49 856.508 179.914 856.508 167.428C856.508 158.758 854.81 151.831 851.416 146.632C848.021 141.449 842.615 138.544 835.181 137.9C830.514 137.271 824.683 136.847 817.674 136.627C810.665 136.423 803.404 136.36 795.876 136.47C788.348 136.58 781.449 136.69 775.194 136.784C768.939 136.894 764.099 137.051 760.72 137.256C760.091 137.256 758.598 137.633 756.272 138.371C753.931 139.109 752.768 141.386 752.768 145.203V199.484L752.736 199.5Z" fill="#3E2517"/>
<path d="M284.453 153.386C287.91 152.146 288.162 149.523 291.823 147.025C294.149 145.439 296.302 144.968 298.754 144.418C308.121 142.36 319.012 146.067 331.019 146.004C345.116 145.941 355.897 140.711 364.918 143.837C369.617 145.47 371.848 147.01 371.848 147.01C375.809 149.774 376.39 152.224 379.722 153.056C380.068 153.135 383.541 153.952 385.882 152.036C388.397 149.978 388.633 145.533 387.25 142.517C384.311 136.172 373.498 134.837 367.872 134.13C362.592 133.471 360.643 134.099 356.085 132.544C351.591 131.005 351.103 129.575 346.86 127.659C340.259 124.675 334.115 124.801 329.997 124.879C326.351 124.958 320.175 125.083 313.59 128.178C310.321 129.717 308.954 131.036 304.663 132.528C300.86 133.848 298.911 133.863 295.375 134.554C288.586 135.874 279.266 137.68 276.673 143.538C275.259 146.727 275.762 151.313 278.339 153.088C280.634 154.659 283.918 153.543 284.468 153.355L284.453 153.386Z" fill="#BAC684"/>
<path d="M331.003 204.102C310.698 203.945 292.468 197.851 288.571 196.516H288.539C288.602 194.38 288.649 192.244 288.712 190.092C293.317 188.742 297.921 187.375 302.542 186.024C312.254 186.056 322.029 186.103 331.836 186.181C341.659 186.26 351.418 186.37 361.13 186.511C365.861 188.035 370.591 189.558 375.322 191.098C375.479 194.27 375.558 196.768 375.432 196.768C375.432 196.768 354.153 204.307 331.003 204.118V204.102Z" fill="#BAC684"/>
<path d="M297.828 226.829H366.491" stroke="#BAC684" stroke-width="2"/>
<path d="M283.605 234.022H379.268" stroke="#BAC684" stroke-width="2"/>
<path d="M283.605 234.023L297.828 226.829" stroke="#BAC684" stroke-width="2"/>
<path d="M379.265 234.023L366.488 226.829" stroke="#BAC684" stroke-width="2"/>
<path d="M288.619 187.249C287.236 196.595 285.853 205.94 284.47 215.27C282.27 230.096 280.069 244.923 277.869 259.734C277.366 263.158 276.848 266.598 276.345 270.022C276.109 271.608 276.738 273.163 278.403 273.65C279.786 274.043 281.798 273.163 282.034 271.593C283.417 262.247 284.8 252.902 286.183 243.572C288.383 228.746 290.583 213.919 292.783 199.108C293.286 195.684 293.805 192.244 294.308 188.82C294.544 187.234 293.915 185.679 292.249 185.192C290.866 184.799 288.854 185.679 288.619 187.249Z" fill="#BAC684"/>
<path d="M370.181 189.181C371.564 198.527 372.947 207.872 374.33 217.201L380.931 261.666C381.434 265.09 381.953 268.53 382.455 271.954C382.691 273.525 384.687 274.404 386.086 274.011C387.767 273.54 388.38 271.97 388.145 270.383C386.762 261.038 385.379 251.693 383.996 242.363L377.395 197.898C376.892 194.474 376.373 191.035 375.87 187.611C375.635 186.04 373.639 185.16 372.24 185.553C370.559 186.024 369.946 187.595 370.181 189.181Z" fill="#BAC684"/>
<path d="M308.67 143.412C306.753 155.711 304.835 168.024 302.902 180.322L293.724 239.159C293.017 243.666 292.31 248.174 291.618 252.682C291.367 254.268 292.027 255.839 293.677 256.31C295.076 256.703 297.056 255.823 297.307 254.252C299.225 241.954 301.142 229.64 303.075 217.342L312.253 158.506C312.96 153.999 313.668 149.491 314.359 144.983C314.61 143.397 313.95 141.826 312.3 141.355C310.902 140.962 308.921 141.842 308.67 143.412Z" fill="#BAC684"/>
<path d="M349.784 144.983C351.701 157.281 353.619 169.595 355.552 181.893L364.73 240.729C365.437 245.237 366.144 249.745 366.836 254.252C367.087 255.823 369.051 256.703 370.466 256.31C372.147 255.839 372.776 254.268 372.525 252.682C370.607 240.384 368.69 228.07 366.757 215.772L357.579 156.936C356.872 152.428 356.164 147.92 355.473 143.412C355.222 141.842 353.257 140.962 351.843 141.355C350.161 141.826 349.532 143.397 349.784 144.983Z" fill="#BAC684"/>
</g>
<defs>
<clipPath id="clip0_650_37668">
<rect width="749" height="193" fill="white" transform="translate(125 503)"/>
</clipPath>
<clipPath id="clip1_650_37668">
<rect width="749" height="193" fill="white" transform="translate(125 103)"/>
</clipPath>
</defs>
</svg>
