<svg width="1184" height="498" viewBox="0 0 1184 498" fill="none" xmlns="http://www.w3.org/2000/svg">
<path d="M387.062 177.625H401.125V262H387.062V177.625ZM401.125 163.562H387.062V149.5H401.125V163.562ZM473.781 187C468.312 187 463.576 187.171 459.572 187.513C455.617 187.854 452.248 188.465 449.465 189.344C446.682 190.223 444.411 191.443 442.653 193.006C440.944 194.568 439.602 196.57 438.625 199.012C437.697 201.453 437.062 204.407 436.721 207.874C436.428 211.292 436.281 215.32 436.281 219.959C436.281 224.549 436.428 228.553 436.721 231.971C437.062 235.34 437.697 238.245 438.625 240.687C439.602 243.079 440.944 245.057 442.653 246.619C444.411 248.182 446.682 249.402 449.465 250.281C452.248 251.16 455.617 251.771 459.572 252.112C463.576 252.454 468.312 252.625 473.781 252.625C478.469 252.625 482.644 252.527 486.306 252.332C489.968 252.088 493.19 251.6 495.974 250.867C498.757 250.086 501.101 248.987 503.005 247.571C504.958 246.106 506.545 244.178 507.766 241.785C508.986 239.344 509.865 236.341 510.402 232.776C510.988 229.163 511.281 224.817 511.281 219.739C511.281 214.661 510.988 210.315 510.402 206.702C509.865 203.089 508.986 200.086 507.766 197.693C506.545 195.252 504.958 193.323 503.005 191.907C501.101 190.491 498.757 189.417 495.974 188.685C493.19 187.952 489.968 187.488 486.306 187.293C482.644 187.098 478.469 187 473.781 187ZM525.344 250.281C525.344 258.484 524.416 265.296 522.561 270.716C520.705 276.136 517.727 280.506 513.625 283.826C509.523 287.195 504.201 289.539 497.658 290.857C491.115 292.176 483.156 292.835 473.781 292.835C464.992 292.835 457.595 292.444 451.589 291.663C445.632 290.882 440.822 289.637 437.16 287.928C433.498 286.268 430.861 284.095 429.25 281.409C427.688 278.772 426.906 275.55 426.906 271.741H440.969C440.969 273.646 441.457 275.208 442.434 276.429C443.459 277.649 445.217 278.602 447.707 279.285C450.197 279.969 453.542 280.433 457.741 280.677C461.989 280.97 467.336 281.116 473.781 281.116C480.812 281.116 486.721 280.848 491.506 280.311C496.291 279.822 500.148 278.626 503.078 276.722C506.008 274.817 508.107 271.937 509.377 268.079C510.646 264.222 511.281 259.07 511.281 252.625C510.598 253.797 509.499 255.066 507.985 256.434C506.521 257.801 504.348 259.07 501.467 260.242C498.635 261.414 494.973 262.391 490.48 263.172C485.988 263.953 480.422 264.344 473.781 264.344C464.406 264.344 456.447 263.636 449.904 262.22C443.361 260.853 438.039 258.484 433.938 255.115C429.836 251.746 426.857 247.205 425.002 241.492C423.146 235.779 422.219 228.602 422.219 219.959C422.219 211.17 423.146 203.895 425.002 198.133C426.857 192.371 429.836 187.806 433.938 184.437C438.039 181.067 443.361 178.699 449.904 177.332C456.447 175.965 464.406 175.281 473.781 175.281C480.422 175.281 485.988 175.623 490.48 176.307C494.973 176.99 498.635 177.845 501.467 178.87C504.348 179.896 506.521 181.019 507.985 182.239C509.499 183.411 510.598 184.485 511.281 185.462V177.625H525.344V250.281ZM548.781 177.625H562.844V262H548.781V177.625ZM562.844 163.562H548.781V149.5H562.844V163.562ZM668.312 224.5C668.312 231.678 667.727 237.684 666.555 242.518C665.383 247.303 663.405 251.136 660.622 254.017C657.888 256.897 654.274 258.948 649.782 260.169C645.29 261.39 639.748 262 633.156 262C626.76 262 621.389 261.512 617.043 260.535C612.697 259.559 609.182 257.898 606.496 255.555C603.811 253.211 601.882 250.086 600.71 246.18C599.538 242.273 598.952 237.391 598.952 231.531V189.197H581.594V177.625H598.952V154.554H613.015V177.625H665.969V189.197H613.015V231.531C613.015 236.219 613.356 239.832 614.04 242.371C614.772 244.91 615.92 246.766 617.482 247.938C619.045 249.109 621.096 249.793 623.635 249.988C626.223 250.184 629.372 250.281 633.083 250.281C636.013 250.281 638.625 250.232 640.92 250.135C643.264 250.037 645.29 249.744 646.999 249.256C648.757 248.719 650.246 247.938 651.467 246.912C652.688 245.838 653.664 244.349 654.396 242.444C655.178 240.54 655.739 238.147 656.081 235.267C656.423 232.337 656.594 228.748 656.594 224.5H668.312ZM766.384 250.428C766.237 251.014 765.139 252.479 763.088 254.822C761.623 256.58 759.67 258.143 757.229 259.51C754.787 260.828 751.516 261.854 747.414 262.586C743.361 263.367 738.015 263.758 731.374 263.758C722.536 263.758 714.992 263.294 708.742 262.366C702.492 261.487 697.39 260.12 693.435 258.265C689.479 256.36 686.574 253.943 684.719 251.014C682.912 248.084 682.009 244.593 682.009 240.54C682.009 236.292 682.497 232.703 683.474 229.773C684.499 226.795 685.964 224.305 687.868 222.303C689.821 220.301 692.165 218.738 694.899 217.615C697.634 216.492 700.734 215.638 704.201 215.052C707.717 214.466 711.55 214.1 715.7 213.953C719.851 213.807 724.27 213.733 728.957 213.733C735.646 213.733 741.237 214.026 745.729 214.612C750.222 215.149 753.884 215.857 756.716 216.736C759.597 217.566 761.77 218.47 763.234 219.446C764.699 220.423 765.749 221.326 766.384 222.156C766.384 216.688 766.14 212.024 765.651 208.167C765.212 204.31 764.455 201.087 763.381 198.499C762.355 195.911 761.013 193.86 759.353 192.347C757.692 190.784 755.642 189.612 753.2 188.831C750.808 188.05 748 187.562 744.777 187.366C741.555 187.122 737.868 187 733.718 187C727.272 187 721.926 187.171 717.678 187.513C713.43 187.806 710.061 188.416 707.57 189.344C705.08 190.271 703.322 191.565 702.297 193.226C701.271 194.837 700.759 196.961 700.759 199.598H686.696C686.696 195.154 687.478 191.395 689.04 188.318C690.651 185.242 693.288 182.752 696.95 180.848C700.661 178.895 705.52 177.479 711.525 176.6C717.531 175.721 724.929 175.281 733.718 175.281C742.312 175.281 749.587 175.989 755.544 177.405C761.501 178.821 766.311 181.312 769.973 184.876C773.684 188.44 776.345 193.25 777.956 199.305C779.616 205.311 780.446 212.928 780.446 222.156V262H766.384V250.428ZM733.718 252.625C739.919 252.625 745.095 252.332 749.245 251.746C753.444 251.16 756.813 250.281 759.353 249.109C761.892 247.938 763.698 246.473 764.772 244.715C765.847 242.957 766.384 240.906 766.384 238.562C766.384 236.219 765.749 234.241 764.479 232.63C763.259 230.97 761.184 229.627 758.254 228.602C755.373 227.576 751.54 226.844 746.755 226.404C741.97 225.916 736.062 225.672 729.03 225.672C721.999 225.672 716.311 225.794 711.965 226.038C707.668 226.282 704.348 226.844 702.004 227.723C699.66 228.602 698.073 229.896 697.243 231.604C696.462 233.313 696.071 235.633 696.071 238.562C696.071 241.492 696.486 243.885 697.316 245.74C698.195 247.547 699.953 248.963 702.59 249.988C705.227 251.014 709.011 251.722 713.942 252.112C718.923 252.454 725.515 252.625 733.718 252.625ZM803.957 149.5H818.02V262H803.957V149.5Z" fill="black"/>
<path d="M430.594 406.611C421.219 406.611 413.26 405.977 406.717 404.707C400.174 403.389 394.852 401.143 390.75 397.969C386.648 394.795 383.67 390.547 381.814 385.225C379.959 379.902 379.031 373.213 379.031 365.156C379.031 355.928 379.959 348.311 381.814 342.305C383.67 336.25 386.648 331.44 390.75 327.876C394.852 324.312 400.174 321.821 406.717 320.405C413.26 318.989 421.219 318.281 430.594 318.281C437.283 318.281 443.069 318.77 447.952 319.746C452.884 320.723 457.083 322.139 460.55 323.994C464.065 325.85 466.897 328.096 469.046 330.732C471.243 333.369 472.952 336.152 474.173 339.082C475.442 341.963 476.297 345.356 476.736 349.263C477.225 353.169 477.469 357.295 477.469 361.641L476.297 366.328H393.094C393.094 372.773 393.729 378.071 394.998 382.222C396.268 386.323 398.367 389.326 401.297 391.23C404.227 393.135 408.084 394.355 412.869 394.893C417.654 395.381 423.562 395.625 430.594 395.625C437.039 395.625 442.361 395.454 446.561 395.112C450.809 394.722 454.178 394.014 456.668 392.988C459.158 391.963 460.892 390.547 461.868 388.74C462.894 386.885 463.406 384.492 463.406 381.562H477.469C477.469 386.104 476.663 389.985 475.052 393.208C473.489 396.382 470.877 398.97 467.215 400.972C463.553 402.925 458.719 404.341 452.713 405.22C446.756 406.147 439.383 406.611 430.594 406.611ZM430.594 330C425.906 330 421.707 330.098 417.996 330.293C414.334 330.488 411.111 330.928 408.328 331.611C405.594 332.246 403.25 333.198 401.297 334.468C399.344 335.688 397.757 337.153 396.536 338.862C395.364 340.522 394.485 342.891 393.899 345.967C393.362 348.994 393.094 352.656 393.094 356.953H463.406C463.406 351.24 462.796 346.772 461.575 343.55C460.354 340.278 458.426 337.593 455.789 335.493C453.152 333.394 449.759 331.953 445.608 331.172C441.458 330.391 436.453 330 430.594 330ZM545.438 366.548C550.906 366.548 555.569 366.646 559.427 366.841C563.284 366.987 566.507 367.28 569.095 367.72C571.731 368.11 573.807 368.623 575.32 369.258C576.834 369.893 577.981 370.845 578.763 372.114C579.544 373.335 580.032 374.58 580.228 375.85C580.472 377.07 580.594 378.486 580.594 380.098C580.594 381.855 580.472 383.467 580.228 384.932C580.032 386.348 579.52 387.642 578.689 388.813C577.859 389.985 576.639 390.986 575.027 391.816C573.416 392.646 571.219 393.354 568.436 393.94C565.652 394.526 562.186 394.966 558.035 395.259C553.934 395.503 548.953 395.625 543.094 395.625C536.648 395.625 531.302 395.454 527.054 395.112C522.854 394.722 519.51 394.014 517.02 392.988C514.529 391.963 512.771 390.547 511.746 388.74C510.77 386.885 510.281 384.492 510.281 381.562H496.219C496.219 386.006 497 389.766 498.562 392.842C500.174 395.918 502.811 398.433 506.473 400.386C510.135 402.29 514.944 403.682 520.901 404.561C526.907 405.439 534.305 405.879 543.094 405.879C550.125 405.879 556.277 405.659 561.551 405.22C566.873 404.829 571.438 404.219 575.247 403.389C579.056 402.51 582.205 401.387 584.695 400.02C587.234 398.604 589.236 396.943 590.701 395.039C592.166 393.086 593.191 390.864 593.777 388.374C594.363 385.835 594.656 382.979 594.656 379.805C594.656 376.631 594.363 373.848 593.777 371.455C593.191 369.014 592.166 366.914 590.701 365.156C589.285 363.35 587.381 361.689 584.988 360.176C582.596 358.662 579.568 357.539 575.906 356.807C572.244 356.074 567.898 355.562 562.869 355.269C557.889 354.976 552.078 354.829 545.438 354.829C539.969 354.829 535.306 354.829 531.448 354.829C527.591 354.78 524.344 354.634 521.707 354.39C519.119 354.097 517.068 353.682 515.555 353.145C514.041 352.607 512.894 351.826 512.112 350.801C511.331 349.775 510.818 348.481 510.574 346.919C510.379 345.308 510.281 343.672 510.281 342.012C510.281 339.18 510.916 336.958 512.186 335.347C513.455 333.735 515.555 332.539 518.484 331.758C521.414 330.977 525.271 330.488 530.057 330.293C534.842 330.098 540.75 330 547.781 330C554.227 330 559.549 330.195 563.748 330.586C567.996 330.928 571.365 331.587 573.855 332.563C576.346 333.491 578.079 334.785 579.056 336.445C580.081 338.105 580.594 340.254 580.594 342.891H594.656C594.656 338.643 593.948 334.98 592.532 331.904C591.116 328.828 588.626 326.289 585.062 324.287C581.546 322.236 576.761 320.723 570.706 319.746C564.7 318.77 557.059 318.281 547.781 318.281C538.406 318.281 530.447 318.696 523.904 319.526C517.361 320.356 512.039 321.724 507.938 323.628C503.836 325.483 500.857 327.925 499.002 330.952C497.146 333.931 496.219 337.617 496.219 342.012C496.219 345.234 496.512 348.237 497.098 351.021C497.684 353.755 498.685 356.074 500.101 357.979C501.517 359.834 503.421 361.323 505.813 362.446C508.255 363.569 511.282 364.448 514.896 365.083C518.558 365.669 522.903 366.06 527.933 366.255C532.962 366.45 538.797 366.548 545.438 366.548ZM618.094 320.625H632.156V405H618.094V320.625ZM632.156 306.562H618.094V292.5H632.156V306.562ZM704.812 330C699.344 330 694.607 330.171 690.604 330.513C686.648 330.854 683.279 331.465 680.496 332.344C677.713 333.223 675.442 334.443 673.685 336.006C671.976 337.568 670.633 339.57 669.656 342.012C668.729 344.453 668.094 347.407 667.752 350.874C667.459 354.292 667.312 358.32 667.312 362.959C667.312 367.549 667.459 371.553 667.752 374.971C668.094 378.34 668.729 381.245 669.656 383.687C670.633 386.079 671.976 388.057 673.685 389.619C675.442 391.182 677.713 392.402 680.496 393.281C683.279 394.16 686.648 394.771 690.604 395.112C694.607 395.454 699.344 395.625 704.812 395.625C709.5 395.625 713.675 395.527 717.337 395.332C720.999 395.088 724.222 394.6 727.005 393.867C729.788 393.086 732.132 391.987 734.036 390.571C735.989 389.106 737.576 387.178 738.797 384.785C740.018 382.344 740.896 379.341 741.434 375.776C742.02 372.163 742.312 367.817 742.312 362.739C742.312 357.661 742.02 353.315 741.434 349.702C740.896 346.089 740.018 343.086 738.797 340.693C737.576 338.252 735.989 336.323 734.036 334.907C732.132 333.491 729.788 332.417 727.005 331.685C724.222 330.952 720.999 330.488 717.337 330.293C713.675 330.098 709.5 330 704.812 330ZM756.375 393.281C756.375 401.484 755.447 408.296 753.592 413.716C751.736 419.136 748.758 423.506 744.656 426.826C740.555 430.195 735.232 432.539 728.689 433.857C722.146 435.176 714.188 435.835 704.812 435.835C696.023 435.835 688.626 435.444 682.62 434.663C676.663 433.882 671.854 432.637 668.191 430.928C664.529 429.268 661.893 427.095 660.281 424.409C658.719 421.772 657.938 418.55 657.938 414.741H672C672 416.646 672.488 418.208 673.465 419.429C674.49 420.649 676.248 421.602 678.738 422.285C681.229 422.969 684.573 423.433 688.772 423.677C693.021 423.97 698.367 424.116 704.812 424.116C711.844 424.116 717.752 423.848 722.537 423.311C727.322 422.822 731.18 421.626 734.109 419.722C737.039 417.817 739.139 414.937 740.408 411.079C741.678 407.222 742.312 402.07 742.312 395.625C741.629 396.797 740.53 398.066 739.017 399.434C737.552 400.801 735.379 402.07 732.498 403.242C729.666 404.414 726.004 405.391 721.512 406.172C717.02 406.953 711.453 407.344 704.812 407.344C695.438 407.344 687.479 406.636 680.936 405.22C674.393 403.853 669.07 401.484 664.969 398.115C660.867 394.746 657.889 390.205 656.033 384.492C654.178 378.779 653.25 371.602 653.25 362.959C653.25 354.17 654.178 346.895 656.033 341.133C657.889 335.371 660.867 330.806 664.969 327.437C669.07 324.067 674.393 321.699 680.936 320.332C687.479 318.965 695.438 318.281 704.812 318.281C711.453 318.281 717.02 318.623 721.512 319.307C726.004 319.99 729.666 320.845 732.498 321.87C735.379 322.896 737.552 324.019 739.017 325.239C740.53 326.411 741.629 327.485 742.312 328.462V320.625H756.375V393.281ZM859.5 405V358.125C859.5 352.9 859.109 348.506 858.328 344.941C857.547 341.328 855.984 338.423 853.641 336.226C851.297 334.028 847.977 332.441 843.68 331.465C839.383 330.488 833.719 330 826.688 330C819.07 330 812.82 330.562 807.938 331.685C803.104 332.808 799.295 334.395 796.512 336.445C793.729 338.496 791.8 340.962 790.726 343.843C789.7 346.724 789.188 349.922 789.188 353.438V405H775.125V320.625H789.188V334.688C790.213 332.295 791.678 330.244 793.582 328.535C795.486 326.777 797.635 325.288 800.027 324.067C802.42 322.847 805.008 321.87 807.791 321.138C810.574 320.356 813.357 319.771 816.141 319.38C818.924 318.94 821.609 318.647 824.197 318.501C826.834 318.354 829.227 318.281 831.375 318.281C837.625 318.281 842.996 318.672 847.488 319.453C852.029 320.234 855.862 321.382 858.987 322.896C862.161 324.409 864.7 326.289 866.604 328.535C868.509 330.781 869.974 333.394 870.999 336.372C872.073 339.302 872.781 342.598 873.123 346.26C873.465 349.873 873.636 353.828 873.636 358.125L873.562 405H859.5ZM941.678 406.611C932.303 406.611 924.344 405.977 917.801 404.707C911.258 403.389 905.936 401.143 901.834 397.969C897.732 394.795 894.754 390.547 892.898 385.225C891.043 379.902 890.115 373.213 890.115 365.156C890.115 355.928 891.043 348.311 892.898 342.305C894.754 336.25 897.732 331.44 901.834 327.876C905.936 324.312 911.258 321.821 917.801 320.405C924.344 318.989 932.303 318.281 941.678 318.281C948.367 318.281 954.153 318.77 959.036 319.746C963.968 320.723 968.167 322.139 971.634 323.994C975.149 325.85 977.981 328.096 980.13 330.732C982.327 333.369 984.036 336.152 985.257 339.082C986.526 341.963 987.381 345.356 987.82 349.263C988.309 353.169 988.553 357.295 988.553 361.641L987.381 366.328H904.178C904.178 372.773 904.812 378.071 906.082 382.222C907.352 386.323 909.451 389.326 912.381 391.23C915.311 393.135 919.168 394.355 923.953 394.893C928.738 395.381 934.646 395.625 941.678 395.625C948.123 395.625 953.445 395.454 957.645 395.112C961.893 394.722 965.262 394.014 967.752 392.988C970.242 391.963 971.976 390.547 972.952 388.74C973.978 386.885 974.49 384.492 974.49 381.562H988.553C988.553 386.104 987.747 389.985 986.136 393.208C984.573 396.382 981.961 398.97 978.299 400.972C974.637 402.925 969.803 404.341 963.797 405.22C957.84 406.147 950.467 406.611 941.678 406.611ZM941.678 330C936.99 330 932.791 330.098 929.08 330.293C925.418 330.488 922.195 330.928 919.412 331.611C916.678 332.246 914.334 333.198 912.381 334.468C910.428 335.688 908.841 337.153 907.62 338.862C906.448 340.522 905.569 342.891 904.983 345.967C904.446 348.994 904.178 352.656 904.178 356.953H974.49C974.49 351.24 973.88 346.772 972.659 343.55C971.438 340.278 969.51 337.593 966.873 335.493C964.236 333.394 960.843 331.953 956.692 331.172C952.542 330.391 947.537 330 941.678 330ZM1079.96 348.091C1079.96 344.575 1079.69 341.67 1079.15 339.375C1078.67 337.031 1077.47 335.176 1075.56 333.809C1073.66 332.393 1070.83 331.416 1067.07 330.879C1063.36 330.293 1058.28 330 1051.83 330C1045.54 330 1040.41 330.562 1036.45 331.685C1032.5 332.759 1029.4 334.297 1027.15 336.299C1024.91 338.301 1023.37 340.693 1022.54 343.477C1021.76 346.26 1021.37 349.36 1021.37 352.778V405H1007.3V320.625H1021.37V334.028C1021.85 332.515 1022.76 330.854 1024.08 329.048C1025.39 327.192 1027.4 325.483 1030.08 323.921C1032.77 322.31 1036.23 320.967 1040.48 319.893C1044.78 318.818 1050.12 318.281 1056.52 318.281C1063.85 318.281 1069.8 318.94 1074.39 320.259C1078.98 321.528 1082.55 323.433 1085.09 325.972C1087.67 328.462 1089.41 331.562 1090.29 335.273C1091.21 338.984 1091.68 343.257 1091.68 348.091H1079.96Z" fill="black"/>
<path d="M229.517 377.656C243.986 377.656 256.234 377.257 266.26 376.46C276.286 375.662 284.546 374.067 291.04 371.675C297.534 369.168 302.547 365.579 306.079 360.908C309.611 356.237 312.174 350.085 313.77 342.451C315.479 334.704 316.447 325.247 316.675 314.082C317.017 302.803 317.188 289.359 317.188 273.75C317.188 258.141 317.017 244.754 316.675 233.589C316.447 222.31 315.479 212.853 313.77 205.22C312.174 197.472 309.611 191.263 306.079 186.592C302.547 181.921 297.534 178.389 291.04 175.996C284.546 173.49 276.286 171.838 266.26 171.04C256.348 170.243 244.1 169.844 229.517 169.844H65.625V377.656H229.517ZM32.8125 405V142.5H229.517C249.569 142.5 266.431 143.696 280.103 146.089C293.888 148.368 305.225 151.899 314.111 156.685C323.112 161.47 330.005 167.451 334.79 174.629C339.689 181.807 343.221 190.295 345.386 200.093C347.664 209.777 348.975 220.771 349.316 233.076C349.772 245.267 350 258.825 350 273.75C350 288.675 349.772 302.29 349.316 314.595C348.975 326.785 347.664 337.78 345.386 347.578C343.221 357.262 339.689 365.693 334.79 372.871C330.005 380.049 323.112 386.03 314.111 390.815C305.225 395.601 293.888 399.189 280.103 401.582C266.431 403.861 249.569 405 229.517 405H32.8125Z" fill="black"/>
</svg>
