<svg width="1449" height="857" viewBox="0 0 1449 857" fill="none" xmlns="http://www.w3.org/2000/svg">
<ellipse cx="58.5" cy="354" rx="58.5" ry="58" fill="#D2E8FD"/>
<ellipse cx="58.5" cy="650" rx="58.5" ry="58" fill="#D2E8FD"/>
<circle cx="58.5" cy="798.5" r="58.5" fill="#D2E8FD"/>
<ellipse cx="206" cy="58.5" rx="34" ry="33.5" fill="#D2E8FD"/>
<circle cx="502.5" cy="206.5" r="33.5" fill="#D2E8FD"/>
<ellipse cx="206" cy="798.5" rx="34" ry="33.5" fill="#D2E8FD"/>
<circle cx="1242" cy="650" r="18" fill="#D2E8FD"/>
<ellipse cx="58.5" cy="206" rx="11.5" ry="12" fill="#D2E8FD"/>
<circle cx="798.5" cy="798.5" r="12.5" fill="#D2E8FD"/>
<circle cx="650.5" cy="58.5" r="12.5" fill="#D2E8FD"/>
<circle cx="354.5" cy="798.5" r="12.5" fill="#D2E8FD"/>
<circle cx="650.5" cy="650.5" r="12.5" fill="#D2E8FD"/>
<circle cx="650.5" cy="354.5" r="12.5" fill="#D2E8FD"/>
<circle cx="1094.5" cy="502.5" r="12.5" fill="#D2E8FD"/>
<circle cx="1390.5" cy="354.5" r="12.5" fill="#D2E8FD"/>
<circle cx="354" cy="502" r="33" fill="#D2E8FD"/>
<ellipse cx="946" cy="58.5" rx="34" ry="33.5" fill="#D2E8FD"/>
<circle cx="946" cy="650" r="34" fill="#D2E8FD"/>
<circle cx="1242.5" cy="354.5" r="33.5" fill="#D2E8FD"/>
<ellipse cx="206.5" cy="206" rx="58.5" ry="58" fill="#D2E8FD"/>
<circle cx="206.5" cy="502.5" r="58.5" fill="#D2E8FD"/>
<ellipse cx="206.5" cy="650" rx="58.5" ry="58" fill="#D2E8FD"/>
<ellipse cx="354" cy="58.5" rx="58" ry="58.5" fill="#D2E8FD"/>
<circle cx="354" cy="206" r="58" fill="#D2E8FD"/>
<circle cx="354" cy="354" r="58" fill="#D2E8FD"/>
<circle cx="354" cy="650" r="58" fill="#D2E8FD"/>
<ellipse cx="502" cy="58.5" rx="57" ry="58.5" fill="#D2E8FD"/>
<ellipse cx="503" cy="354" rx="57" ry="58" fill="#D2E8FD"/>
<ellipse cx="503" cy="502.5" rx="57" ry="58.5" fill="#D2E8FD"/>
<ellipse cx="502" cy="650" rx="57" ry="58" fill="#D2E8FD"/>
<ellipse cx="503" cy="798.5" rx="57" ry="58.5" fill="#D2E8FD"/>
<circle cx="650" cy="206" r="58" fill="#D2E8FD"/>
<ellipse cx="650" cy="502.5" rx="58" ry="58.5" fill="#D2E8FD"/>
<ellipse cx="650" cy="798.5" rx="58" ry="58.5" fill="#D2E8FD"/>
<ellipse cx="1094.5" cy="206" rx="58.5" ry="58" fill="#D2E8FD"/>
<ellipse cx="1094.5" cy="354" rx="58.5" ry="58" fill="#D2E8FD"/>
<ellipse cx="1094.5" cy="650" rx="58.5" ry="58" fill="#D2E8FD"/>
<circle cx="1094.5" cy="798.5" r="58.5" fill="#D2E8FD"/>
<circle cx="798.5" cy="58.5" r="58.5" fill="#D2E8FD"/>
<ellipse cx="798.5" cy="354" rx="58.5" ry="58" fill="#D2E8FD"/>
<circle cx="798.5" cy="502.5" r="58.5" fill="#D2E8FD"/>
<ellipse cx="798.5" cy="650" rx="58.5" ry="58" fill="#D2E8FD"/>
<circle cx="1094.5" cy="58.5" r="58.5" fill="#D2E8FD"/>
<circle cx="946" cy="206" r="58" fill="#D2E8FD"/>
<circle cx="946" cy="354" r="58" fill="#D2E8FD"/>
<ellipse cx="946" cy="798.5" rx="58" ry="58.5" fill="#D2E8FD"/>
<circle cx="1243" cy="206" r="58" fill="#D2E8FD"/>
<ellipse cx="1242" cy="502.5" rx="58" ry="58.5" fill="#D2E8FD"/>
<ellipse cx="1242" cy="798.5" rx="58" ry="58.5" fill="#D2E8FD"/>
<ellipse cx="1390.5" cy="206" rx="58.5" ry="58" fill="#D2E8FD"/>
<circle cx="1390.5" cy="502.5" r="58.5" fill="#D2E8FD"/>
<ellipse cx="1390.5" cy="650" rx="58.5" ry="58" fill="#D2E8FD"/>
<circle cx="1390.5" cy="798.5" r="58.5" fill="#D2E8FD"/>
</svg>
