<svg width="730" height="538" viewBox="0 0 730 538" fill="none" xmlns="http://www.w3.org/2000/svg">
<path d="M73.2992 0.201172H0.699219V72.8012H73.2992V0.201172Z" fill="#DBC7EE" fill-opacity="0.2941"/>
<path d="M28.918 44.6101V48.8194C28.918 49.4701 29.9305 49.4728 29.9305 48.8194V44.6101C29.9305 43.9594 28.918 43.9567 28.918 44.6101Z" fill="#F6B9AA"/>
<path d="M43.6406 44.6101V48.8194C43.6406 49.4701 44.6531 49.4728 44.6531 48.8194V44.6101C44.6531 43.9594 43.6406 43.9567 43.6406 44.6101Z" fill="#F6B9AA"/>
<path d="M42.3516 44.6095V47.8063C42.3516 48.0709 42.5838 48.3247 42.8592 48.3139C43.1346 48.3031 43.3668 48.0925 43.3668 47.8063V44.6095C43.3668 44.3449 43.1346 44.0911 42.8592 44.1019C42.5838 44.1127 42.3516 44.3233 42.3516 44.6095Z" fill="#F6B9AA"/>
<path d="M30.1797 44.6095V47.8063C30.1797 48.0709 30.4119 48.3247 30.6873 48.3139C30.9627 48.3031 31.1949 48.0925 31.1949 47.8063V44.6095C31.1949 44.3449 30.9627 44.0911 30.6873 44.1019C30.4119 44.1127 30.1797 44.3233 30.1797 44.6095Z" fill="#F6B9AA"/>
<path d="M44.2941 44.8348H29.4522C28.9203 44.8348 28.4883 44.4028 28.4883 43.8709V25.789C28.4883 25.3651 28.8339 25.0195 29.2578 25.0195H44.2914C44.7153 25.0195 45.0609 25.3651 45.0609 25.789V44.0653C45.0609 44.4892 44.7153 44.8348 44.2914 44.8348H44.2941ZM44.1429 43.4227V26.6989C44.1429 26.3533 43.8621 26.0725 43.5165 26.0725H30.0516C29.706 26.0725 29.4252 26.3533 29.4252 26.6989V43.4227C29.4252 43.7683 29.706 44.0491 30.0516 44.0491H43.5165C43.8621 44.0491 44.1429 43.7683 44.1429 43.4227Z" fill="#F6B9AA"/>
<path d="M44.9414 25.3637C39.5009 25.3637 34.0604 25.3637 28.6172 25.3637C29.0735 24.8021 29.5298 24.2432 29.9861 23.6816H43.829C44.1989 24.2432 44.5715 24.8021 44.9414 25.3637Z" fill="#F6B9AA"/>
<path d="M30.2593 35.3516H43.2949C43.519 35.3516 43.7026 35.5406 43.7026 35.7755V43.2248C43.7026 43.4597 43.5217 43.6487 43.2949 43.6487H30.2593C30.0352 43.6487 29.8516 43.4597 29.8516 43.2248V35.7755C29.8516 35.5406 30.0325 35.3516 30.2593 35.3516ZM36.7015 38.7833C36.3046 38.7833 35.986 39.1046 35.986 39.4988C35.986 39.893 36.3073 40.2143 36.7015 40.2143C37.0957 40.2143 37.417 39.893 37.417 39.4988C37.417 39.1046 37.0957 38.7833 36.7015 38.7833Z" fill="#F6B9AA"/>
<path d="M30.2671 26.543H43.3027C43.5268 26.543 43.7104 26.732 43.7104 26.9669V34.4162C43.7104 34.6511 43.5295 34.8401 43.3027 34.8401H30.2671C30.043 34.8401 29.8594 34.6511 29.8594 34.4162V26.9669C29.8594 26.732 30.0403 26.543 30.2671 26.543ZM36.7093 29.9747C36.3124 29.9747 35.9938 30.296 35.9938 30.6902C35.9938 31.0844 36.3151 31.4057 36.7093 31.4057C37.1035 31.4057 37.4248 31.0844 37.4248 30.6902C37.4248 30.296 37.1035 29.9747 36.7093 29.9747Z" fill="#F6B9AA"/>
<path d="M237.299 0.201172H164.699V72.8012H237.299V0.201172Z" fill="#BAC685" fill-opacity="0.2941"/>
<path d="M200.475 24.1719V44.6784C200.475 45.6207 200.435 46.5738 200.475 47.5161C200.475 47.5296 200.475 47.5431 200.475 47.5566C200.475 48.2073 201.488 48.21 201.488 47.5566V27.0528C201.488 26.1105 201.528 25.1574 201.488 24.2151C201.488 24.2016 201.488 24.1881 201.488 24.1746C201.488 23.5239 200.475 23.5212 200.475 24.1746V24.1719Z" fill="#3E2517"/>
<path d="M210.519 34.1871H191.443C190.863 29.1111 195.563 24.7749 201.058 24.8127C206.498 24.8505 211.094 29.1624 210.519 34.1871Z" fill="#3E2517"/>
<path d="M204.015 49.3191H197.945C197.761 47.4507 199.255 45.8577 201.004 45.8712C202.735 45.8847 204.198 47.4723 204.015 49.3191Z" fill="#3E2517"/>
<path d="M401.299 0.201172H328.699V72.8012H401.299V0.201172Z" fill="#3E2517" fill-opacity="0.2941"/>
<path d="M356.836 28.5817C357.43 28.3684 357.473 27.9175 358.102 27.4882C358.502 27.2155 358.871 27.1345 359.293 27.04C360.902 26.6863 362.773 27.3235 364.836 27.3127C367.258 27.3019 369.11 26.4028 370.66 26.9401C371.467 27.2209 371.85 27.4855 371.85 27.4855C372.531 27.9607 372.631 28.3819 373.203 28.525C373.262 28.5385 373.859 28.6789 374.261 28.3495C374.693 27.9958 374.734 27.2317 374.496 26.7133C373.991 25.6225 372.134 25.393 371.167 25.2715C370.26 25.1581 369.925 25.2661 369.142 24.9988C368.37 24.7342 368.286 24.4885 367.557 24.1591C366.421 23.6515 365.365 23.6731 364.658 23.6866C364.031 23.7001 362.97 23.7217 361.839 24.2536C361.277 24.5182 361.042 24.745 360.305 25.0015C359.652 25.2283 359.317 25.231 358.709 25.3498C357.543 25.5766 355.942 25.8871 355.496 26.8942C355.253 27.4423 355.34 28.2307 355.783 28.5358C356.177 28.8058 356.741 28.6141 356.836 28.5817Z" fill="#037ECB"/>
<path d="M364.834 37.2972C361.346 37.2702 358.214 36.2226 357.544 35.9931H357.539C357.55 35.6259 357.558 35.2587 357.569 34.8888C358.36 34.6566 359.151 34.4217 359.945 34.1895C361.613 34.1949 363.293 34.203 364.978 34.2165C366.665 34.23 368.342 34.2489 370.01 34.2732C370.823 34.5351 371.636 34.797 372.448 35.0616C372.475 35.607 372.489 36.0363 372.467 36.0363C372.467 36.0363 368.812 37.3323 364.834 37.2999V37.2972Z" fill="#037ECB"/>
<path d="M357.551 34.401C357.313 36.0075 357.075 37.614 356.838 39.2178C356.46 41.7666 356.082 44.3154 355.704 46.8615C355.617 47.4501 355.528 48.0414 355.442 48.63C355.401 48.9027 355.509 49.17 355.796 49.2537C356.033 49.3212 356.379 49.17 356.419 48.9C356.657 47.2935 356.894 45.687 357.132 44.0832C357.51 41.5344 357.888 38.9856 358.266 36.4395C358.352 35.8509 358.442 35.2596 358.528 34.671C358.568 34.3983 358.46 34.131 358.174 34.0473C357.937 33.9798 357.591 34.131 357.551 34.401Z" fill="#037ECB"/>
<path d="M371.563 34.7335C371.801 36.34 372.038 37.9465 372.276 39.5503L373.41 47.194C373.496 47.7826 373.585 48.3739 373.672 48.9625C373.712 49.2325 374.055 49.3837 374.295 49.3162C374.584 49.2352 374.69 48.9652 374.649 48.6925C374.412 47.086 374.174 45.4795 373.936 43.8757L372.802 36.232C372.716 35.6434 372.627 35.0521 372.54 34.4635C372.5 34.1935 372.157 34.0423 371.917 34.1098C371.628 34.1908 371.523 34.4608 371.563 34.7335Z" fill="#037ECB"/>
<path d="M360.997 26.8658C360.668 28.9799 360.338 31.0967 360.006 33.2108L358.429 43.325C358.308 44.0999 358.186 44.8748 358.067 45.6497C358.024 45.9224 358.138 46.1924 358.421 46.2734C358.661 46.3409 359.002 46.1897 359.045 45.9197C359.374 43.8056 359.704 41.6888 360.036 39.5747L361.613 29.4605C361.734 28.6856 361.856 27.9107 361.974 27.1358C362.018 26.8631 361.904 26.5931 361.621 26.5121C361.38 26.4446 361.04 26.5958 360.997 26.8658Z" fill="#037ECB"/>
<path d="M368.056 27.1358C368.385 29.2499 368.715 31.3667 369.047 33.4808L370.624 43.595C370.745 44.3699 370.867 45.1448 370.986 45.9197C371.029 46.1897 371.366 46.3409 371.609 46.2734C371.898 46.1924 372.006 45.9224 371.963 45.6497C371.634 43.5356 371.304 41.4188 370.972 39.3047L369.395 29.1905C369.274 28.4156 369.152 27.6407 369.033 26.8658C368.99 26.5958 368.653 26.4446 368.41 26.5121C368.121 26.5931 368.013 26.8631 368.056 27.1358Z" fill="#037ECB"/>
<path d="M565.299 0.201172H492.699V72.8012H565.299V0.201172Z" fill="#037ECB" fill-opacity="0.2941"/>
<path d="M520.918 44.6101V48.8194C520.918 49.4701 521.93 49.4728 521.93 48.8194V44.6101C521.93 43.9594 520.918 43.9567 520.918 44.6101Z" fill="#EBC977"/>
<path d="M535.641 44.6101V48.8194C535.641 49.4701 536.653 49.4728 536.653 48.8194V44.6101C536.653 43.9594 535.641 43.9567 535.641 44.6101Z" fill="#EBC977"/>
<path d="M534.352 44.6095V47.8063C534.352 48.0709 534.584 48.3247 534.859 48.3139C535.135 48.3031 535.367 48.0925 535.367 47.8063V44.6095C535.367 44.3449 535.135 44.0911 534.859 44.1019C534.584 44.1127 534.352 44.3233 534.352 44.6095Z" fill="#EBC977"/>
<path d="M522.18 44.6095V47.8063C522.18 48.0709 522.412 48.3247 522.687 48.3139C522.963 48.3031 523.195 48.0925 523.195 47.8063V44.6095C523.195 44.3449 522.963 44.0911 522.687 44.1019C522.412 44.1127 522.18 44.3233 522.18 44.6095Z" fill="#EBC977"/>
<path d="M536.294 44.8348H521.452C520.92 44.8348 520.488 44.4028 520.488 43.8709V25.789C520.488 25.3651 520.834 25.0195 521.258 25.0195H536.291C536.715 25.0195 537.061 25.3651 537.061 25.789V44.0653C537.061 44.4892 536.715 44.8348 536.291 44.8348H536.294ZM536.143 43.4227V26.6989C536.143 26.3533 535.862 26.0725 535.516 26.0725H522.052C521.706 26.0725 521.425 26.3533 521.425 26.6989V43.4227C521.425 43.7683 521.706 44.0491 522.052 44.0491H535.516C535.862 44.0491 536.143 43.7683 536.143 43.4227Z" fill="#EBC977"/>
<path d="M536.941 25.3637C531.501 25.3637 526.06 25.3637 520.617 25.3637C521.073 24.8021 521.53 24.2432 521.986 23.6816H535.829C536.199 24.2432 536.571 24.8021 536.941 25.3637Z" fill="#EBC977"/>
<path d="M522.259 35.3516H535.295C535.519 35.3516 535.703 35.5406 535.703 35.7755V43.2248C535.703 43.4597 535.522 43.6487 535.295 43.6487H522.259C522.035 43.6487 521.852 43.4597 521.852 43.2248V35.7755C521.852 35.5406 522.032 35.3516 522.259 35.3516ZM528.701 38.7833C528.305 38.7833 527.986 39.1046 527.986 39.4988C527.986 39.893 528.307 40.2143 528.701 40.2143C529.096 40.2143 529.417 39.893 529.417 39.4988C529.417 39.1046 529.096 38.7833 528.701 38.7833Z" fill="#EBC977"/>
<path d="M522.267 26.543H535.303C535.527 26.543 535.71 26.732 535.71 26.9669V34.4162C535.71 34.6511 535.529 34.8401 535.303 34.8401H522.267C522.043 34.8401 521.859 34.6511 521.859 34.4162V26.9669C521.859 26.732 522.04 26.543 522.267 26.543ZM528.709 29.9747C528.312 29.9747 527.994 30.296 527.994 30.6902C527.994 31.0844 528.315 31.4057 528.709 31.4057C529.103 31.4057 529.425 31.0844 529.425 30.6902C529.425 30.296 529.103 29.9747 528.709 29.9747Z" fill="#EBC977"/>
<path d="M729.299 0.201172H656.699V72.8012H729.299V0.201172Z" fill="#EBC977" fill-opacity="0.2941"/>
<path d="M683.506 33.4242C685.04 35.136 686.573 36.8505 688.107 38.5623C690.548 41.2866 692.989 44.0136 695.427 46.7379C695.98 47.3562 696.536 47.9772 697.09 48.5955C697.525 49.0815 698.24 48.3633 697.805 47.88C696.272 46.1682 694.738 44.4537 693.205 42.7419C690.764 40.0176 688.323 37.2906 685.885 34.5663C685.331 33.948 684.775 33.327 684.222 32.7087C683.787 32.2227 683.072 32.9409 683.506 33.4242Z" fill="#BAC685"/>
<path d="M684.238 38.9917C685.264 37.7524 686.29 36.5157 687.316 35.2764L692.225 29.3499C692.603 28.8936 692.978 28.44 693.356 27.9837C693.769 27.4842 693.057 26.766 692.641 27.2682C691.615 28.5075 690.589 29.7442 689.563 30.9835L684.654 36.91C684.276 37.3663 683.901 37.8199 683.523 38.2762C683.11 38.7757 683.823 39.4939 684.238 38.9917Z" fill="#BAC685"/>
<path d="M702.609 24.6L696.399 36.1992C693.124 34.9005 692.017 30.6318 693.828 27.3027C695.624 24.0033 699.741 22.6128 702.609 24.6Z" fill="#BAC685"/>
<path d="M695.246 26.4525L693.381 29.9409C692.247 29.4711 691.785 28.1184 692.33 27.1167C692.87 26.1258 694.236 25.7775 695.246 26.4525Z" fill="#BAC685"/>
<path d="M697.019 49.3197C700.105 49.3197 702.608 48.6911 702.608 47.9157C702.608 47.1403 700.105 46.5117 697.019 46.5117C693.932 46.5117 691.43 47.1403 691.43 47.9157C691.43 48.6911 693.932 49.3197 697.019 49.3197Z" fill="#BAC685"/>
<path d="M73.2992 155.201H0.699219V227.801H73.2992V155.201Z" fill="#E0550A" fill-opacity="0.2941"/>
<path d="M28.8356 183.582C29.4296 183.368 29.4728 182.917 30.1019 182.488C30.5015 182.215 30.8714 182.134 31.2926 182.04C32.9018 181.686 34.7729 182.323 36.8357 182.313C39.2576 182.302 41.1098 181.403 42.6596 181.94C43.4669 182.221 43.8503 182.485 43.8503 182.485C44.5307 182.961 44.6306 183.382 45.203 183.525C45.2624 183.538 45.8591 183.679 46.2614 183.349C46.6934 182.996 46.7339 182.232 46.4963 181.713C45.9914 180.622 44.1338 180.393 43.1672 180.271C42.26 180.158 41.9252 180.266 41.1422 179.999C40.37 179.734 40.2863 179.488 39.5573 179.159C38.4206 178.651 37.3649 178.673 36.6575 178.687C36.0311 178.7 34.97 178.722 33.8387 179.254C33.2771 179.518 33.0422 179.745 32.3051 180.001C31.6517 180.228 31.3169 180.231 30.7094 180.35C29.543 180.577 27.9419 180.887 27.4964 181.894C27.2534 182.442 27.3398 183.231 27.7826 183.536C28.1768 183.806 28.7411 183.614 28.8356 183.582Z" fill="#EBC977"/>
<path d="M36.8345 192.297C33.3461 192.27 30.2141 191.223 29.5445 190.993H29.5391C29.5499 190.626 29.558 190.259 29.5688 189.889C30.3599 189.657 31.151 189.422 31.9448 189.189C33.6134 189.195 35.2928 189.203 36.9776 189.216C38.6651 189.23 40.3418 189.249 42.0104 189.273C42.8231 189.535 43.6358 189.797 44.4485 190.062C44.4755 190.607 44.489 191.036 44.4674 191.036C44.4674 191.036 40.8116 192.332 36.8345 192.3V192.297Z" fill="#EBC977"/>
<path d="M29.5505 189.401C29.3129 191.007 29.0753 192.614 28.8377 194.218C28.4597 196.767 28.0817 199.315 27.7037 201.861C27.6173 202.45 27.5282 203.041 27.4418 203.63C27.4013 203.903 27.5093 204.17 27.7955 204.254C28.0331 204.321 28.3787 204.17 28.4192 203.9C28.6568 202.293 28.8944 200.687 29.132 199.083C29.51 196.534 29.888 193.986 30.266 191.439C30.3524 190.851 30.4415 190.26 30.5279 189.671C30.5684 189.398 30.4604 189.131 30.1742 189.047C29.9366 188.98 29.591 189.131 29.5505 189.401Z" fill="#EBC977"/>
<path d="M43.563 189.733C43.8006 191.34 44.0382 192.946 44.2758 194.55L45.4098 202.194C45.4962 202.783 45.5853 203.374 45.6717 203.962C45.7122 204.232 46.0551 204.384 46.2954 204.316C46.5843 204.235 46.6896 203.965 46.6491 203.692C46.4115 202.086 46.1739 200.479 45.9363 198.876L44.8023 191.232C44.7159 190.643 44.6268 190.052 44.5404 189.463C44.4999 189.193 44.157 189.042 43.9167 189.11C43.6278 189.191 43.5225 189.461 43.563 189.733Z" fill="#EBC977"/>
<path d="M32.997 181.866C32.6676 183.98 32.3382 186.097 32.0061 188.211L30.4293 198.325C30.3078 199.1 30.1863 199.875 30.0675 200.65C30.0243 200.922 30.1377 201.192 30.4212 201.273C30.6615 201.341 31.0017 201.19 31.0449 200.92C31.3743 198.806 31.7037 196.689 32.0358 194.575L33.6126 184.461C33.7341 183.686 33.8556 182.911 33.9744 182.136C34.0176 181.863 33.9042 181.593 33.6207 181.512C33.3804 181.445 33.0402 181.596 32.997 181.866Z" fill="#EBC977"/>
<path d="M40.056 182.136C40.3854 184.25 40.7148 186.367 41.0469 188.481L42.6237 198.595C42.7452 199.37 42.8667 200.145 42.9855 200.92C43.0287 201.19 43.3662 201.341 43.6092 201.273C43.8981 201.192 44.0061 200.922 43.9629 200.65C43.6335 198.536 43.3041 196.419 42.972 194.305L41.3952 184.191C41.2737 183.416 41.1522 182.641 41.0334 181.866C40.9902 181.596 40.6527 181.445 40.4097 181.512C40.1208 181.593 40.0128 181.863 40.056 182.136Z" fill="#EBC977"/>
<path d="M237.299 155.201H164.699V227.801H237.299V155.201Z" fill="#BAC685" fill-opacity="0.2941"/>
<path d="M192.836 183.582C193.43 183.368 193.473 182.917 194.102 182.488C194.502 182.215 194.871 182.134 195.293 182.04C196.902 181.686 198.773 182.323 200.836 182.313C203.258 182.302 205.11 181.403 206.66 181.94C207.467 182.221 207.85 182.485 207.85 182.485C208.531 182.961 208.631 183.382 209.203 183.525C209.262 183.538 209.859 183.679 210.261 183.349C210.693 182.996 210.734 182.232 210.496 181.713C209.991 180.622 208.134 180.393 207.167 180.271C206.26 180.158 205.925 180.266 205.142 179.999C204.37 179.734 204.286 179.488 203.557 179.159C202.421 178.651 201.365 178.673 200.658 178.687C200.031 178.7 198.97 178.722 197.839 179.254C197.277 179.518 197.042 179.745 196.305 180.001C195.652 180.228 195.317 180.231 194.709 180.35C193.543 180.577 191.942 180.887 191.496 181.894C191.253 182.442 191.34 183.231 191.783 183.536C192.177 183.806 192.741 183.614 192.836 183.582Z" fill="#DBC7EE"/>
<path d="M200.834 192.297C197.346 192.27 194.214 191.223 193.544 190.993H193.539C193.55 190.626 193.558 190.259 193.569 189.889C194.36 189.657 195.151 189.422 195.945 189.189C197.613 189.195 199.293 189.203 200.978 189.216C202.665 189.23 204.342 189.249 206.01 189.273C206.823 189.535 207.636 189.797 208.448 190.062C208.475 190.607 208.489 191.036 208.467 191.036C208.467 191.036 204.812 192.332 200.834 192.3V192.297Z" fill="#DBC7EE"/>
<path d="M193.551 189.401C193.313 191.007 193.075 192.614 192.838 194.218C192.46 196.767 192.082 199.315 191.704 201.861C191.617 202.45 191.528 203.041 191.442 203.63C191.401 203.903 191.509 204.17 191.796 204.254C192.033 204.321 192.379 204.17 192.419 203.9C192.657 202.293 192.894 200.687 193.132 199.083C193.51 196.534 193.888 193.986 194.266 191.439C194.352 190.851 194.442 190.26 194.528 189.671C194.568 189.398 194.46 189.131 194.174 189.047C193.937 188.98 193.591 189.131 193.551 189.401Z" fill="#DBC7EE"/>
<path d="M207.563 189.733C207.801 191.34 208.038 192.946 208.276 194.55L209.41 202.194C209.496 202.783 209.585 203.374 209.672 203.962C209.712 204.232 210.055 204.384 210.295 204.316C210.584 204.235 210.69 203.965 210.649 203.692C210.412 202.086 210.174 200.479 209.936 198.876L208.802 191.232C208.716 190.643 208.627 190.052 208.54 189.463C208.5 189.193 208.157 189.042 207.917 189.11C207.628 189.191 207.523 189.461 207.563 189.733Z" fill="#DBC7EE"/>
<path d="M196.997 181.866C196.668 183.98 196.338 186.097 196.006 188.211L194.429 198.325C194.308 199.1 194.186 199.875 194.067 200.65C194.024 200.922 194.138 201.192 194.421 201.273C194.661 201.341 195.002 201.19 195.045 200.92C195.374 198.806 195.704 196.689 196.036 194.575L197.613 184.461C197.734 183.686 197.856 182.911 197.974 182.136C198.018 181.863 197.904 181.593 197.621 181.512C197.38 181.445 197.04 181.596 196.997 181.866Z" fill="#DBC7EE"/>
<path d="M204.056 182.136C204.385 184.25 204.715 186.367 205.047 188.481L206.624 198.595C206.745 199.37 206.867 200.145 206.986 200.92C207.029 201.19 207.366 201.341 207.609 201.273C207.898 201.192 208.006 200.922 207.963 200.65C207.634 198.536 207.304 196.419 206.972 194.305L205.395 184.191C205.274 183.416 205.152 182.641 205.033 181.866C204.99 181.596 204.653 181.445 204.41 181.512C204.121 181.593 204.013 181.863 204.056 182.136Z" fill="#DBC7EE"/>
<path d="M401.299 155.201H328.699V227.801H401.299V155.201Z" fill="#DBC7EE" fill-opacity="0.2941"/>
<path d="M356.836 183.582C357.43 183.368 357.473 182.917 358.102 182.488C358.502 182.215 358.871 182.134 359.293 182.04C360.902 181.686 362.773 182.323 364.836 182.313C367.258 182.302 369.11 181.403 370.66 181.94C371.467 182.221 371.85 182.485 371.85 182.485C372.531 182.961 372.631 183.382 373.203 183.525C373.262 183.538 373.859 183.679 374.261 183.349C374.693 182.996 374.734 182.232 374.496 181.713C373.991 180.622 372.134 180.393 371.167 180.271C370.26 180.158 369.925 180.266 369.142 179.999C368.37 179.734 368.286 179.488 367.557 179.159C366.421 178.651 365.365 178.673 364.658 178.687C364.031 178.7 362.97 178.722 361.839 179.254C361.277 179.518 361.042 179.745 360.305 180.001C359.652 180.228 359.317 180.231 358.709 180.35C357.543 180.577 355.942 180.887 355.496 181.894C355.253 182.442 355.34 183.231 355.783 183.536C356.177 183.806 356.741 183.614 356.836 183.582Z" fill="#F6B9AA"/>
<path d="M364.834 192.297C361.346 192.27 358.214 191.223 357.544 190.993H357.539C357.55 190.626 357.558 190.259 357.569 189.889C358.36 189.657 359.151 189.422 359.945 189.189C361.613 189.195 363.293 189.203 364.978 189.216C366.665 189.23 368.342 189.249 370.01 189.273C370.823 189.535 371.636 189.797 372.448 190.062C372.475 190.607 372.489 191.036 372.467 191.036C372.467 191.036 368.812 192.332 364.834 192.3V192.297Z" fill="#F6B9AA"/>
<path d="M357.551 189.401C357.313 191.007 357.075 192.614 356.838 194.218C356.46 196.767 356.082 199.315 355.704 201.861C355.617 202.45 355.528 203.041 355.442 203.63C355.401 203.903 355.509 204.17 355.796 204.254C356.033 204.321 356.379 204.17 356.419 203.9C356.657 202.293 356.894 200.687 357.132 199.083C357.51 196.534 357.888 193.986 358.266 191.439C358.352 190.851 358.442 190.26 358.528 189.671C358.568 189.398 358.46 189.131 358.174 189.047C357.937 188.98 357.591 189.131 357.551 189.401Z" fill="#F6B9AA"/>
<path d="M371.563 189.733C371.801 191.34 372.038 192.946 372.276 194.55L373.41 202.194C373.496 202.783 373.585 203.374 373.672 203.962C373.712 204.232 374.055 204.384 374.295 204.316C374.584 204.235 374.69 203.965 374.649 203.692C374.412 202.086 374.174 200.479 373.936 198.876L372.802 191.232C372.716 190.643 372.627 190.052 372.54 189.463C372.5 189.193 372.157 189.042 371.917 189.11C371.628 189.191 371.523 189.461 371.563 189.733Z" fill="#F6B9AA"/>
<path d="M360.997 181.866C360.668 183.98 360.338 186.097 360.006 188.211L358.429 198.325C358.308 199.1 358.186 199.875 358.067 200.65C358.024 200.922 358.138 201.192 358.421 201.273C358.661 201.341 359.002 201.19 359.045 200.92C359.374 198.806 359.704 196.689 360.036 194.575L361.613 184.461C361.734 183.686 361.856 182.911 361.974 182.136C362.018 181.863 361.904 181.593 361.621 181.512C361.38 181.445 361.04 181.596 360.997 181.866Z" fill="#F6B9AA"/>
<path d="M368.056 182.136C368.385 184.25 368.715 186.367 369.047 188.481L370.624 198.595C370.745 199.37 370.867 200.145 370.986 200.92C371.029 201.19 371.366 201.341 371.609 201.273C371.898 201.192 372.006 200.922 371.963 200.65C371.634 198.536 371.304 196.419 370.972 194.305L369.395 184.191C369.274 183.416 369.152 182.641 369.033 181.866C368.99 181.596 368.653 181.445 368.41 181.512C368.121 181.593 368.013 181.863 368.056 182.136Z" fill="#F6B9AA"/>
<path d="M565.299 155.201H492.699V227.801H565.299V155.201Z" fill="#037ECB" fill-opacity="0.2941"/>
<path d="M520.918 199.61V203.819C520.918 204.47 521.93 204.473 521.93 203.819V199.61C521.93 198.959 520.918 198.957 520.918 199.61Z" fill="#F19704"/>
<path d="M535.641 199.61V203.819C535.641 204.47 536.653 204.473 536.653 203.819V199.61C536.653 198.959 535.641 198.957 535.641 199.61Z" fill="#F19704"/>
<path d="M534.352 199.609V202.806C534.352 203.071 534.584 203.325 534.859 203.314C535.135 203.303 535.367 203.092 535.367 202.806V199.609C535.367 199.345 535.135 199.091 534.859 199.102C534.584 199.113 534.352 199.323 534.352 199.609Z" fill="#F19704"/>
<path d="M522.18 199.609V202.806C522.18 203.071 522.412 203.325 522.687 203.314C522.963 203.303 523.195 203.092 523.195 202.806V199.609C523.195 199.345 522.963 199.091 522.687 199.102C522.412 199.113 522.18 199.323 522.18 199.609Z" fill="#F19704"/>
<path d="M536.294 199.835H521.452C520.92 199.835 520.488 199.403 520.488 198.871V180.789C520.488 180.365 520.834 180.02 521.258 180.02H536.291C536.715 180.02 537.061 180.365 537.061 180.789V199.065C537.061 199.489 536.715 199.835 536.291 199.835H536.294ZM536.143 198.423V181.699C536.143 181.353 535.862 181.073 535.516 181.073H522.052C521.706 181.073 521.425 181.353 521.425 181.699V198.423C521.425 198.768 521.706 199.049 522.052 199.049H535.516C535.862 199.049 536.143 198.768 536.143 198.423Z" fill="#F19704"/>
<path d="M536.941 180.364C531.501 180.364 526.06 180.364 520.617 180.364C521.073 179.802 521.53 179.243 521.986 178.682H535.829C536.199 179.243 536.571 179.802 536.941 180.364Z" fill="#F19704"/>
<path d="M522.259 190.352H535.295C535.519 190.352 535.703 190.541 535.703 190.775V198.225C535.703 198.46 535.522 198.649 535.295 198.649H522.259C522.035 198.649 521.852 198.46 521.852 198.225V190.775C521.852 190.541 522.032 190.352 522.259 190.352ZM528.701 193.783C528.305 193.783 527.986 194.105 527.986 194.499C527.986 194.893 528.307 195.214 528.701 195.214C529.096 195.214 529.417 194.893 529.417 194.499C529.417 194.105 529.096 193.783 528.701 193.783Z" fill="#F19704"/>
<path d="M522.267 181.543H535.303C535.527 181.543 535.71 181.732 535.71 181.967V189.416C535.71 189.651 535.529 189.84 535.303 189.84H522.267C522.043 189.84 521.859 189.651 521.859 189.416V181.967C521.859 181.732 522.04 181.543 522.267 181.543ZM528.709 184.975C528.312 184.975 527.994 185.296 527.994 185.69C527.994 186.084 528.315 186.406 528.709 186.406C529.103 186.406 529.425 186.084 529.425 185.69C529.425 185.296 529.103 184.975 528.709 184.975Z" fill="#F19704"/>
<path d="M729.299 155.201H656.699V227.801H729.299V155.201Z" fill="#EBC977" fill-opacity="0.2941"/>
<path d="M684.836 183.582C685.43 183.368 685.473 182.917 686.102 182.488C686.502 182.215 686.871 182.134 687.293 182.04C688.902 181.686 690.773 182.323 692.836 182.313C695.258 182.302 697.11 181.403 698.66 181.94C699.467 182.221 699.85 182.485 699.85 182.485C700.531 182.961 700.631 183.382 701.203 183.525C701.262 183.538 701.859 183.679 702.261 183.349C702.693 182.996 702.734 182.232 702.496 181.713C701.991 180.622 700.134 180.393 699.167 180.271C698.26 180.158 697.925 180.266 697.142 179.999C696.37 179.734 696.286 179.488 695.557 179.159C694.421 178.651 693.365 178.673 692.658 178.687C692.031 178.7 690.97 178.722 689.839 179.254C689.277 179.518 689.042 179.745 688.305 180.001C687.652 180.228 687.317 180.231 686.709 180.35C685.543 180.577 683.942 180.887 683.496 181.894C683.253 182.442 683.34 183.231 683.783 183.536C684.177 183.806 684.741 183.614 684.836 183.582Z" fill="#E0550A"/>
<path d="M692.834 192.297C689.346 192.27 686.214 191.223 685.544 190.993H685.539C685.55 190.626 685.558 190.259 685.569 189.889C686.36 189.657 687.151 189.422 687.945 189.189C689.613 189.195 691.293 189.203 692.978 189.216C694.665 189.23 696.342 189.249 698.01 189.273C698.823 189.535 699.636 189.797 700.448 190.062C700.475 190.607 700.489 191.036 700.467 191.036C700.467 191.036 696.812 192.332 692.834 192.3V192.297Z" fill="#E0550A"/>
<path d="M685.551 189.401C685.313 191.007 685.075 192.614 684.838 194.218C684.46 196.767 684.082 199.315 683.704 201.861C683.617 202.45 683.528 203.041 683.442 203.63C683.401 203.903 683.509 204.17 683.796 204.254C684.033 204.321 684.379 204.17 684.419 203.9C684.657 202.293 684.894 200.687 685.132 199.083C685.51 196.534 685.888 193.986 686.266 191.439C686.352 190.851 686.442 190.26 686.528 189.671C686.568 189.398 686.46 189.131 686.174 189.047C685.937 188.98 685.591 189.131 685.551 189.401Z" fill="#E0550A"/>
<path d="M699.563 189.733C699.801 191.34 700.038 192.946 700.276 194.55L701.41 202.194C701.496 202.783 701.585 203.374 701.672 203.962C701.712 204.232 702.055 204.384 702.295 204.316C702.584 204.235 702.69 203.965 702.649 203.692C702.412 202.086 702.174 200.479 701.936 198.876L700.802 191.232C700.716 190.643 700.627 190.052 700.54 189.463C700.5 189.193 700.157 189.042 699.917 189.11C699.628 189.191 699.523 189.461 699.563 189.733Z" fill="#E0550A"/>
<path d="M688.997 181.866C688.668 183.98 688.338 186.097 688.006 188.211L686.429 198.325C686.308 199.1 686.186 199.875 686.067 200.65C686.024 200.922 686.138 201.192 686.421 201.273C686.661 201.341 687.002 201.19 687.045 200.92C687.374 198.806 687.704 196.689 688.036 194.575L689.613 184.461C689.734 183.686 689.856 182.911 689.974 182.136C690.018 181.863 689.904 181.593 689.621 181.512C689.38 181.445 689.04 181.596 688.997 181.866Z" fill="#E0550A"/>
<path d="M696.056 182.136C696.385 184.25 696.715 186.367 697.047 188.481L698.624 198.595C698.745 199.37 698.867 200.145 698.986 200.92C699.029 201.19 699.366 201.341 699.609 201.273C699.898 201.192 700.006 200.922 699.963 200.65C699.634 198.536 699.304 196.419 698.972 194.305L697.395 184.191C697.274 183.416 697.152 182.641 697.033 181.866C696.99 181.596 696.653 181.445 696.41 181.512C696.121 181.593 696.013 181.863 696.056 182.136Z" fill="#E0550A"/>
<path d="M73.2992 310.201H0.699219V382.801H73.2992V310.201Z" fill="#BAC685" fill-opacity="0.2941"/>
<path d="M36.475 334.172V354.678C36.475 355.621 36.4345 356.574 36.475 357.516C36.475 357.53 36.475 357.543 36.475 357.557C36.475 358.207 37.4875 358.21 37.4875 357.557V337.053C37.4875 336.11 37.528 335.157 37.4875 334.215C37.4875 334.202 37.4875 334.188 37.4875 334.175C37.4875 333.524 36.475 333.521 36.475 334.175V334.172Z" fill="#037ECB"/>
<path d="M46.5187 344.187H27.4432C26.8627 339.111 31.5634 334.775 37.0579 334.813C42.4984 334.851 47.0938 339.162 46.5187 344.187Z" fill="#037ECB"/>
<path d="M40.0146 359.319H33.945C33.7614 357.451 35.2545 355.858 37.0041 355.871C38.7348 355.885 40.1982 357.472 40.0146 359.319Z" fill="#037ECB"/>
<path d="M237.299 310.201H164.699V382.801H237.299V310.201Z" fill="#F19704" fill-opacity="0.2941"/>
<path d="M192.918 354.61V358.819C192.918 359.47 193.93 359.473 193.93 358.819V354.61C193.93 353.959 192.918 353.957 192.918 354.61Z" fill="#BAC685"/>
<path d="M207.641 354.61V358.819C207.641 359.47 208.653 359.473 208.653 358.819V354.61C208.653 353.959 207.641 353.957 207.641 354.61Z" fill="#BAC685"/>
<path d="M206.352 354.609V357.806C206.352 358.071 206.584 358.325 206.859 358.314C207.135 358.303 207.367 358.092 207.367 357.806V354.609C207.367 354.345 207.135 354.091 206.859 354.102C206.584 354.113 206.352 354.323 206.352 354.609Z" fill="#BAC685"/>
<path d="M194.18 354.609V357.806C194.18 358.071 194.412 358.325 194.687 358.314C194.963 358.303 195.195 358.092 195.195 357.806V354.609C195.195 354.345 194.963 354.091 194.687 354.102C194.412 354.113 194.18 354.323 194.18 354.609Z" fill="#BAC685"/>
<path d="M208.294 354.835H193.452C192.92 354.835 192.488 354.403 192.488 353.871V335.789C192.488 335.365 192.834 335.02 193.258 335.02H208.291C208.715 335.02 209.061 335.365 209.061 335.789V354.065C209.061 354.489 208.715 354.835 208.291 354.835H208.294ZM208.143 353.423V336.699C208.143 336.353 207.862 336.073 207.516 336.073H194.052C193.706 336.073 193.425 336.353 193.425 336.699V353.423C193.425 353.768 193.706 354.049 194.052 354.049H207.516C207.862 354.049 208.143 353.768 208.143 353.423Z" fill="#BAC685"/>
<path d="M208.941 335.364C203.501 335.364 198.06 335.364 192.617 335.364C193.073 334.802 193.53 334.243 193.986 333.682H207.829C208.199 334.243 208.571 334.802 208.941 335.364Z" fill="#BAC685"/>
<path d="M194.259 345.352H207.295C207.519 345.352 207.703 345.541 207.703 345.775V353.225C207.703 353.46 207.522 353.649 207.295 353.649H194.259C194.035 353.649 193.852 353.46 193.852 353.225V345.775C193.852 345.541 194.032 345.352 194.259 345.352ZM200.701 348.783C200.305 348.783 199.986 349.105 199.986 349.499C199.986 349.893 200.307 350.214 200.701 350.214C201.096 350.214 201.417 349.893 201.417 349.499C201.417 349.105 201.096 348.783 200.701 348.783Z" fill="#BAC685"/>
<path d="M194.267 336.543H207.303C207.527 336.543 207.71 336.732 207.71 336.967V344.416C207.71 344.651 207.529 344.84 207.303 344.84H194.267C194.043 344.84 193.859 344.651 193.859 344.416V336.967C193.859 336.732 194.04 336.543 194.267 336.543ZM200.709 339.975C200.312 339.975 199.994 340.296 199.994 340.69C199.994 341.084 200.315 341.406 200.709 341.406C201.103 341.406 201.425 341.084 201.425 340.69C201.425 340.296 201.103 339.975 200.709 339.975Z" fill="#BAC685"/>
<path d="M401.299 310.201H328.699V382.801H401.299V310.201Z" fill="#037ECB" fill-opacity="0.2941"/>
<path d="M364.475 334.172V354.678C364.475 355.621 364.435 356.574 364.475 357.516C364.475 357.53 364.475 357.543 364.475 357.557C364.475 358.207 365.488 358.21 365.488 357.557V337.053C365.488 336.11 365.528 335.157 365.488 334.215C365.488 334.202 365.488 334.188 365.488 334.175C365.488 333.524 364.475 333.521 364.475 334.175V334.172Z" fill="#F19704"/>
<path d="M374.519 344.187H355.443C354.863 339.111 359.563 334.775 365.058 334.813C370.498 334.851 375.094 339.162 374.519 344.187Z" fill="#F19704"/>
<path d="M368.015 359.319H361.945C361.761 357.451 363.255 355.858 365.004 355.871C366.735 355.885 368.198 357.472 368.015 359.319Z" fill="#F19704"/>
<path d="M565.299 310.201H492.699V382.801H565.299V310.201Z" fill="#DBC7EE" fill-opacity="0.2941"/>
<path d="M528.475 334.172V354.678C528.475 355.621 528.435 356.574 528.475 357.516C528.475 357.53 528.475 357.543 528.475 357.557C528.475 358.207 529.488 358.21 529.488 357.557V337.053C529.488 336.11 529.528 335.157 529.488 334.215C529.488 334.202 529.488 334.188 529.488 334.175C529.488 333.524 528.475 333.521 528.475 334.175V334.172Z" fill="#EBC977"/>
<path d="M538.519 344.187H519.443C518.863 339.111 523.563 334.775 529.058 334.813C534.498 334.851 539.094 339.162 538.519 344.187Z" fill="#EBC977"/>
<path d="M532.015 359.319H525.945C525.761 357.451 527.255 355.858 529.004 355.871C530.735 355.885 532.198 357.472 532.015 359.319Z" fill="#EBC977"/>
<path d="M729.299 310.201H656.699V382.801H729.299V310.201Z" fill="#F6B9AA" fill-opacity="0.2941"/>
<path d="M684.836 338.582C685.43 338.368 685.473 337.917 686.102 337.488C686.502 337.215 686.871 337.134 687.293 337.04C688.902 336.686 690.773 337.323 692.836 337.313C695.258 337.302 697.11 336.403 698.66 336.94C699.467 337.221 699.85 337.485 699.85 337.485C700.531 337.961 700.631 338.382 701.203 338.525C701.262 338.538 701.859 338.679 702.261 338.349C702.693 337.996 702.734 337.232 702.496 336.713C701.991 335.622 700.134 335.393 699.167 335.271C698.26 335.158 697.925 335.266 697.142 334.999C696.37 334.734 696.286 334.488 695.557 334.159C694.421 333.651 693.365 333.673 692.658 333.687C692.031 333.7 690.97 333.722 689.839 334.254C689.277 334.518 689.042 334.745 688.305 335.001C687.652 335.228 687.317 335.231 686.709 335.35C685.543 335.577 683.942 335.887 683.496 336.894C683.253 337.442 683.34 338.231 683.783 338.536C684.177 338.806 684.741 338.614 684.836 338.582Z" fill="#E0550A"/>
<path d="M692.834 347.297C689.346 347.27 686.214 346.223 685.544 345.993H685.539C685.55 345.626 685.558 345.259 685.569 344.889C686.36 344.657 687.151 344.422 687.945 344.189C689.613 344.195 691.293 344.203 692.978 344.216C694.665 344.23 696.342 344.249 698.01 344.273C698.823 344.535 699.636 344.797 700.448 345.062C700.475 345.607 700.489 346.036 700.467 346.036C700.467 346.036 696.812 347.332 692.834 347.3V347.297Z" fill="#E0550A"/>
<path d="M685.551 344.401C685.313 346.007 685.075 347.614 684.838 349.218C684.46 351.767 684.082 354.315 683.704 356.861C683.617 357.45 683.528 358.041 683.442 358.63C683.401 358.903 683.509 359.17 683.796 359.254C684.033 359.321 684.379 359.17 684.419 358.9C684.657 357.293 684.894 355.687 685.132 354.083C685.51 351.534 685.888 348.986 686.266 346.439C686.352 345.851 686.442 345.26 686.528 344.671C686.568 344.398 686.46 344.131 686.174 344.047C685.937 343.98 685.591 344.131 685.551 344.401Z" fill="#E0550A"/>
<path d="M699.563 344.733C699.801 346.34 700.038 347.946 700.276 349.55L701.41 357.194C701.496 357.783 701.585 358.374 701.672 358.962C701.712 359.232 702.055 359.384 702.295 359.316C702.584 359.235 702.69 358.965 702.649 358.692C702.412 357.086 702.174 355.479 701.936 353.876L700.802 346.232C700.716 345.643 700.627 345.052 700.54 344.463C700.5 344.193 700.157 344.042 699.917 344.11C699.628 344.191 699.523 344.461 699.563 344.733Z" fill="#E0550A"/>
<path d="M688.997 336.866C688.668 338.98 688.338 341.097 688.006 343.211L686.429 353.325C686.308 354.1 686.186 354.875 686.067 355.65C686.024 355.922 686.138 356.192 686.421 356.273C686.661 356.341 687.002 356.19 687.045 355.92C687.374 353.806 687.704 351.689 688.036 349.575L689.613 339.461C689.734 338.686 689.856 337.911 689.974 337.136C690.018 336.863 689.904 336.593 689.621 336.512C689.38 336.445 689.04 336.596 688.997 336.866Z" fill="#E0550A"/>
<path d="M696.056 337.136C696.385 339.25 696.715 341.367 697.047 343.481L698.624 353.595C698.745 354.37 698.867 355.145 698.986 355.92C699.029 356.19 699.366 356.341 699.609 356.273C699.898 356.192 700.006 355.922 699.963 355.65C699.634 353.536 699.304 351.419 698.972 349.305L697.395 339.191C697.274 338.416 697.152 337.641 697.033 336.866C696.99 336.596 696.653 336.445 696.41 336.512C696.121 336.593 696.013 336.863 696.056 337.136Z" fill="#E0550A"/>
<path d="M73.2992 465.201H0.699219V537.801H73.2992V465.201Z" fill="#DBC7EE" fill-opacity="0.2941"/>
<path d="M36.475 489.17V509.676C36.475 510.619 36.4345 511.572 36.475 512.514C36.475 512.528 36.475 512.541 36.475 512.555C36.475 513.205 37.4875 513.208 37.4875 512.555V492.051C37.4875 491.109 37.528 490.155 37.4875 489.213C37.4875 489.2 37.4875 489.186 37.4875 489.173C37.4875 488.522 36.475 488.519 36.475 489.173V489.17Z" fill="#037ECB"/>
<path d="M46.5187 499.183H27.4432C26.8627 494.107 31.5634 489.771 37.0579 489.809C42.4984 489.847 47.0938 494.159 46.5187 499.183Z" fill="#037ECB"/>
<path d="M40.0146 514.319H33.945C33.7614 512.451 35.2545 510.858 37.0041 510.871C38.7348 510.885 40.1982 512.472 40.0146 514.319Z" fill="#037ECB"/>
<path d="M237.299 465.201H164.699V537.801H237.299V465.201Z" fill="#E0550A" fill-opacity="0.2941"/>
<path d="M192.836 493.582C193.43 493.368 193.473 492.917 194.102 492.488C194.502 492.215 194.871 492.134 195.293 492.04C196.902 491.686 198.773 492.323 200.836 492.313C203.258 492.302 205.11 491.403 206.66 491.94C207.467 492.221 207.85 492.485 207.85 492.485C208.531 492.961 208.631 493.382 209.203 493.525C209.262 493.538 209.859 493.679 210.261 493.349C210.693 492.996 210.734 492.232 210.496 491.713C209.991 490.622 208.134 490.393 207.167 490.271C206.26 490.158 205.925 490.266 205.142 489.999C204.37 489.734 204.286 489.488 203.557 489.159C202.421 488.651 201.365 488.673 200.658 488.687C200.031 488.7 198.97 488.722 197.839 489.254C197.277 489.518 197.042 489.745 196.305 490.001C195.652 490.228 195.317 490.231 194.709 490.35C193.543 490.577 191.942 490.887 191.496 491.894C191.253 492.442 191.34 493.231 191.783 493.536C192.177 493.806 192.741 493.614 192.836 493.582Z" fill="#EBC977"/>
<path d="M200.834 502.297C197.346 502.27 194.214 501.223 193.544 500.993H193.539C193.55 500.626 193.558 500.259 193.569 499.889C194.36 499.657 195.151 499.422 195.945 499.189C197.613 499.195 199.293 499.203 200.978 499.216C202.665 499.23 204.342 499.249 206.01 499.273C206.823 499.535 207.636 499.797 208.448 500.062C208.475 500.607 208.489 501.036 208.467 501.036C208.467 501.036 204.812 502.332 200.834 502.3V502.297Z" fill="#EBC977"/>
<path d="M193.551 499.401C193.313 501.007 193.075 502.614 192.838 504.218C192.46 506.767 192.082 509.315 191.704 511.861C191.617 512.45 191.528 513.041 191.442 513.63C191.401 513.903 191.509 514.17 191.796 514.254C192.033 514.321 192.379 514.17 192.419 513.9C192.657 512.293 192.894 510.687 193.132 509.083C193.51 506.534 193.888 503.986 194.266 501.439C194.352 500.851 194.442 500.26 194.528 499.671C194.568 499.398 194.46 499.131 194.174 499.047C193.937 498.98 193.591 499.131 193.551 499.401Z" fill="#EBC977"/>
<path d="M207.563 499.733C207.801 501.34 208.038 502.946 208.276 504.55L209.41 512.194C209.496 512.783 209.585 513.374 209.672 513.962C209.712 514.232 210.055 514.384 210.295 514.316C210.584 514.235 210.69 513.965 210.649 513.692C210.412 512.086 210.174 510.479 209.936 508.876L208.802 501.232C208.716 500.643 208.627 500.052 208.54 499.463C208.5 499.193 208.157 499.042 207.917 499.11C207.628 499.191 207.523 499.461 207.563 499.733Z" fill="#EBC977"/>
<path d="M196.997 491.866C196.668 493.98 196.338 496.097 196.006 498.211L194.429 508.325C194.308 509.1 194.186 509.875 194.067 510.65C194.024 510.922 194.138 511.192 194.421 511.273C194.661 511.341 195.002 511.19 195.045 510.92C195.374 508.806 195.704 506.689 196.036 504.575L197.613 494.461C197.734 493.686 197.856 492.911 197.974 492.136C198.018 491.863 197.904 491.593 197.621 491.512C197.38 491.445 197.04 491.596 196.997 491.866Z" fill="#EBC977"/>
<path d="M204.056 492.136C204.385 494.25 204.715 496.367 205.047 498.481L206.624 508.595C206.745 509.37 206.867 510.145 206.986 510.92C207.029 511.19 207.366 511.341 207.609 511.273C207.898 511.192 208.006 510.922 207.963 510.65C207.634 508.536 207.304 506.419 206.972 504.305L205.395 494.191C205.274 493.416 205.152 492.641 205.033 491.866C204.99 491.596 204.653 491.445 204.41 491.512C204.121 491.593 204.013 491.863 204.056 492.136Z" fill="#EBC977"/>
<path d="M401.299 465.201H328.699V537.801H401.299V465.201Z" fill="#3E2517" fill-opacity="0.2941"/>
<path d="M356.918 509.61V513.819C356.918 514.47 357.93 514.473 357.93 513.819V509.61C357.93 508.959 356.918 508.957 356.918 509.61Z" fill="#F6B9AA"/>
<path d="M371.641 509.61V513.819C371.641 514.47 372.653 514.473 372.653 513.819V509.61C372.653 508.959 371.641 508.957 371.641 509.61Z" fill="#F6B9AA"/>
<path d="M370.352 509.609V512.806C370.352 513.071 370.584 513.325 370.859 513.314C371.135 513.303 371.367 513.092 371.367 512.806V509.609C371.367 509.345 371.135 509.091 370.859 509.102C370.584 509.113 370.352 509.323 370.352 509.609Z" fill="#F6B9AA"/>
<path d="M358.18 509.609V512.806C358.18 513.071 358.412 513.325 358.687 513.314C358.963 513.303 359.195 513.092 359.195 512.806V509.609C359.195 509.345 358.963 509.091 358.687 509.102C358.412 509.113 358.18 509.323 358.18 509.609Z" fill="#F6B9AA"/>
<path d="M372.294 509.835H357.452C356.92 509.835 356.488 509.403 356.488 508.871V490.789C356.488 490.365 356.834 490.02 357.258 490.02H372.291C372.715 490.02 373.061 490.365 373.061 490.789V509.065C373.061 509.489 372.715 509.835 372.291 509.835H372.294ZM372.143 508.423V491.699C372.143 491.353 371.862 491.073 371.516 491.073H358.052C357.706 491.073 357.425 491.353 357.425 491.699V508.423C357.425 508.768 357.706 509.049 358.052 509.049H371.516C371.862 509.049 372.143 508.768 372.143 508.423Z" fill="#F6B9AA"/>
<path d="M372.941 490.364C367.501 490.364 362.06 490.364 356.617 490.364C357.073 489.802 357.53 489.243 357.986 488.682H371.829C372.199 489.243 372.571 489.802 372.941 490.364Z" fill="#F6B9AA"/>
<path d="M358.259 500.352H371.295C371.519 500.352 371.703 500.541 371.703 500.775V508.225C371.703 508.46 371.522 508.649 371.295 508.649H358.259C358.035 508.649 357.852 508.46 357.852 508.225V500.775C357.852 500.541 358.032 500.352 358.259 500.352ZM364.701 503.783C364.305 503.783 363.986 504.105 363.986 504.499C363.986 504.893 364.307 505.214 364.701 505.214C365.096 505.214 365.417 504.893 365.417 504.499C365.417 504.105 365.096 503.783 364.701 503.783Z" fill="#F6B9AA"/>
<path d="M358.267 491.543H371.303C371.527 491.543 371.71 491.732 371.71 491.967V499.416C371.71 499.651 371.529 499.84 371.303 499.84H358.267C358.043 499.84 357.859 499.651 357.859 499.416V491.967C357.859 491.732 358.04 491.543 358.267 491.543ZM364.709 494.975C364.312 494.975 363.994 495.296 363.994 495.69C363.994 496.084 364.315 496.406 364.709 496.406C365.103 496.406 365.425 496.084 365.425 495.69C365.425 495.296 365.103 494.975 364.709 494.975Z" fill="#F6B9AA"/>
<path d="M565.299 465.201H492.699V537.801H565.299V465.201Z" fill="#EBC977" fill-opacity="0.2941"/>
<path d="M519.506 498.424C521.04 500.136 522.573 501.85 524.107 503.562C526.548 506.287 528.989 509.014 531.427 511.738C531.98 512.356 532.536 512.977 533.09 513.595C533.525 514.081 534.24 513.363 533.805 512.88C532.272 511.168 530.738 509.454 529.205 507.742C526.764 505.018 524.323 502.291 521.885 499.566C521.331 498.948 520.775 498.327 520.222 497.709C519.787 497.223 519.072 497.941 519.506 498.424Z" fill="#E0550A"/>
<path d="M520.238 503.992C521.264 502.752 522.29 501.516 523.316 500.276L528.225 494.35C528.603 493.894 528.978 493.44 529.356 492.984C529.769 492.484 529.057 491.766 528.641 492.268C527.615 493.508 526.589 494.744 525.563 495.983L520.654 501.91C520.276 502.366 519.901 502.82 519.523 503.276C519.11 503.776 519.823 504.494 520.238 503.992Z" fill="#E0550A"/>
<path d="M538.609 489.6L532.399 501.199C529.124 499.901 528.017 495.632 529.828 492.303C531.624 489.003 535.741 487.613 538.609 489.6Z" fill="#E0550A"/>
<path d="M531.246 491.453L529.381 494.941C528.247 494.471 527.785 493.118 528.33 492.117C528.87 491.126 530.236 490.778 531.246 491.453Z" fill="#E0550A"/>
<path d="M533.019 514.32C536.105 514.32 538.608 513.691 538.608 512.916C538.608 512.14 536.105 511.512 533.019 511.512C529.932 511.512 527.43 512.14 527.43 512.916C527.43 513.691 529.932 514.32 533.019 514.32Z" fill="#E0550A"/>
<path d="M729.299 465.201H656.699V537.801H729.299V465.201Z" fill="#BAC685" fill-opacity="0.2941"/>
<path d="M692.475 489.17V509.676C692.475 510.619 692.435 511.572 692.475 512.514C692.475 512.528 692.475 512.541 692.475 512.555C692.475 513.205 693.488 513.208 693.488 512.555V492.051C693.488 491.109 693.528 490.155 693.488 489.213C693.488 489.2 693.488 489.186 693.488 489.173C693.488 488.522 692.475 488.519 692.475 489.173V489.17Z" fill="#F19704"/>
<path d="M702.519 499.183H683.443C682.863 494.107 687.563 489.771 693.058 489.809C698.498 489.847 703.094 494.159 702.519 499.183Z" fill="#F19704"/>
<path d="M696.015 514.319H689.945C689.761 512.451 691.255 510.858 693.004 510.871C694.735 510.885 696.198 512.472 696.015 514.319Z" fill="#F19704"/>
</svg>
