<svg width="730" height="538" viewBox="0 0 730 538" fill="none" xmlns="http://www.w3.org/2000/svg">
<path d="M73.2992 0.201172H0.699219V72.8012H73.2992V0.201172Z" fill="#F6B9AA" fill-opacity="0.2941"/>
<path d="M28.918 44.6101V48.8194C28.918 49.4701 29.9305 49.4728 29.9305 48.8194V44.6101C29.9305 43.9594 28.918 43.9567 28.918 44.6101Z" fill="#F19704"/>
<path d="M43.6406 44.6101V48.8194C43.6406 49.4701 44.6531 49.4728 44.6531 48.8194V44.6101C44.6531 43.9594 43.6406 43.9567 43.6406 44.6101Z" fill="#F19704"/>
<path d="M42.3516 44.6095V47.8063C42.3516 48.0709 42.5838 48.3247 42.8592 48.3139C43.1346 48.3031 43.3668 48.0925 43.3668 47.8063V44.6095C43.3668 44.3449 43.1346 44.0911 42.8592 44.1019C42.5838 44.1127 42.3516 44.3233 42.3516 44.6095Z" fill="#F19704"/>
<path d="M30.1797 44.6095V47.8063C30.1797 48.0709 30.4119 48.3247 30.6873 48.3139C30.9627 48.3031 31.1949 48.0925 31.1949 47.8063V44.6095C31.1949 44.3449 30.9627 44.0911 30.6873 44.1019C30.4119 44.1127 30.1797 44.3233 30.1797 44.6095Z" fill="#F19704"/>
<path d="M44.2941 44.8348H29.4522C28.9203 44.8348 28.4883 44.4028 28.4883 43.8709V25.789C28.4883 25.3651 28.8339 25.0195 29.2578 25.0195H44.2914C44.7153 25.0195 45.0609 25.3651 45.0609 25.789V44.0653C45.0609 44.4892 44.7153 44.8348 44.2914 44.8348H44.2941ZM44.1429 43.4227V26.6989C44.1429 26.3533 43.8621 26.0725 43.5165 26.0725H30.0516C29.706 26.0725 29.4252 26.3533 29.4252 26.6989V43.4227C29.4252 43.7683 29.706 44.0491 30.0516 44.0491H43.5165C43.8621 44.0491 44.1429 43.7683 44.1429 43.4227Z" fill="#F19704"/>
<path d="M44.9414 25.3637C39.5009 25.3637 34.0604 25.3637 28.6172 25.3637C29.0735 24.8021 29.5298 24.2432 29.9861 23.6816H43.829C44.1989 24.2432 44.5715 24.8021 44.9414 25.3637Z" fill="#F19704"/>
<path d="M30.2593 35.3516H43.2949C43.519 35.3516 43.7026 35.5406 43.7026 35.7755V43.2248C43.7026 43.4597 43.5217 43.6487 43.2949 43.6487H30.2593C30.0352 43.6487 29.8516 43.4597 29.8516 43.2248V35.7755C29.8516 35.5406 30.0325 35.3516 30.2593 35.3516ZM36.7015 38.7833C36.3046 38.7833 35.986 39.1046 35.986 39.4988C35.986 39.893 36.3073 40.2143 36.7015 40.2143C37.0957 40.2143 37.417 39.893 37.417 39.4988C37.417 39.1046 37.0957 38.7833 36.7015 38.7833Z" fill="#F19704"/>
<path d="M30.2671 26.543H43.3027C43.5268 26.543 43.7104 26.732 43.7104 26.9669V34.4162C43.7104 34.6511 43.5295 34.8401 43.3027 34.8401H30.2671C30.043 34.8401 29.8594 34.6511 29.8594 34.4162V26.9669C29.8594 26.732 30.0403 26.543 30.2671 26.543ZM36.7093 29.9747C36.3124 29.9747 35.9938 30.296 35.9938 30.6902C35.9938 31.0844 36.3151 31.4057 36.7093 31.4057C37.1035 31.4057 37.4248 31.0844 37.4248 30.6902C37.4248 30.296 37.1035 29.9747 36.7093 29.9747Z" fill="#F19704"/>
<path d="M237.299 0.201172H164.699V72.8012H237.299V0.201172Z" fill="#3E2517" fill-opacity="0.2941"/>
<path d="M192.836 28.5817C193.43 28.3684 193.473 27.9175 194.102 27.4882C194.502 27.2155 194.871 27.1345 195.293 27.04C196.902 26.6863 198.773 27.3235 200.836 27.3127C203.258 27.3019 205.11 26.4028 206.66 26.9401C207.467 27.2209 207.85 27.4855 207.85 27.4855C208.531 27.9607 208.631 28.3819 209.203 28.525C209.262 28.5385 209.859 28.6789 210.261 28.3495C210.693 27.9958 210.734 27.2317 210.496 26.7133C209.991 25.6225 208.134 25.393 207.167 25.2715C206.26 25.1581 205.925 25.2661 205.142 24.9988C204.37 24.7342 204.286 24.4885 203.557 24.1591C202.421 23.6515 201.365 23.6731 200.658 23.6866C200.031 23.7001 198.97 23.7217 197.839 24.2536C197.277 24.5182 197.042 24.745 196.305 25.0015C195.652 25.2283 195.317 25.231 194.709 25.3498C193.543 25.5766 191.942 25.8871 191.496 26.8942C191.253 27.4423 191.34 28.2307 191.783 28.5358C192.177 28.8058 192.741 28.6141 192.836 28.5817Z" fill="#DBC7EE"/>
<path d="M200.834 37.2972C197.346 37.2702 194.214 36.2226 193.544 35.9931H193.539C193.55 35.6259 193.558 35.2587 193.569 34.8888C194.36 34.6566 195.151 34.4217 195.945 34.1895C197.613 34.1949 199.293 34.203 200.978 34.2165C202.665 34.23 204.342 34.2489 206.01 34.2732C206.823 34.5351 207.636 34.797 208.448 35.0616C208.475 35.607 208.489 36.0363 208.467 36.0363C208.467 36.0363 204.812 37.3323 200.834 37.2999V37.2972Z" fill="#DBC7EE"/>
<path d="M193.551 34.401C193.313 36.0075 193.075 37.614 192.838 39.2178C192.46 41.7666 192.082 44.3154 191.704 46.8615C191.617 47.4501 191.528 48.0414 191.442 48.63C191.401 48.9027 191.509 49.17 191.796 49.2537C192.033 49.3212 192.379 49.17 192.419 48.9C192.657 47.2935 192.894 45.687 193.132 44.0832C193.51 41.5344 193.888 38.9856 194.266 36.4395C194.352 35.8509 194.442 35.2596 194.528 34.671C194.568 34.3983 194.46 34.131 194.174 34.0473C193.937 33.9798 193.591 34.131 193.551 34.401Z" fill="#DBC7EE"/>
<path d="M207.563 34.7335C207.801 36.34 208.038 37.9465 208.276 39.5503L209.41 47.194C209.496 47.7826 209.585 48.3739 209.672 48.9625C209.712 49.2325 210.055 49.3837 210.295 49.3162C210.584 49.2352 210.69 48.9652 210.649 48.6925C210.412 47.086 210.174 45.4795 209.936 43.8757L208.802 36.232C208.716 35.6434 208.627 35.0521 208.54 34.4635C208.5 34.1935 208.157 34.0423 207.917 34.1098C207.628 34.1908 207.523 34.4608 207.563 34.7335Z" fill="#DBC7EE"/>
<path d="M196.997 26.8658C196.668 28.9799 196.338 31.0967 196.006 33.2108L194.429 43.325C194.308 44.0999 194.186 44.8748 194.067 45.6497C194.024 45.9224 194.138 46.1924 194.421 46.2734C194.661 46.3409 195.002 46.1897 195.045 45.9197C195.374 43.8056 195.704 41.6888 196.036 39.5747L197.613 29.4605C197.734 28.6856 197.856 27.9107 197.974 27.1358C198.018 26.8631 197.904 26.5931 197.621 26.5121C197.38 26.4446 197.04 26.5958 196.997 26.8658Z" fill="#DBC7EE"/>
<path d="M204.056 27.1358C204.385 29.2499 204.715 31.3667 205.047 33.4808L206.624 43.595C206.745 44.3699 206.867 45.1448 206.986 45.9197C207.029 46.1897 207.366 46.3409 207.609 46.2734C207.898 46.1924 208.006 45.9224 207.963 45.6497C207.634 43.5356 207.304 41.4188 206.972 39.3047L205.395 29.1905C205.274 28.4156 205.152 27.6407 205.033 26.8658C204.99 26.5958 204.653 26.4446 204.41 26.5121C204.121 26.5931 204.013 26.8631 204.056 27.1358Z" fill="#DBC7EE"/>
<path d="M401.299 0.201172H328.699V72.8012H401.299V0.201172Z" fill="#EBC977" fill-opacity="0.2941"/>
<path d="M356.832 28.5836C357.426 28.3703 357.469 27.9194 358.098 27.4901C358.498 27.2174 358.867 27.1364 359.289 27.0419C360.898 26.6882 362.769 27.3254 364.832 27.3146C367.254 27.3038 369.106 26.4047 370.656 26.942C371.463 27.2228 371.846 27.4874 371.846 27.4874C372.527 27.9626 372.627 28.3838 373.199 28.5269C373.258 28.5404 373.855 28.6808 374.257 28.3514C374.689 27.9977 374.73 27.2336 374.492 26.7152C373.987 25.6244 372.13 25.3949 371.163 25.2734C370.256 25.16 369.921 25.268 369.138 25.0007C368.366 24.7361 368.282 24.4904 367.553 24.161C366.417 23.6534 365.361 23.675 364.654 23.6885C364.027 23.702 362.966 23.7236 361.835 24.2555C361.273 24.5201 361.038 24.7469 360.301 25.0034C359.648 25.2302 359.313 25.2329 358.705 25.3517C357.539 25.5785 355.938 25.889 355.492 26.8961C355.249 27.4442 355.336 28.2326 355.779 28.5377C356.173 28.8077 356.737 28.616 356.832 28.5836Z" fill="#EBC977"/>
<path d="M364.831 37.2991C361.342 37.2721 358.21 36.2245 357.541 35.995H357.535C357.546 35.6278 357.554 35.2606 357.565 34.8907C358.356 34.6585 359.147 34.4236 359.941 34.1914C361.609 34.1968 363.289 34.2049 364.974 34.2184C366.661 34.2319 368.338 34.2508 370.006 34.2751C370.819 34.537 371.632 34.7989 372.445 35.0635C372.472 35.6089 372.485 36.0382 372.463 36.0382C372.463 36.0382 368.808 37.3342 364.831 37.3018V37.2991Z" fill="#EBC977"/>
<path d="M357.547 34.401C357.309 36.0075 357.071 37.614 356.834 39.2178C356.456 41.7666 356.078 44.3154 355.7 46.8615C355.613 47.4501 355.524 48.0414 355.438 48.63C355.397 48.9027 355.505 49.17 355.792 49.2537C356.029 49.3212 356.375 49.17 356.415 48.9C356.653 47.2935 356.89 45.687 357.128 44.0832C357.506 41.5344 357.884 38.9856 358.262 36.4395C358.348 35.8509 358.438 35.2596 358.524 34.671C358.564 34.3983 358.456 34.131 358.17 34.0473C357.933 33.9798 357.587 34.131 357.547 34.401Z" fill="#EBC977"/>
<path d="M371.563 34.7335C371.801 36.34 372.038 37.9465 372.276 39.5503L373.41 47.194C373.496 47.7826 373.585 48.3739 373.672 48.9625C373.712 49.2325 374.055 49.3837 374.295 49.3162C374.584 49.2352 374.69 48.9652 374.649 48.6925C374.412 47.086 374.174 45.4795 373.936 43.8757L372.802 36.232C372.716 35.6434 372.627 35.0521 372.54 34.4635C372.5 34.1935 372.157 34.0423 371.917 34.1098C371.628 34.1908 371.523 34.4608 371.563 34.7335Z" fill="#EBC977"/>
<path d="M360.993 26.8697C360.664 28.9838 360.334 31.1006 360.002 33.2147L358.425 43.3289C358.304 44.1038 358.182 44.8787 358.064 45.6536C358.02 45.9263 358.134 46.1963 358.417 46.2773C358.658 46.3448 358.998 46.1936 359.041 45.9236C359.37 43.8095 359.7 41.6927 360.032 39.5786L361.609 29.4644C361.73 28.6895 361.852 27.9146 361.97 27.1397C362.014 26.867 361.9 26.597 361.617 26.516C361.376 26.4485 361.036 26.5997 360.993 26.8697Z" fill="#EBC977"/>
<path d="M368.056 27.1358C368.385 29.2499 368.715 31.3667 369.047 33.4808L370.624 43.595C370.745 44.3699 370.867 45.1448 370.986 45.9197C371.029 46.1897 371.366 46.3409 371.609 46.2734C371.898 46.1924 372.006 45.9224 371.963 45.6497C371.634 43.5356 371.304 41.4188 370.972 39.3047L369.395 29.1905C369.274 28.4156 369.152 27.6407 369.033 26.8658C368.99 26.5958 368.653 26.4446 368.41 26.5121C368.121 26.5931 368.013 26.8631 368.056 27.1358Z" fill="#EBC977"/>
<path d="M565.299 0.201172H492.699V72.8012H565.299V0.201172Z" fill="#F19704" fill-opacity="0.2941"/>
<path d="M528.475 24.1719V44.6784C528.475 45.6207 528.435 46.5738 528.475 47.5161C528.475 47.5296 528.475 47.5431 528.475 47.5566C528.475 48.2073 529.488 48.21 529.488 47.5566V27.0528C529.488 26.1105 529.528 25.1574 529.488 24.2151C529.488 24.2016 529.488 24.1881 529.488 24.1746C529.488 23.5239 528.475 23.5212 528.475 24.1746V24.1719Z" fill="#F6B9AA"/>
<path d="M538.519 34.1871H519.443C518.863 29.1111 523.563 24.7749 529.058 24.8127C534.498 24.8505 539.094 29.1624 538.519 34.1871Z" fill="#F6B9AA"/>
<path d="M532.015 49.3191H525.945C525.761 47.4507 527.255 45.8577 529.004 45.8712C530.735 45.8847 532.198 47.4723 532.015 49.3191Z" fill="#F6B9AA"/>
<path d="M729.299 0.201172H656.699V72.8012H729.299V0.201172Z" fill="#BAC685" fill-opacity="0.2941"/>
<path d="M684.918 44.6101V48.8194C684.918 49.4701 685.93 49.4728 685.93 48.8194V44.6101C685.93 43.9594 684.918 43.9567 684.918 44.6101Z" fill="#3E2517"/>
<path d="M699.641 44.6101V48.8194C699.641 49.4701 700.653 49.4728 700.653 48.8194V44.6101C700.653 43.9594 699.641 43.9567 699.641 44.6101Z" fill="#3E2517"/>
<path d="M698.352 44.6095V47.8063C698.352 48.0709 698.584 48.3247 698.859 48.3139C699.135 48.3031 699.367 48.0925 699.367 47.8063V44.6095C699.367 44.3449 699.135 44.0911 698.859 44.1019C698.584 44.1127 698.352 44.3233 698.352 44.6095Z" fill="#3E2517"/>
<path d="M686.18 44.6095V47.8063C686.18 48.0709 686.412 48.3247 686.687 48.3139C686.963 48.3031 687.195 48.0925 687.195 47.8063V44.6095C687.195 44.3449 686.963 44.0911 686.687 44.1019C686.412 44.1127 686.18 44.3233 686.18 44.6095Z" fill="#3E2517"/>
<path d="M700.294 44.8348H685.452C684.92 44.8348 684.488 44.4028 684.488 43.8709V25.789C684.488 25.3651 684.834 25.0195 685.258 25.0195H700.291C700.715 25.0195 701.061 25.3651 701.061 25.789V44.0653C701.061 44.4892 700.715 44.8348 700.291 44.8348H700.294ZM700.143 43.4227V26.6989C700.143 26.3533 699.862 26.0725 699.516 26.0725H686.052C685.706 26.0725 685.425 26.3533 685.425 26.6989V43.4227C685.425 43.7683 685.706 44.0491 686.052 44.0491H699.516C699.862 44.0491 700.143 43.7683 700.143 43.4227Z" fill="#3E2517"/>
<path d="M700.941 25.3637C695.501 25.3637 690.06 25.3637 684.617 25.3637C685.073 24.8021 685.53 24.2432 685.986 23.6816H699.829C700.199 24.2432 700.571 24.8021 700.941 25.3637Z" fill="#3E2517"/>
<path d="M686.259 35.3516H699.295C699.519 35.3516 699.703 35.5406 699.703 35.7755V43.2248C699.703 43.4597 699.522 43.6487 699.295 43.6487H686.259C686.035 43.6487 685.852 43.4597 685.852 43.2248V35.7755C685.852 35.5406 686.032 35.3516 686.259 35.3516ZM692.701 38.7833C692.305 38.7833 691.986 39.1046 691.986 39.4988C691.986 39.893 692.307 40.2143 692.701 40.2143C693.096 40.2143 693.417 39.893 693.417 39.4988C693.417 39.1046 693.096 38.7833 692.701 38.7833Z" fill="#3E2517"/>
<path d="M686.267 26.543H699.303C699.527 26.543 699.71 26.732 699.71 26.9669V34.4162C699.71 34.6511 699.529 34.8401 699.303 34.8401H686.267C686.043 34.8401 685.859 34.6511 685.859 34.4162V26.9669C685.859 26.732 686.04 26.543 686.267 26.543ZM692.709 29.9747C692.312 29.9747 691.994 30.296 691.994 30.6902C691.994 31.0844 692.315 31.4057 692.709 31.4057C693.103 31.4057 693.425 31.0844 693.425 30.6902C693.425 30.296 693.103 29.9747 692.709 29.9747Z" fill="#3E2517"/>
<path d="M73.2992 155.201H0.699219V227.801H73.2992V155.201Z" fill="#DBC7EE" fill-opacity="0.2941"/>
<path d="M36.475 179.172V199.678C36.475 200.621 36.4345 201.574 36.475 202.516C36.475 202.53 36.475 202.543 36.475 202.557C36.475 203.207 37.4875 203.21 37.4875 202.557V182.053C37.4875 181.11 37.528 180.157 37.4875 179.215C37.4875 179.202 37.4875 179.188 37.4875 179.175C37.4875 178.524 36.475 178.521 36.475 179.175V179.172Z" fill="#037ECB"/>
<path d="M46.5187 189.187H27.4432C26.8627 184.111 31.5634 179.775 37.0579 179.813C42.4984 179.851 47.0938 184.162 46.5187 189.187Z" fill="#037ECB"/>
<path d="M40.0146 204.319H33.945C33.7614 202.451 35.2545 200.858 37.0041 200.871C38.7348 200.885 40.1982 202.472 40.0146 204.319Z" fill="#037ECB"/>
<path d="M237.299 155.201H164.699V227.801H237.299V155.201Z" fill="#F6B9AA" fill-opacity="0.2941"/>
<path d="M200.475 179.172V199.678C200.475 200.621 200.435 201.574 200.475 202.516C200.475 202.53 200.475 202.543 200.475 202.557C200.475 203.207 201.488 203.21 201.488 202.557V182.053C201.488 181.11 201.528 180.157 201.488 179.215C201.488 179.202 201.488 179.188 201.488 179.175C201.488 178.524 200.475 178.521 200.475 179.175V179.172Z" fill="#E0550A"/>
<path d="M210.519 189.187H191.443C190.863 184.111 195.563 179.775 201.058 179.813C206.498 179.851 211.094 184.162 210.519 189.187Z" fill="#E0550A"/>
<path d="M204.015 204.319H197.945C197.761 202.451 199.255 200.858 201.004 200.871C202.735 200.885 204.198 202.472 204.015 204.319Z" fill="#E0550A"/>
<path d="M401.299 155.201H328.699V227.801H401.299V155.201Z" fill="#3E2517" fill-opacity="0.2941"/>
<path d="M356.836 183.582C357.43 183.368 357.473 182.917 358.102 182.488C358.502 182.215 358.871 182.134 359.293 182.04C360.902 181.686 362.773 182.323 364.836 182.313C367.258 182.302 369.11 181.403 370.66 181.94C371.467 182.221 371.85 182.485 371.85 182.485C372.531 182.961 372.631 183.382 373.203 183.525C373.262 183.538 373.859 183.679 374.261 183.349C374.693 182.996 374.734 182.232 374.496 181.713C373.991 180.622 372.134 180.393 371.167 180.271C370.26 180.158 369.925 180.266 369.142 179.999C368.37 179.734 368.286 179.488 367.557 179.159C366.421 178.651 365.365 178.673 364.658 178.687C364.031 178.7 362.97 178.722 361.839 179.254C361.277 179.518 361.042 179.745 360.305 180.001C359.652 180.228 359.317 180.231 358.709 180.35C357.543 180.577 355.942 180.887 355.496 181.894C355.253 182.442 355.34 183.231 355.783 183.536C356.177 183.806 356.741 183.614 356.836 183.582Z" fill="#F19704"/>
<path d="M364.834 192.297C361.346 192.27 358.214 191.223 357.544 190.993H357.539C357.55 190.626 357.558 190.259 357.569 189.889C358.36 189.657 359.151 189.422 359.945 189.189C361.613 189.195 363.293 189.203 364.978 189.216C366.665 189.23 368.342 189.249 370.01 189.273C370.823 189.535 371.636 189.797 372.448 190.062C372.475 190.607 372.489 191.036 372.467 191.036C372.467 191.036 368.812 192.332 364.834 192.3V192.297Z" fill="#F19704"/>
<path d="M357.551 189.401C357.313 191.007 357.075 192.614 356.838 194.218C356.46 196.767 356.082 199.315 355.704 201.861C355.617 202.45 355.528 203.041 355.442 203.63C355.401 203.903 355.509 204.17 355.796 204.254C356.033 204.321 356.379 204.17 356.419 203.9C356.657 202.293 356.894 200.687 357.132 199.083C357.51 196.534 357.888 193.986 358.266 191.439C358.352 190.851 358.442 190.26 358.528 189.671C358.568 189.398 358.46 189.131 358.174 189.047C357.937 188.98 357.591 189.131 357.551 189.401Z" fill="#F19704"/>
<path d="M371.563 189.733C371.801 191.34 372.038 192.946 372.276 194.55L373.41 202.194C373.496 202.783 373.585 203.374 373.672 203.962C373.712 204.232 374.055 204.384 374.295 204.316C374.584 204.235 374.69 203.965 374.649 203.692C374.412 202.086 374.174 200.479 373.936 198.876L372.802 191.232C372.716 190.643 372.627 190.052 372.54 189.463C372.5 189.193 372.157 189.042 371.917 189.11C371.628 189.191 371.523 189.461 371.563 189.733Z" fill="#F19704"/>
<path d="M360.997 181.866C360.668 183.98 360.338 186.097 360.006 188.211L358.429 198.325C358.308 199.1 358.186 199.875 358.067 200.65C358.024 200.922 358.138 201.192 358.421 201.273C358.661 201.341 359.002 201.19 359.045 200.92C359.374 198.806 359.704 196.689 360.036 194.575L361.613 184.461C361.734 183.686 361.856 182.911 361.974 182.136C362.018 181.863 361.904 181.593 361.621 181.512C361.38 181.445 361.04 181.596 360.997 181.866Z" fill="#F19704"/>
<path d="M368.056 182.136C368.385 184.25 368.715 186.367 369.047 188.481L370.624 198.595C370.745 199.37 370.867 200.145 370.986 200.92C371.029 201.19 371.366 201.341 371.609 201.273C371.898 201.192 372.006 200.922 371.963 200.65C371.634 198.536 371.304 196.419 370.972 194.305L369.395 184.191C369.274 183.416 369.152 182.641 369.033 181.866C368.99 181.596 368.653 181.445 368.41 181.512C368.121 181.593 368.013 181.863 368.056 182.136Z" fill="#F19704"/>
<path d="M565.299 155.201H492.699V227.801H565.299V155.201Z" fill="#BAC685" fill-opacity="0.2941"/>
<path d="M520.914 199.61V203.819C520.914 204.47 521.927 204.473 521.927 203.819V199.61C521.927 198.959 520.914 198.957 520.914 199.61Z" fill="#BAC685"/>
<path d="M535.633 199.61V203.819C535.633 204.47 536.645 204.473 536.645 203.819V199.61C536.645 198.959 535.633 198.957 535.633 199.61Z" fill="#BAC685"/>
<path d="M534.344 199.609V202.806C534.344 203.071 534.576 203.325 534.851 203.314C535.127 203.303 535.359 203.092 535.359 202.806V199.609C535.359 199.345 535.127 199.091 534.851 199.102C534.576 199.113 534.344 199.323 534.344 199.609Z" fill="#BAC685"/>
<path d="M522.176 199.609V202.806C522.176 203.071 522.408 203.325 522.683 203.314C522.959 203.303 523.191 203.092 523.191 202.806V199.609C523.191 199.345 522.959 199.091 522.683 199.102C522.408 199.113 522.176 199.323 522.176 199.609Z" fill="#BAC685"/>
<path d="M536.29 199.835H521.448C520.916 199.835 520.484 199.403 520.484 198.871V180.789C520.484 180.365 520.83 180.02 521.254 180.02H536.287C536.711 180.02 537.057 180.365 537.057 180.789V199.065C537.057 199.489 536.711 199.835 536.287 199.835H536.29ZM536.139 198.423V181.699C536.139 181.353 535.858 181.073 535.513 181.073H522.048C521.702 181.073 521.421 181.353 521.421 181.699V198.423C521.421 198.768 521.702 199.049 522.048 199.049H535.513C535.858 199.049 536.139 198.768 536.139 198.423Z" fill="#BAC685"/>
<path d="M536.941 180.366C531.501 180.366 526.06 180.366 520.617 180.366C521.073 179.804 521.53 179.245 521.986 178.684H535.829C536.199 179.245 536.571 179.804 536.941 180.366Z" fill="#BAC685"/>
<path d="M522.259 190.352H535.295C535.519 190.352 535.703 190.541 535.703 190.775V198.225C535.703 198.46 535.522 198.649 535.295 198.649H522.259C522.035 198.649 521.852 198.46 521.852 198.225V190.775C521.852 190.541 522.032 190.352 522.259 190.352ZM528.701 193.783C528.305 193.783 527.986 194.105 527.986 194.499C527.986 194.893 528.307 195.214 528.701 195.214C529.096 195.214 529.417 194.893 529.417 194.499C529.417 194.105 529.096 193.783 528.701 193.783Z" fill="#BAC685"/>
<path d="M522.263 181.545H535.299C535.523 181.545 535.706 181.734 535.706 181.969V189.418C535.706 189.653 535.526 189.842 535.299 189.842H522.263C522.039 189.842 521.855 189.653 521.855 189.418V181.969C521.855 181.734 522.036 181.545 522.263 181.545ZM528.705 184.977C528.308 184.977 527.99 185.298 527.99 185.692C527.99 186.086 528.311 186.408 528.705 186.408C529.1 186.408 529.421 186.086 529.421 185.692C529.421 185.298 529.1 184.977 528.705 184.977Z" fill="#BAC685"/>
<path d="M729.299 155.201H656.699V227.801H729.299V155.201Z" fill="#F19704" fill-opacity="0.2941"/>
<path d="M683.506 188.424C685.04 190.136 686.573 191.85 688.107 193.562C690.548 196.287 692.989 199.014 695.427 201.738C695.98 202.356 696.536 202.977 697.09 203.595C697.525 204.081 698.24 203.363 697.805 202.88C696.272 201.168 694.738 199.454 693.205 197.742C690.764 195.018 688.323 192.291 685.885 189.566C685.331 188.948 684.775 188.327 684.222 187.709C683.787 187.223 683.072 187.941 683.506 188.424Z" fill="#EBC977"/>
<path d="M684.238 193.992C685.264 192.752 686.29 191.516 687.316 190.276L692.225 184.35C692.603 183.894 692.978 183.44 693.356 182.984C693.769 182.484 693.057 181.766 692.641 182.268C691.615 183.508 690.589 184.744 689.563 185.983L684.654 191.91C684.276 192.366 683.901 192.82 683.523 193.276C683.11 193.776 683.823 194.494 684.238 193.992Z" fill="#EBC977"/>
<path d="M702.609 179.6L696.399 191.199C693.124 189.901 692.017 185.632 693.828 182.303C695.624 179.003 699.741 177.613 702.609 179.6Z" fill="#EBC977"/>
<path d="M695.246 181.453L693.381 184.941C692.247 184.471 691.785 183.118 692.33 182.117C692.87 181.126 694.236 180.778 695.246 181.453Z" fill="#EBC977"/>
<path d="M697.019 204.32C700.105 204.32 702.608 203.691 702.608 202.916C702.608 202.14 700.105 201.512 697.019 201.512C693.932 201.512 691.43 202.14 691.43 202.916C691.43 203.691 693.932 204.32 697.019 204.32Z" fill="#EBC977"/>
<path d="M73.2992 310.201H0.699219V382.801H73.2992V310.201Z" fill="#E0550A" fill-opacity="0.2941"/>
<path d="M28.8356 338.582C29.4296 338.368 29.4728 337.917 30.1019 337.488C30.5015 337.215 30.8714 337.134 31.2926 337.04C32.9018 336.686 34.7729 337.323 36.8357 337.313C39.2576 337.302 41.1098 336.403 42.6596 336.94C43.4669 337.221 43.8503 337.485 43.8503 337.485C44.5307 337.961 44.6306 338.382 45.203 338.525C45.2624 338.538 45.8591 338.679 46.2614 338.349C46.6934 337.996 46.7339 337.232 46.4963 336.713C45.9914 335.622 44.1338 335.393 43.1672 335.271C42.26 335.158 41.9252 335.266 41.1422 334.999C40.37 334.734 40.2863 334.488 39.5573 334.159C38.4206 333.651 37.3649 333.673 36.6575 333.687C36.0311 333.7 34.97 333.722 33.8387 334.254C33.2771 334.518 33.0422 334.745 32.3051 335.001C31.6517 335.228 31.3169 335.231 30.7094 335.35C29.543 335.577 27.9419 335.887 27.4964 336.894C27.2534 337.442 27.3398 338.231 27.7826 338.536C28.1768 338.806 28.7411 338.614 28.8356 338.582Z" fill="#F6B9AA"/>
<path d="M36.8345 347.297C33.3461 347.27 30.2141 346.223 29.5445 345.993H29.5391C29.5499 345.626 29.558 345.259 29.5688 344.889C30.3599 344.657 31.151 344.422 31.9448 344.189C33.6134 344.195 35.2928 344.203 36.9776 344.216C38.6651 344.23 40.3418 344.249 42.0104 344.273C42.8231 344.535 43.6358 344.797 44.4485 345.062C44.4755 345.607 44.489 346.036 44.4674 346.036C44.4674 346.036 40.8116 347.332 36.8345 347.3V347.297Z" fill="#F6B9AA"/>
<path d="M29.5505 344.401C29.3129 346.007 29.0753 347.614 28.8377 349.218C28.4597 351.767 28.0817 354.315 27.7037 356.861C27.6173 357.45 27.5282 358.041 27.4418 358.63C27.4013 358.903 27.5093 359.17 27.7955 359.254C28.0331 359.321 28.3787 359.17 28.4192 358.9C28.6568 357.293 28.8944 355.687 29.132 354.083C29.51 351.534 29.888 348.986 30.266 346.439C30.3524 345.851 30.4415 345.26 30.5279 344.671C30.5684 344.398 30.4604 344.131 30.1742 344.047C29.9366 343.98 29.591 344.131 29.5505 344.401Z" fill="#F6B9AA"/>
<path d="M43.563 344.733C43.8006 346.34 44.0382 347.946 44.2758 349.55L45.4098 357.194C45.4962 357.783 45.5853 358.374 45.6717 358.962C45.7122 359.232 46.0551 359.384 46.2954 359.316C46.5843 359.235 46.6896 358.965 46.6491 358.692C46.4115 357.086 46.1739 355.479 45.9363 353.876L44.8023 346.232C44.7159 345.643 44.6268 345.052 44.5404 344.463C44.4999 344.193 44.157 344.042 43.9167 344.11C43.6278 344.191 43.5225 344.461 43.563 344.733Z" fill="#F6B9AA"/>
<path d="M32.997 336.866C32.6676 338.98 32.3382 341.097 32.0061 343.211L30.4293 353.325C30.3078 354.1 30.1863 354.875 30.0675 355.65C30.0243 355.922 30.1377 356.192 30.4212 356.273C30.6615 356.341 31.0017 356.19 31.0449 355.92C31.3743 353.806 31.7037 351.689 32.0358 349.575L33.6126 339.461C33.7341 338.686 33.8556 337.911 33.9744 337.136C34.0176 336.863 33.9042 336.593 33.6207 336.512C33.3804 336.445 33.0402 336.596 32.997 336.866Z" fill="#F6B9AA"/>
<path d="M40.056 337.136C40.3854 339.25 40.7148 341.367 41.0469 343.481L42.6237 353.595C42.7452 354.37 42.8667 355.145 42.9855 355.92C43.0287 356.19 43.3662 356.341 43.6092 356.273C43.8981 356.192 44.0061 355.922 43.9629 355.65C43.6335 353.536 43.3041 351.419 42.972 349.305L41.3952 339.191C41.2737 338.416 41.1522 337.641 41.0334 336.866C40.9902 336.596 40.6527 336.445 40.4097 336.512C40.1208 336.593 40.0128 336.863 40.056 337.136Z" fill="#F6B9AA"/>
<path d="M237.299 310.201H164.699V382.801H237.299V310.201Z" fill="#037ECB" fill-opacity="0.2941"/>
<path d="M192.918 354.61V358.819C192.918 359.47 193.93 359.473 193.93 358.819V354.61C193.93 353.959 192.918 353.957 192.918 354.61Z" fill="#EBC977"/>
<path d="M207.641 354.61V358.819C207.641 359.47 208.653 359.473 208.653 358.819V354.61C208.653 353.959 207.641 353.957 207.641 354.61Z" fill="#EBC977"/>
<path d="M206.352 354.609V357.806C206.352 358.071 206.584 358.325 206.859 358.314C207.135 358.303 207.367 358.092 207.367 357.806V354.609C207.367 354.345 207.135 354.091 206.859 354.102C206.584 354.113 206.352 354.323 206.352 354.609Z" fill="#EBC977"/>
<path d="M194.18 354.609V357.806C194.18 358.071 194.412 358.325 194.687 358.314C194.963 358.303 195.195 358.092 195.195 357.806V354.609C195.195 354.345 194.963 354.091 194.687 354.102C194.412 354.113 194.18 354.323 194.18 354.609Z" fill="#EBC977"/>
<path d="M208.294 354.835H193.452C192.92 354.835 192.488 354.403 192.488 353.871V335.789C192.488 335.365 192.834 335.02 193.258 335.02H208.291C208.715 335.02 209.061 335.365 209.061 335.789V354.065C209.061 354.489 208.715 354.835 208.291 354.835H208.294ZM208.143 353.423V336.699C208.143 336.353 207.862 336.073 207.516 336.073H194.052C193.706 336.073 193.425 336.353 193.425 336.699V353.423C193.425 353.768 193.706 354.049 194.052 354.049H207.516C207.862 354.049 208.143 353.768 208.143 353.423Z" fill="#EBC977"/>
<path d="M208.941 335.364C203.501 335.364 198.06 335.364 192.617 335.364C193.073 334.802 193.53 334.243 193.986 333.682H207.829C208.199 334.243 208.571 334.802 208.941 335.364Z" fill="#EBC977"/>
<path d="M194.259 345.352H207.295C207.519 345.352 207.703 345.541 207.703 345.775V353.225C207.703 353.46 207.522 353.649 207.295 353.649H194.259C194.035 353.649 193.852 353.46 193.852 353.225V345.775C193.852 345.541 194.032 345.352 194.259 345.352ZM200.701 348.783C200.305 348.783 199.986 349.105 199.986 349.499C199.986 349.893 200.307 350.214 200.701 350.214C201.096 350.214 201.417 349.893 201.417 349.499C201.417 349.105 201.096 348.783 200.701 348.783Z" fill="#EBC977"/>
<path d="M194.267 336.543H207.303C207.527 336.543 207.71 336.732 207.71 336.967V344.416C207.71 344.651 207.529 344.84 207.303 344.84H194.267C194.043 344.84 193.859 344.651 193.859 344.416V336.967C193.859 336.732 194.04 336.543 194.267 336.543ZM200.709 339.975C200.312 339.975 199.994 340.296 199.994 340.69C199.994 341.084 200.315 341.406 200.709 341.406C201.103 341.406 201.425 341.084 201.425 340.69C201.425 340.296 201.103 339.975 200.709 339.975Z" fill="#EBC977"/>
<path d="M401.299 310.201H328.699V382.801H401.299V310.201Z" fill="#3E2517" fill-opacity="0.2941"/>
<path d="M356.836 338.582C357.43 338.368 357.473 337.917 358.102 337.488C358.502 337.215 358.871 337.134 359.293 337.04C360.902 336.686 362.773 337.323 364.836 337.313C367.258 337.302 369.11 336.403 370.66 336.94C371.467 337.221 371.85 337.485 371.85 337.485C372.531 337.961 372.631 338.382 373.203 338.525C373.262 338.538 373.859 338.679 374.261 338.349C374.693 337.996 374.734 337.232 374.496 336.713C373.991 335.622 372.134 335.393 371.167 335.271C370.26 335.158 369.925 335.266 369.142 334.999C368.37 334.734 368.286 334.488 367.557 334.159C366.421 333.651 365.365 333.673 364.658 333.687C364.031 333.7 362.97 333.722 361.839 334.254C361.277 334.518 361.042 334.745 360.305 335.001C359.652 335.228 359.317 335.231 358.709 335.35C357.543 335.577 355.942 335.887 355.496 336.894C355.253 337.442 355.34 338.231 355.783 338.536C356.177 338.806 356.741 338.614 356.836 338.582Z" fill="#037ECB"/>
<path d="M364.834 347.297C361.346 347.27 358.214 346.223 357.544 345.993H357.539C357.55 345.626 357.558 345.259 357.569 344.889C358.36 344.657 359.151 344.422 359.945 344.189C361.613 344.195 363.293 344.203 364.978 344.216C366.665 344.23 368.342 344.249 370.01 344.273C370.823 344.535 371.636 344.797 372.448 345.062C372.475 345.607 372.489 346.036 372.467 346.036C372.467 346.036 368.812 347.332 364.834 347.3V347.297Z" fill="#037ECB"/>
<path d="M357.551 344.401C357.313 346.007 357.075 347.614 356.838 349.218C356.46 351.767 356.082 354.315 355.704 356.861C355.617 357.45 355.528 358.041 355.442 358.63C355.401 358.903 355.509 359.17 355.796 359.254C356.033 359.321 356.379 359.17 356.419 358.9C356.657 357.293 356.894 355.687 357.132 354.083C357.51 351.534 357.888 348.986 358.266 346.439C358.352 345.851 358.442 345.26 358.528 344.671C358.568 344.398 358.46 344.131 358.174 344.047C357.937 343.98 357.591 344.131 357.551 344.401Z" fill="#037ECB"/>
<path d="M371.563 344.733C371.801 346.34 372.038 347.946 372.276 349.55L373.41 357.194C373.496 357.783 373.585 358.374 373.672 358.962C373.712 359.232 374.055 359.384 374.295 359.316C374.584 359.235 374.69 358.965 374.649 358.692C374.412 357.086 374.174 355.479 373.936 353.876L372.802 346.232C372.716 345.643 372.627 345.052 372.54 344.463C372.5 344.193 372.157 344.042 371.917 344.11C371.628 344.191 371.523 344.461 371.563 344.733Z" fill="#037ECB"/>
<path d="M360.997 336.866C360.668 338.98 360.338 341.097 360.006 343.211L358.429 353.325C358.308 354.1 358.186 354.875 358.067 355.65C358.024 355.922 358.138 356.192 358.421 356.273C358.661 356.341 359.002 356.19 359.045 355.92C359.374 353.806 359.704 351.689 360.036 349.575L361.613 339.461C361.734 338.686 361.856 337.911 361.974 337.136C362.018 336.863 361.904 336.593 361.621 336.512C361.38 336.445 361.04 336.596 360.997 336.866Z" fill="#037ECB"/>
<path d="M368.056 337.136C368.385 339.25 368.715 341.367 369.047 343.481L370.624 353.595C370.745 354.37 370.867 355.145 370.986 355.92C371.029 356.19 371.366 356.341 371.609 356.273C371.898 356.192 372.006 355.922 371.963 355.65C371.634 353.536 371.304 351.419 370.972 349.305L369.395 339.191C369.274 338.416 369.152 337.641 369.033 336.866C368.99 336.596 368.653 336.445 368.41 336.512C368.121 336.593 368.013 336.863 368.056 337.136Z" fill="#037ECB"/>
<path d="M565.299 310.201H492.699V382.801H565.299V310.201Z" fill="#F19704" fill-opacity="0.2941"/>
<path d="M520.914 354.61V358.819C520.914 359.47 521.927 359.473 521.927 358.819V354.61C521.927 353.959 520.914 353.957 520.914 354.61Z" fill="#F19704"/>
<path d="M535.633 354.61V358.819C535.633 359.47 536.645 359.473 536.645 358.819V354.61C536.645 353.959 535.633 353.957 535.633 354.61Z" fill="#F19704"/>
<path d="M534.344 354.609V357.806C534.344 358.071 534.576 358.325 534.851 358.314C535.127 358.303 535.359 358.092 535.359 357.806V354.609C535.359 354.345 535.127 354.091 534.851 354.102C534.576 354.113 534.344 354.323 534.344 354.609Z" fill="#F19704"/>
<path d="M522.176 354.609V357.806C522.176 358.071 522.408 358.325 522.683 358.314C522.959 358.303 523.191 358.092 523.191 357.806V354.609C523.191 354.345 522.959 354.091 522.683 354.102C522.408 354.113 522.176 354.323 522.176 354.609Z" fill="#F19704"/>
<path d="M536.29 354.835H521.448C520.916 354.835 520.484 354.403 520.484 353.871V335.789C520.484 335.365 520.83 335.02 521.254 335.02H536.287C536.711 335.02 537.057 335.365 537.057 335.789V354.065C537.057 354.489 536.711 354.835 536.287 354.835H536.29ZM536.139 353.423V336.699C536.139 336.353 535.858 336.073 535.513 336.073H522.048C521.702 336.073 521.421 336.353 521.421 336.699V353.423C521.421 353.768 521.702 354.049 522.048 354.049H535.513C535.858 354.049 536.139 353.768 536.139 353.423Z" fill="#F19704"/>
<path d="M536.941 335.366C531.501 335.366 526.06 335.366 520.617 335.366C521.073 334.804 521.53 334.245 521.986 333.684H535.829C536.199 334.245 536.571 334.804 536.941 335.366Z" fill="#F19704"/>
<path d="M522.259 345.352H535.295C535.519 345.352 535.703 345.541 535.703 345.775V353.225C535.703 353.46 535.522 353.649 535.295 353.649H522.259C522.035 353.649 521.852 353.46 521.852 353.225V345.775C521.852 345.541 522.032 345.352 522.259 345.352ZM528.701 348.783C528.305 348.783 527.986 349.105 527.986 349.499C527.986 349.893 528.307 350.214 528.701 350.214C529.096 350.214 529.417 349.893 529.417 349.499C529.417 349.105 529.096 348.783 528.701 348.783Z" fill="#F19704"/>
<path d="M522.263 336.545H535.299C535.523 336.545 535.706 336.734 535.706 336.969V344.418C535.706 344.653 535.526 344.842 535.299 344.842H522.263C522.039 344.842 521.855 344.653 521.855 344.418V336.969C521.855 336.734 522.036 336.545 522.263 336.545ZM528.705 339.977C528.308 339.977 527.99 340.298 527.99 340.692C527.99 341.086 528.311 341.408 528.705 341.408C529.1 341.408 529.421 341.086 529.421 340.692C529.421 340.298 529.1 339.977 528.705 339.977Z" fill="#F19704"/>
<path d="M729.299 310.201H656.699V382.801H729.299V310.201Z" fill="#EBC977" fill-opacity="0.2941"/>
<path d="M684.836 338.582C685.43 338.368 685.473 337.917 686.102 337.488C686.502 337.215 686.871 337.134 687.293 337.04C688.902 336.686 690.773 337.323 692.836 337.313C695.258 337.302 697.11 336.403 698.66 336.94C699.467 337.221 699.85 337.485 699.85 337.485C700.531 337.961 700.631 338.382 701.203 338.525C701.262 338.538 701.859 338.679 702.261 338.349C702.693 337.996 702.734 337.232 702.496 336.713C701.991 335.622 700.134 335.393 699.167 335.271C698.26 335.158 697.925 335.266 697.142 334.999C696.37 334.734 696.286 334.488 695.557 334.159C694.421 333.651 693.365 333.673 692.658 333.687C692.031 333.7 690.97 333.722 689.839 334.254C689.277 334.518 689.042 334.745 688.305 335.001C687.652 335.228 687.317 335.231 686.709 335.35C685.543 335.577 683.942 335.887 683.496 336.894C683.253 337.442 683.34 338.231 683.783 338.536C684.177 338.806 684.741 338.614 684.836 338.582Z" fill="#DBC7EE"/>
<path d="M692.834 347.297C689.346 347.27 686.214 346.223 685.544 345.993H685.539C685.55 345.626 685.558 345.259 685.569 344.889C686.36 344.657 687.151 344.422 687.945 344.189C689.613 344.195 691.293 344.203 692.978 344.216C694.665 344.23 696.342 344.249 698.01 344.273C698.823 344.535 699.636 344.797 700.448 345.062C700.475 345.607 700.489 346.036 700.467 346.036C700.467 346.036 696.812 347.332 692.834 347.3V347.297Z" fill="#DBC7EE"/>
<path d="M685.551 344.401C685.313 346.007 685.075 347.614 684.838 349.218C684.46 351.767 684.082 354.315 683.704 356.861C683.617 357.45 683.528 358.041 683.442 358.63C683.401 358.903 683.509 359.17 683.796 359.254C684.033 359.321 684.379 359.17 684.419 358.9C684.657 357.293 684.894 355.687 685.132 354.083C685.51 351.534 685.888 348.986 686.266 346.439C686.352 345.851 686.442 345.26 686.528 344.671C686.568 344.398 686.46 344.131 686.174 344.047C685.937 343.98 685.591 344.131 685.551 344.401Z" fill="#DBC7EE"/>
<path d="M699.563 344.733C699.801 346.34 700.038 347.946 700.276 349.55L701.41 357.194C701.496 357.783 701.585 358.374 701.672 358.962C701.712 359.232 702.055 359.384 702.295 359.316C702.584 359.235 702.69 358.965 702.649 358.692C702.412 357.086 702.174 355.479 701.936 353.876L700.802 346.232C700.716 345.643 700.627 345.052 700.54 344.463C700.5 344.193 700.157 344.042 699.917 344.11C699.628 344.191 699.523 344.461 699.563 344.733Z" fill="#DBC7EE"/>
<path d="M688.997 336.866C688.668 338.98 688.338 341.097 688.006 343.211L686.429 353.325C686.308 354.1 686.186 354.875 686.067 355.65C686.024 355.922 686.138 356.192 686.421 356.273C686.661 356.341 687.002 356.19 687.045 355.92C687.374 353.806 687.704 351.689 688.036 349.575L689.613 339.461C689.734 338.686 689.856 337.911 689.974 337.136C690.018 336.863 689.904 336.593 689.621 336.512C689.38 336.445 689.04 336.596 688.997 336.866Z" fill="#DBC7EE"/>
<path d="M696.056 337.136C696.385 339.25 696.715 341.367 697.047 343.481L698.624 353.595C698.745 354.37 698.867 355.145 698.986 355.92C699.029 356.19 699.366 356.341 699.609 356.273C699.898 356.192 700.006 355.922 699.963 355.65C699.634 353.536 699.304 351.419 698.972 349.305L697.395 339.191C697.274 338.416 697.152 337.641 697.033 336.866C696.99 336.596 696.653 336.445 696.41 336.512C696.121 336.593 696.013 336.863 696.056 337.136Z" fill="#DBC7EE"/>
<path d="M73.2992 465.201H0.699219V537.801H73.2992V465.201Z" fill="#BAC685" fill-opacity="0.2941"/>
<path d="M28.8356 493.582C29.4296 493.368 29.4728 492.917 30.1019 492.488C30.5015 492.215 30.8714 492.134 31.2926 492.04C32.9018 491.686 34.7729 492.323 36.8357 492.313C39.2576 492.302 41.1098 491.403 42.6596 491.94C43.4669 492.221 43.8503 492.485 43.8503 492.485C44.5307 492.961 44.6306 493.382 45.203 493.525C45.2624 493.538 45.8591 493.679 46.2614 493.349C46.6934 492.996 46.7339 492.232 46.4963 491.713C45.9914 490.622 44.1338 490.393 43.1672 490.271C42.26 490.158 41.9252 490.266 41.1422 489.999C40.37 489.734 40.2863 489.488 39.5573 489.159C38.4206 488.651 37.3649 488.673 36.6575 488.687C36.0311 488.7 34.97 488.722 33.8387 489.254C33.2771 489.518 33.0422 489.745 32.3051 490.001C31.6517 490.228 31.3169 490.231 30.7094 490.35C29.543 490.577 27.9419 490.887 27.4964 491.894C27.2534 492.442 27.3398 493.231 27.7826 493.536C28.1768 493.806 28.7411 493.614 28.8356 493.582Z" fill="#E0550A"/>
<path d="M36.8345 502.297C33.3461 502.27 30.2141 501.223 29.5445 500.993H29.5391C29.5499 500.626 29.558 500.259 29.5688 499.889C30.3599 499.657 31.151 499.422 31.9448 499.189C33.6134 499.195 35.2928 499.203 36.9776 499.216C38.6651 499.23 40.3418 499.249 42.0104 499.273C42.8231 499.535 43.6358 499.797 44.4485 500.062C44.4755 500.607 44.489 501.036 44.4674 501.036C44.4674 501.036 40.8116 502.332 36.8345 502.3V502.297Z" fill="#E0550A"/>
<path d="M29.5505 499.401C29.3129 501.007 29.0753 502.614 28.8377 504.218C28.4597 506.767 28.0817 509.315 27.7037 511.861C27.6173 512.45 27.5282 513.041 27.4418 513.63C27.4013 513.903 27.5093 514.17 27.7955 514.254C28.0331 514.321 28.3787 514.17 28.4192 513.9C28.6568 512.293 28.8944 510.687 29.132 509.083C29.51 506.534 29.888 503.986 30.266 501.439C30.3524 500.851 30.4415 500.26 30.5279 499.671C30.5684 499.398 30.4604 499.131 30.1742 499.047C29.9366 498.98 29.591 499.131 29.5505 499.401Z" fill="#E0550A"/>
<path d="M43.563 499.733C43.8006 501.34 44.0382 502.946 44.2758 504.55L45.4098 512.194C45.4962 512.783 45.5853 513.374 45.6717 513.962C45.7122 514.232 46.0551 514.384 46.2954 514.316C46.5843 514.235 46.6896 513.965 46.6491 513.692C46.4115 512.086 46.1739 510.479 45.9363 508.876L44.8023 501.232C44.7159 500.643 44.6268 500.052 44.5404 499.463C44.4999 499.193 44.157 499.042 43.9167 499.11C43.6278 499.191 43.5225 499.461 43.563 499.733Z" fill="#E0550A"/>
<path d="M32.997 491.866C32.6676 493.98 32.3382 496.097 32.0061 498.211L30.4293 508.325C30.3078 509.1 30.1863 509.875 30.0675 510.65C30.0243 510.922 30.1377 511.192 30.4212 511.273C30.6615 511.341 31.0017 511.19 31.0449 510.92C31.3743 508.806 31.7037 506.689 32.0358 504.575L33.6126 494.461C33.7341 493.686 33.8556 492.911 33.9744 492.136C34.0176 491.863 33.9042 491.593 33.6207 491.512C33.3804 491.445 33.0402 491.596 32.997 491.866Z" fill="#E0550A"/>
<path d="M40.056 492.136C40.3854 494.25 40.7148 496.367 41.0469 498.481L42.6237 508.595C42.7452 509.37 42.8667 510.145 42.9855 510.92C43.0287 511.19 43.3662 511.341 43.6092 511.273C43.8981 511.192 44.0061 510.922 43.9629 510.65C43.6335 508.536 43.3041 506.419 42.972 504.305L41.3952 494.191C41.2737 493.416 41.1522 492.641 41.0334 491.866C40.9902 491.596 40.6527 491.445 40.4097 491.512C40.1208 491.593 40.0128 491.863 40.056 492.136Z" fill="#E0550A"/>
<path d="M237.299 465.201H164.699V537.801H237.299V465.201Z" fill="#3E2517" fill-opacity="0.2941"/>
<path d="M191.506 498.424C193.04 500.136 194.573 501.85 196.107 503.562C198.548 506.287 200.989 509.014 203.427 511.738C203.98 512.356 204.536 512.977 205.09 513.595C205.525 514.081 206.24 513.363 205.805 512.88C204.272 511.168 202.738 509.454 201.205 507.742C198.764 505.018 196.323 502.291 193.885 499.566C193.331 498.948 192.775 498.327 192.222 497.709C191.787 497.223 191.072 497.941 191.506 498.424Z" fill="#DBC7EE"/>
<path d="M192.238 503.992C193.264 502.752 194.29 501.516 195.316 500.276L200.225 494.35C200.603 493.894 200.978 493.44 201.356 492.984C201.769 492.484 201.057 491.766 200.641 492.268C199.615 493.508 198.589 494.744 197.563 495.983L192.654 501.91C192.276 502.366 191.901 502.82 191.523 503.276C191.11 503.776 191.823 504.494 192.238 503.992Z" fill="#DBC7EE"/>
<path d="M210.609 489.6L204.399 501.199C201.124 499.901 200.017 495.632 201.828 492.303C203.624 489.003 207.741 487.613 210.609 489.6Z" fill="#DBC7EE"/>
<path d="M203.246 491.453L201.381 494.941C200.247 494.471 199.785 493.118 200.33 492.117C200.87 491.126 202.236 490.778 203.246 491.453Z" fill="#DBC7EE"/>
<path d="M205.019 514.32C208.105 514.32 210.608 513.691 210.608 512.916C210.608 512.14 208.105 511.512 205.019 511.512C201.932 511.512 199.43 512.14 199.43 512.916C199.43 513.691 201.932 514.32 205.019 514.32Z" fill="#DBC7EE"/>
<path d="M401.299 465.201H328.699V537.801H401.299V465.201Z" fill="#E0550A" fill-opacity="0.2941"/>
<path d="M364.475 489.17V509.676C364.475 510.619 364.435 511.572 364.475 512.514C364.475 512.528 364.475 512.541 364.475 512.555C364.475 513.205 365.488 513.208 365.488 512.555V492.051C365.488 491.109 365.528 490.155 365.488 489.213C365.488 489.2 365.488 489.186 365.488 489.173C365.488 488.522 364.475 488.519 364.475 489.173V489.17Z" fill="#F19704"/>
<path d="M374.519 499.183H355.443C354.863 494.107 359.563 489.771 365.058 489.809C370.498 489.847 375.094 494.159 374.519 499.183Z" fill="#F19704"/>
<path d="M368.015 514.319H361.945C361.761 512.451 363.255 510.858 365.004 510.871C366.735 510.885 368.198 512.472 368.015 514.319Z" fill="#F19704"/>
<path d="M565.299 465.201H492.699V537.801H565.299V465.201Z" fill="#EBC977" fill-opacity="0.2941"/>
<path d="M519.506 498.424C521.04 500.136 522.573 501.85 524.107 503.562C526.548 506.287 528.989 509.014 531.427 511.738C531.98 512.356 532.536 512.977 533.09 513.595C533.525 514.081 534.24 513.363 533.805 512.88C532.272 511.168 530.738 509.454 529.205 507.742C526.764 505.018 524.323 502.291 521.885 499.566C521.331 498.948 520.775 498.327 520.222 497.709C519.787 497.223 519.072 497.941 519.506 498.424Z" fill="#F6B9AA"/>
<path d="M520.238 503.992C521.264 502.752 522.29 501.516 523.316 500.276L528.225 494.35C528.603 493.894 528.978 493.44 529.356 492.984C529.769 492.484 529.057 491.766 528.641 492.268C527.615 493.508 526.589 494.744 525.563 495.983L520.654 501.91C520.276 502.366 519.901 502.82 519.523 503.276C519.11 503.776 519.823 504.494 520.238 503.992Z" fill="#F6B9AA"/>
<path d="M538.609 489.6L532.399 501.199C529.124 499.901 528.017 495.632 529.828 492.303C531.624 489.003 535.741 487.613 538.609 489.6Z" fill="#F6B9AA"/>
<path d="M531.246 491.453L529.381 494.941C528.247 494.471 527.785 493.118 528.33 492.117C528.87 491.126 530.236 490.778 531.246 491.453Z" fill="#F6B9AA"/>
<path d="M533.019 514.32C536.105 514.32 538.608 513.691 538.608 512.916C538.608 512.14 536.105 511.512 533.019 511.512C529.932 511.512 527.43 512.14 527.43 512.916C527.43 513.691 529.932 514.32 533.019 514.32Z" fill="#F6B9AA"/>
<path d="M729.299 465.201H656.699V537.801H729.299V465.201Z" fill="#DBC7EE" fill-opacity="0.2941"/>
<path d="M684.836 493.582C685.43 493.368 685.473 492.917 686.102 492.488C686.502 492.215 686.871 492.134 687.293 492.04C688.902 491.686 690.773 492.323 692.836 492.313C695.258 492.302 697.11 491.403 698.66 491.94C699.467 492.221 699.85 492.485 699.85 492.485C700.531 492.961 700.631 493.382 701.203 493.525C701.262 493.538 701.859 493.679 702.261 493.349C702.693 492.996 702.734 492.232 702.496 491.713C701.991 490.622 700.134 490.393 699.167 490.271C698.26 490.158 697.925 490.266 697.142 489.999C696.37 489.734 696.286 489.488 695.557 489.159C694.421 488.651 693.365 488.673 692.658 488.687C692.031 488.7 690.97 488.722 689.839 489.254C689.277 489.518 689.042 489.745 688.305 490.001C687.652 490.228 687.317 490.231 686.709 490.35C685.543 490.577 683.942 490.887 683.496 491.894C683.253 492.442 683.34 493.231 683.783 493.536C684.177 493.806 684.741 493.614 684.836 493.582Z" fill="#EBC977"/>
<path d="M692.834 502.297C689.346 502.27 686.214 501.223 685.544 500.993H685.539C685.55 500.626 685.558 500.259 685.569 499.889C686.36 499.657 687.151 499.422 687.945 499.189C689.613 499.195 691.293 499.203 692.978 499.216C694.665 499.23 696.342 499.249 698.01 499.273C698.823 499.535 699.636 499.797 700.448 500.062C700.475 500.607 700.489 501.036 700.467 501.036C700.467 501.036 696.812 502.332 692.834 502.3V502.297Z" fill="#EBC977"/>
<path d="M685.551 499.401C685.313 501.007 685.075 502.614 684.838 504.218C684.46 506.767 684.082 509.315 683.704 511.861C683.617 512.45 683.528 513.041 683.442 513.63C683.401 513.903 683.509 514.17 683.796 514.254C684.033 514.321 684.379 514.17 684.419 513.9C684.657 512.293 684.894 510.687 685.132 509.083C685.51 506.534 685.888 503.986 686.266 501.439C686.352 500.851 686.442 500.26 686.528 499.671C686.568 499.398 686.46 499.131 686.174 499.047C685.937 498.98 685.591 499.131 685.551 499.401Z" fill="#EBC977"/>
<path d="M699.563 499.733C699.801 501.34 700.038 502.946 700.276 504.55L701.41 512.194C701.496 512.783 701.585 513.374 701.672 513.962C701.712 514.232 702.055 514.384 702.295 514.316C702.584 514.235 702.69 513.965 702.649 513.692C702.412 512.086 702.174 510.479 701.936 508.876L700.802 501.232C700.716 500.643 700.627 500.052 700.54 499.463C700.5 499.193 700.157 499.042 699.917 499.11C699.628 499.191 699.523 499.461 699.563 499.733Z" fill="#EBC977"/>
<path d="M688.997 491.866C688.668 493.98 688.338 496.097 688.006 498.211L686.429 508.325C686.308 509.1 686.186 509.875 686.067 510.65C686.024 510.922 686.138 511.192 686.421 511.273C686.661 511.341 687.002 511.19 687.045 510.92C687.374 508.806 687.704 506.689 688.036 504.575L689.613 494.461C689.734 493.686 689.856 492.911 689.974 492.136C690.018 491.863 689.904 491.593 689.621 491.512C689.38 491.445 689.04 491.596 688.997 491.866Z" fill="#EBC977"/>
<path d="M696.056 492.136C696.385 494.25 696.715 496.367 697.047 498.481L698.624 508.595C698.745 509.37 698.867 510.145 698.986 510.92C699.029 511.19 699.366 511.341 699.609 511.273C699.898 511.192 700.006 510.922 699.963 510.65C699.634 508.536 699.304 506.419 698.972 504.305L697.395 494.191C697.274 493.416 697.152 492.641 697.033 491.866C696.99 491.596 696.653 491.445 696.41 491.512C696.121 491.593 696.013 491.863 696.056 492.136Z" fill="#EBC977"/>
</svg>
