<svg width="748" height="558" viewBox="0 0 748 558" fill="none" xmlns="http://www.w3.org/2000/svg">
<path d="M121.699 0.25H0.699219V121.25H121.699V0.25Z" fill="#F6B9AA" fill-opacity="0.2941"/>
<path d="M36.9453 85.0784V97.7063C36.9453 99.6584 39.9828 99.6665 39.9828 97.7063V85.0784C39.9828 83.1263 36.9453 83.1182 36.9453 85.0784Z" fill="#F19704"/>
<path d="M81.1055 85.0784V97.7063C81.1055 99.6584 84.143 99.6665 84.143 97.7063V85.0784C84.143 83.1263 81.1055 83.1182 81.1055 85.0784Z" fill="#F19704"/>
<path d="M77.2422 85.0785V94.6689C77.2422 95.4627 77.9388 96.2241 78.765 96.1917C79.5912 96.1593 80.2878 95.5275 80.2878 94.6689V85.0785C80.2878 84.2847 79.5912 83.5233 78.765 83.5557C77.9388 83.5881 77.2422 84.2199 77.2422 85.0785Z" fill="#F19704"/>
<path d="M40.7266 85.0785V94.6689C40.7266 95.4627 41.4232 96.2241 42.2494 96.1917C43.0756 96.1593 43.7722 95.5275 43.7722 94.6689V85.0785C43.7722 84.2847 43.0756 83.5233 42.2494 83.5557C41.4232 83.5881 40.7266 84.2199 40.7266 85.0785Z" fill="#F19704"/>
<path d="M83.0737 85.7506H38.548C36.9523 85.7506 35.6562 84.4546 35.6562 82.8589V28.6132C35.6562 27.3415 36.693 26.3047 37.9647 26.3047H83.0655C84.3372 26.3047 85.374 27.3415 85.374 28.6132V83.4421C85.374 84.7138 84.3372 85.7506 83.0655 85.7506H83.0737ZM82.62 81.5143V31.3429C82.62 30.3061 81.7776 29.4637 80.7409 29.4637H40.3461C39.3094 29.4637 38.467 30.3061 38.467 31.3429V81.5143C38.467 82.5511 39.3094 83.3935 40.3461 83.3935H80.7409C81.7776 83.3935 82.62 82.5511 82.62 81.5143Z" fill="#F19704"/>
<path d="M85.0195 27.3412C68.698 27.3412 52.3765 27.3412 36.0469 27.3412C37.4158 25.6564 38.7847 23.9797 40.1536 22.2949H81.6823C82.792 23.9797 83.9098 25.6564 85.0195 27.3412Z" fill="#F19704"/>
<path d="M40.977 57.3027H80.0838C80.7561 57.3027 81.3069 57.8697 81.3069 58.5744V80.9223C81.3069 81.627 80.7642 82.194 80.0838 82.194H40.977C40.3047 82.194 39.7539 81.627 39.7539 80.9223V58.5744C39.7539 57.8697 40.2966 57.3027 40.977 57.3027ZM60.3036 67.5978C59.1129 67.5978 58.1571 68.5617 58.1571 69.7443C58.1571 70.9269 59.121 71.8908 60.3036 71.8908C61.4862 71.8908 62.4501 70.9269 62.4501 69.7443C62.4501 68.5617 61.4862 67.5978 60.3036 67.5978Z" fill="#F19704"/>
<path d="M40.9965 30.8809H80.1033C80.7756 30.8809 81.3264 31.4479 81.3264 32.1526V54.5005C81.3264 55.2052 80.7837 55.7722 80.1033 55.7722H40.9965C40.3242 55.7722 39.7734 55.2052 39.7734 54.5005V32.1526C39.7734 31.4479 40.3161 30.8809 40.9965 30.8809ZM60.3231 41.176C59.1324 41.176 58.1766 42.1399 58.1766 43.3225C58.1766 44.5051 59.1405 45.469 60.3231 45.469C61.5057 45.469 62.4696 44.5051 62.4696 43.3225C62.4696 42.1399 61.5057 41.176 60.3231 41.176Z" fill="#F19704"/>
<path d="M278.098 0.25H157.098V121.25H278.098V0.25Z" fill="#3E2517" fill-opacity="0.2941"/>
<path d="M193.101 36.997C194.883 36.3571 195.012 35.0044 196.899 33.7165C198.098 32.8984 199.208 32.6554 200.472 32.3719C205.299 31.3108 210.912 33.2224 217.101 33.19C224.367 33.1576 229.923 30.4603 234.573 32.0722C236.994 32.9146 238.145 33.7084 238.145 33.7084C240.186 35.134 240.486 36.3976 242.203 36.8269C242.381 36.8674 244.171 37.2886 245.378 36.3004C246.674 35.2393 246.795 32.947 246.083 31.3918C244.568 28.1194 238.995 27.4309 236.095 27.0664C233.374 26.7262 232.369 27.0502 230.02 26.2483C227.704 25.4545 227.453 24.7174 225.266 23.7292C221.856 22.2064 218.688 22.2712 216.566 22.3117C214.687 22.3522 211.504 22.417 208.11 24.0127C206.425 24.8065 205.72 25.4869 203.509 26.2564C201.549 26.9368 200.544 26.9449 198.722 27.3013C195.223 27.9817 190.419 28.9132 189.083 31.9345C188.354 33.5788 188.613 35.944 189.942 36.8593C191.124 37.6693 192.817 37.0942 193.101 36.997Z" fill="#DBC7EE"/>
<path d="M217.093 63.1434C206.628 63.0624 197.232 59.9196 195.223 59.2311H195.207C195.239 58.1295 195.264 57.0279 195.296 55.9182C197.669 55.2216 200.043 54.5169 202.424 53.8203C207.43 53.8365 212.468 53.8608 217.523 53.9013C222.585 53.9418 227.615 53.9985 232.621 54.0714C235.059 54.8571 237.497 55.6428 239.935 56.4366C240.016 58.0728 240.057 59.3607 239.992 59.3607C239.992 59.3607 229.025 63.2487 217.093 63.1515V63.1434Z" fill="#DBC7EE"/>
<path d="M195.249 54.4529C194.536 59.2724 193.824 64.0919 193.111 68.9033C191.977 76.5497 190.843 84.1961 189.709 91.8344C189.45 93.6002 189.182 95.3741 188.923 97.1399C188.802 97.958 189.126 98.7599 189.984 99.011C190.697 99.2135 191.734 98.7599 191.855 97.9499C192.568 93.1304 193.281 88.3109 193.994 83.4995C195.128 75.8531 196.262 68.2067 197.396 60.5684C197.655 58.8026 197.922 57.0287 198.181 55.2629C198.303 54.4448 197.979 53.6429 197.12 53.3918C196.407 53.1893 195.371 53.6429 195.249 54.4529Z" fill="#DBC7EE"/>
<path d="M237.287 55.4484C238 60.2679 238.712 65.0874 239.425 69.8988L242.827 92.8299C243.086 94.5957 243.354 96.3696 243.613 98.1354C243.734 98.9454 244.763 99.399 245.484 99.1965C246.351 98.9535 246.667 98.1435 246.545 97.3254C245.832 92.5059 245.119 87.6864 244.407 82.875L241.005 59.9439C240.745 58.1781 240.478 56.4042 240.219 54.6384C240.097 53.8284 239.069 53.3748 238.348 53.5773C237.481 53.8203 237.165 54.6303 237.287 55.4484Z" fill="#DBC7EE"/>
<path d="M205.581 31.8533C204.593 38.1956 203.604 44.546 202.608 50.8883L197.878 81.2309C197.513 83.5556 197.149 85.8803 196.792 88.205C196.663 89.0231 197.003 89.8331 197.853 90.0761C198.574 90.2786 199.595 89.825 199.725 89.015C200.713 82.6727 201.701 76.3223 202.697 69.98L207.428 39.6374C207.792 37.3127 208.157 34.988 208.513 32.6633C208.643 31.8452 208.302 31.0352 207.452 30.7922C206.731 30.5897 205.71 31.0433 205.581 31.8533Z" fill="#DBC7EE"/>
<path d="M226.762 32.6555C227.75 38.9978 228.738 45.3482 229.735 51.6905L234.465 82.0331C234.829 84.3578 235.194 86.6825 235.55 89.0072C235.68 89.8172 236.692 90.2708 237.421 90.0683C238.288 89.8253 238.612 89.0153 238.483 88.1972C237.494 81.8549 236.506 75.5045 235.51 69.1622L230.779 38.8196C230.415 36.4949 230.05 34.1702 229.694 31.8455C229.564 31.0355 228.552 30.5819 227.823 30.7844C226.956 31.0274 226.632 31.8374 226.762 32.6555Z" fill="#DBC7EE"/>
<path d="M434.5 0.25H313.5V121.25H434.5V0.25Z" fill="#EBC977" fill-opacity="0.2941"/>
<path d="M349.503 36.997C351.285 36.3571 351.415 35.0044 353.302 33.7165C354.501 32.8984 355.61 32.6554 356.874 32.3719C361.702 31.3108 367.315 33.2224 373.503 33.19C380.769 33.1576 386.326 30.4603 390.975 32.0722C393.397 32.9146 394.547 33.7084 394.547 33.7084C396.588 35.134 396.888 36.3976 398.605 36.8269C398.783 36.8674 400.573 37.2886 401.78 36.3004C403.076 35.2393 403.198 32.947 402.485 31.3918C400.97 28.1194 395.398 27.4309 392.498 27.0664C389.776 26.7262 388.772 27.0502 386.423 26.2483C384.106 25.4545 383.855 24.7174 381.668 23.7292C378.258 22.2064 375.091 22.2712 372.969 22.3117C371.089 22.3522 367.906 22.417 364.512 24.0127C362.827 24.8065 362.123 25.4869 359.911 26.2564C357.951 26.9368 356.947 26.9449 355.124 27.3013C351.625 27.9817 346.822 28.9132 345.485 31.9345C344.756 33.5788 345.016 35.944 346.344 36.8593C347.527 37.6693 349.219 37.0942 349.503 36.997Z" fill="#EBC977"/>
<path d="M373.496 63.1434C363.03 63.0624 353.634 59.9196 351.626 59.2311H351.609C351.642 58.1295 351.666 57.0279 351.698 55.9182C354.072 55.2216 356.445 54.5169 358.826 53.8203C363.832 53.8365 368.87 53.8608 373.925 53.9013C378.987 53.9418 384.017 53.9985 389.023 54.0714C391.461 54.8571 393.899 55.6428 396.338 56.4366C396.419 58.0728 396.459 59.3607 396.394 59.3607C396.394 59.3607 385.427 63.2487 373.496 63.1515V63.1434Z" fill="#EBC977"/>
<path d="M351.648 54.4529C350.935 59.2724 350.222 64.0919 349.509 68.9033C348.375 76.5497 347.241 84.1961 346.107 91.8344C345.848 93.6002 345.581 95.3741 345.322 97.1399C345.2 97.958 345.524 98.7599 346.383 99.011C347.095 99.2135 348.132 98.7599 348.254 97.9499C348.967 93.1304 349.679 88.3109 350.392 83.4995C351.526 75.8531 352.66 68.2067 353.794 60.5684C354.053 58.8026 354.321 57.0287 354.58 55.2629C354.701 54.4448 354.377 53.6429 353.519 53.3918C352.806 53.1893 351.769 53.6429 351.648 54.4529Z" fill="#EBC977"/>
<path d="M393.689 55.4484C394.402 60.2679 395.115 65.0874 395.827 69.8988L399.229 92.8299C399.489 94.5957 399.756 96.3696 400.015 98.1354C400.137 98.9454 401.165 99.399 401.886 99.1965C402.753 98.9535 403.069 98.1435 402.947 97.3254C402.235 92.5059 401.522 87.6864 400.809 82.875L397.407 59.9439C397.148 58.1781 396.88 56.4042 396.621 54.6384C396.5 53.8284 395.471 53.3748 394.75 53.5773C393.883 53.8203 393.568 54.6303 393.689 55.4484Z" fill="#EBC977"/>
<path d="M361.983 31.8533C360.995 38.1956 360.007 44.546 359.01 50.8883L354.28 81.2309C353.916 83.5556 353.551 85.8803 353.195 88.205C353.065 89.0231 353.405 89.8331 354.256 90.0761C354.977 90.2786 355.997 89.825 356.127 89.015C357.115 82.6727 358.103 76.3223 359.1 69.98L363.83 39.6374C364.194 37.3127 364.559 34.988 364.915 32.6633C365.045 31.8452 364.705 31.0352 363.854 30.7922C363.133 30.5897 362.113 31.0433 361.983 31.8533Z" fill="#EBC977"/>
<path d="M383.164 32.6555C384.152 38.9978 385.141 45.3482 386.137 51.6905L390.867 82.0331C391.232 84.3578 391.596 86.6825 391.953 89.0072C392.082 89.8172 393.095 90.2708 393.824 90.0683C394.691 89.8253 395.015 89.0153 394.885 88.1972C393.897 81.8549 392.909 75.5045 391.912 69.1622L387.182 38.8196C386.817 36.4949 386.453 34.1702 386.096 31.8455C385.967 31.0355 384.954 30.5819 384.225 30.7844C383.359 31.0274 383.035 31.8374 383.164 32.6555Z" fill="#EBC977"/>
<path d="M590.902 0.25H469.902V121.25H590.902V0.25Z" fill="#F19704" fill-opacity="0.2941"/>
<path d="M528.82 23.7617V85.2812C528.82 88.1081 528.698 90.9674 528.82 93.7943C528.82 93.8348 528.82 93.8753 528.82 93.9158C528.82 95.8679 531.857 95.876 531.857 93.9158V32.4044C531.857 29.5775 531.979 26.7182 531.857 23.8913C531.857 23.8508 531.857 23.8103 531.857 23.7698C531.857 21.8177 528.82 21.8096 528.82 23.7698V23.7617Z" fill="#F6B9AA"/>
<path d="M558.954 53.8036H501.728C499.986 38.5756 514.089 25.567 530.572 25.6804C546.894 25.7938 560.68 38.7295 558.954 53.8036Z" fill="#F6B9AA"/>
<path d="M539.442 99.2053H521.233C520.683 93.6001 525.162 88.8211 530.411 88.8616C535.603 88.9021 539.993 93.6649 539.442 99.2053Z" fill="#F6B9AA"/>
<path d="M747.301 0.25H626.301V121.25H747.301V0.25Z" fill="#BAC685" fill-opacity="0.2941"/>
<path d="M662.539 85.0784V97.7063C662.539 99.6584 665.577 99.6665 665.577 97.7063V85.0784C665.577 83.1263 662.539 83.1182 662.539 85.0784Z" fill="#3E2517"/>
<path d="M706.703 85.0784V97.7063C706.703 99.6584 709.741 99.6665 709.741 97.7063V85.0784C709.741 83.1263 706.703 83.1182 706.703 85.0784Z" fill="#3E2517"/>
<path d="M702.84 85.0785V94.6689C702.84 95.4627 703.536 96.2241 704.363 96.1917C705.189 96.1593 705.885 95.5275 705.885 94.6689V85.0785C705.885 84.2847 705.189 83.5233 704.363 83.5557C703.536 83.5881 702.84 84.2199 702.84 85.0785Z" fill="#3E2517"/>
<path d="M666.324 85.0785V94.6689C666.324 95.4627 667.021 96.2241 667.847 96.1917C668.673 96.1593 669.37 95.5275 669.37 94.6689V85.0785C669.37 84.2847 668.673 83.5233 667.847 83.5557C667.021 83.5881 666.324 84.2199 666.324 85.0785Z" fill="#3E2517"/>
<path d="M708.671 85.7506H664.146C662.55 85.7506 661.254 84.4546 661.254 82.8589V28.6132C661.254 27.3415 662.291 26.3047 663.562 26.3047H708.663C709.935 26.3047 710.972 27.3415 710.972 28.6132V83.4421C710.972 84.7138 709.935 85.7506 708.663 85.7506H708.671ZM708.218 81.5143V31.3429C708.218 30.3061 707.375 29.4637 706.339 29.4637H665.944C664.907 29.4637 664.065 30.3061 664.065 31.3429V81.5143C664.065 82.5511 664.907 83.3935 665.944 83.3935H706.339C707.375 83.3935 708.218 82.5511 708.218 81.5143Z" fill="#3E2517"/>
<path d="M710.613 27.3412C694.292 27.3412 677.97 27.3412 661.641 27.3412C663.01 25.6564 664.378 23.9797 665.747 22.2949H707.276C708.386 23.9797 709.504 25.6564 710.613 27.3412Z" fill="#3E2517"/>
<path d="M666.575 57.3027H705.681C706.354 57.3027 706.905 57.8697 706.905 58.5744V80.9223C706.905 81.627 706.362 82.194 705.681 82.194H666.575C665.902 82.194 665.352 81.627 665.352 80.9223V58.5744C665.352 57.8697 665.894 57.3027 666.575 57.3027ZM685.901 67.5978C684.711 67.5978 683.755 68.5617 683.755 69.7443C683.755 70.9269 684.719 71.8908 685.901 71.8908C687.084 71.8908 688.048 70.9269 688.048 69.7443C688.048 68.5617 687.084 67.5978 685.901 67.5978Z" fill="#3E2517"/>
<path d="M666.59 30.8809H705.697C706.369 30.8809 706.92 31.4479 706.92 32.1526V54.5005C706.92 55.2052 706.377 55.7722 705.697 55.7722H666.59C665.918 55.7722 665.367 55.2052 665.367 54.5005V32.1526C665.367 31.4479 665.91 30.8809 666.59 30.8809ZM685.917 41.176C684.726 41.176 683.77 42.1399 683.77 43.3225C683.77 44.5051 684.734 45.469 685.917 45.469C687.099 45.469 688.063 44.5051 688.063 43.3225C688.063 42.1399 687.099 41.176 685.917 41.176Z" fill="#3E2517"/>
<path d="M121.699 145.75H0.699219V266.75H121.699V145.75Z" fill="#DBC7EE" fill-opacity="0.2941"/>
<path d="M59.6243 169.262V230.781C59.6243 233.608 59.5028 236.467 59.6243 239.294C59.6243 239.335 59.6243 239.375 59.6243 239.416C59.6243 241.368 62.6618 241.376 62.6618 239.416V177.904C62.6618 175.078 62.7833 172.218 62.6618 169.391C62.6618 169.351 62.6618 169.31 62.6618 169.27C62.6618 167.318 59.6243 167.31 59.6243 169.27V169.262Z" fill="#037ECB"/>
<path d="M89.7591 199.304H32.5326C30.7911 184.076 44.8932 171.067 61.3767 171.18C77.6982 171.294 91.4844 184.23 89.7591 199.304Z" fill="#037ECB"/>
<path d="M70.2469 244.705H52.0381C51.4873 239.1 55.9666 234.321 61.2154 234.362C66.4075 234.402 70.7977 239.165 70.2469 244.705Z" fill="#037ECB"/>
<path d="M278.098 145.75H157.098V266.75H278.098V145.75Z" fill="#F6B9AA" fill-opacity="0.2941"/>
<path d="M216.023 169.262V230.781C216.023 233.608 215.901 236.467 216.023 239.294C216.023 239.335 216.023 239.375 216.023 239.416C216.023 241.368 219.06 241.376 219.06 239.416V177.904C219.06 175.078 219.182 172.218 219.06 169.391C219.06 169.351 219.06 169.31 219.06 169.27C219.06 167.318 216.023 167.31 216.023 169.27V169.262Z" fill="#E0550A"/>
<path d="M246.158 199.304H188.931C187.19 184.076 201.292 171.067 217.775 171.18C234.097 171.294 247.883 184.23 246.158 199.304Z" fill="#E0550A"/>
<path d="M226.645 244.705H208.437C207.886 239.1 212.365 234.321 217.614 234.362C222.806 234.402 227.196 239.165 226.645 244.705Z" fill="#E0550A"/>
<path d="M434.5 145.75H313.5V266.75H434.5V145.75Z" fill="#3E2517" fill-opacity="0.2941"/>
<path d="M349.499 182.497C351.281 181.857 351.411 180.504 353.298 179.217C354.497 178.398 355.606 178.155 356.87 177.872C361.698 176.811 367.311 178.722 373.499 178.69C380.765 178.658 386.322 175.96 390.971 177.572C393.393 178.415 394.543 179.208 394.543 179.208C396.584 180.634 396.884 181.898 398.601 182.327C398.779 182.367 400.569 182.789 401.776 181.8C403.072 180.739 403.194 178.447 402.481 176.892C400.966 173.619 395.394 172.931 392.494 172.566C389.772 172.226 388.768 172.55 386.419 171.748C384.102 170.955 383.851 170.217 381.664 169.229C378.254 167.706 375.087 167.771 372.965 167.812C371.085 167.852 367.902 167.917 364.508 169.513C362.823 170.307 362.119 170.987 359.907 171.756C357.947 172.437 356.943 172.445 355.12 172.801C351.621 173.482 346.818 174.413 345.481 177.435C344.752 179.079 345.012 181.444 346.34 182.359C347.523 183.169 349.215 182.594 349.499 182.497Z" fill="#F19704"/>
<path d="M373.492 208.643C363.026 208.562 353.63 205.42 351.622 204.731H351.605C351.638 203.63 351.662 202.528 351.695 201.418C354.068 200.722 356.441 200.017 358.823 199.32C363.828 199.337 368.867 199.361 373.921 199.401C378.983 199.442 384.014 199.499 389.019 199.571C391.457 200.357 393.896 201.143 396.334 201.937C396.415 203.573 396.455 204.861 396.39 204.861C396.39 204.861 385.423 208.749 373.492 208.652V208.643Z" fill="#F19704"/>
<path d="M351.648 199.953C350.935 204.772 350.222 209.592 349.509 214.403C348.375 222.05 347.241 229.696 346.107 237.334C345.848 239.1 345.581 240.874 345.322 242.64C345.2 243.458 345.524 244.26 346.383 244.511C347.095 244.713 348.132 244.26 348.254 243.45C348.967 238.63 349.679 233.811 350.392 228.999C351.526 221.353 352.66 213.707 353.794 206.068C354.053 204.303 354.321 202.529 354.58 200.763C354.701 199.945 354.377 199.143 353.519 198.892C352.806 198.689 351.769 199.143 351.648 199.953Z" fill="#F19704"/>
<path d="M393.685 200.948C394.398 205.768 395.111 210.587 395.824 215.399L399.226 238.33C399.485 240.096 399.752 241.87 400.011 243.635C400.133 244.445 401.161 244.899 401.882 244.697C402.749 244.454 403.065 243.644 402.943 242.825C402.231 238.006 401.518 233.186 400.805 228.375L397.403 205.444C397.144 203.678 396.877 201.904 396.617 200.138C396.496 199.328 395.467 198.875 394.746 199.077C393.88 199.32 393.564 200.13 393.685 200.948Z" fill="#F19704"/>
<path d="M361.979 177.353C360.991 183.696 360.003 190.046 359.007 196.388L354.276 226.731C353.912 229.056 353.547 231.38 353.191 233.705C353.061 234.523 353.401 235.333 354.252 235.576C354.973 235.779 355.993 235.325 356.123 234.515C357.111 228.173 358.099 221.822 359.096 215.48L363.826 185.137C364.191 182.813 364.555 180.488 364.911 178.163C365.041 177.345 364.701 176.535 363.85 176.292C363.129 176.09 362.109 176.543 361.979 177.353Z" fill="#F19704"/>
<path d="M383.16 178.155C384.149 184.498 385.137 190.848 386.133 197.19L390.863 227.533C391.228 229.858 391.592 232.182 391.949 234.507C392.078 235.317 393.091 235.771 393.82 235.568C394.687 235.325 395.011 234.515 394.881 233.697C393.893 227.355 392.905 221.004 391.908 214.662L387.178 184.32C386.813 181.995 386.449 179.67 386.093 177.345C385.963 176.535 384.95 176.082 384.221 176.284C383.355 176.527 383.031 177.337 383.16 178.155Z" fill="#F19704"/>
<path d="M590.902 145.75H469.902V266.75H590.902V145.75Z" fill="#BAC685" fill-opacity="0.2941"/>
<path d="M506.148 230.578V243.206C506.148 245.158 509.186 245.167 509.186 243.206V230.578C509.186 228.626 506.148 228.618 506.148 230.578Z" fill="#BAC685"/>
<path d="M550.309 230.578V243.206C550.309 245.158 553.346 245.167 553.346 243.206V230.578C553.346 228.626 550.309 228.618 550.309 230.578Z" fill="#BAC685"/>
<path d="M546.445 230.578V240.169C546.445 240.963 547.142 241.724 547.968 241.692C548.794 241.659 549.491 241.027 549.491 240.169V230.578C549.491 229.785 548.794 229.023 547.968 229.056C547.142 229.088 546.445 229.72 546.445 230.578Z" fill="#BAC685"/>
<path d="M509.93 230.578V240.169C509.93 240.963 510.626 241.724 511.452 241.692C512.279 241.659 512.975 241.027 512.975 240.169V230.578C512.975 229.785 512.279 229.023 511.452 229.056C510.626 229.088 509.93 229.72 509.93 230.578Z" fill="#BAC685"/>
<path d="M552.277 231.251H507.751C506.155 231.251 504.859 229.955 504.859 228.359V174.113C504.859 172.841 505.896 171.805 507.168 171.805H552.269C553.54 171.805 554.577 172.841 554.577 174.113V228.942C554.577 230.214 553.54 231.251 552.269 231.251H552.277ZM551.823 227.014V176.843C551.823 175.806 550.981 174.964 549.944 174.964H509.549C508.512 174.964 507.67 175.806 507.67 176.843V227.014C507.67 228.051 508.512 228.893 509.549 228.893H549.944C550.981 228.893 551.823 228.051 551.823 227.014Z" fill="#BAC685"/>
<path d="M554.223 172.841C537.901 172.841 521.58 172.841 505.25 172.841C506.619 171.156 507.988 169.48 509.357 167.795H550.885C551.995 169.48 553.113 171.156 554.223 172.841Z" fill="#BAC685"/>
<path d="M510.18 202.805H549.287C549.959 202.805 550.51 203.372 550.51 204.076V226.424C550.51 227.129 549.967 227.696 549.287 227.696H510.18C509.508 227.696 508.957 227.129 508.957 226.424V204.076C508.957 203.372 509.5 202.805 510.18 202.805ZM529.507 213.1C528.316 213.1 527.36 214.064 527.36 215.246C527.36 216.429 528.324 217.393 529.507 217.393C530.689 217.393 531.653 216.429 531.653 215.246C531.653 214.064 530.689 213.1 529.507 213.1Z" fill="#BAC685"/>
<path d="M510.2 176.381H549.306C549.979 176.381 550.53 176.948 550.53 177.653V200C550.53 200.705 549.987 201.272 549.306 201.272H510.2C509.527 201.272 508.977 200.705 508.977 200V177.653C508.977 176.948 509.519 176.381 510.2 176.381ZM529.526 186.676C528.336 186.676 527.38 187.64 527.38 188.822C527.38 190.005 528.344 190.969 529.526 190.969C530.709 190.969 531.673 190.005 531.673 188.822C531.673 187.64 530.709 186.676 529.526 186.676Z" fill="#BAC685"/>
<path d="M747.301 145.75H626.301V266.75H747.301V145.75Z" fill="#F19704" fill-opacity="0.2941"/>
<path d="M658.316 197.021C662.916 202.156 667.517 207.299 672.118 212.435C679.44 220.608 686.763 228.789 694.077 236.962C695.738 238.817 697.406 240.68 699.067 242.534C700.371 243.992 702.517 241.838 701.213 240.388C696.612 235.253 692.012 230.109 687.411 224.974C680.088 216.801 672.766 208.62 665.452 200.447C663.791 198.592 662.123 196.729 660.462 194.874C659.158 193.416 657.011 195.571 658.316 197.021Z" fill="#EBC977"/>
<path d="M660.52 213.723C663.598 210.005 666.676 206.295 669.754 202.577L684.48 184.798C685.614 183.429 686.74 182.068 687.874 180.699C689.113 179.201 686.975 177.046 685.727 178.553C682.649 182.271 679.571 185.98 676.493 189.698L661.767 207.478C660.633 208.847 659.507 210.208 658.373 211.576C657.134 213.075 659.273 215.23 660.52 213.723Z" fill="#EBC977"/>
<path d="M715.615 170.55L696.985 205.348C687.16 201.452 683.839 188.645 689.274 178.658C694.66 168.76 707.013 164.588 715.615 170.55Z" fill="#EBC977"/>
<path d="M693.543 176.106L687.946 186.571C684.544 185.161 683.159 181.103 684.795 178.098C686.415 175.126 690.514 174.081 693.543 176.106Z" fill="#EBC977"/>
<path d="M698.845 244.705C708.105 244.705 715.612 242.819 715.612 240.493C715.612 238.167 708.105 236.281 698.845 236.281C689.585 236.281 682.078 238.167 682.078 240.493C682.078 242.819 689.585 244.705 698.845 244.705Z" fill="#EBC977"/>
<path d="M121.699 291.25H0.699219V412.25H121.699V291.25Z" fill="#E0550A" fill-opacity="0.2941"/>
<path d="M36.7021 327.997C38.4841 327.357 38.6137 326.004 40.501 324.717C41.6998 323.898 42.8095 323.655 44.0731 323.372C48.9007 322.311 54.514 324.222 60.7024 324.19C67.9681 324.158 73.5247 321.46 78.1741 323.072C80.596 323.915 81.7462 324.708 81.7462 324.708C83.7874 326.134 84.0871 327.398 85.8043 327.827C85.9825 327.867 87.7726 328.289 88.9795 327.3C90.2755 326.239 90.397 323.947 89.6842 322.392C88.1695 319.119 82.5967 318.431 79.6969 318.066C76.9753 317.726 75.9709 318.05 73.6219 317.248C71.3053 316.455 71.0542 315.717 68.8672 314.729C65.4571 313.206 62.29 313.271 60.1678 313.312C58.2886 313.352 55.1053 313.417 51.7114 315.013C50.0266 315.807 49.3219 316.487 47.1106 317.256C45.1504 317.937 44.146 317.945 42.3235 318.301C38.8243 318.982 34.021 319.913 32.6845 322.935C31.9555 324.579 32.2147 326.944 33.5431 327.859C34.7257 328.669 36.4186 328.094 36.7021 327.997Z" fill="#F6B9AA"/>
<path d="M60.6948 354.143C50.2296 354.062 40.8336 350.92 38.8248 350.231H38.8086C38.841 349.13 38.8653 348.028 38.8977 346.918C41.271 346.222 43.6443 345.517 46.0257 344.82C51.0315 344.837 56.0697 344.861 61.1241 344.901C66.1866 344.942 71.2167 344.999 76.2225 345.071C78.6606 345.857 81.0987 346.643 83.5368 347.437C83.6178 349.073 83.6583 350.361 83.5935 350.361C83.5935 350.361 72.6261 354.249 60.6948 354.152V354.143Z" fill="#F6B9AA"/>
<path d="M38.8507 345.453C38.1379 350.272 37.4251 355.092 36.7123 359.903C35.5783 367.55 34.4443 375.196 33.3103 382.834C33.0511 384.6 32.7838 386.374 32.5246 388.14C32.4031 388.958 32.7271 389.76 33.5857 390.011C34.2985 390.213 35.3353 389.76 35.4568 388.95C36.1696 384.13 36.8824 379.311 37.5952 374.499C38.7292 366.853 39.8632 359.207 40.9972 351.568C41.2564 349.803 41.5237 348.029 41.7829 346.263C41.9044 345.445 41.5804 344.643 40.7218 344.392C40.009 344.189 38.9722 344.643 38.8507 345.453Z" fill="#F6B9AA"/>
<path d="M80.8883 346.448C81.6011 351.268 82.3139 356.087 83.0267 360.899L86.4287 383.83C86.6879 385.596 86.9552 387.37 87.2144 389.135C87.3359 389.945 88.3646 390.399 89.0855 390.197C89.9522 389.954 90.2681 389.144 90.1466 388.325C89.4338 383.506 88.721 378.686 88.0082 373.875L84.6062 350.944C84.347 349.178 84.0797 347.404 83.8205 345.638C83.699 344.828 82.6703 344.375 81.9494 344.577C81.0827 344.82 80.7668 345.63 80.8883 346.448Z" fill="#F6B9AA"/>
<path d="M49.1824 322.853C48.1942 329.196 47.206 335.546 46.2097 341.888L41.4793 372.231C41.1148 374.556 40.7503 376.88 40.3939 379.205C40.2643 380.023 40.6045 380.833 41.455 381.076C42.1759 381.279 43.1965 380.825 43.3261 380.015C44.3143 373.673 45.3025 367.322 46.2988 360.98L51.0292 330.637C51.3937 328.313 51.7582 325.988 52.1146 323.663C52.2442 322.845 51.904 322.035 51.0535 321.792C50.3326 321.59 49.312 322.043 49.1824 322.853Z" fill="#F6B9AA"/>
<path d="M70.3635 323.655C71.3517 329.998 72.3399 336.348 73.3362 342.69L78.0666 373.033C78.4311 375.358 78.7956 377.682 79.152 380.007C79.2816 380.817 80.2941 381.271 81.0231 381.068C81.8898 380.825 82.2138 380.015 82.0842 379.197C81.096 372.855 80.1078 366.504 79.1115 360.162L74.3811 329.82C74.0166 327.495 73.6521 325.17 73.2957 322.845C73.1661 322.035 72.1536 321.582 71.4246 321.784C70.5579 322.027 70.2339 322.837 70.3635 323.655Z" fill="#F6B9AA"/>
<path d="M278.098 291.25H157.098V412.25H278.098V291.25Z" fill="#037ECB" fill-opacity="0.2941"/>
<path d="M193.344 376.078V388.706C193.344 390.658 196.381 390.667 196.381 388.706V376.078C196.381 374.126 193.344 374.118 193.344 376.078Z" fill="#EBC977"/>
<path d="M237.508 376.078V388.706C237.508 390.658 240.545 390.667 240.545 388.706V376.078C240.545 374.126 237.508 374.118 237.508 376.078Z" fill="#EBC977"/>
<path d="M233.645 376.078V385.669C233.645 386.463 234.341 387.224 235.167 387.192C235.994 387.159 236.69 386.527 236.69 385.669V376.078C236.69 375.285 235.994 374.523 235.167 374.556C234.341 374.588 233.645 375.22 233.645 376.078Z" fill="#EBC977"/>
<path d="M197.129 376.078V385.669C197.129 386.463 197.826 387.224 198.652 387.192C199.478 387.159 200.175 386.527 200.175 385.669V376.078C200.175 375.285 199.478 374.523 198.652 374.556C197.826 374.588 197.129 375.22 197.129 376.078Z" fill="#EBC977"/>
<path d="M239.476 376.751H194.95C193.355 376.751 192.059 375.455 192.059 373.859V319.613C192.059 318.341 193.095 317.305 194.367 317.305H239.468C240.74 317.305 241.776 318.341 241.776 319.613V374.442C241.776 375.714 240.74 376.751 239.468 376.751H239.476ZM239.022 372.514V322.343C239.022 321.306 238.18 320.464 237.143 320.464H196.748C195.712 320.464 194.869 321.306 194.869 322.343V372.514C194.869 373.551 195.712 374.393 196.748 374.393H237.143C238.18 374.393 239.022 373.551 239.022 372.514Z" fill="#EBC977"/>
<path d="M241.418 318.341C225.096 318.341 208.775 318.341 192.445 318.341C193.814 316.656 195.183 314.98 196.552 313.295H238.081C239.19 314.98 240.308 316.656 241.418 318.341Z" fill="#EBC977"/>
<path d="M197.379 348.303H236.486C237.158 348.303 237.709 348.87 237.709 349.574V371.922C237.709 372.627 237.167 373.194 236.486 373.194H197.379C196.707 373.194 196.156 372.627 196.156 371.922V349.574C196.156 348.87 196.699 348.303 197.379 348.303ZM216.706 358.598C215.515 358.598 214.559 359.562 214.559 360.744C214.559 361.927 215.523 362.891 216.706 362.891C217.889 362.891 218.852 361.927 218.852 360.744C218.852 359.562 217.889 358.598 216.706 358.598Z" fill="#EBC977"/>
<path d="M197.395 321.881H236.502C237.174 321.881 237.725 322.448 237.725 323.153V345.5C237.725 346.205 237.182 346.772 236.502 346.772H197.395C196.723 346.772 196.172 346.205 196.172 345.5V323.153C196.172 322.448 196.715 321.881 197.395 321.881ZM216.722 332.176C215.531 332.176 214.575 333.14 214.575 334.322C214.575 335.505 215.539 336.469 216.722 336.469C217.904 336.469 218.868 335.505 218.868 334.322C218.868 333.14 217.904 332.176 216.722 332.176Z" fill="#EBC977"/>
<path d="M434.5 291.25H313.5V412.25H434.5V291.25Z" fill="#3E2517" fill-opacity="0.2941"/>
<path d="M349.499 327.997C351.281 327.357 351.411 326.004 353.298 324.717C354.497 323.898 355.606 323.655 356.87 323.372C361.698 322.311 367.311 324.222 373.499 324.19C380.765 324.158 386.322 321.46 390.971 323.072C393.393 323.915 394.543 324.708 394.543 324.708C396.584 326.134 396.884 327.398 398.601 327.827C398.779 327.867 400.569 328.289 401.776 327.3C403.072 326.239 403.194 323.947 402.481 322.392C400.966 319.119 395.394 318.431 392.494 318.066C389.772 317.726 388.768 318.05 386.419 317.248C384.102 316.455 383.851 315.717 381.664 314.729C378.254 313.206 375.087 313.271 372.965 313.312C371.085 313.352 367.902 313.417 364.508 315.013C362.823 315.807 362.119 316.487 359.907 317.256C357.947 317.937 356.943 317.945 355.12 318.301C351.621 318.982 346.818 319.913 345.481 322.935C344.752 324.579 345.012 326.944 346.34 327.859C347.523 328.669 349.215 328.094 349.499 327.997Z" fill="#037ECB"/>
<path d="M373.492 354.143C363.026 354.062 353.63 350.92 351.622 350.231H351.605C351.638 349.13 351.662 348.028 351.695 346.918C354.068 346.222 356.441 345.517 358.823 344.82C363.828 344.837 368.867 344.861 373.921 344.901C378.983 344.942 384.014 344.999 389.019 345.071C391.457 345.857 393.896 346.643 396.334 347.437C396.415 349.073 396.455 350.361 396.39 350.361C396.39 350.361 385.423 354.249 373.492 354.152V354.143Z" fill="#037ECB"/>
<path d="M351.648 345.453C350.935 350.272 350.222 355.092 349.509 359.903C348.375 367.55 347.241 375.196 346.107 382.834C345.848 384.6 345.581 386.374 345.322 388.14C345.2 388.958 345.524 389.76 346.383 390.011C347.095 390.213 348.132 389.76 348.254 388.95C348.967 384.13 349.679 379.311 350.392 374.499C351.526 366.853 352.66 359.207 353.794 351.568C354.053 349.803 354.321 348.029 354.58 346.263C354.701 345.445 354.377 344.643 353.519 344.392C352.806 344.189 351.769 344.643 351.648 345.453Z" fill="#037ECB"/>
<path d="M393.685 346.448C394.398 351.268 395.111 356.087 395.824 360.899L399.226 383.83C399.485 385.596 399.752 387.37 400.011 389.135C400.133 389.945 401.161 390.399 401.882 390.197C402.749 389.954 403.065 389.144 402.943 388.325C402.231 383.506 401.518 378.686 400.805 373.875L397.403 350.944C397.144 349.178 396.877 347.404 396.617 345.638C396.496 344.828 395.467 344.375 394.746 344.577C393.88 344.82 393.564 345.63 393.685 346.448Z" fill="#037ECB"/>
<path d="M361.979 322.853C360.991 329.196 360.003 335.546 359.007 341.888L354.276 372.231C353.912 374.556 353.547 376.88 353.191 379.205C353.061 380.023 353.401 380.833 354.252 381.076C354.973 381.279 355.993 380.825 356.123 380.015C357.111 373.673 358.099 367.322 359.096 360.98L363.826 330.637C364.191 328.313 364.555 325.988 364.911 323.663C365.041 322.845 364.701 322.035 363.85 321.792C363.129 321.59 362.109 322.043 361.979 322.853Z" fill="#037ECB"/>
<path d="M383.16 323.655C384.149 329.998 385.137 336.348 386.133 342.69L390.863 373.033C391.228 375.358 391.592 377.682 391.949 380.007C392.078 380.817 393.091 381.271 393.82 381.068C394.687 380.825 395.011 380.015 394.881 379.197C393.893 372.855 392.905 366.504 391.908 360.162L387.178 329.82C386.813 327.495 386.449 325.17 386.093 322.845C385.963 322.035 384.95 321.582 384.221 321.784C383.355 322.027 383.031 322.837 383.16 323.655Z" fill="#037ECB"/>
<path d="M590.902 291.25H469.902V412.25H590.902V291.25Z" fill="#F19704" fill-opacity="0.2941"/>
<path d="M506.148 376.078V388.706C506.148 390.658 509.186 390.667 509.186 388.706V376.078C509.186 374.126 506.148 374.118 506.148 376.078Z" fill="#F19704"/>
<path d="M550.309 376.078V388.706C550.309 390.658 553.346 390.667 553.346 388.706V376.078C553.346 374.126 550.309 374.118 550.309 376.078Z" fill="#F19704"/>
<path d="M546.445 376.078V385.669C546.445 386.463 547.142 387.224 547.968 387.192C548.794 387.159 549.491 386.527 549.491 385.669V376.078C549.491 375.285 548.794 374.523 547.968 374.556C547.142 374.588 546.445 375.22 546.445 376.078Z" fill="#F19704"/>
<path d="M509.93 376.078V385.669C509.93 386.463 510.626 387.224 511.452 387.192C512.279 387.159 512.975 386.527 512.975 385.669V376.078C512.975 375.285 512.279 374.523 511.452 374.556C510.626 374.588 509.93 375.22 509.93 376.078Z" fill="#F19704"/>
<path d="M552.277 376.751H507.751C506.155 376.751 504.859 375.455 504.859 373.859V319.613C504.859 318.341 505.896 317.305 507.168 317.305H552.269C553.54 317.305 554.577 318.341 554.577 319.613V374.442C554.577 375.714 553.54 376.751 552.269 376.751H552.277ZM551.823 372.514V322.343C551.823 321.306 550.981 320.464 549.944 320.464H509.549C508.512 320.464 507.67 321.306 507.67 322.343V372.514C507.67 373.551 508.512 374.393 509.549 374.393H549.944C550.981 374.393 551.823 373.551 551.823 372.514Z" fill="#F19704"/>
<path d="M554.223 318.341C537.901 318.341 521.58 318.341 505.25 318.341C506.619 316.656 507.988 314.98 509.357 313.295H550.885C551.995 314.98 553.113 316.656 554.223 318.341Z" fill="#F19704"/>
<path d="M510.18 348.305H549.287C549.959 348.305 550.51 348.872 550.51 349.576V371.924C550.51 372.629 549.967 373.196 549.287 373.196H510.18C509.508 373.196 508.957 372.629 508.957 371.924V349.576C508.957 348.872 509.5 348.305 510.18 348.305ZM529.507 358.6C528.316 358.6 527.36 359.564 527.36 360.746C527.36 361.929 528.324 362.893 529.507 362.893C530.689 362.893 531.653 361.929 531.653 360.746C531.653 359.564 530.689 358.6 529.507 358.6Z" fill="#F19704"/>
<path d="M510.2 321.881H549.306C549.979 321.881 550.53 322.448 550.53 323.153V345.5C550.53 346.205 549.987 346.772 549.306 346.772H510.2C509.527 346.772 508.977 346.205 508.977 345.5V323.153C508.977 322.448 509.519 321.881 510.2 321.881ZM529.526 332.176C528.336 332.176 527.38 333.14 527.38 334.322C527.38 335.505 528.344 336.469 529.526 336.469C530.709 336.469 531.673 335.505 531.673 334.322C531.673 333.14 530.709 332.176 529.526 332.176Z" fill="#F19704"/>
<path d="M747.301 291.25H626.301V412.25H747.301V291.25Z" fill="#EBC977" fill-opacity="0.2941"/>
<path d="M662.304 327.997C664.086 327.357 664.215 326.004 666.103 324.717C667.301 323.898 668.411 323.655 669.675 323.372C674.502 322.311 680.116 324.222 686.304 324.19C693.57 324.158 699.126 321.46 703.776 323.072C706.198 323.915 707.348 324.708 707.348 324.708C709.389 326.134 709.689 327.398 711.406 327.827C711.584 327.867 713.374 328.289 714.581 327.3C715.877 326.239 715.999 323.947 715.286 322.392C713.771 319.119 708.198 318.431 705.298 318.066C702.577 317.726 701.572 318.05 699.223 317.248C696.907 316.455 696.656 315.717 694.469 314.729C691.059 313.206 687.892 313.271 685.769 313.312C683.89 313.352 680.707 313.417 677.313 315.013C675.628 315.807 674.923 316.487 672.712 317.256C670.752 317.937 669.748 317.945 667.925 318.301C664.426 318.982 659.623 319.913 658.286 322.935C657.557 324.579 657.816 326.944 659.145 327.859C660.327 328.669 662.02 328.094 662.304 327.997Z" fill="#DBC7EE"/>
<path d="M686.296 354.143C675.831 354.062 666.435 350.92 664.426 350.231H664.41C664.443 349.13 664.467 348.028 664.499 346.918C666.873 346.222 669.246 345.517 671.627 344.82C676.633 344.837 681.671 344.861 686.726 344.901C691.788 344.942 696.818 344.999 701.824 345.071C704.262 345.857 706.7 346.643 709.138 347.437C709.219 349.073 709.26 350.361 709.195 350.361C709.195 350.361 698.228 354.249 686.296 354.152V354.143Z" fill="#DBC7EE"/>
<path d="M664.452 345.453C663.739 350.272 663.027 355.092 662.314 359.903C661.18 367.55 660.046 375.196 658.912 382.834C658.653 384.6 658.385 386.374 658.126 388.14C658.005 388.958 658.329 389.76 659.187 390.011C659.9 390.213 660.937 389.76 661.058 388.95C661.771 384.13 662.484 379.311 663.197 374.499C664.331 366.853 665.465 359.207 666.599 351.568C666.858 349.803 667.125 348.029 667.384 346.263C667.506 345.445 667.182 344.643 666.323 344.392C665.611 344.189 664.574 344.643 664.452 345.453Z" fill="#DBC7EE"/>
<path d="M706.49 346.448C707.203 351.268 707.915 356.087 708.628 360.899L712.03 383.83C712.289 385.596 712.557 387.37 712.816 389.135C712.937 389.945 713.966 390.399 714.687 390.197C715.554 389.954 715.87 389.144 715.748 388.325C715.035 383.506 714.323 378.686 713.61 373.875L710.208 350.944C709.949 349.178 709.681 347.404 709.422 345.638C709.301 344.828 708.272 344.375 707.551 344.577C706.684 344.82 706.368 345.63 706.49 346.448Z" fill="#DBC7EE"/>
<path d="M674.784 322.853C673.796 329.196 672.808 335.546 671.811 341.888L667.081 372.231C666.716 374.556 666.352 376.88 665.995 379.205C665.866 380.023 666.206 380.833 667.057 381.076C667.777 381.279 668.798 380.825 668.928 380.015C669.916 373.673 670.904 367.322 671.9 360.98L676.631 330.637C676.995 328.313 677.36 325.988 677.716 323.663C677.846 322.845 677.506 322.035 676.655 321.792C675.934 321.59 674.914 322.043 674.784 322.853Z" fill="#DBC7EE"/>
<path d="M695.965 323.655C696.953 329.998 697.941 336.348 698.938 342.69L703.668 373.033C704.033 375.358 704.397 377.682 704.754 380.007C704.883 380.817 705.896 381.271 706.625 381.068C707.491 380.825 707.815 380.015 707.686 379.197C706.698 372.855 705.709 366.504 704.713 360.162L699.983 329.82C699.618 327.495 699.254 325.17 698.897 322.845C698.768 322.035 697.755 321.582 697.026 321.784C696.159 322.027 695.835 322.837 695.965 323.655Z" fill="#DBC7EE"/>
<path d="M121.699 436.75H0.699219V557.75H121.699V436.75Z" fill="#BAC685" fill-opacity="0.2941"/>
<path d="M36.7021 473.497C38.4841 472.857 38.6137 471.504 40.501 470.217C41.6998 469.398 42.8095 469.155 44.0731 468.872C48.9007 467.811 54.514 469.722 60.7024 469.69C67.9681 469.658 73.5247 466.96 78.1741 468.572C80.596 469.415 81.7462 470.208 81.7462 470.208C83.7874 471.634 84.0871 472.898 85.8043 473.327C85.9825 473.367 87.7726 473.789 88.9795 472.8C90.2755 471.739 90.397 469.447 89.6842 467.892C88.1695 464.619 82.5967 463.931 79.6969 463.566C76.9753 463.226 75.9709 463.55 73.6219 462.748C71.3053 461.955 71.0542 461.217 68.8672 460.229C65.4571 458.706 62.29 458.771 60.1678 458.812C58.2886 458.852 55.1053 458.917 51.7114 460.513C50.0266 461.307 49.3219 461.987 47.1106 462.756C45.1504 463.437 44.146 463.445 42.3235 463.801C38.8243 464.482 34.021 465.413 32.6845 468.435C31.9555 470.079 32.2147 472.444 33.5431 473.359C34.7257 474.169 36.4186 473.594 36.7021 473.497Z" fill="#E0550A"/>
<path d="M60.6948 499.643C50.2296 499.562 40.8336 496.42 38.8248 495.731H38.8086C38.841 494.63 38.8653 493.528 38.8977 492.418C41.271 491.722 43.6443 491.017 46.0257 490.32C51.0315 490.337 56.0697 490.361 61.1241 490.401C66.1866 490.442 71.2167 490.499 76.2225 490.571C78.6606 491.357 81.0987 492.143 83.5368 492.937C83.6178 494.573 83.6583 495.861 83.5935 495.861C83.5935 495.861 72.6261 499.749 60.6948 499.652V499.643Z" fill="#E0550A"/>
<path d="M38.8507 490.953C38.1379 495.772 37.4251 500.592 36.7123 505.403C35.5783 513.05 34.4443 520.696 33.3103 528.334C33.0511 530.1 32.7838 531.874 32.5246 533.64C32.4031 534.458 32.7271 535.26 33.5857 535.511C34.2985 535.713 35.3353 535.26 35.4568 534.45C36.1696 529.63 36.8824 524.811 37.5952 519.999C38.7292 512.353 39.8632 504.707 40.9972 497.068C41.2564 495.303 41.5237 493.529 41.7829 491.763C41.9044 490.945 41.5804 490.143 40.7218 489.892C40.009 489.689 38.9722 490.143 38.8507 490.953Z" fill="#E0550A"/>
<path d="M80.8883 491.948C81.6011 496.768 82.3139 501.587 83.0267 506.399L86.4287 529.33C86.6879 531.096 86.9552 532.87 87.2144 534.635C87.3359 535.445 88.3646 535.899 89.0855 535.697C89.9522 535.454 90.2681 534.644 90.1466 533.825C89.4338 529.006 88.721 524.186 88.0082 519.375L84.6062 496.444C84.347 494.678 84.0797 492.904 83.8205 491.138C83.699 490.328 82.6703 489.875 81.9494 490.077C81.0827 490.32 80.7668 491.13 80.8883 491.948Z" fill="#E0550A"/>
<path d="M49.1824 468.353C48.1942 474.696 47.206 481.046 46.2097 487.388L41.4793 517.731C41.1148 520.056 40.7503 522.38 40.3939 524.705C40.2643 525.523 40.6045 526.333 41.455 526.576C42.1759 526.779 43.1965 526.325 43.3261 525.515C44.3143 519.173 45.3025 512.822 46.2988 506.48L51.0292 476.137C51.3937 473.813 51.7582 471.488 52.1146 469.163C52.2442 468.345 51.904 467.535 51.0535 467.292C50.3326 467.09 49.312 467.543 49.1824 468.353Z" fill="#E0550A"/>
<path d="M70.3635 469.155C71.3517 475.498 72.3399 481.848 73.3362 488.19L78.0666 518.533C78.4311 520.858 78.7956 523.182 79.152 525.507C79.2816 526.317 80.2941 526.771 81.0231 526.568C81.8898 526.325 82.2138 525.515 82.0842 524.697C81.096 518.355 80.1078 512.004 79.1115 505.662L74.3811 475.32C74.0166 472.995 73.6521 470.67 73.2957 468.345C73.1661 467.535 72.1536 467.082 71.4246 467.284C70.5579 467.527 70.2339 468.337 70.3635 469.155Z" fill="#E0550A"/>
<path d="M278.098 436.75H157.098V557.75H278.098V436.75Z" fill="#3E2517" fill-opacity="0.2941"/>
<path d="M189.116 488.021C193.717 493.156 198.318 498.299 202.919 503.435C210.241 511.608 217.564 519.789 224.878 527.962C226.538 529.817 228.207 531.68 229.867 533.534C231.172 534.992 233.318 532.838 232.014 531.388C227.413 526.253 222.812 521.109 218.212 515.974C210.889 507.801 203.567 499.62 196.252 491.447C194.592 489.592 192.923 487.729 191.263 485.874C189.959 484.416 187.812 486.571 189.116 488.021Z" fill="#DBC7EE"/>
<path d="M191.317 504.723C194.395 501.005 197.473 497.295 200.551 493.577L215.277 475.798C216.411 474.429 217.537 473.068 218.671 471.699C219.91 470.201 217.771 468.046 216.524 469.553C213.446 473.271 210.368 476.98 207.29 480.698L192.564 498.478C191.43 499.847 190.304 501.208 189.17 502.576C187.931 504.075 190.069 506.23 191.317 504.723Z" fill="#DBC7EE"/>
<path d="M246.416 461.55L227.786 496.348C217.961 492.452 214.64 479.645 220.075 469.658C225.461 459.76 237.814 455.588 246.416 461.55Z" fill="#DBC7EE"/>
<path d="M224.344 467.106L218.747 477.571C215.345 476.161 213.96 472.103 215.596 469.098C217.216 466.126 221.315 465.081 224.344 467.106Z" fill="#DBC7EE"/>
<path d="M229.65 535.705C238.91 535.705 246.417 533.819 246.417 531.493C246.417 529.167 238.91 527.281 229.65 527.281C220.39 527.281 212.883 529.167 212.883 531.493C212.883 533.819 220.39 535.705 229.65 535.705Z" fill="#DBC7EE"/>
<path d="M434.5 436.75H313.5V557.75H434.5V436.75Z" fill="#E0550A" fill-opacity="0.2941"/>
<path d="M372.421 460.262V521.781C372.421 524.608 372.3 527.467 372.421 530.294C372.421 530.335 372.421 530.375 372.421 530.416C372.421 532.368 375.459 532.376 375.459 530.416V468.904C375.459 466.078 375.58 463.218 375.459 460.391C375.459 460.351 375.459 460.31 375.459 460.27C375.459 458.318 372.421 458.31 372.421 460.27V460.262Z" fill="#F19704"/>
<path d="M402.556 490.304H345.329C343.588 475.076 357.69 462.067 374.174 462.18C390.495 462.294 404.281 475.23 402.556 490.304Z" fill="#F19704"/>
<path d="M383.044 535.705H364.835C364.284 530.1 368.764 525.321 374.012 525.362C379.204 525.402 383.595 530.165 383.044 535.705Z" fill="#F19704"/>
<path d="M590.902 436.75H469.902V557.75H590.902V436.75Z" fill="#EBC977" fill-opacity="0.2941"/>
<path d="M501.917 488.021C506.518 493.156 511.119 498.299 515.72 503.435C523.042 511.608 530.364 519.789 537.679 527.962C539.339 529.817 541.008 531.68 542.668 533.534C543.972 534.992 546.119 532.838 544.815 531.388C540.214 526.253 535.613 521.109 531.012 515.974C523.69 507.801 516.368 499.62 509.053 491.447C507.393 489.592 505.724 487.729 504.064 485.874C502.76 484.416 500.613 486.571 501.917 488.021Z" fill="#F6B9AA"/>
<path d="M504.122 504.723C507.2 501.005 510.278 497.295 513.356 493.577L528.081 475.798C529.215 474.429 530.341 473.068 531.475 471.699C532.715 470.201 530.576 468.046 529.329 469.553C526.251 473.271 523.173 476.98 520.095 480.698L505.369 498.478C504.235 499.847 503.109 501.208 501.975 502.576C500.736 504.075 502.874 506.23 504.122 504.723Z" fill="#F6B9AA"/>
<path d="M559.217 461.55L540.587 496.348C530.761 492.452 527.44 479.645 532.875 469.658C538.262 459.76 550.614 455.588 559.217 461.55Z" fill="#F6B9AA"/>
<path d="M537.145 467.106L531.548 477.571C528.146 476.161 526.761 472.103 528.397 469.098C530.017 466.126 534.116 465.081 537.145 467.106Z" fill="#F6B9AA"/>
<path d="M542.447 535.705C551.707 535.705 559.214 533.819 559.214 531.493C559.214 529.167 551.707 527.281 542.447 527.281C533.187 527.281 525.68 529.167 525.68 531.493C525.68 533.819 533.187 535.705 542.447 535.705Z" fill="#F6B9AA"/>
<path d="M747.301 436.75H626.301V557.75H747.301V436.75Z" fill="#DBC7EE" fill-opacity="0.2941"/>
<path d="M662.304 473.497C664.086 472.857 664.215 471.504 666.103 470.217C667.301 469.398 668.411 469.155 669.675 468.872C674.502 467.811 680.116 469.722 686.304 469.69C693.57 469.658 699.126 466.96 703.776 468.572C706.198 469.415 707.348 470.208 707.348 470.208C709.389 471.634 709.689 472.898 711.406 473.327C711.584 473.367 713.374 473.789 714.581 472.8C715.877 471.739 715.999 469.447 715.286 467.892C713.771 464.619 708.198 463.931 705.298 463.566C702.577 463.226 701.572 463.55 699.223 462.748C696.907 461.955 696.656 461.217 694.469 460.229C691.059 458.706 687.892 458.771 685.769 458.812C683.89 458.852 680.707 458.917 677.313 460.513C675.628 461.307 674.923 461.987 672.712 462.756C670.752 463.437 669.748 463.445 667.925 463.801C664.426 464.482 659.623 465.413 658.286 468.435C657.557 470.079 657.816 472.444 659.145 473.359C660.327 474.169 662.02 473.594 662.304 473.497Z" fill="#EBC977"/>
<path d="M686.296 499.643C675.831 499.562 666.435 496.42 664.426 495.731H664.41C664.443 494.63 664.467 493.528 664.499 492.418C666.873 491.722 669.246 491.017 671.627 490.32C676.633 490.337 681.671 490.361 686.726 490.401C691.788 490.442 696.818 490.499 701.824 490.571C704.262 491.357 706.7 492.143 709.138 492.937C709.219 494.573 709.26 495.861 709.195 495.861C709.195 495.861 698.228 499.749 686.296 499.652V499.643Z" fill="#EBC977"/>
<path d="M664.452 490.953C663.739 495.772 663.027 500.592 662.314 505.403C661.18 513.05 660.046 520.696 658.912 528.334C658.653 530.1 658.385 531.874 658.126 533.64C658.005 534.458 658.329 535.26 659.187 535.511C659.9 535.713 660.937 535.26 661.058 534.45C661.771 529.63 662.484 524.811 663.197 519.999C664.331 512.353 665.465 504.707 666.599 497.068C666.858 495.303 667.125 493.529 667.384 491.763C667.506 490.945 667.182 490.143 666.323 489.892C665.611 489.689 664.574 490.143 664.452 490.953Z" fill="#EBC977"/>
<path d="M706.49 491.948C707.203 496.768 707.915 501.587 708.628 506.399L712.03 529.33C712.289 531.096 712.557 532.87 712.816 534.635C712.937 535.445 713.966 535.899 714.687 535.697C715.554 535.454 715.87 534.644 715.748 533.825C715.035 529.006 714.323 524.186 713.61 519.375L710.208 496.444C709.949 494.678 709.681 492.904 709.422 491.138C709.301 490.328 708.272 489.875 707.551 490.077C706.684 490.32 706.368 491.13 706.49 491.948Z" fill="#EBC977"/>
<path d="M674.784 468.353C673.796 474.696 672.808 481.046 671.811 487.388L667.081 517.731C666.716 520.056 666.352 522.38 665.995 524.705C665.866 525.523 666.206 526.333 667.057 526.576C667.777 526.779 668.798 526.325 668.928 525.515C669.916 519.173 670.904 512.822 671.9 506.48L676.631 476.137C676.995 473.813 677.36 471.488 677.716 469.163C677.846 468.345 677.506 467.535 676.655 467.292C675.934 467.09 674.914 467.543 674.784 468.353Z" fill="#EBC977"/>
<path d="M695.965 469.155C696.953 475.498 697.941 481.848 698.938 488.19L703.668 518.533C704.033 520.858 704.397 523.182 704.754 525.507C704.883 526.317 705.896 526.771 706.625 526.568C707.491 526.325 707.815 525.515 707.686 524.697C706.698 518.355 705.709 512.004 704.713 505.662L699.983 475.32C699.618 472.995 699.254 470.67 698.897 468.345C698.768 467.535 697.755 467.082 697.026 467.284C696.159 467.527 695.835 468.337 695.965 469.155Z" fill="#EBC977"/>
</svg>
