<svg width="370" height="370" viewBox="0 0 370 370" fill="none" xmlns="http://www.w3.org/2000/svg">
<path d="M369.799 0.201172H0.199219V369.801H369.799V0.201172Z" fill="#E0550A" fill-opacity="0.1569"/>
<path d="M179.901 65.358V264.347C179.901 273.491 179.508 282.739 179.901 291.883C179.901 292.014 179.901 292.145 179.901 292.276C179.901 298.59 189.726 298.617 189.726 292.276V93.3134C189.726 84.1696 190.119 74.921 189.726 65.7772C189.726 65.6462 189.726 65.5152 189.726 65.3842C189.726 59.07 179.901 59.0438 179.901 65.3842V65.358Z" fill="#3E2517"/>
<path d="M277.368 162.535H92.2648C86.6318 113.279 132.246 71.202 185.563 71.5688C238.356 71.9356 282.948 113.777 277.368 162.535Z" fill="#3E2517"/>
<path d="M214.249 309.384H155.352C153.57 291.254 168.059 275.796 185.036 275.927C201.831 276.058 216.031 291.463 214.249 309.384Z" fill="#3E2517"/>
</svg>
