<svg width="370" height="370" viewBox="0 0 370 370" fill="none" xmlns="http://www.w3.org/2000/svg">
<path d="M369.799 0.201172H0.199219V369.801H369.799V0.201172Z" fill="#F6B9AA" fill-opacity="0.1569"/>
<path d="M106.547 263.691V304.537C106.547 310.851 116.372 310.877 116.372 304.537V263.691C116.372 257.377 106.547 257.35 106.547 263.691Z" fill="#DBC7EE"/>
<path d="M249.387 263.691V304.537C249.387 310.851 259.212 310.877 259.212 304.537V263.691C259.212 257.377 249.387 257.35 249.387 263.691Z" fill="#DBC7EE"/>
<path d="M236.891 263.691V294.711C236.891 297.279 239.144 299.742 241.816 299.637C244.489 299.532 246.742 297.489 246.742 294.711V263.691C246.742 261.123 244.489 258.66 241.816 258.765C239.144 258.87 236.891 260.913 236.891 263.691Z" fill="#DBC7EE"/>
<path d="M118.781 263.691V294.711C118.781 297.279 121.034 299.742 123.707 299.637C126.379 299.532 128.632 297.489 128.632 294.711V263.691C128.632 261.123 126.379 258.66 123.707 258.765C121.034 258.87 118.781 260.913 118.781 263.691Z" fill="#DBC7EE"/>
<path d="M255.754 265.866H111.732C106.571 265.866 102.379 261.674 102.379 256.512V81.051C102.379 76.9376 105.733 73.584 109.846 73.584H255.728C259.841 73.584 263.195 76.9376 263.195 81.051V258.399C263.195 262.512 259.841 265.866 255.728 265.866H255.754ZM254.287 252.163V89.8804C254.287 86.5268 251.562 83.802 248.208 83.802H117.549C114.195 83.802 111.47 86.5268 111.47 89.8804V252.163C111.47 255.517 114.195 258.242 117.549 258.242H248.208C251.562 258.242 254.287 255.517 254.287 252.163Z" fill="#DBC7EE"/>
<path d="M262.042 76.9378C209.249 76.9378 156.456 76.9378 103.637 76.9378C108.065 71.4882 112.492 66.0648 116.92 60.6152H251.248C254.837 66.0648 258.453 71.4882 262.042 76.9378Z" fill="#DBC7EE"/>
<path d="M119.593 173.852H246.087C248.261 173.852 250.043 175.686 250.043 177.965V250.251C250.043 252.53 248.287 254.364 246.087 254.364H119.593C117.418 254.364 115.637 252.53 115.637 250.251V177.965C115.637 175.686 117.392 173.852 119.593 173.852ZM182.106 207.152C178.255 207.152 175.163 210.27 175.163 214.095C175.163 217.92 178.281 221.038 182.106 221.038C185.931 221.038 189.049 217.92 189.049 214.095C189.049 210.27 185.931 207.152 182.106 207.152Z" fill="#DBC7EE"/>
<path d="M119.644 88.3867H246.137C248.312 88.3867 250.093 90.2207 250.093 92.5001V164.786C250.093 167.065 248.338 168.899 246.137 168.899H119.644C117.469 168.899 115.688 167.065 115.688 164.786V92.5001C115.688 90.2207 117.443 88.3867 119.644 88.3867ZM182.157 121.687C178.306 121.687 175.214 124.805 175.214 128.63C175.214 132.455 178.332 135.573 182.157 135.573C185.982 135.573 189.1 132.455 189.1 128.63C189.1 124.805 185.982 121.687 182.157 121.687Z" fill="#DBC7EE"/>
</svg>
