<svg width="760" height="370" viewBox="0 0 760 370" fill="none" xmlns="http://www.w3.org/2000/svg">
<path d="M369.799 0.201172H0.199219V369.801H369.799V0.201172Z" fill="#F6B9AA" fill-opacity="0.1569"/>
<path d="M106.547 263.691V304.537C106.547 310.851 116.372 310.877 116.372 304.537V263.691C116.372 257.377 106.547 257.35 106.547 263.691Z" fill="#DBC7EE"/>
<path d="M249.387 263.691V304.537C249.387 310.851 259.212 310.877 259.212 304.537V263.691C259.212 257.377 249.387 257.35 249.387 263.691Z" fill="#DBC7EE"/>
<path d="M236.891 263.691V294.711C236.891 297.279 239.144 299.742 241.816 299.637C244.489 299.532 246.742 297.489 246.742 294.711V263.691C246.742 261.123 244.489 258.66 241.816 258.765C239.144 258.87 236.891 260.913 236.891 263.691Z" fill="#DBC7EE"/>
<path d="M118.781 263.691V294.711C118.781 297.279 121.034 299.742 123.707 299.637C126.379 299.532 128.632 297.489 128.632 294.711V263.691C128.632 261.123 126.379 258.66 123.707 258.765C121.034 258.87 118.781 260.913 118.781 263.691Z" fill="#DBC7EE"/>
<path d="M255.754 265.866H111.732C106.571 265.866 102.379 261.674 102.379 256.512V81.051C102.379 76.9376 105.733 73.584 109.846 73.584H255.728C259.841 73.584 263.195 76.9376 263.195 81.051V258.399C263.195 262.512 259.841 265.866 255.728 265.866H255.754ZM254.287 252.163V89.8804C254.287 86.5268 251.562 83.802 248.208 83.802H117.549C114.195 83.802 111.47 86.5268 111.47 89.8804V252.163C111.47 255.517 114.195 258.242 117.549 258.242H248.208C251.562 258.242 254.287 255.517 254.287 252.163Z" fill="#DBC7EE"/>
<path d="M262.042 76.9378C209.249 76.9378 156.456 76.9378 103.637 76.9378C108.065 71.4882 112.492 66.0648 116.92 60.6152H251.248C254.837 66.0648 258.453 71.4882 262.042 76.9378Z" fill="#DBC7EE"/>
<path d="M119.593 173.852H246.087C248.261 173.852 250.043 175.686 250.043 177.965V250.251C250.043 252.53 248.287 254.364 246.087 254.364H119.593C117.418 254.364 115.637 252.53 115.637 250.251V177.965C115.637 175.686 117.392 173.852 119.593 173.852ZM182.106 207.152C178.255 207.152 175.163 210.27 175.163 214.095C175.163 217.92 178.281 221.038 182.106 221.038C185.931 221.038 189.049 217.92 189.049 214.095C189.049 210.27 185.931 207.152 182.106 207.152Z" fill="#DBC7EE"/>
<path d="M119.644 88.3867H246.137C248.312 88.3867 250.093 90.2207 250.093 92.5001V164.786C250.093 167.065 248.338 168.899 246.137 168.899H119.644C117.469 168.899 115.688 167.065 115.688 164.786V92.5001C115.688 90.2207 117.443 88.3867 119.644 88.3867ZM182.157 121.687C178.306 121.687 175.214 124.805 175.214 128.63C175.214 132.455 178.332 135.573 182.157 135.573C185.982 135.573 189.1 132.455 189.1 128.63C189.1 124.805 185.982 121.687 182.157 121.687Z" fill="#DBC7EE"/>
<path d="M759.799 0.201172H390.199V369.801H759.799V0.201172Z" fill="#EBC977" fill-opacity="0.1569"/>
<path d="M495.756 108.17C501.52 106.1 501.939 101.725 508.044 97.5587C511.921 94.9125 515.511 94.1265 519.598 93.2095C535.213 89.7773 553.37 95.9605 573.386 95.8557C596.888 95.7509 614.861 87.0263 629.9 92.2401C637.734 94.9649 641.454 97.5325 641.454 97.5325C648.056 102.144 649.026 106.231 654.58 107.62C655.156 107.751 660.947 109.113 664.851 105.917C669.043 102.484 669.435 95.0697 667.13 90.0393C662.23 79.4545 644.205 77.2275 634.825 76.0485C626.022 74.9481 622.773 75.9961 615.175 73.4023C607.682 70.8347 606.87 68.4505 599.796 65.2541C588.766 60.3285 578.522 60.5381 571.657 60.6691C565.579 60.8001 555.282 61.0097 544.304 66.1711C538.855 68.7387 536.575 70.9395 529.423 73.4285C523.082 75.6293 519.834 75.6555 513.939 76.8083C502.62 79.0091 487.084 82.0221 482.761 91.7947C480.403 97.1133 481.241 104.764 485.538 107.724C489.363 110.344 494.839 108.484 495.756 108.17Z" fill="#EBC977"/>
<path d="M573.363 192.742C539.512 192.48 509.12 182.315 502.623 180.088H502.57C502.675 176.524 502.754 172.961 502.859 169.372C510.535 167.119 518.212 164.839 525.915 162.586C542.106 162.638 558.403 162.717 574.751 162.848C591.126 162.979 607.397 163.162 623.588 163.398C631.474 165.94 639.361 168.481 647.247 171.049C647.509 176.341 647.64 180.507 647.43 180.507C647.43 180.507 611.955 193.083 573.363 192.768V192.742Z" fill="#EBC977"/>
<path d="M502.698 164.631C500.393 180.22 498.087 195.809 495.781 211.371C492.113 236.104 488.445 260.837 484.777 285.544C483.939 291.255 483.074 296.993 482.236 302.705C481.843 305.351 482.891 307.945 485.668 308.757C487.974 309.412 491.327 307.945 491.72 305.325C494.026 289.736 496.332 274.147 498.637 258.584C502.305 233.851 505.973 209.118 509.641 184.412C510.48 178.7 511.344 172.962 512.183 167.251C512.576 164.604 511.528 162.011 508.75 161.198C506.445 160.543 503.091 162.011 502.698 164.631Z" fill="#EBC977"/>
<path d="M638.679 167.852C640.984 183.441 643.29 199.03 645.595 214.593L656.599 288.765C657.438 294.477 658.302 300.215 659.141 305.926C659.534 308.546 662.861 310.013 665.193 309.358C667.996 308.572 669.018 305.952 668.625 303.306C666.32 287.717 664.014 272.128 661.708 256.565L650.704 182.393C649.866 176.682 649.001 170.944 648.163 165.232C647.77 162.612 644.443 161.145 642.111 161.8C639.307 162.586 638.286 165.206 638.679 167.852Z" fill="#EBC977"/>
<path d="M536.131 91.5329C532.934 112.047 529.738 132.588 526.515 153.103L511.214 251.248C510.035 258.768 508.856 266.287 507.704 273.806C507.284 276.452 508.385 279.072 511.136 279.858C513.468 280.513 516.769 279.046 517.188 276.426C520.384 255.912 523.581 235.371 526.803 214.856L542.104 116.711C543.283 109.192 544.462 101.672 545.615 94.1529C546.034 91.5067 544.934 88.8867 542.183 88.1007C539.851 87.4457 536.55 88.9129 536.131 91.5329Z" fill="#EBC977"/>
<path d="M604.644 94.1256C607.84 114.64 611.036 135.181 614.259 155.696L629.56 253.841C630.739 261.36 631.918 268.88 633.071 276.399C633.49 279.019 636.765 280.486 639.123 279.831C641.926 279.045 642.974 276.425 642.555 273.779C639.359 253.264 636.162 232.724 632.94 212.209L617.639 114.064C616.46 106.544 615.281 99.025 614.128 91.5056C613.709 88.8856 610.434 87.4184 608.076 88.0734C605.272 88.8594 604.224 91.4794 604.644 94.1256Z" fill="#EBC977"/>
</svg>
