<svg width="370" height="370" viewBox="0 0 370 370" fill="none" xmlns="http://www.w3.org/2000/svg">
<path d="M369.799 0.201172H0.199219V369.801H369.799V0.201172Z" fill="#037ECB" fill-opacity="0.1569"/>
<path d="M105.76 108.168C111.524 106.098 111.943 101.723 118.047 97.5568C121.925 94.9106 125.514 94.1246 129.602 93.2076C145.217 89.7754 163.373 95.9586 183.39 95.8538C206.892 95.749 224.865 87.0244 239.904 92.2382C247.737 94.963 251.458 97.5306 251.458 97.5306C258.06 102.142 259.03 106.229 264.584 107.618C265.16 107.749 270.951 109.111 274.854 105.915C279.046 102.482 279.439 95.0678 277.134 90.0374C272.234 79.4526 254.209 77.2256 244.829 76.0466C236.026 74.9462 232.777 75.9942 225.179 73.4004C217.686 70.8328 216.874 68.4486 209.8 65.2522C198.77 60.3266 188.525 60.5362 181.661 60.6672C175.583 60.7982 165.286 61.0078 154.308 66.1692C148.859 68.7368 146.579 70.9376 139.427 73.4266C133.086 75.6274 129.837 75.6536 123.942 76.8064C112.624 79.0072 97.0874 82.0202 92.7644 91.7928C90.4064 97.1114 91.2448 104.762 95.5416 107.722C99.3668 110.342 104.843 108.482 105.76 108.168Z" fill="#3E2517"/>
<path d="M183.363 192.742C149.512 192.48 119.12 182.315 112.623 180.088H112.57C112.675 176.524 112.754 172.961 112.859 169.372C120.535 167.119 128.212 164.839 135.915 162.586C152.106 162.638 168.403 162.717 184.751 162.848C201.126 162.979 217.397 163.162 233.588 163.398C241.474 165.94 249.361 168.481 257.247 171.049C257.509 176.341 257.64 180.507 257.43 180.507C257.43 180.507 221.955 193.083 183.363 192.768V192.742Z" fill="#3E2517"/>
<path d="M112.702 164.629C110.396 180.218 108.091 195.807 105.785 211.369C102.117 236.102 98.4492 260.835 94.7812 285.542C93.9428 291.253 93.0782 296.991 92.2398 302.703C91.8468 305.349 92.8948 307.943 95.672 308.755C97.9776 309.41 101.331 307.943 101.724 305.323C104.03 289.734 106.335 274.145 108.641 258.582C112.309 233.849 115.977 209.116 119.645 184.41C120.483 178.698 121.348 172.96 122.186 167.249C122.579 164.602 121.531 162.009 118.754 161.196C116.449 160.541 113.095 162.009 112.702 164.629Z" fill="#3E2517"/>
<path d="M248.682 167.852C250.988 183.441 253.294 199.03 255.599 214.593L266.603 288.765C267.442 294.477 268.306 300.215 269.145 305.926C269.538 308.546 272.865 310.013 275.197 309.358C278 308.572 279.022 305.952 278.629 303.306C276.323 287.717 274.018 272.128 271.712 256.565L260.708 182.393C259.87 176.682 259.005 170.944 258.167 165.232C257.774 162.612 254.446 161.145 252.115 161.8C249.311 162.586 248.289 165.206 248.682 167.852Z" fill="#3E2517"/>
<path d="M146.134 91.5309C142.938 112.046 139.742 132.586 136.519 153.101L121.218 251.246C120.039 258.766 118.86 266.285 117.707 273.804C117.288 276.451 118.389 279.071 121.14 279.857C123.471 280.512 126.773 279.044 127.192 276.424C130.388 255.91 133.585 235.369 136.807 214.854L152.108 116.709C153.287 109.19 154.466 101.67 155.619 94.1509C156.038 91.5047 154.938 88.8847 152.187 88.0987C149.855 87.4437 146.554 88.9109 146.134 91.5309Z" fill="#3E2517"/>
<path d="M214.648 94.1256C217.844 114.64 221.04 135.181 224.263 155.696L239.564 253.841C240.743 261.36 241.922 268.88 243.075 276.399C243.494 279.019 246.769 280.486 249.127 279.831C251.93 279.045 252.978 276.425 252.559 273.779C249.363 253.264 246.166 232.724 242.944 212.209L227.643 114.064C226.464 106.544 225.285 99.025 224.132 91.5056C223.713 88.8856 220.438 87.4184 218.08 88.0734C215.276 88.8594 214.228 91.4794 214.648 94.1256Z" fill="#3E2517"/>
</svg>
