<svg width="782" height="592" viewBox="0 0 782 592" fill="none" xmlns="http://www.w3.org/2000/svg">
<path d="M125.701 0.798828H0.300781V126.199H125.701V0.798828Z" fill="#E0550A" fill-opacity="0.4431"/>
<path d="M62.475 51.1719V71.6784C62.475 72.6207 62.4345 73.5738 62.475 74.5161C62.475 74.5296 62.475 74.5431 62.475 74.5566C62.475 75.2073 63.4875 75.21 63.4875 74.5566V54.0528C63.4875 53.1105 63.528 52.1574 63.4875 51.2151C63.4875 51.2016 63.4875 51.1881 63.4875 51.1746C63.4875 50.5239 62.475 50.5212 62.475 51.1746V51.1719Z" fill="#F19704"/>
<path d="M72.5187 61.1871H53.4432C52.8627 56.1111 57.5634 51.7749 63.0579 51.8127C68.4984 51.8505 73.0938 56.1624 72.5187 61.1871Z" fill="#F19704"/>
<path d="M66.0146 76.3191H59.945C59.7614 74.4507 61.2545 72.8577 63.0041 72.8712C64.7348 72.8847 66.1982 74.4723 66.0146 76.3191Z" fill="#F19704"/>
<path d="M289.701 0.798828H164.301V126.199H289.701V0.798828Z" fill="#F6B9AA" fill-opacity="0.4431"/>
<path d="M218.918 71.6101V75.8194C218.918 76.4701 219.93 76.4728 219.93 75.8194V71.6101C219.93 70.9594 218.918 70.9567 218.918 71.6101Z" fill="#BAC685"/>
<path d="M233.641 71.6101V75.8194C233.641 76.4701 234.653 76.4728 234.653 75.8194V71.6101C234.653 70.9594 233.641 70.9567 233.641 71.6101Z" fill="#BAC685"/>
<path d="M232.352 71.6095V74.8063C232.352 75.0709 232.584 75.3247 232.859 75.3139C233.135 75.3031 233.367 75.0925 233.367 74.8063V71.6095C233.367 71.3449 233.135 71.0911 232.859 71.1019C232.584 71.1127 232.352 71.3233 232.352 71.6095Z" fill="#BAC685"/>
<path d="M220.18 71.6095V74.8063C220.18 75.0709 220.412 75.3247 220.687 75.3139C220.963 75.3031 221.195 75.0925 221.195 74.8063V71.6095C221.195 71.3449 220.963 71.0911 220.687 71.1019C220.412 71.1127 220.18 71.3233 220.18 71.6095Z" fill="#BAC685"/>
<path d="M234.294 71.8348H219.452C218.92 71.8348 218.488 71.4028 218.488 70.8709V52.789C218.488 52.3651 218.834 52.0195 219.258 52.0195H234.291C234.715 52.0195 235.061 52.3651 235.061 52.789V71.0653C235.061 71.4892 234.715 71.8348 234.291 71.8348H234.294ZM234.143 70.4227V53.6989C234.143 53.3533 233.862 53.0725 233.516 53.0725H220.052C219.706 53.0725 219.425 53.3533 219.425 53.6989V70.4227C219.425 70.7683 219.706 71.0491 220.052 71.0491H233.516C233.862 71.0491 234.143 70.7683 234.143 70.4227Z" fill="#BAC685"/>
<path d="M234.941 52.3637C229.501 52.3637 224.06 52.3637 218.617 52.3637C219.073 51.8021 219.53 51.2432 219.986 50.6816H233.829C234.199 51.2432 234.571 51.8021 234.941 52.3637Z" fill="#BAC685"/>
<path d="M220.259 62.3516H233.295C233.519 62.3516 233.703 62.5406 233.703 62.7755V70.2248C233.703 70.4597 233.522 70.6487 233.295 70.6487H220.259C220.035 70.6487 219.852 70.4597 219.852 70.2248V62.7755C219.852 62.5406 220.032 62.3516 220.259 62.3516ZM226.701 65.7833C226.305 65.7833 225.986 66.1046 225.986 66.4988C225.986 66.893 226.307 67.2143 226.701 67.2143C227.096 67.2143 227.417 66.893 227.417 66.4988C227.417 66.1046 227.096 65.7833 226.701 65.7833Z" fill="#BAC685"/>
<path d="M220.267 53.543H233.303C233.527 53.543 233.71 53.732 233.71 53.9669V61.4162C233.71 61.6511 233.529 61.8401 233.303 61.8401H220.267C220.043 61.8401 219.859 61.6511 219.859 61.4162V53.9669C219.859 53.732 220.04 53.543 220.267 53.543ZM226.709 56.9747C226.312 56.9747 225.994 57.296 225.994 57.6902C225.994 58.0844 226.315 58.4057 226.709 58.4057C227.103 58.4057 227.425 58.0844 227.425 57.6902C227.425 57.296 227.103 56.9747 226.709 56.9747Z" fill="#BAC685"/>
<path d="M453.701 0.798828H328.301V126.199H453.701V0.798828Z" fill="#BAC685" fill-opacity="0.4431"/>
<path d="M381.506 60.4242C383.04 62.136 384.573 63.8505 386.107 65.5623C388.548 68.2866 390.989 71.0136 393.427 73.7379C393.98 74.3562 394.536 74.9772 395.09 75.5955C395.525 76.0815 396.24 75.3633 395.805 74.88C394.272 73.1682 392.738 71.4537 391.205 69.7419C388.764 67.0176 386.323 64.2906 383.885 61.5663C383.331 60.948 382.775 60.327 382.222 59.7087C381.787 59.2227 381.072 59.9409 381.506 60.4242Z" fill="#E0550A"/>
<path d="M382.238 65.9917C383.264 64.7524 384.29 63.5157 385.316 62.2764L390.225 56.3499C390.603 55.8936 390.978 55.44 391.356 54.9837C391.769 54.4842 391.057 53.766 390.641 54.2682C389.615 55.5075 388.589 56.7442 387.563 57.9835L382.654 63.91C382.276 64.3663 381.901 64.8199 381.523 65.2762C381.11 65.7757 381.823 66.4939 382.238 65.9917Z" fill="#E0550A"/>
<path d="M400.609 51.6L394.399 63.1992C391.124 61.9005 390.017 57.6318 391.828 54.3027C393.624 51.0033 397.741 49.6128 400.609 51.6Z" fill="#E0550A"/>
<path d="M393.246 53.4525L391.381 56.9409C390.247 56.4711 389.785 55.1184 390.33 54.1167C390.87 53.1258 392.236 52.7775 393.246 53.4525Z" fill="#E0550A"/>
<path d="M395.019 76.3197C398.105 76.3197 400.608 75.6911 400.608 74.9157C400.608 74.1403 398.105 73.5117 395.019 73.5117C391.932 73.5117 389.43 74.1403 389.43 74.9157C389.43 75.6911 391.932 76.3197 395.019 76.3197Z" fill="#E0550A"/>
<path d="M617.701 0.798828H492.301V126.199H617.701V0.798828Z" fill="#F19704" fill-opacity="0.4431"/>
<path d="M546.918 71.6101V75.8194C546.918 76.4701 547.93 76.4728 547.93 75.8194V71.6101C547.93 70.9594 546.918 70.9567 546.918 71.6101Z" fill="#3E2517"/>
<path d="M561.641 71.6101V75.8194C561.641 76.4701 562.653 76.4728 562.653 75.8194V71.6101C562.653 70.9594 561.641 70.9567 561.641 71.6101Z" fill="#3E2517"/>
<path d="M560.352 71.6095V74.8063C560.352 75.0709 560.584 75.3247 560.859 75.3139C561.135 75.3031 561.367 75.0925 561.367 74.8063V71.6095C561.367 71.3449 561.135 71.0911 560.859 71.1019C560.584 71.1127 560.352 71.3233 560.352 71.6095Z" fill="#3E2517"/>
<path d="M548.18 71.6095V74.8063C548.18 75.0709 548.412 75.3247 548.687 75.3139C548.963 75.3031 549.195 75.0925 549.195 74.8063V71.6095C549.195 71.3449 548.963 71.0911 548.687 71.1019C548.412 71.1127 548.18 71.3233 548.18 71.6095Z" fill="#3E2517"/>
<path d="M562.294 71.8348H547.452C546.92 71.8348 546.488 71.4028 546.488 70.8709V52.789C546.488 52.3651 546.834 52.0195 547.258 52.0195H562.291C562.715 52.0195 563.061 52.3651 563.061 52.789V71.0653C563.061 71.4892 562.715 71.8348 562.291 71.8348H562.294ZM562.143 70.4227V53.6989C562.143 53.3533 561.862 53.0725 561.516 53.0725H548.052C547.706 53.0725 547.425 53.3533 547.425 53.6989V70.4227C547.425 70.7683 547.706 71.0491 548.052 71.0491H561.516C561.862 71.0491 562.143 70.7683 562.143 70.4227Z" fill="#3E2517"/>
<path d="M562.941 52.3637C557.501 52.3637 552.06 52.3637 546.617 52.3637C547.073 51.8021 547.53 51.2432 547.986 50.6816H561.829C562.199 51.2432 562.571 51.8021 562.941 52.3637Z" fill="#3E2517"/>
<path d="M548.259 62.3516H561.295C561.519 62.3516 561.703 62.5406 561.703 62.7755V70.2248C561.703 70.4597 561.522 70.6487 561.295 70.6487H548.259C548.035 70.6487 547.852 70.4597 547.852 70.2248V62.7755C547.852 62.5406 548.032 62.3516 548.259 62.3516ZM554.701 65.7833C554.305 65.7833 553.986 66.1046 553.986 66.4988C553.986 66.893 554.307 67.2143 554.701 67.2143C555.096 67.2143 555.417 66.893 555.417 66.4988C555.417 66.1046 555.096 65.7833 554.701 65.7833Z" fill="#3E2517"/>
<path d="M548.267 53.543H561.303C561.527 53.543 561.71 53.732 561.71 53.9669V61.4162C561.71 61.6511 561.529 61.8401 561.303 61.8401H548.267C548.043 61.8401 547.859 61.6511 547.859 61.4162V53.9669C547.859 53.732 548.04 53.543 548.267 53.543ZM554.709 56.9747C554.312 56.9747 553.994 57.296 553.994 57.6902C553.994 58.0844 554.315 58.4057 554.709 58.4057C555.103 58.4057 555.425 58.0844 555.425 57.6902C555.425 57.296 555.103 56.9747 554.709 56.9747Z" fill="#3E2517"/>
<path d="M781.701 0.798828H656.301V126.199H781.701V0.798828Z" fill="#DBC7EE" fill-opacity="0.4431"/>
<path d="M710.836 55.5817C711.43 55.3684 711.473 54.9175 712.102 54.4882C712.502 54.2155 712.871 54.1345 713.293 54.04C714.902 53.6863 716.773 54.3235 718.836 54.3127C721.258 54.3019 723.11 53.4028 724.66 53.9401C725.467 54.2209 725.85 54.4855 725.85 54.4855C726.531 54.9607 726.631 55.3819 727.203 55.525C727.262 55.5385 727.859 55.6789 728.261 55.3495C728.693 54.9958 728.734 54.2317 728.496 53.7133C727.991 52.6225 726.134 52.393 725.167 52.2715C724.26 52.1581 723.925 52.2661 723.142 51.9988C722.37 51.7342 722.286 51.4885 721.557 51.1591C720.421 50.6515 719.365 50.6731 718.658 50.6866C718.031 50.7001 716.97 50.7217 715.839 51.2536C715.277 51.5182 715.042 51.745 714.305 52.0015C713.652 52.2283 713.317 52.231 712.709 52.3498C711.543 52.5766 709.942 52.8871 709.496 53.8942C709.253 54.4423 709.34 55.2307 709.783 55.5358C710.177 55.8058 710.741 55.6141 710.836 55.5817Z" fill="#037ECB"/>
<path d="M718.834 64.2972C715.346 64.2702 712.214 63.2226 711.544 62.9931H711.539C711.55 62.6259 711.558 62.2587 711.569 61.8888C712.36 61.6566 713.151 61.4217 713.945 61.1895C715.613 61.1949 717.293 61.203 718.978 61.2165C720.665 61.23 722.342 61.2489 724.01 61.2732C724.823 61.5351 725.636 61.797 726.448 62.0616C726.475 62.607 726.489 63.0363 726.467 63.0363C726.467 63.0363 722.812 64.3323 718.834 64.2999V64.2972Z" fill="#037ECB"/>
<path d="M711.551 61.401C711.313 63.0075 711.075 64.614 710.838 66.2178C710.46 68.7666 710.082 71.3154 709.704 73.8615C709.617 74.4501 709.528 75.0414 709.442 75.63C709.401 75.9027 709.509 76.17 709.796 76.2537C710.033 76.3212 710.379 76.17 710.419 75.9C710.657 74.2935 710.894 72.687 711.132 71.0832C711.51 68.5344 711.888 65.9856 712.266 63.4395C712.352 62.8509 712.442 62.2596 712.528 61.671C712.568 61.3983 712.46 61.131 712.174 61.0473C711.937 60.9798 711.591 61.131 711.551 61.401Z" fill="#037ECB"/>
<path d="M725.563 61.7335C725.801 63.34 726.038 64.9465 726.276 66.5503L727.41 74.194C727.496 74.7826 727.585 75.3739 727.672 75.9625C727.712 76.2325 728.055 76.3837 728.295 76.3162C728.584 76.2352 728.69 75.9652 728.649 75.6925C728.412 74.086 728.174 72.4795 727.936 70.8757L726.802 63.232C726.716 62.6434 726.627 62.0521 726.54 61.4635C726.5 61.1935 726.157 61.0423 725.917 61.1098C725.628 61.1908 725.523 61.4608 725.563 61.7335Z" fill="#037ECB"/>
<path d="M714.997 53.8658C714.668 55.9799 714.338 58.0967 714.006 60.2108L712.429 70.325C712.308 71.0999 712.186 71.8748 712.067 72.6497C712.024 72.9224 712.138 73.1924 712.421 73.2734C712.661 73.3409 713.002 73.1897 713.045 72.9197C713.374 70.8056 713.704 68.6888 714.036 66.5747L715.613 56.4605C715.734 55.6856 715.856 54.9107 715.974 54.1358C716.018 53.8631 715.904 53.5931 715.621 53.5121C715.38 53.4446 715.04 53.5958 714.997 53.8658Z" fill="#037ECB"/>
<path d="M722.056 54.1358C722.385 56.2499 722.715 58.3667 723.047 60.4808L724.624 70.595C724.745 71.3699 724.867 72.1448 724.986 72.9197C725.029 73.1897 725.366 73.3409 725.609 73.2734C725.898 73.1924 726.006 72.9224 725.963 72.6497C725.634 70.5356 725.304 68.4188 724.972 66.3047L723.395 56.1905C723.274 55.4156 723.152 54.6407 723.033 53.8658C722.99 53.5958 722.653 53.4446 722.41 53.5121C722.121 53.5931 722.013 53.8631 722.056 54.1358Z" fill="#037ECB"/>
<path d="M125.701 155.799H0.300781V281.199H125.701V155.799Z" fill="#F19704" fill-opacity="0.4431"/>
<path d="M54.9141 226.608V230.817C54.9141 231.468 55.9266 231.471 55.9266 230.817V226.608C55.9266 225.957 54.9141 225.955 54.9141 226.608Z" fill="#F19704"/>
<path d="M69.6367 226.608V230.817C69.6367 231.468 70.6492 231.471 70.6492 230.817V226.608C70.6492 225.957 69.6367 225.955 69.6367 226.608Z" fill="#F19704"/>
<path d="M68.3477 226.609V229.806C68.3477 230.071 68.5799 230.325 68.8553 230.314C69.1307 230.303 69.3629 230.092 69.3629 229.806V226.609C69.3629 226.345 69.1307 226.091 68.8553 226.102C68.5799 226.113 68.3477 226.323 68.3477 226.609Z" fill="#F19704"/>
<path d="M56.1758 226.609V229.806C56.1758 230.071 56.408 230.325 56.6834 230.314C56.9588 230.303 57.191 230.092 57.191 229.806V226.609C57.191 226.345 56.9588 226.091 56.6834 226.102C56.408 226.113 56.1758 226.323 56.1758 226.609Z" fill="#F19704"/>
<path d="M70.2902 226.831H55.4483C54.9164 226.831 54.4844 226.399 54.4844 225.867V207.785C54.4844 207.361 54.83 207.016 55.2539 207.016H70.2875C70.7114 207.016 71.057 207.361 71.057 207.785V226.061C71.057 226.485 70.7114 226.831 70.2875 226.831H70.2902ZM70.139 225.419V208.695C70.139 208.349 69.8582 208.069 69.5126 208.069H56.0477C55.7021 208.069 55.4213 208.349 55.4213 208.695V225.419C55.4213 225.764 55.7021 226.045 56.0477 226.045H69.5126C69.8582 226.045 70.139 225.764 70.139 225.419Z" fill="#F19704"/>
<path d="M70.9414 207.362C65.5009 207.362 60.0604 207.362 54.6172 207.362C55.0735 206.8 55.5298 206.241 55.9861 205.68H69.829C70.1989 206.241 70.5715 206.8 70.9414 207.362Z" fill="#F19704"/>
<path d="M56.2593 217.35H69.2949C69.519 217.35 69.7026 217.539 69.7026 217.774V225.223C69.7026 225.458 69.5217 225.647 69.2949 225.647H56.2593C56.0352 225.647 55.8516 225.458 55.8516 225.223V217.774C55.8516 217.539 56.0325 217.35 56.2593 217.35ZM62.7015 220.781C62.3046 220.781 61.986 221.103 61.986 221.497C61.986 221.891 62.3073 222.212 62.7015 222.212C63.0957 222.212 63.417 221.891 63.417 221.497C63.417 221.103 63.0957 220.781 62.7015 220.781Z" fill="#F19704"/>
<path d="M56.2671 208.543H69.3027C69.5268 208.543 69.7104 208.732 69.7104 208.967V216.416C69.7104 216.651 69.5295 216.84 69.3027 216.84H56.2671C56.043 216.84 55.8594 216.651 55.8594 216.416V208.967C55.8594 208.732 56.0403 208.543 56.2671 208.543ZM62.7093 211.975C62.3124 211.975 61.9938 212.296 61.9938 212.69C61.9938 213.084 62.3151 213.406 62.7093 213.406C63.1035 213.406 63.4248 213.084 63.4248 212.69C63.4248 212.296 63.1035 211.975 62.7093 211.975Z" fill="#F19704"/>
<path d="M289.701 155.799H164.301V281.199H289.701V155.799Z" fill="#EBC977" fill-opacity="0.4431"/>
<path d="M218.918 226.61V230.819C218.918 231.47 219.93 231.473 219.93 230.819V226.61C219.93 225.959 218.918 225.957 218.918 226.61Z" fill="#E0550A"/>
<path d="M233.641 226.61V230.819C233.641 231.47 234.653 231.473 234.653 230.819V226.61C234.653 225.959 233.641 225.957 233.641 226.61Z" fill="#E0550A"/>
<path d="M232.352 226.609V229.806C232.352 230.071 232.584 230.325 232.859 230.314C233.135 230.303 233.367 230.092 233.367 229.806V226.609C233.367 226.345 233.135 226.091 232.859 226.102C232.584 226.113 232.352 226.323 232.352 226.609Z" fill="#E0550A"/>
<path d="M220.18 226.609V229.806C220.18 230.071 220.412 230.325 220.687 230.314C220.963 230.303 221.195 230.092 221.195 229.806V226.609C221.195 226.345 220.963 226.091 220.687 226.102C220.412 226.113 220.18 226.323 220.18 226.609Z" fill="#E0550A"/>
<path d="M234.294 226.835H219.452C218.92 226.835 218.488 226.403 218.488 225.871V207.789C218.488 207.365 218.834 207.02 219.258 207.02H234.291C234.715 207.02 235.061 207.365 235.061 207.789V226.065C235.061 226.489 234.715 226.835 234.291 226.835H234.294ZM234.143 225.423V208.699C234.143 208.353 233.862 208.073 233.516 208.073H220.052C219.706 208.073 219.425 208.353 219.425 208.699V225.423C219.425 225.768 219.706 226.049 220.052 226.049H233.516C233.862 226.049 234.143 225.768 234.143 225.423Z" fill="#E0550A"/>
<path d="M234.941 207.364C229.501 207.364 224.06 207.364 218.617 207.364C219.073 206.802 219.53 206.243 219.986 205.682H233.829C234.199 206.243 234.571 206.802 234.941 207.364Z" fill="#E0550A"/>
<path d="M220.259 217.352H233.295C233.519 217.352 233.703 217.541 233.703 217.775V225.225C233.703 225.46 233.522 225.649 233.295 225.649H220.259C220.035 225.649 219.852 225.46 219.852 225.225V217.775C219.852 217.541 220.032 217.352 220.259 217.352ZM226.701 220.783C226.305 220.783 225.986 221.105 225.986 221.499C225.986 221.893 226.307 222.214 226.701 222.214C227.096 222.214 227.417 221.893 227.417 221.499C227.417 221.105 227.096 220.783 226.701 220.783Z" fill="#E0550A"/>
<path d="M220.267 208.543H233.303C233.527 208.543 233.71 208.732 233.71 208.967V216.416C233.71 216.651 233.529 216.84 233.303 216.84H220.267C220.043 216.84 219.859 216.651 219.859 216.416V208.967C219.859 208.732 220.04 208.543 220.267 208.543ZM226.709 211.975C226.312 211.975 225.994 212.296 225.994 212.69C225.994 213.084 226.315 213.406 226.709 213.406C227.103 213.406 227.425 213.084 227.425 212.69C227.425 212.296 227.103 211.975 226.709 211.975Z" fill="#E0550A"/>
<path d="M453.701 155.799H328.301V281.199H453.701V155.799Z" fill="#E0550A" fill-opacity="0.4431"/>
<path d="M381.506 215.424C383.04 217.136 384.573 218.85 386.107 220.562C388.548 223.287 390.989 226.014 393.427 228.738C393.98 229.356 394.536 229.977 395.09 230.595C395.525 231.081 396.24 230.363 395.805 229.88C394.272 228.168 392.738 226.454 391.205 224.742C388.764 222.018 386.323 219.291 383.885 216.566C383.331 215.948 382.775 215.327 382.222 214.709C381.787 214.223 381.072 214.941 381.506 215.424Z" fill="#DBC7EE"/>
<path d="M382.238 220.992C383.264 219.752 384.29 218.516 385.316 217.276L390.225 211.35C390.603 210.894 390.978 210.44 391.356 209.984C391.769 209.484 391.057 208.766 390.641 209.268C389.615 210.508 388.589 211.744 387.563 212.983L382.654 218.91C382.276 219.366 381.901 219.82 381.523 220.276C381.11 220.776 381.823 221.494 382.238 220.992Z" fill="#DBC7EE"/>
<path d="M400.609 206.6L394.399 218.199C391.124 216.901 390.017 212.632 391.828 209.303C393.624 206.003 397.741 204.613 400.609 206.6Z" fill="#DBC7EE"/>
<path d="M393.246 208.453L391.381 211.941C390.247 211.471 389.785 210.118 390.33 209.117C390.87 208.126 392.236 207.778 393.246 208.453Z" fill="#DBC7EE"/>
<path d="M395.019 231.32C398.105 231.32 400.608 230.691 400.608 229.916C400.608 229.14 398.105 228.512 395.019 228.512C391.932 228.512 389.43 229.14 389.43 229.916C389.43 230.691 391.932 231.32 395.019 231.32Z" fill="#DBC7EE"/>
<path d="M617.701 155.799H492.301V281.199H617.701V155.799Z" fill="#3E2517" fill-opacity="0.4431"/>
<path d="M546.836 210.582C547.43 210.368 547.473 209.917 548.102 209.488C548.502 209.215 548.871 209.134 549.293 209.04C550.902 208.686 552.773 209.323 554.836 209.313C557.258 209.302 559.11 208.403 560.66 208.94C561.467 209.221 561.85 209.485 561.85 209.485C562.531 209.961 562.631 210.382 563.203 210.525C563.262 210.538 563.859 210.679 564.261 210.349C564.693 209.996 564.734 209.232 564.496 208.713C563.991 207.622 562.134 207.393 561.167 207.271C560.26 207.158 559.925 207.266 559.142 206.999C558.37 206.734 558.286 206.488 557.557 206.159C556.421 205.651 555.365 205.673 554.658 205.687C554.031 205.7 552.97 205.722 551.839 206.254C551.277 206.518 551.042 206.745 550.305 207.001C549.652 207.228 549.317 207.231 548.709 207.35C547.543 207.577 545.942 207.887 545.496 208.894C545.253 209.442 545.34 210.231 545.783 210.536C546.177 210.806 546.741 210.614 546.836 210.582Z" fill="#BAC685"/>
<path d="M554.834 219.297C551.346 219.27 548.214 218.223 547.544 217.993H547.539C547.55 217.626 547.558 217.259 547.569 216.889C548.36 216.657 549.151 216.422 549.945 216.189C551.613 216.195 553.293 216.203 554.978 216.216C556.665 216.23 558.342 216.249 560.01 216.273C560.823 216.535 561.636 216.797 562.448 217.062C562.475 217.607 562.489 218.036 562.467 218.036C562.467 218.036 558.812 219.332 554.834 219.3V219.297Z" fill="#BAC685"/>
<path d="M547.551 216.401C547.313 218.007 547.075 219.614 546.838 221.218C546.46 223.767 546.082 226.315 545.704 228.861C545.617 229.45 545.528 230.041 545.442 230.63C545.401 230.903 545.509 231.17 545.796 231.254C546.033 231.321 546.379 231.17 546.419 230.9C546.657 229.293 546.894 227.687 547.132 226.083C547.51 223.534 547.888 220.986 548.266 218.439C548.352 217.851 548.442 217.26 548.528 216.671C548.568 216.398 548.46 216.131 548.174 216.047C547.937 215.98 547.591 216.131 547.551 216.401Z" fill="#BAC685"/>
<path d="M561.563 216.733C561.801 218.34 562.038 219.946 562.276 221.55L563.41 229.194C563.496 229.783 563.585 230.374 563.672 230.962C563.712 231.232 564.055 231.384 564.295 231.316C564.584 231.235 564.69 230.965 564.649 230.692C564.412 229.086 564.174 227.479 563.936 225.876L562.802 218.232C562.716 217.643 562.627 217.052 562.54 216.463C562.5 216.193 562.157 216.042 561.917 216.11C561.628 216.191 561.523 216.461 561.563 216.733Z" fill="#BAC685"/>
<path d="M550.997 208.866C550.668 210.98 550.338 213.097 550.006 215.211L548.429 225.325C548.308 226.1 548.186 226.875 548.067 227.65C548.024 227.922 548.138 228.192 548.421 228.273C548.661 228.341 549.002 228.19 549.045 227.92C549.374 225.806 549.704 223.689 550.036 221.575L551.613 211.461C551.734 210.686 551.856 209.911 551.974 209.136C552.018 208.863 551.904 208.593 551.621 208.512C551.38 208.445 551.04 208.596 550.997 208.866Z" fill="#BAC685"/>
<path d="M558.056 209.136C558.385 211.25 558.715 213.367 559.047 215.481L560.624 225.595C560.745 226.37 560.867 227.145 560.986 227.92C561.029 228.19 561.366 228.341 561.609 228.273C561.898 228.192 562.006 227.922 561.963 227.65C561.634 225.536 561.304 223.419 560.972 221.305L559.395 211.191C559.274 210.416 559.152 209.641 559.033 208.866C558.99 208.596 558.653 208.445 558.41 208.512C558.121 208.593 558.013 208.863 558.056 209.136Z" fill="#BAC685"/>
<path d="M781.701 155.799H656.301V281.199H781.701V155.799Z" fill="#037ECB" fill-opacity="0.4431"/>
<path d="M718.475 206.17V226.676C718.475 227.619 718.435 228.572 718.475 229.514C718.475 229.528 718.475 229.541 718.475 229.555C718.475 230.205 719.488 230.208 719.488 229.555V209.051C719.488 208.109 719.528 207.155 719.488 206.213C719.488 206.2 719.488 206.186 719.488 206.173C719.488 205.522 718.475 205.519 718.475 206.173V206.17Z" fill="#037ECB"/>
<path d="M728.519 216.183H709.443C708.863 211.107 713.563 206.771 719.058 206.809C724.498 206.847 729.094 211.159 728.519 216.183Z" fill="#037ECB"/>
<path d="M722.015 231.317H715.945C715.761 229.449 717.255 227.856 719.004 227.869C720.735 227.883 722.198 229.47 722.015 231.317Z" fill="#037ECB"/>
<path d="M125.701 310.799H0.300781V436.199H125.701V310.799Z" fill="#3E2517" fill-opacity="0.4431"/>
<path d="M54.918 381.61V385.819C54.918 386.47 55.9305 386.473 55.9305 385.819V381.61C55.9305 380.959 54.918 380.957 54.918 381.61Z" fill="#037ECB"/>
<path d="M69.6406 381.61V385.819C69.6406 386.47 70.6531 386.473 70.6531 385.819V381.61C70.6531 380.959 69.6406 380.957 69.6406 381.61Z" fill="#037ECB"/>
<path d="M68.3516 381.609V384.806C68.3516 385.071 68.5838 385.325 68.8592 385.314C69.1346 385.303 69.3668 385.092 69.3668 384.806V381.609C69.3668 381.345 69.1346 381.091 68.8592 381.102C68.5838 381.113 68.3516 381.323 68.3516 381.609Z" fill="#037ECB"/>
<path d="M56.1797 381.609V384.806C56.1797 385.071 56.4119 385.325 56.6873 385.314C56.9627 385.303 57.1949 385.092 57.1949 384.806V381.609C57.1949 381.345 56.9627 381.091 56.6873 381.102C56.4119 381.113 56.1797 381.323 56.1797 381.609Z" fill="#037ECB"/>
<path d="M70.2941 381.835H55.4522C54.9203 381.835 54.4883 381.403 54.4883 380.871V362.789C54.4883 362.365 54.8339 362.02 55.2578 362.02H70.2914C70.7153 362.02 71.0609 362.365 71.0609 362.789V381.065C71.0609 381.489 70.7153 381.835 70.2914 381.835H70.2941ZM70.1429 380.423V363.699C70.1429 363.353 69.8621 363.073 69.5165 363.073H56.0516C55.706 363.073 55.4252 363.353 55.4252 363.699V380.423C55.4252 380.768 55.706 381.049 56.0516 381.049H69.5165C69.8621 381.049 70.1429 380.768 70.1429 380.423Z" fill="#037ECB"/>
<path d="M70.9414 362.364C65.5009 362.364 60.0604 362.364 54.6172 362.364C55.0735 361.802 55.5298 361.243 55.9861 360.682H69.829C70.1989 361.243 70.5715 361.802 70.9414 362.364Z" fill="#037ECB"/>
<path d="M56.2593 372.352H69.2949C69.519 372.352 69.7026 372.541 69.7026 372.775V380.225C69.7026 380.46 69.5217 380.649 69.2949 380.649H56.2593C56.0352 380.649 55.8516 380.46 55.8516 380.225V372.775C55.8516 372.541 56.0325 372.352 56.2593 372.352ZM62.7015 375.783C62.3046 375.783 61.986 376.105 61.986 376.499C61.986 376.893 62.3073 377.214 62.7015 377.214C63.0957 377.214 63.417 376.893 63.417 376.499C63.417 376.105 63.0957 375.783 62.7015 375.783Z" fill="#037ECB"/>
<path d="M56.2671 363.543H69.3027C69.5268 363.543 69.7104 363.732 69.7104 363.967V371.416C69.7104 371.651 69.5295 371.84 69.3027 371.84H56.2671C56.043 371.84 55.8594 371.651 55.8594 371.416V363.967C55.8594 363.732 56.0403 363.543 56.2671 363.543ZM62.7093 366.975C62.3124 366.975 61.9938 367.296 61.9938 367.69C61.9938 368.084 62.3151 368.406 62.7093 368.406C63.1035 368.406 63.4248 368.084 63.4248 367.69C63.4248 367.296 63.1035 366.975 62.7093 366.975Z" fill="#037ECB"/>
<path d="M289.701 310.799H164.301V436.199H289.701V310.799Z" fill="#037ECB" fill-opacity="0.4431"/>
<path d="M217.506 370.424C219.04 372.136 220.573 373.85 222.107 375.562C224.548 378.287 226.989 381.014 229.427 383.738C229.98 384.356 230.536 384.977 231.09 385.595C231.525 386.081 232.24 385.363 231.805 384.88C230.272 383.168 228.738 381.454 227.205 379.742C224.764 377.018 222.323 374.291 219.885 371.566C219.331 370.948 218.775 370.327 218.222 369.709C217.787 369.223 217.072 369.941 217.506 370.424Z" fill="#DBC7EE"/>
<path d="M218.238 375.992C219.264 374.752 220.29 373.516 221.316 372.276L226.225 366.35C226.603 365.894 226.978 365.44 227.356 364.984C227.769 364.484 227.057 363.766 226.641 364.268C225.615 365.508 224.589 366.744 223.563 367.983L218.654 373.91C218.276 374.366 217.901 374.82 217.523 375.276C217.11 375.776 217.823 376.494 218.238 375.992Z" fill="#DBC7EE"/>
<path d="M236.609 361.6L230.399 373.199C227.124 371.901 226.017 367.632 227.828 364.303C229.624 361.003 233.741 359.613 236.609 361.6Z" fill="#DBC7EE"/>
<path d="M229.246 363.453L227.381 366.941C226.247 366.471 225.785 365.118 226.33 364.117C226.87 363.126 228.236 362.778 229.246 363.453Z" fill="#DBC7EE"/>
<path d="M231.019 386.32C234.105 386.32 236.608 385.691 236.608 384.916C236.608 384.14 234.105 383.512 231.019 383.512C227.932 383.512 225.43 384.14 225.43 384.916C225.43 385.691 227.932 386.32 231.019 386.32Z" fill="#DBC7EE"/>
<path d="M453.701 310.799H328.301V436.199H453.701V310.799Z" fill="#F19704" fill-opacity="0.4431"/>
<path d="M382.918 381.61V385.819C382.918 386.47 383.93 386.473 383.93 385.819V381.61C383.93 380.959 382.918 380.957 382.918 381.61Z" fill="#F6B9AA"/>
<path d="M397.641 381.61V385.819C397.641 386.47 398.653 386.473 398.653 385.819V381.61C398.653 380.959 397.641 380.957 397.641 381.61Z" fill="#F6B9AA"/>
<path d="M396.352 381.609V384.806C396.352 385.071 396.584 385.325 396.859 385.314C397.135 385.303 397.367 385.092 397.367 384.806V381.609C397.367 381.345 397.135 381.091 396.859 381.102C396.584 381.113 396.352 381.323 396.352 381.609Z" fill="#F6B9AA"/>
<path d="M384.18 381.609V384.806C384.18 385.071 384.412 385.325 384.687 385.314C384.963 385.303 385.195 385.092 385.195 384.806V381.609C385.195 381.345 384.963 381.091 384.687 381.102C384.412 381.113 384.18 381.323 384.18 381.609Z" fill="#F6B9AA"/>
<path d="M398.294 381.835H383.452C382.92 381.835 382.488 381.403 382.488 380.871V362.789C382.488 362.365 382.834 362.02 383.258 362.02H398.291C398.715 362.02 399.061 362.365 399.061 362.789V381.065C399.061 381.489 398.715 381.835 398.291 381.835H398.294ZM398.143 380.423V363.699C398.143 363.353 397.862 363.073 397.516 363.073H384.052C383.706 363.073 383.425 363.353 383.425 363.699V380.423C383.425 380.768 383.706 381.049 384.052 381.049H397.516C397.862 381.049 398.143 380.768 398.143 380.423Z" fill="#F6B9AA"/>
<path d="M398.941 362.364C393.501 362.364 388.06 362.364 382.617 362.364C383.073 361.802 383.53 361.243 383.986 360.682H397.829C398.199 361.243 398.571 361.802 398.941 362.364Z" fill="#F6B9AA"/>
<path d="M384.259 372.352H397.295C397.519 372.352 397.703 372.541 397.703 372.775V380.225C397.703 380.46 397.522 380.649 397.295 380.649H384.259C384.035 380.649 383.852 380.46 383.852 380.225V372.775C383.852 372.541 384.032 372.352 384.259 372.352ZM390.701 375.783C390.305 375.783 389.986 376.105 389.986 376.499C389.986 376.893 390.307 377.214 390.701 377.214C391.096 377.214 391.417 376.893 391.417 376.499C391.417 376.105 391.096 375.783 390.701 375.783Z" fill="#F6B9AA"/>
<path d="M384.267 363.543H397.303C397.527 363.543 397.71 363.732 397.71 363.967V371.416C397.71 371.651 397.529 371.84 397.303 371.84H384.267C384.043 371.84 383.859 371.651 383.859 371.416V363.967C383.859 363.732 384.04 363.543 384.267 363.543ZM390.709 366.975C390.312 366.975 389.994 367.296 389.994 367.69C389.994 368.084 390.315 368.406 390.709 368.406C391.103 368.406 391.425 368.084 391.425 367.69C391.425 367.296 391.103 366.975 390.709 366.975Z" fill="#F6B9AA"/>
<path d="M617.701 310.799H492.301V436.199H617.701V310.799Z" fill="#DBC7EE" fill-opacity="0.4431"/>
<path d="M546.918 381.61V385.819C546.918 386.47 547.93 386.473 547.93 385.819V381.61C547.93 380.959 546.918 380.957 546.918 381.61Z" fill="#E0550A"/>
<path d="M561.641 381.61V385.819C561.641 386.47 562.653 386.473 562.653 385.819V381.61C562.653 380.959 561.641 380.957 561.641 381.61Z" fill="#E0550A"/>
<path d="M560.352 381.609V384.806C560.352 385.071 560.584 385.325 560.859 385.314C561.135 385.303 561.367 385.092 561.367 384.806V381.609C561.367 381.345 561.135 381.091 560.859 381.102C560.584 381.113 560.352 381.323 560.352 381.609Z" fill="#E0550A"/>
<path d="M548.18 381.609V384.806C548.18 385.071 548.412 385.325 548.687 385.314C548.963 385.303 549.195 385.092 549.195 384.806V381.609C549.195 381.345 548.963 381.091 548.687 381.102C548.412 381.113 548.18 381.323 548.18 381.609Z" fill="#E0550A"/>
<path d="M562.294 381.835H547.452C546.92 381.835 546.488 381.403 546.488 380.871V362.789C546.488 362.365 546.834 362.02 547.258 362.02H562.291C562.715 362.02 563.061 362.365 563.061 362.789V381.065C563.061 381.489 562.715 381.835 562.291 381.835H562.294ZM562.143 380.423V363.699C562.143 363.353 561.862 363.073 561.516 363.073H548.052C547.706 363.073 547.425 363.353 547.425 363.699V380.423C547.425 380.768 547.706 381.049 548.052 381.049H561.516C561.862 381.049 562.143 380.768 562.143 380.423Z" fill="#E0550A"/>
<path d="M562.941 362.364C557.501 362.364 552.06 362.364 546.617 362.364C547.073 361.802 547.53 361.243 547.986 360.682H561.829C562.199 361.243 562.571 361.802 562.941 362.364Z" fill="#E0550A"/>
<path d="M548.259 372.352H561.295C561.519 372.352 561.703 372.541 561.703 372.775V380.225C561.703 380.46 561.522 380.649 561.295 380.649H548.259C548.035 380.649 547.852 380.46 547.852 380.225V372.775C547.852 372.541 548.032 372.352 548.259 372.352ZM554.701 375.783C554.305 375.783 553.986 376.105 553.986 376.499C553.986 376.893 554.307 377.214 554.701 377.214C555.096 377.214 555.417 376.893 555.417 376.499C555.417 376.105 555.096 375.783 554.701 375.783Z" fill="#E0550A"/>
<path d="M548.267 363.543H561.303C561.527 363.543 561.71 363.732 561.71 363.967V371.416C561.71 371.651 561.529 371.84 561.303 371.84H548.267C548.043 371.84 547.859 371.651 547.859 371.416V363.967C547.859 363.732 548.04 363.543 548.267 363.543ZM554.709 366.975C554.312 366.975 553.994 367.296 553.994 367.69C553.994 368.084 554.315 368.406 554.709 368.406C555.103 368.406 555.425 368.084 555.425 367.69C555.425 367.296 555.103 366.975 554.709 366.975Z" fill="#E0550A"/>
<path d="M781.701 310.799H656.301V436.199H781.701V310.799Z" fill="#F6B9AA" fill-opacity="0.4431"/>
<path d="M718.475 361.172V381.678C718.475 382.621 718.435 383.574 718.475 384.516C718.475 384.53 718.475 384.543 718.475 384.557C718.475 385.207 719.488 385.21 719.488 384.557V364.053C719.488 363.11 719.528 362.157 719.488 361.215C719.488 361.202 719.488 361.188 719.488 361.175C719.488 360.524 718.475 360.521 718.475 361.175V361.172Z" fill="#EBC977"/>
<path d="M728.519 371.187H709.443C708.863 366.111 713.563 361.775 719.058 361.813C724.498 361.851 729.094 366.162 728.519 371.187Z" fill="#EBC977"/>
<path d="M722.015 386.319H715.945C715.761 384.451 717.255 382.858 719.004 382.871C720.735 382.885 722.198 384.472 722.015 386.319Z" fill="#EBC977"/>
<path d="M125.701 465.799H0.300781V591.199H125.701V465.799Z" fill="#F6B9AA" fill-opacity="0.4431"/>
<path d="M54.8356 520.582C55.4296 520.368 55.4728 519.917 56.1019 519.488C56.5015 519.215 56.8714 519.134 57.2926 519.04C58.9018 518.686 60.7729 519.323 62.8357 519.313C65.2576 519.302 67.1098 518.403 68.6596 518.94C69.4669 519.221 69.8503 519.485 69.8503 519.485C70.5307 519.961 70.6306 520.382 71.203 520.525C71.2624 520.538 71.8591 520.679 72.2614 520.349C72.6934 519.996 72.7339 519.232 72.4963 518.713C71.9914 517.622 70.1338 517.393 69.1672 517.271C68.26 517.158 67.9252 517.266 67.1422 516.999C66.37 516.734 66.2863 516.488 65.5573 516.159C64.4206 515.651 63.3649 515.673 62.6575 515.687C62.0311 515.7 60.97 515.722 59.8387 516.254C59.2771 516.518 59.0422 516.745 58.3051 517.001C57.6517 517.228 57.3169 517.231 56.7094 517.35C55.543 517.577 53.9419 517.887 53.4964 518.894C53.2534 519.442 53.3398 520.231 53.7826 520.536C54.1768 520.806 54.7411 520.614 54.8356 520.582Z" fill="#DBC7EE"/>
<path d="M62.8345 529.297C59.3461 529.27 56.2141 528.223 55.5445 527.993H55.5391C55.5499 527.626 55.558 527.259 55.5688 526.889C56.3599 526.657 57.151 526.422 57.9448 526.189C59.6134 526.195 61.2928 526.203 62.9776 526.216C64.6651 526.23 66.3418 526.249 68.0104 526.273C68.8231 526.535 69.6358 526.797 70.4485 527.062C70.4755 527.607 70.489 528.036 70.4674 528.036C70.4674 528.036 66.8116 529.332 62.8345 529.3V529.297Z" fill="#DBC7EE"/>
<path d="M55.5505 526.401C55.3129 528.007 55.0753 529.614 54.8377 531.218C54.4597 533.767 54.0817 536.315 53.7037 538.861C53.6173 539.45 53.5282 540.041 53.4418 540.63C53.4013 540.903 53.5093 541.17 53.7955 541.254C54.0331 541.321 54.3787 541.17 54.4192 540.9C54.6568 539.293 54.8944 537.687 55.132 536.083C55.51 533.534 55.888 530.986 56.266 528.439C56.3524 527.851 56.4415 527.26 56.5279 526.671C56.5684 526.398 56.4604 526.131 56.1742 526.047C55.9366 525.98 55.591 526.131 55.5505 526.401Z" fill="#DBC7EE"/>
<path d="M69.563 526.733C69.8006 528.34 70.0382 529.946 70.2758 531.55L71.4098 539.194C71.4962 539.783 71.5853 540.374 71.6717 540.962C71.7122 541.232 72.0551 541.384 72.2954 541.316C72.5843 541.235 72.6896 540.965 72.6491 540.692C72.4115 539.086 72.1739 537.479 71.9363 535.876L70.8023 528.232C70.7159 527.643 70.6268 527.052 70.5404 526.463C70.4999 526.193 70.157 526.042 69.9167 526.11C69.6278 526.191 69.5225 526.461 69.563 526.733Z" fill="#DBC7EE"/>
<path d="M58.997 518.866C58.6676 520.98 58.3382 523.097 58.0061 525.211L56.4293 535.325C56.3078 536.1 56.1863 536.875 56.0675 537.65C56.0243 537.922 56.1377 538.192 56.4212 538.273C56.6615 538.341 57.0017 538.19 57.0449 537.92C57.3743 535.806 57.7037 533.689 58.0358 531.575L59.6126 521.461C59.7341 520.686 59.8556 519.911 59.9744 519.136C60.0176 518.863 59.9042 518.593 59.6207 518.512C59.3804 518.445 59.0402 518.596 58.997 518.866Z" fill="#DBC7EE"/>
<path d="M66.056 519.136C66.3854 521.25 66.7148 523.367 67.0469 525.481L68.6237 535.595C68.7452 536.37 68.8667 537.145 68.9855 537.92C69.0287 538.19 69.3662 538.341 69.6092 538.273C69.8981 538.192 70.0061 537.922 69.9629 537.65C69.6335 535.536 69.3041 533.419 68.972 531.305L67.3952 521.191C67.2737 520.416 67.1522 519.641 67.0334 518.866C66.9902 518.596 66.6527 518.445 66.4097 518.512C66.1208 518.593 66.0128 518.863 66.056 519.136Z" fill="#DBC7EE"/>
<path d="M289.701 465.799H164.301V591.199H289.701V465.799Z" fill="#BAC685" fill-opacity="0.4431"/>
<path d="M218.918 536.61V540.819C218.918 541.47 219.93 541.473 219.93 540.819V536.61C219.93 535.959 218.918 535.957 218.918 536.61Z" fill="#EBC977"/>
<path d="M233.641 536.61V540.819C233.641 541.47 234.653 541.473 234.653 540.819V536.61C234.653 535.959 233.641 535.957 233.641 536.61Z" fill="#EBC977"/>
<path d="M232.352 536.609V539.806C232.352 540.071 232.584 540.325 232.859 540.314C233.135 540.303 233.367 540.092 233.367 539.806V536.609C233.367 536.345 233.135 536.091 232.859 536.102C232.584 536.113 232.352 536.323 232.352 536.609Z" fill="#EBC977"/>
<path d="M220.18 536.609V539.806C220.18 540.071 220.412 540.325 220.687 540.314C220.963 540.303 221.195 540.092 221.195 539.806V536.609C221.195 536.345 220.963 536.091 220.687 536.102C220.412 536.113 220.18 536.323 220.18 536.609Z" fill="#EBC977"/>
<path d="M234.294 536.835H219.452C218.92 536.835 218.488 536.403 218.488 535.871V517.789C218.488 517.365 218.834 517.02 219.258 517.02H234.291C234.715 517.02 235.061 517.365 235.061 517.789V536.065C235.061 536.489 234.715 536.835 234.291 536.835H234.294ZM234.143 535.423V518.699C234.143 518.353 233.862 518.073 233.516 518.073H220.052C219.706 518.073 219.425 518.353 219.425 518.699V535.423C219.425 535.768 219.706 536.049 220.052 536.049H233.516C233.862 536.049 234.143 535.768 234.143 535.423Z" fill="#EBC977"/>
<path d="M234.941 517.364C229.501 517.364 224.06 517.364 218.617 517.364C219.073 516.802 219.53 516.243 219.986 515.682H233.829C234.199 516.243 234.571 516.802 234.941 517.364Z" fill="#EBC977"/>
<path d="M220.259 527.352H233.295C233.519 527.352 233.703 527.541 233.703 527.775V535.225C233.703 535.46 233.522 535.649 233.295 535.649H220.259C220.035 535.649 219.852 535.46 219.852 535.225V527.775C219.852 527.541 220.032 527.352 220.259 527.352ZM226.701 530.783C226.305 530.783 225.986 531.105 225.986 531.499C225.986 531.893 226.307 532.214 226.701 532.214C227.096 532.214 227.417 531.893 227.417 531.499C227.417 531.105 227.096 530.783 226.701 530.783Z" fill="#EBC977"/>
<path d="M220.267 518.543H233.303C233.527 518.543 233.71 518.732 233.71 518.967V526.416C233.71 526.651 233.529 526.84 233.303 526.84H220.267C220.043 526.84 219.859 526.651 219.859 526.416V518.967C219.859 518.732 220.04 518.543 220.267 518.543ZM226.709 521.975C226.312 521.975 225.994 522.296 225.994 522.69C225.994 523.084 226.315 523.406 226.709 523.406C227.103 523.406 227.425 523.084 227.425 522.69C227.425 522.296 227.103 521.975 226.709 521.975Z" fill="#EBC977"/>
<path d="M453.701 465.799H328.301V591.199H453.701V465.799Z" fill="#DBC7EE" fill-opacity="0.4431"/>
<path d="M390.475 516.17V536.676C390.475 537.619 390.435 538.572 390.475 539.514C390.475 539.528 390.475 539.541 390.475 539.555C390.475 540.205 391.488 540.208 391.488 539.555V519.051C391.488 518.109 391.528 517.155 391.488 516.213C391.488 516.2 391.488 516.186 391.488 516.173C391.488 515.522 390.475 515.519 390.475 516.173V516.17Z" fill="#F19704"/>
<path d="M400.519 526.183H381.443C380.863 521.107 385.563 516.771 391.058 516.809C396.498 516.847 401.094 521.159 400.519 526.183Z" fill="#F19704"/>
<path d="M394.015 541.319H387.945C387.761 539.451 389.255 537.858 391.004 537.871C392.735 537.885 394.198 539.472 394.015 541.319Z" fill="#F19704"/>
<path d="M617.701 465.799H492.301V591.199H617.701V465.799Z" fill="#037ECB" fill-opacity="0.4431"/>
<path d="M546.836 520.582C547.43 520.368 547.473 519.917 548.102 519.488C548.502 519.215 548.871 519.134 549.293 519.04C550.902 518.686 552.773 519.323 554.836 519.313C557.258 519.302 559.11 518.403 560.66 518.94C561.467 519.221 561.85 519.485 561.85 519.485C562.531 519.961 562.631 520.382 563.203 520.525C563.262 520.538 563.859 520.679 564.261 520.349C564.693 519.996 564.734 519.232 564.496 518.713C563.991 517.622 562.134 517.393 561.167 517.271C560.26 517.158 559.925 517.266 559.142 516.999C558.37 516.734 558.286 516.488 557.557 516.159C556.421 515.651 555.365 515.673 554.658 515.687C554.031 515.7 552.97 515.722 551.839 516.254C551.277 516.518 551.042 516.745 550.305 517.001C549.652 517.228 549.317 517.231 548.709 517.35C547.543 517.577 545.942 517.887 545.496 518.894C545.253 519.442 545.34 520.231 545.783 520.536C546.177 520.806 546.741 520.614 546.836 520.582Z" fill="#BAC685"/>
<path d="M554.834 529.297C551.346 529.27 548.214 528.223 547.544 527.993H547.539C547.55 527.626 547.558 527.259 547.569 526.889C548.36 526.657 549.151 526.422 549.945 526.189C551.613 526.195 553.293 526.203 554.978 526.216C556.665 526.23 558.342 526.249 560.01 526.273C560.823 526.535 561.636 526.797 562.448 527.062C562.475 527.607 562.489 528.036 562.467 528.036C562.467 528.036 558.812 529.332 554.834 529.3V529.297Z" fill="#BAC685"/>
<path d="M547.551 526.401C547.313 528.007 547.075 529.614 546.838 531.218C546.46 533.767 546.082 536.315 545.704 538.861C545.617 539.45 545.528 540.041 545.442 540.63C545.401 540.903 545.509 541.17 545.796 541.254C546.033 541.321 546.379 541.17 546.419 540.9C546.657 539.293 546.894 537.687 547.132 536.083C547.51 533.534 547.888 530.986 548.266 528.439C548.352 527.851 548.442 527.26 548.528 526.671C548.568 526.398 548.46 526.131 548.174 526.047C547.937 525.98 547.591 526.131 547.551 526.401Z" fill="#BAC685"/>
<path d="M561.563 526.733C561.801 528.34 562.038 529.946 562.276 531.55L563.41 539.194C563.496 539.783 563.585 540.374 563.672 540.962C563.712 541.232 564.055 541.384 564.295 541.316C564.584 541.235 564.69 540.965 564.649 540.692C564.412 539.086 564.174 537.479 563.936 535.876L562.802 528.232C562.716 527.643 562.627 527.052 562.54 526.463C562.5 526.193 562.157 526.042 561.917 526.11C561.628 526.191 561.523 526.461 561.563 526.733Z" fill="#BAC685"/>
<path d="M550.997 518.866C550.668 520.98 550.338 523.097 550.006 525.211L548.429 535.325C548.308 536.1 548.186 536.875 548.067 537.65C548.024 537.922 548.138 538.192 548.421 538.273C548.661 538.341 549.002 538.19 549.045 537.92C549.374 535.806 549.704 533.689 550.036 531.575L551.613 521.461C551.734 520.686 551.856 519.911 551.974 519.136C552.018 518.863 551.904 518.593 551.621 518.512C551.38 518.445 551.04 518.596 550.997 518.866Z" fill="#BAC685"/>
<path d="M558.056 519.136C558.385 521.25 558.715 523.367 559.047 525.481L560.624 535.595C560.745 536.37 560.867 537.145 560.986 537.92C561.029 538.19 561.366 538.341 561.609 538.273C561.898 538.192 562.006 537.922 561.963 537.65C561.634 535.536 561.304 533.419 560.972 531.305L559.395 521.191C559.274 520.416 559.152 519.641 559.033 518.866C558.99 518.596 558.653 518.445 558.41 518.512C558.121 518.593 558.013 518.863 558.056 519.136Z" fill="#BAC685"/>
<path d="M781.701 465.799H656.301V591.199H781.701V465.799Z" fill="#F19704" fill-opacity="0.4431"/>
<path d="M710.836 520.582C711.43 520.368 711.473 519.917 712.102 519.488C712.502 519.215 712.871 519.134 713.293 519.04C714.902 518.686 716.773 519.323 718.836 519.313C721.258 519.302 723.11 518.403 724.66 518.94C725.467 519.221 725.85 519.485 725.85 519.485C726.531 519.961 726.631 520.382 727.203 520.525C727.262 520.538 727.859 520.679 728.261 520.349C728.693 519.996 728.734 519.232 728.496 518.713C727.991 517.622 726.134 517.393 725.167 517.271C724.26 517.158 723.925 517.266 723.142 516.999C722.37 516.734 722.286 516.488 721.557 516.159C720.421 515.651 719.365 515.673 718.658 515.687C718.031 515.7 716.97 515.722 715.839 516.254C715.277 516.518 715.042 516.745 714.305 517.001C713.652 517.228 713.317 517.231 712.709 517.35C711.543 517.577 709.942 517.887 709.496 518.894C709.253 519.442 709.34 520.231 709.783 520.536C710.177 520.806 710.741 520.614 710.836 520.582Z" fill="#F6B9AA"/>
<path d="M718.834 529.297C715.346 529.27 712.214 528.223 711.544 527.993H711.539C711.55 527.626 711.558 527.259 711.569 526.889C712.36 526.657 713.151 526.422 713.945 526.189C715.613 526.195 717.293 526.203 718.978 526.216C720.665 526.23 722.342 526.249 724.01 526.273C724.823 526.535 725.636 526.797 726.448 527.062C726.475 527.607 726.489 528.036 726.467 528.036C726.467 528.036 722.812 529.332 718.834 529.3V529.297Z" fill="#F6B9AA"/>
<path d="M711.551 526.401C711.313 528.007 711.075 529.614 710.838 531.218C710.46 533.767 710.082 536.315 709.704 538.861C709.617 539.45 709.528 540.041 709.442 540.63C709.401 540.903 709.509 541.17 709.796 541.254C710.033 541.321 710.379 541.17 710.419 540.9C710.657 539.293 710.894 537.687 711.132 536.083C711.51 533.534 711.888 530.986 712.266 528.439C712.352 527.851 712.442 527.26 712.528 526.671C712.568 526.398 712.46 526.131 712.174 526.047C711.937 525.98 711.591 526.131 711.551 526.401Z" fill="#F6B9AA"/>
<path d="M725.563 526.733C725.801 528.34 726.038 529.946 726.276 531.55L727.41 539.194C727.496 539.783 727.585 540.374 727.672 540.962C727.712 541.232 728.055 541.384 728.295 541.316C728.584 541.235 728.69 540.965 728.649 540.692C728.412 539.086 728.174 537.479 727.936 535.876L726.802 528.232C726.716 527.643 726.627 527.052 726.54 526.463C726.5 526.193 726.157 526.042 725.917 526.11C725.628 526.191 725.523 526.461 725.563 526.733Z" fill="#F6B9AA"/>
<path d="M714.997 518.866C714.668 520.98 714.338 523.097 714.006 525.211L712.429 535.325C712.308 536.1 712.186 536.875 712.067 537.65C712.024 537.922 712.138 538.192 712.421 538.273C712.661 538.341 713.002 538.19 713.045 537.92C713.374 535.806 713.704 533.689 714.036 531.575L715.613 521.461C715.734 520.686 715.856 519.911 715.974 519.136C716.018 518.863 715.904 518.593 715.621 518.512C715.38 518.445 715.04 518.596 714.997 518.866Z" fill="#F6B9AA"/>
<path d="M722.056 519.136C722.385 521.25 722.715 523.367 723.047 525.481L724.624 535.595C724.745 536.37 724.867 537.145 724.986 537.92C725.029 538.19 725.366 538.341 725.609 538.273C725.898 538.192 726.006 537.922 725.963 537.65C725.634 535.536 725.304 533.419 724.972 531.305L723.395 521.191C723.274 520.416 723.152 519.641 723.033 518.866C722.99 518.596 722.653 518.445 722.41 518.512C722.121 518.593 722.013 518.863 722.056 519.136Z" fill="#F6B9AA"/>
</svg>
