<svg width="760" height="370" viewBox="0 0 760 370" fill="none" xmlns="http://www.w3.org/2000/svg">
<path d="M369.799 0.201172H0.199219V369.801H369.799V0.201172Z" fill="#E0550A" fill-opacity="0.1569"/>
<path d="M179.901 65.358V264.347C179.901 273.491 179.508 282.739 179.901 291.883C179.901 292.014 179.901 292.145 179.901 292.276C179.901 298.59 189.726 298.617 189.726 292.276V93.3134C189.726 84.1696 190.119 74.921 189.726 65.7772C189.726 65.6462 189.726 65.5152 189.726 65.3842C189.726 59.07 179.901 59.0438 179.901 65.3842V65.358Z" fill="#F19704"/>
<path d="M277.368 162.535H92.2648C86.6318 113.279 132.246 71.202 185.563 71.5688C238.356 71.9356 282.948 113.777 277.368 162.535Z" fill="#F19704"/>
<path d="M214.249 309.384H155.352C153.57 291.254 168.059 275.796 185.036 275.927C201.831 276.058 216.031 291.463 214.249 309.384Z" fill="#F19704"/>
<path d="M759.799 0.201172H390.199V369.801H759.799V0.201172Z" fill="#F6B9AA" fill-opacity="0.1569"/>
<path d="M496.547 263.691V304.537C496.547 310.851 506.372 310.877 506.372 304.537V263.691C506.372 257.377 496.547 257.35 496.547 263.691Z" fill="#BAC685"/>
<path d="M639.387 263.691V304.537C639.387 310.851 649.212 310.877 649.212 304.537V263.691C649.212 257.377 639.387 257.35 639.387 263.691Z" fill="#BAC685"/>
<path d="M626.891 263.691V294.711C626.891 297.279 629.144 299.742 631.816 299.637C634.489 299.532 636.742 297.489 636.742 294.711V263.691C636.742 261.123 634.489 258.66 631.816 258.765C629.144 258.87 626.891 260.913 626.891 263.691Z" fill="#BAC685"/>
<path d="M508.781 263.691V294.711C508.781 297.279 511.034 299.742 513.707 299.637C516.379 299.532 518.632 297.489 518.632 294.711V263.691C518.632 261.123 516.379 258.66 513.707 258.765C511.034 258.87 508.781 260.913 508.781 263.691Z" fill="#BAC685"/>
<path d="M645.754 265.866H501.732C496.571 265.866 492.379 261.674 492.379 256.512V81.051C492.379 76.9376 495.733 73.584 499.846 73.584H645.728C649.841 73.584 653.195 76.9376 653.195 81.051V258.399C653.195 262.512 649.841 265.866 645.728 265.866H645.754ZM644.287 252.163V89.8804C644.287 86.5268 641.562 83.802 638.208 83.802H507.549C504.195 83.802 501.47 86.5268 501.47 89.8804V252.163C501.47 255.517 504.195 258.242 507.549 258.242H638.208C641.562 258.242 644.287 255.517 644.287 252.163Z" fill="#BAC685"/>
<path d="M652.042 76.9378C599.249 76.9378 546.456 76.9378 493.637 76.9378C498.065 71.4882 502.492 66.0648 506.92 60.6152H641.248C644.837 66.0648 648.453 71.4882 652.042 76.9378Z" fill="#BAC685"/>
<path d="M509.593 173.852H636.087C638.261 173.852 640.043 175.686 640.043 177.965V250.251C640.043 252.53 638.287 254.364 636.087 254.364H509.593C507.418 254.364 505.637 252.53 505.637 250.251V177.965C505.637 175.686 507.392 173.852 509.593 173.852ZM572.106 207.152C568.255 207.152 565.163 210.27 565.163 214.095C565.163 217.92 568.281 221.038 572.106 221.038C575.931 221.038 579.049 217.92 579.049 214.095C579.049 210.27 575.931 207.152 572.106 207.152Z" fill="#BAC685"/>
<path d="M509.644 88.3867H636.137C638.312 88.3867 640.093 90.2207 640.093 92.5001V164.786C640.093 167.065 638.338 168.899 636.137 168.899H509.644C507.469 168.899 505.688 167.065 505.688 164.786V92.5001C505.688 90.2207 507.443 88.3867 509.644 88.3867ZM572.157 121.687C568.306 121.687 565.214 124.805 565.214 128.63C565.214 132.455 568.332 135.573 572.157 135.573C575.982 135.573 579.1 132.455 579.1 128.63C579.1 124.805 575.982 121.687 572.157 121.687Z" fill="#BAC685"/>
</svg>
