<svg width="654" height="504" viewBox="0 0 654 504" fill="none" xmlns="http://www.w3.org/2000/svg">
<path d="M68.6023 0.400391H0.402344V68.6004H68.6023V0.400391Z" fill="#037ECB" fill-opacity="0.1569"/>
<path d="M33.4501 9.83986V50.8529C33.4501 52.7375 33.3691 54.6437 33.4501 56.5283C33.4501 56.5553 33.4501 56.5823 33.4501 56.6093C33.4501 57.9107 35.4751 57.9161 35.4751 56.6093V15.6017C35.4751 13.7171 35.5561 11.8109 35.4751 9.92626C35.4751 9.89926 35.4751 9.87226 35.4751 9.84526C35.4751 8.54386 33.4501 8.53846 33.4501 9.84526V9.83986Z" fill="#037ECB"/>
<path d="M53.5373 29.8704H15.3863C14.2253 19.7184 23.6267 11.046 34.6157 11.1216C45.4967 11.1972 54.6875 19.821 53.5373 29.8704Z" fill="#037ECB"/>
<path d="M40.5292 60.1382H28.39C28.0228 56.4014 31.009 53.2154 34.5082 53.2424C37.9696 53.2694 40.8964 56.4446 40.5292 60.1382Z" fill="#037ECB"/>
<path d="M263.602 0.400391H195.402V68.6004H263.602V0.400391Z" fill="#F6B9AA" fill-opacity="0.1569"/>
<path d="M213.332 50.7203V59.1389C213.332 60.4403 215.357 60.4457 215.357 59.1389V50.7203C215.357 49.4189 213.332 49.4135 213.332 50.7203Z" fill="#F6B9AA"/>
<path d="M242.773 50.7203V59.1389C242.773 60.4403 244.798 60.4457 244.798 59.1389V50.7203C244.798 49.4189 242.773 49.4135 242.773 50.7203Z" fill="#F6B9AA"/>
<path d="M240.195 50.719V57.1126C240.195 57.6418 240.66 58.1494 241.211 58.1278C241.761 58.1062 242.226 57.685 242.226 57.1126V50.719C242.226 50.1898 241.761 49.6822 241.211 49.7038C240.66 49.7254 240.195 50.1466 240.195 50.719Z" fill="#F6B9AA"/>
<path d="M215.852 50.719V57.1126C215.852 57.6418 216.316 58.1494 216.867 58.1278C217.418 58.1062 217.882 57.685 217.882 57.1126V50.719C217.882 50.1898 217.418 49.6822 216.867 49.7038C216.316 49.7254 215.852 50.1466 215.852 50.719Z" fill="#F6B9AA"/>
<path d="M244.084 51.1677H214.4C213.337 51.1677 212.473 50.3037 212.473 49.2399V13.0761C212.473 12.2283 213.164 11.5371 214.012 11.5371H244.079C244.927 11.5371 245.618 12.2283 245.618 13.0761V49.6287C245.618 50.4765 244.927 51.1677 244.079 51.1677H244.084ZM243.782 48.3435V14.8959C243.782 14.2047 243.22 13.6431 242.529 13.6431H215.599C214.908 13.6431 214.346 14.2047 214.346 14.8959V48.3435C214.346 49.0347 214.908 49.5963 215.599 49.5963H242.529C243.22 49.5963 243.782 49.0347 243.782 48.3435Z" fill="#F6B9AA"/>
<path d="M245.383 12.2275C234.502 12.2275 223.621 12.2275 212.734 12.2275C213.647 11.1043 214.56 9.98648 215.472 8.86328H243.158C243.898 9.98648 244.643 11.1043 245.383 12.2275Z" fill="#F6B9AA"/>
<path d="M216.019 32.2031H242.09C242.538 32.2031 242.905 32.5811 242.905 33.0509V47.9495C242.905 48.4193 242.543 48.7973 242.09 48.7973H216.019C215.57 48.7973 215.203 48.4193 215.203 47.9495V33.0509C215.203 32.5811 215.565 32.2031 216.019 32.2031ZM228.903 39.0665C228.109 39.0665 227.472 39.7091 227.472 40.4975C227.472 41.2859 228.115 41.9285 228.903 41.9285C229.691 41.9285 230.334 41.2859 230.334 40.4975C230.334 39.7091 229.691 39.0665 228.903 39.0665Z" fill="#F6B9AA"/>
<path d="M216.034 14.5879H242.105C242.554 14.5879 242.921 14.9659 242.921 15.4357V30.3343C242.921 30.8041 242.559 31.1821 242.105 31.1821H216.034C215.586 31.1821 215.219 30.8041 215.219 30.3343V15.4357C215.219 14.9659 215.581 14.5879 216.034 14.5879ZM228.919 21.4513C228.125 21.4513 227.488 22.0939 227.488 22.8823C227.488 23.6707 228.13 24.3133 228.919 24.3133C229.707 24.3133 230.35 23.6707 230.35 22.8823C230.35 22.0939 229.707 21.4513 228.919 21.4513Z" fill="#F6B9AA"/>
<path d="M458.602 0.400391H390.402V68.6004H458.602V0.400391Z" fill="#F19704" fill-opacity="0.1569"/>
<path d="M405.512 28.3484C408.58 31.772 411.647 35.201 414.714 38.6246C419.596 44.0732 424.477 49.5272 429.353 54.9758C430.46 56.2124 431.573 57.4544 432.68 58.691C433.549 59.663 434.98 58.2266 434.111 57.26C431.044 53.8364 427.976 50.4074 424.909 46.9838C420.028 41.5351 415.146 36.0812 410.27 30.6326C409.163 29.396 408.05 28.154 406.943 26.9174C406.074 25.9454 404.643 27.3818 405.512 28.3484Z" fill="#F19704"/>
<path d="M406.985 39.4833C409.037 37.0047 411.089 34.5315 413.141 32.0529L422.958 20.1999C423.714 19.2873 424.464 18.3801 425.22 17.4675C426.047 16.4685 424.621 15.0321 423.789 16.0365C421.737 18.5151 419.685 20.9883 417.633 23.4669L407.816 35.3199C407.06 36.2325 406.31 37.1397 405.554 38.0523C404.727 39.0513 406.153 40.4877 406.985 39.4833Z" fill="#F19704"/>
<path d="M443.713 10.7L431.293 33.8984C424.743 31.301 422.529 22.7636 426.153 16.1054C429.744 9.50661 437.979 6.72561 443.713 10.7Z" fill="#F19704"/>
<path d="M429 14.4051L425.269 21.3819C423.001 20.4423 422.077 17.7369 423.168 15.7335C424.248 13.7517 426.981 13.0551 429 14.4051Z" fill="#F19704"/>
<path d="M432.537 60.1355C438.711 60.1355 443.715 58.8783 443.715 57.3275C443.715 55.7767 438.711 54.5195 432.537 54.5195C426.364 54.5195 421.359 55.7767 421.359 57.3275C421.359 58.8783 426.364 60.1355 432.537 60.1355Z" fill="#F19704"/>
<path d="M653.602 0.400391H585.402V68.6004H653.602V0.400391Z" fill="#E0550A" fill-opacity="0.1569"/>
<path d="M618.45 9.84182V50.8548C618.45 52.7394 618.369 54.6456 618.45 56.5302C618.45 56.5572 618.45 56.5842 618.45 56.6112C618.45 57.9126 620.475 57.918 620.475 56.6112V15.6036C620.475 13.719 620.556 11.8128 620.475 9.92822C620.475 9.90122 620.475 9.87422 620.475 9.84722C620.475 8.54582 618.45 8.54042 618.45 9.84722V9.84182Z" fill="#DBC7EE"/>
<path d="M638.537 29.8704H600.386C599.225 19.7184 608.627 11.046 619.616 11.1216C630.497 11.1972 639.688 19.821 638.537 29.8704Z" fill="#DBC7EE"/>
<path d="M625.529 60.1382H613.39C613.023 56.4014 616.009 53.2154 619.508 53.2424C622.97 53.2694 625.896 56.4446 625.529 60.1382Z" fill="#DBC7EE"/>
<path d="M68.6023 145.4H0.402344V213.6H68.6023V145.4Z" fill="#F6B9AA" fill-opacity="0.1569"/>
<path d="M33.4501 154.842V195.855C33.4501 197.739 33.3691 199.646 33.4501 201.53C33.4501 201.557 33.4501 201.584 33.4501 201.611C33.4501 202.913 35.4751 202.918 35.4751 201.611V160.604C35.4751 158.719 35.5561 156.813 35.4751 154.928C35.4751 154.901 35.4751 154.874 35.4751 154.847C35.4751 153.546 33.4501 153.54 33.4501 154.847V154.842Z" fill="#F19704"/>
<path d="M53.5373 174.87H15.3863C14.2253 164.718 23.6267 156.046 34.6157 156.122C45.4967 156.197 54.6875 164.821 53.5373 174.87Z" fill="#F19704"/>
<path d="M40.5292 205.138H28.39C28.0228 201.401 31.009 198.215 34.5082 198.242C37.9696 198.269 40.8964 201.445 40.5292 205.138Z" fill="#F19704"/>
<path d="M263.602 145.4H195.402V213.6H263.602V145.4Z" fill="#3E2517" fill-opacity="0.1569"/>
<path d="M213.332 195.718V204.137C213.332 205.438 215.357 205.444 215.357 204.137V195.718C215.357 194.417 213.332 194.412 213.332 195.718Z" fill="#BAC685"/>
<path d="M242.773 195.718V204.137C242.773 205.438 244.798 205.444 244.798 204.137V195.718C244.798 194.417 242.773 194.412 242.773 195.718Z" fill="#BAC685"/>
<path d="M240.195 195.719V202.113C240.195 202.642 240.66 203.149 241.211 203.128C241.761 203.106 242.226 202.685 242.226 202.113V195.719C242.226 195.19 241.761 194.682 241.211 194.704C240.66 194.725 240.195 195.147 240.195 195.719Z" fill="#BAC685"/>
<path d="M215.852 195.719V202.113C215.852 202.642 216.316 203.149 216.867 203.128C217.418 203.106 217.882 202.685 217.882 202.113V195.719C217.882 195.19 217.418 194.682 216.867 194.704C216.316 194.725 215.852 195.147 215.852 195.719Z" fill="#BAC685"/>
<path d="M244.084 196.166H214.4C213.337 196.166 212.473 195.302 212.473 194.238V158.074C212.473 157.226 213.164 156.535 214.012 156.535H244.079C244.927 156.535 245.618 157.226 245.618 158.074V194.627C245.618 195.475 244.927 196.166 244.079 196.166H244.084ZM243.782 193.342V159.894C243.782 159.203 243.22 158.641 242.529 158.641H215.599C214.908 158.641 214.346 159.203 214.346 159.894V193.342C214.346 194.033 214.908 194.594 215.599 194.594H242.529C243.22 194.594 243.782 194.033 243.782 193.342Z" fill="#BAC685"/>
<path d="M245.383 157.227C234.502 157.227 223.621 157.227 212.734 157.227C213.647 156.104 214.56 154.986 215.472 153.863H243.158C243.898 154.986 244.643 156.104 245.383 157.227Z" fill="#BAC685"/>
<path d="M216.019 177.203H242.09C242.538 177.203 242.905 177.581 242.905 178.051V192.95C242.905 193.419 242.543 193.797 242.09 193.797H216.019C215.57 193.797 215.203 193.419 215.203 192.95V178.051C215.203 177.581 215.565 177.203 216.019 177.203ZM228.903 184.067C228.109 184.067 227.472 184.709 227.472 185.498C227.472 186.286 228.115 186.929 228.903 186.929C229.691 186.929 230.334 186.286 230.334 185.498C230.334 184.709 229.691 184.067 228.903 184.067Z" fill="#BAC685"/>
<path d="M216.034 159.586H242.105C242.554 159.586 242.921 159.964 242.921 160.434V175.332C242.921 175.802 242.559 176.18 242.105 176.18H216.034C215.586 176.18 215.219 175.802 215.219 175.332V160.434C215.219 159.964 215.581 159.586 216.034 159.586ZM228.919 166.449C228.125 166.449 227.488 167.092 227.488 167.88C227.488 168.669 228.13 169.311 228.919 169.311C229.707 169.311 230.35 168.669 230.35 167.88C230.35 167.092 229.707 166.449 228.919 166.449Z" fill="#BAC685"/>
<path d="M458.602 145.4H390.402V213.6H458.602V145.4Z" fill="#F19704" fill-opacity="0.1569"/>
<path d="M408.332 195.718V204.137C408.332 205.438 410.357 205.444 410.357 204.137V195.718C410.357 194.417 408.332 194.412 408.332 195.718Z" fill="#F6B9AA"/>
<path d="M437.773 195.718V204.137C437.773 205.438 439.798 205.444 439.798 204.137V195.718C439.798 194.417 437.773 194.412 437.773 195.718Z" fill="#F6B9AA"/>
<path d="M435.195 195.719V202.113C435.195 202.642 435.66 203.149 436.211 203.128C436.761 203.106 437.226 202.685 437.226 202.113V195.719C437.226 195.19 436.761 194.682 436.211 194.704C435.66 194.725 435.195 195.147 435.195 195.719Z" fill="#F6B9AA"/>
<path d="M410.852 195.719V202.113C410.852 202.642 411.316 203.149 411.867 203.128C412.418 203.106 412.882 202.685 412.882 202.113V195.719C412.882 195.19 412.418 194.682 411.867 194.704C411.316 194.725 410.852 195.147 410.852 195.719Z" fill="#F6B9AA"/>
<path d="M439.084 196.166H409.4C408.337 196.166 407.473 195.302 407.473 194.238V158.074C407.473 157.226 408.164 156.535 409.012 156.535H439.079C439.927 156.535 440.618 157.226 440.618 158.074V194.627C440.618 195.475 439.927 196.166 439.079 196.166H439.084ZM438.782 193.342V159.894C438.782 159.203 438.22 158.641 437.529 158.641H410.599C409.908 158.641 409.346 159.203 409.346 159.894V193.342C409.346 194.033 409.908 194.594 410.599 194.594H437.529C438.22 194.594 438.782 194.033 438.782 193.342Z" fill="#F6B9AA"/>
<path d="M440.383 157.227C429.502 157.227 418.621 157.227 407.734 157.227C408.647 156.104 409.56 154.986 410.472 153.863H438.158C438.898 154.986 439.643 156.104 440.383 157.227Z" fill="#F6B9AA"/>
<path d="M411.019 177.203H437.09C437.538 177.203 437.905 177.581 437.905 178.051V192.95C437.905 193.419 437.543 193.797 437.09 193.797H411.019C410.57 193.797 410.203 193.419 410.203 192.95V178.051C410.203 177.581 410.565 177.203 411.019 177.203ZM423.903 184.067C423.109 184.067 422.472 184.709 422.472 185.498C422.472 186.286 423.115 186.929 423.903 186.929C424.691 186.929 425.334 186.286 425.334 185.498C425.334 184.709 424.691 184.067 423.903 184.067Z" fill="#F6B9AA"/>
<path d="M411.034 159.586H437.105C437.554 159.586 437.921 159.964 437.921 160.434V175.332C437.921 175.802 437.559 176.18 437.105 176.18H411.034C410.586 176.18 410.219 175.802 410.219 175.332V160.434C410.219 159.964 410.581 159.586 411.034 159.586ZM423.919 166.449C423.125 166.449 422.488 167.092 422.488 167.88C422.488 168.669 423.13 169.311 423.919 169.311C424.707 169.311 425.35 168.669 425.35 167.88C425.35 167.092 424.707 166.449 423.919 166.449Z" fill="#F6B9AA"/>
<path d="M653.602 145.4H585.402V213.6H653.602V145.4Z" fill="#BAC685" fill-opacity="0.1569"/>
<path d="M603.332 195.718V204.137C603.332 205.438 605.357 205.444 605.357 204.137V195.718C605.357 194.417 603.332 194.412 603.332 195.718Z" fill="#037ECB"/>
<path d="M632.773 195.718V204.137C632.773 205.438 634.798 205.444 634.798 204.137V195.718C634.798 194.417 632.773 194.412 632.773 195.718Z" fill="#037ECB"/>
<path d="M630.195 195.719V202.113C630.195 202.642 630.66 203.149 631.211 203.128C631.761 203.106 632.226 202.685 632.226 202.113V195.719C632.226 195.19 631.761 194.682 631.211 194.704C630.66 194.725 630.195 195.147 630.195 195.719Z" fill="#037ECB"/>
<path d="M605.852 195.719V202.113C605.852 202.642 606.316 203.149 606.867 203.128C607.418 203.106 607.882 202.685 607.882 202.113V195.719C607.882 195.19 607.418 194.682 606.867 194.704C606.316 194.725 605.852 195.147 605.852 195.719Z" fill="#037ECB"/>
<path d="M634.084 196.166H604.4C603.337 196.166 602.473 195.302 602.473 194.238V158.074C602.473 157.226 603.164 156.535 604.012 156.535H634.079C634.927 156.535 635.618 157.226 635.618 158.074V194.627C635.618 195.475 634.927 196.166 634.079 196.166H634.084ZM633.782 193.342V159.894C633.782 159.203 633.22 158.641 632.529 158.641H605.599C604.908 158.641 604.346 159.203 604.346 159.894V193.342C604.346 194.033 604.908 194.594 605.599 194.594H632.529C633.22 194.594 633.782 194.033 633.782 193.342Z" fill="#037ECB"/>
<path d="M635.383 157.227C624.502 157.227 613.621 157.227 602.734 157.227C603.647 156.104 604.56 154.986 605.472 153.863H633.158C633.898 154.986 634.643 156.104 635.383 157.227Z" fill="#037ECB"/>
<path d="M606.019 177.203H632.09C632.538 177.203 632.905 177.581 632.905 178.051V192.95C632.905 193.419 632.543 193.797 632.09 193.797H606.019C605.57 193.797 605.203 193.419 605.203 192.95V178.051C605.203 177.581 605.565 177.203 606.019 177.203ZM618.903 184.067C618.109 184.067 617.472 184.709 617.472 185.498C617.472 186.286 618.115 186.929 618.903 186.929C619.691 186.929 620.334 186.286 620.334 185.498C620.334 184.709 619.691 184.067 618.903 184.067Z" fill="#037ECB"/>
<path d="M606.034 159.586H632.105C632.554 159.586 632.921 159.964 632.921 160.434V175.332C632.921 175.802 632.559 176.18 632.105 176.18H606.034C605.586 176.18 605.219 175.802 605.219 175.332V160.434C605.219 159.964 605.581 159.586 606.034 159.586ZM618.919 166.449C618.125 166.449 617.488 167.092 617.488 167.88C617.488 168.669 618.13 169.311 618.919 169.311C619.707 169.311 620.35 168.669 620.35 167.88C620.35 167.092 619.707 166.449 618.919 166.449Z" fill="#037ECB"/>
<path d="M68.6023 290.4H0.402344V358.6H68.6023V290.4Z" fill="#F19704" fill-opacity="0.1569"/>
<path d="M18.332 340.718V349.137C18.332 350.438 20.357 350.444 20.357 349.137V340.718C20.357 339.417 18.332 339.412 18.332 340.718Z" fill="#DBC7EE"/>
<path d="M47.7734 340.718V349.137C47.7734 350.438 49.7984 350.444 49.7984 349.137V340.718C49.7984 339.417 47.7734 339.412 47.7734 340.718Z" fill="#DBC7EE"/>
<path d="M45.1953 340.719V347.113C45.1953 347.642 45.6597 348.149 46.2105 348.128C46.7613 348.106 47.2257 347.685 47.2257 347.113V340.719C47.2257 340.19 46.7613 339.682 46.2105 339.704C45.6597 339.725 45.1953 340.147 45.1953 340.719Z" fill="#DBC7EE"/>
<path d="M20.8516 340.719V347.113C20.8516 347.642 21.316 348.149 21.8668 348.128C22.4176 348.106 22.882 347.685 22.882 347.113V340.719C22.882 340.19 22.4176 339.682 21.8668 339.704C21.316 339.725 20.8516 340.147 20.8516 340.719Z" fill="#DBC7EE"/>
<path d="M49.0843 341.166H19.4005C18.3367 341.166 17.4727 340.302 17.4727 339.238V303.074C17.4727 302.226 18.1639 301.535 19.0117 301.535H49.0789C49.9267 301.535 50.6179 302.226 50.6179 303.074V339.627C50.6179 340.475 49.9267 341.166 49.0789 341.166H49.0843ZM48.7819 338.342V304.894C48.7819 304.203 48.2203 303.641 47.5291 303.641H20.5993C19.9081 303.641 19.3465 304.203 19.3465 304.894V338.342C19.3465 339.033 19.9081 339.594 20.5993 339.594H47.5291C48.2203 339.594 48.7819 339.033 48.7819 338.342Z" fill="#DBC7EE"/>
<path d="M50.3828 302.227C39.5018 302.227 28.6208 302.227 17.7344 302.227C18.647 301.104 19.5596 299.986 20.4722 298.863H48.158C48.8978 299.986 49.643 301.104 50.3828 302.227Z" fill="#DBC7EE"/>
<path d="M21.0185 322.203H47.0897C47.5379 322.203 47.9051 322.581 47.9051 323.051V337.95C47.9051 338.419 47.5433 338.797 47.0897 338.797H21.0185C20.5703 338.797 20.2031 338.419 20.2031 337.95V323.051C20.2031 322.581 20.5649 322.203 21.0185 322.203ZM33.9029 329.067C33.1091 329.067 32.4719 329.709 32.4719 330.498C32.4719 331.286 33.1145 331.929 33.9029 331.929C34.6913 331.929 35.3339 331.286 35.3339 330.498C35.3339 329.709 34.6913 329.067 33.9029 329.067Z" fill="#DBC7EE"/>
<path d="M21.0342 304.586H47.1054C47.5536 304.586 47.9208 304.964 47.9208 305.434V320.332C47.9208 320.802 47.559 321.18 47.1054 321.18H21.0342C20.586 321.18 20.2188 320.802 20.2188 320.332V305.434C20.2188 304.964 20.5806 304.586 21.0342 304.586ZM33.9186 311.449C33.1248 311.449 32.4876 312.092 32.4876 312.88C32.4876 313.669 33.1302 314.311 33.9186 314.311C34.707 314.311 35.3496 313.669 35.3496 312.88C35.3496 312.092 34.707 311.449 33.9186 311.449Z" fill="#DBC7EE"/>
<path d="M263.602 290.4H195.402V358.6H263.602V290.4Z" fill="#3E2517" fill-opacity="0.1569"/>
<path d="M210.509 318.344C213.576 321.768 216.643 325.197 219.71 328.621C224.592 334.069 229.473 339.523 234.35 344.972C235.457 346.208 236.569 347.45 237.676 348.687C238.545 349.659 239.976 348.223 239.107 347.256C236.04 343.832 232.973 340.403 229.905 336.98C225.024 331.531 220.142 326.077 215.266 320.629C214.159 319.392 213.047 318.15 211.94 316.913C211.07 315.941 209.639 317.378 210.509 318.344Z" fill="#F6B9AA"/>
<path d="M211.977 329.479C214.029 327.001 216.081 324.528 218.133 322.049L227.95 310.196C228.706 309.283 229.457 308.376 230.213 307.464C231.039 306.465 229.613 305.028 228.782 306.033C226.73 308.511 224.678 310.984 222.626 313.463L212.808 325.316C212.052 326.229 211.302 327.136 210.546 328.048C209.72 329.047 211.145 330.484 211.977 329.479Z" fill="#F6B9AA"/>
<path d="M248.71 300.698L236.29 323.896C229.739 321.299 227.525 312.762 231.149 306.103C234.74 299.505 242.975 296.724 248.71 300.698Z" fill="#F6B9AA"/>
<path d="M233.992 304.401L230.261 311.378C227.993 310.438 227.07 307.733 228.16 305.73C229.24 303.748 231.973 303.051 233.992 304.401Z" fill="#F6B9AA"/>
<path d="M237.53 350.136C243.703 350.136 248.708 348.878 248.708 347.328C248.708 345.777 243.703 344.52 237.53 344.52C231.356 344.52 226.352 345.777 226.352 347.328C226.352 348.878 231.356 350.136 237.53 350.136Z" fill="#F6B9AA"/>
<path d="M458.602 290.4H390.402V358.6H458.602V290.4Z" fill="#DBC7EE" fill-opacity="0.1569"/>
<path d="M423.45 299.842V340.855C423.45 342.739 423.369 344.646 423.45 346.53C423.45 346.557 423.45 346.584 423.45 346.611C423.45 347.913 425.475 347.918 425.475 346.611V305.604C425.475 303.719 425.556 301.813 425.475 299.928C425.475 299.901 425.475 299.874 425.475 299.847C425.475 298.546 423.45 298.54 423.45 299.847V299.842Z" fill="#3E2517"/>
<path d="M443.537 319.87H405.386C404.225 309.718 413.627 301.046 424.616 301.122C435.497 301.197 444.688 309.821 443.537 319.87Z" fill="#3E2517"/>
<path d="M430.529 350.138H418.39C418.023 346.401 421.009 343.215 424.508 343.242C427.97 343.269 430.896 346.445 430.529 350.138Z" fill="#3E2517"/>
<path d="M653.602 290.4H585.402V358.6H653.602V290.4Z" fill="#F6B9AA" fill-opacity="0.1569"/>
<path d="M603.332 340.718V349.137C603.332 350.438 605.357 350.444 605.357 349.137V340.718C605.357 339.417 603.332 339.412 603.332 340.718Z" fill="#F19704"/>
<path d="M632.773 340.718V349.137C632.773 350.438 634.798 350.444 634.798 349.137V340.718C634.798 339.417 632.773 339.412 632.773 340.718Z" fill="#F19704"/>
<path d="M630.195 340.719V347.113C630.195 347.642 630.66 348.149 631.211 348.128C631.761 348.106 632.226 347.685 632.226 347.113V340.719C632.226 340.19 631.761 339.682 631.211 339.704C630.66 339.725 630.195 340.147 630.195 340.719Z" fill="#F19704"/>
<path d="M605.852 340.719V347.113C605.852 347.642 606.316 348.149 606.867 348.128C607.418 348.106 607.882 347.685 607.882 347.113V340.719C607.882 340.19 607.418 339.682 606.867 339.704C606.316 339.725 605.852 340.147 605.852 340.719Z" fill="#F19704"/>
<path d="M634.084 341.166H604.4C603.337 341.166 602.473 340.302 602.473 339.238V303.074C602.473 302.226 603.164 301.535 604.012 301.535H634.079C634.927 301.535 635.618 302.226 635.618 303.074V339.627C635.618 340.475 634.927 341.166 634.079 341.166H634.084ZM633.782 338.342V304.894C633.782 304.203 633.22 303.641 632.529 303.641H605.599C604.908 303.641 604.346 304.203 604.346 304.894V338.342C604.346 339.033 604.908 339.594 605.599 339.594H632.529C633.22 339.594 633.782 339.033 633.782 338.342Z" fill="#F19704"/>
<path d="M635.383 302.227C624.502 302.227 613.621 302.227 602.734 302.227C603.647 301.104 604.56 299.986 605.472 298.863H633.158C633.898 299.986 634.643 301.104 635.383 302.227Z" fill="#F19704"/>
<path d="M606.019 322.203H632.09C632.538 322.203 632.905 322.581 632.905 323.051V337.95C632.905 338.419 632.543 338.797 632.09 338.797H606.019C605.57 338.797 605.203 338.419 605.203 337.95V323.051C605.203 322.581 605.565 322.203 606.019 322.203ZM618.903 329.067C618.109 329.067 617.472 329.709 617.472 330.498C617.472 331.286 618.115 331.929 618.903 331.929C619.691 331.929 620.334 331.286 620.334 330.498C620.334 329.709 619.691 329.067 618.903 329.067Z" fill="#F19704"/>
<path d="M606.034 304.586H632.105C632.554 304.586 632.921 304.964 632.921 305.434V320.332C632.921 320.802 632.559 321.18 632.105 321.18H606.034C605.586 321.18 605.219 320.802 605.219 320.332V305.434C605.219 304.964 605.581 304.586 606.034 304.586ZM618.919 311.449C618.125 311.449 617.488 312.092 617.488 312.88C617.488 313.669 618.13 314.311 618.919 314.311C619.707 314.311 620.35 313.669 620.35 312.88C620.35 312.092 619.707 311.449 618.919 311.449Z" fill="#F19704"/>
<path d="M68.6023 435.4H0.402344V503.6H68.6023V435.4Z" fill="#EBC977" fill-opacity="0.1569"/>
<path d="M33.4501 444.842V485.855C33.4501 487.739 33.3691 489.646 33.4501 491.53C33.4501 491.557 33.4501 491.584 33.4501 491.611C33.4501 492.913 35.4751 492.918 35.4751 491.611V450.604C35.4751 448.719 35.5561 446.813 35.4751 444.928C35.4751 444.901 35.4751 444.874 35.4751 444.847C35.4751 443.546 33.4501 443.54 33.4501 444.847V444.842Z" fill="#F6B9AA"/>
<path d="M53.5373 464.87H15.3863C14.2253 454.718 23.6267 446.046 34.6157 446.122C45.4967 446.197 54.6875 454.821 53.5373 464.87Z" fill="#F6B9AA"/>
<path d="M40.5292 495.138H28.39C28.0228 491.401 31.009 488.215 34.5082 488.242C37.9696 488.269 40.8964 491.445 40.5292 495.138Z" fill="#F6B9AA"/>
<path d="M263.602 435.4H195.402V503.6H263.602V435.4Z" fill="#F19704" fill-opacity="0.1569"/>
<path d="M210.509 463.344C213.576 466.768 216.643 470.197 219.71 473.621C224.592 479.069 229.473 484.523 234.35 489.972C235.457 491.208 236.569 492.45 237.676 493.687C238.545 494.659 239.976 493.223 239.107 492.256C236.04 488.832 232.973 485.403 229.905 481.98C225.024 476.531 220.142 471.077 215.266 465.629C214.159 464.392 213.047 463.15 211.94 461.913C211.07 460.941 209.639 462.378 210.509 463.344Z" fill="#DBC7EE"/>
<path d="M211.977 474.479C214.029 472.001 216.081 469.528 218.133 467.049L227.95 455.196C228.706 454.283 229.457 453.376 230.213 452.464C231.039 451.465 229.613 450.028 228.782 451.033C226.73 453.511 224.678 455.984 222.626 458.463L212.808 470.316C212.052 471.229 211.302 472.136 210.546 473.048C209.72 474.047 211.145 475.484 211.977 474.479Z" fill="#DBC7EE"/>
<path d="M248.71 445.698L236.29 468.896C229.739 466.299 227.525 457.762 231.149 451.103C234.74 444.505 242.975 441.724 248.71 445.698Z" fill="#DBC7EE"/>
<path d="M233.992 449.401L230.261 456.378C227.993 455.438 227.07 452.733 228.16 450.73C229.24 448.748 231.973 448.051 233.992 449.401Z" fill="#DBC7EE"/>
<path d="M237.53 495.136C243.703 495.136 248.708 493.878 248.708 492.328C248.708 490.777 243.703 489.52 237.53 489.52C231.356 489.52 226.352 490.777 226.352 492.328C226.352 493.878 231.356 495.136 237.53 495.136Z" fill="#DBC7EE"/>
<path d="M458.602 435.4H390.402V503.6H458.602V435.4Z" fill="#BAC685" fill-opacity="0.1569"/>
<path d="M423.45 444.842V485.855C423.45 487.739 423.369 489.646 423.45 491.53C423.45 491.557 423.45 491.584 423.45 491.611C423.45 492.913 425.475 492.918 425.475 491.611V450.604C425.475 448.719 425.556 446.813 425.475 444.928C425.475 444.901 425.475 444.874 425.475 444.847C425.475 443.546 423.45 443.54 423.45 444.847V444.842Z" fill="#037ECB"/>
<path d="M443.537 464.87H405.386C404.225 454.718 413.627 446.046 424.616 446.122C435.497 446.197 444.688 454.821 443.537 464.87Z" fill="#037ECB"/>
<path d="M430.529 495.138H418.39C418.023 491.401 421.009 488.215 424.508 488.242C427.97 488.269 430.896 491.445 430.529 495.138Z" fill="#037ECB"/>
<path d="M653.602 435.4H585.402V503.6H653.602V435.4Z" fill="#037ECB" fill-opacity="0.1569"/>
<path d="M603.167 453.665C604.355 453.239 604.442 452.337 605.7 451.478C606.499 450.933 607.239 450.771 608.081 450.582C611.3 449.875 615.042 451.149 619.167 451.127C624.011 451.106 627.716 449.308 630.815 450.382C632.43 450.944 633.197 451.473 633.197 451.473C634.558 452.423 634.757 453.266 635.902 453.552C636.021 453.579 637.214 453.86 638.019 453.201C638.883 452.494 638.964 450.965 638.489 449.929C637.479 447.747 633.764 447.288 631.831 447.045C630.016 446.818 629.347 447.034 627.781 446.5C626.236 445.97 626.069 445.479 624.611 444.82C622.337 443.805 620.226 443.848 618.811 443.875C617.558 443.902 615.436 443.945 613.174 445.009C612.05 445.538 611.581 445.992 610.106 446.505C608.799 446.959 608.13 446.964 606.915 447.202C604.582 447.655 601.38 448.276 600.489 450.29C600.003 451.387 600.176 452.963 601.061 453.574C601.85 454.114 602.978 453.73 603.167 453.665Z" fill="#F19704"/>
<path d="M619.161 471.096C612.184 471.042 605.92 468.947 604.581 468.488H604.57C604.592 467.754 604.608 467.019 604.63 466.279C606.212 465.815 607.794 465.345 609.382 464.881C612.719 464.892 616.078 464.908 619.447 464.935C622.822 464.962 626.176 465 629.513 465.048C631.138 465.572 632.764 466.096 634.389 466.625C634.443 467.716 634.47 468.574 634.427 468.574C634.427 468.574 627.115 471.166 619.161 471.102V471.096Z" fill="#F19704"/>
<path d="M604.601 465.302C604.126 468.515 603.651 471.728 603.175 474.936C602.419 480.033 601.663 485.131 600.907 490.223C600.735 491.4 600.556 492.583 600.384 493.76C600.303 494.305 600.519 494.84 601.091 495.007C601.566 495.142 602.257 494.84 602.338 494.3C602.814 491.087 603.289 487.874 603.764 484.666C604.52 479.569 605.276 474.471 606.032 469.379C606.205 468.202 606.383 467.019 606.556 465.842C606.637 465.297 606.421 464.762 605.848 464.595C605.373 464.46 604.682 464.762 604.601 465.302Z" fill="#F19704"/>
<path d="M632.626 465.967C633.101 469.18 633.576 472.393 634.052 475.601L636.32 490.888C636.492 492.065 636.671 493.248 636.843 494.425C636.924 494.965 637.61 495.267 638.091 495.132C638.669 494.97 638.879 494.43 638.798 493.885C638.323 490.672 637.848 487.459 637.373 484.251L635.105 468.964C634.932 467.787 634.754 466.604 634.581 465.427C634.5 464.887 633.814 464.585 633.333 464.72C632.756 464.882 632.545 465.422 632.626 465.967Z" fill="#F19704"/>
<path d="M611.486 450.236C610.827 454.464 610.169 458.697 609.504 462.926L606.351 483.154C606.108 484.704 605.865 486.254 605.627 487.803C605.541 488.349 605.768 488.889 606.335 489.051C606.815 489.186 607.496 488.883 607.582 488.343C608.241 484.115 608.9 479.882 609.564 475.653L612.717 455.425C612.96 453.875 613.203 452.325 613.441 450.776C613.527 450.23 613.301 449.69 612.734 449.528C612.253 449.393 611.573 449.696 611.486 450.236Z" fill="#F19704"/>
<path d="M625.612 450.772C626.271 455 626.93 459.233 627.594 463.462L630.747 483.69C630.99 485.24 631.233 486.79 631.471 488.339C631.557 488.879 632.232 489.182 632.718 489.047C633.296 488.885 633.512 488.345 633.426 487.799C632.767 483.571 632.108 479.338 631.444 475.109L628.29 454.881C628.047 453.331 627.804 451.781 627.567 450.232C627.48 449.692 626.805 449.389 626.319 449.524C625.742 449.686 625.526 450.226 625.612 450.772Z" fill="#F19704"/>
</svg>
