<?xml version="1.0" encoding="UTF-8"?><svg id="Layer_2" xmlns="http://www.w3.org/2000/svg" width="71.15" height="94.95" viewBox="0 0 71.15 94.95"><defs><style>.cls-1{fill:none;stroke:#000;stroke-width:2px;}.cls-2{stroke-width:0px;}</style></defs><path class="cls-2" d="m5.33,18.15c2.2-.79,2.36-2.46,4.69-4.05,1.48-1.01,2.85-1.31,4.41-1.66,5.96-1.31,12.89,1.05,20.53,1.01,8.97-.04,15.83-3.37,21.57-1.38,2.99,1.04,4.41,2.02,4.41,2.02,2.52,1.76,2.89,3.32,5.01,3.85.22.05,2.43.57,3.92-.65,1.6-1.31,1.75-4.14.87-6.06-1.87-4.04-8.75-4.89-12.33-5.34-3.36-.42-4.6-.02-7.5-1.01-2.86-.98-3.17-1.89-5.87-3.11C40.83-.11,36.92-.03,34.3.02c-2.32.05-6.25.13-10.44,2.1-2.08.98-2.95,1.82-5.68,2.77-2.42.84-3.66.85-5.91,1.29-4.32.84-10.25,1.99-11.9,5.72-.9,2.03-.58,4.95,1.06,6.08,1.46,1,3.55.29,3.9.17Z"/><path class="cls-2" d="m34.95,50.43c-12.92-.1-24.52-3.98-27-4.83,0,0-.02,0-.02,0,.04-1.36.07-2.72.11-4.09,2.93-.86,5.86-1.73,8.8-2.59,6.18.02,12.4.05,18.64.1,6.25.05,12.46.12,18.64.21,3.01.97,6.02,1.94,9.03,2.92.1,2.02.15,3.61.07,3.61,0,0-13.54,4.8-28.27,4.68Z"/><line class="cls-1" x1="13.84" y1="64.91" x2="57.53" y2="64.91"/><line class="cls-1" x1="4.79" y1="69.48" x2="65.65" y2="69.48"/><line class="cls-1" x1="4.79" y1="69.48" x2="13.84" y2="64.91"/><line class="cls-1" x1="65.65" y1="69.48" x2="57.53" y2="64.91"/><path class="cls-2" d="m7.98,39.7c-.88,5.95-1.76,11.9-2.64,17.84-1.4,9.44-2.8,18.88-4.2,28.31-.32,2.18-.65,4.37-.97,6.55-.15,1.01.25,2,1.31,2.31.88.25,2.16-.31,2.31-1.31.88-5.95,1.76-11.9,2.64-17.84,1.4-9.44,2.8-18.88,4.2-28.31.32-2.18.65-4.37.97-6.55.15-1.01-.25-2-1.31-2.31-.88-.25-2.16.31-2.31,1.31h0Z"/><path class="cls-2" d="m59.88,40.93c.88,5.95,1.76,11.9,2.64,17.84l4.2,28.31c.32,2.18.65,4.37.97,6.55.15,1,1.42,1.56,2.31,1.31,1.07-.3,1.46-1.3,1.31-2.31-.88-5.95-1.76-11.9-2.64-17.84l-4.2-28.31c-.32-2.18-.65-4.37-.97-6.55-.15-1-1.42-1.56-2.31-1.31-1.07.3-1.46,1.3-1.31,2.31h0Z"/><path class="cls-2" d="m20.74,11.8c-1.22,7.83-2.44,15.67-3.67,23.5l-5.84,37.46c-.45,2.87-.9,5.74-1.34,8.61-.16,1.01.26,2.01,1.31,2.31.89.25,2.15-.31,2.31-1.31,1.22-7.83,2.44-15.67,3.67-23.5l5.84-37.46c.45-2.87.9-5.74,1.34-8.61.16-1.01-.26-2.01-1.31-2.31-.89-.25-2.15.31-2.31,1.31h0Z"/><path class="cls-2" d="m46.89,12.79c1.22,7.83,2.44,15.67,3.67,23.5l5.84,37.46c.45,2.87.9,5.74,1.34,8.61.16,1,1.41,1.56,2.31,1.31,1.07-.3,1.47-1.3,1.31-2.31-1.22-7.83-2.44-15.67-3.67-23.5l-5.84-37.46c-.45-2.87-.9-5.74-1.34-8.61-.16-1-1.41-1.56-2.31-1.31-1.07.3-1.47,1.3-1.31,2.31h0Z"/></svg>