<?xml version="1.0" encoding="UTF-8"?><svg id="Layer_2" xmlns="http://www.w3.org/2000/svg" width="71.15" height="94.95" viewBox="0 0 71.15 94.95"><defs><style>.cls-1{stroke-width:0px;}</style></defs><path class="cls-1" d="m.41,36.08c5.68,6.34,11.36,12.69,17.04,19.03,9.04,10.09,18.08,20.19,27.11,30.28,2.05,2.29,4.11,4.59,6.16,6.88,1.61,1.8,4.26-.86,2.65-2.65-5.68-6.34-11.36-12.69-17.04-19.03-9.04-10.09-18.08-20.19-27.11-30.28-2.05-2.29-4.11-4.59-6.16-6.88-1.61-1.8-4.26.86-2.65,2.65H.41Z"/><path class="cls-1" d="m3.13,56.7c3.8-4.59,7.6-9.17,11.4-13.76l18.18-21.95c1.4-1.69,2.79-3.37,4.19-5.06,1.53-1.85-1.11-4.51-2.65-2.65-3.8,4.59-7.6,9.17-11.4,13.76L4.67,48.99c-1.4,1.69-2.79,3.37-4.19,5.06-1.53,1.85,1.11,4.51,2.65,2.65h0Z"/><path class="cls-1" d="m71.15,3.4l-23,42.96c-12.13-4.81-16.23-20.62-9.52-32.95C45.28,1.19,60.53-3.96,71.15,3.4Z"/><path class="cls-1" d="m43.9,10.26l-6.91,12.92c-4.2-1.74-5.91-6.75-3.89-10.46,2-3.67,7.06-4.96,10.8-2.46Z"/><ellipse class="cls-1" cx="50.45" cy="89.75" rx="20.7" ry="5.2"/></svg>