<?xml version="1.0" encoding="UTF-8"?><svg id="Layer_2" xmlns="http://www.w3.org/2000/svg" width="71.15" height="94.95" viewBox="0 0 71.15 94.95"><defs><style>.cls-1{stroke-width:0px;}</style></defs><path class="cls-1" d="m33.63,1.81v75.95c0,3.49-.15,7.02,0,10.51,0,.05,0,.1,0,.15,0,2.41,3.75,2.42,3.75,0V12.48c0-3.49.15-7.02,0-10.51,0-.05,0-.1,0-.15,0-2.41-3.75-2.42-3.75,0h0Z"/><path class="cls-1" d="m70.83,38.9H.18C-1.97,20.1,15.44,4.04,35.79,4.18c20.15.14,37.17,16.11,35.04,34.72Z"/><path class="cls-1" d="m46.74,94.95h-22.48c-.68-6.92,4.85-12.82,11.33-12.77,6.41.05,11.83,5.93,11.15,12.77Z"/></svg>