<?xml version="1.0" encoding="UTF-8"?><svg id="Layer_2" xmlns="http://www.w3.org/2000/svg" width="71.15" height="94.95" viewBox="0 0 71.15 94.95"><defs><style>.cls-1,.cls-2{stroke-width:0px;}.cls-2{fill:#010101;}</style></defs><path class="cls-1" d="m5.63,77.51v15.59c0,2.41,3.75,2.42,3.75,0v-15.59c0-2.41-3.75-2.42-3.75,0h0Z"/><path class="cls-1" d="m60.15,77.51v15.59c0,2.41,3.75,2.42,3.75,0v-15.59c0-2.41-3.75-2.42-3.75,0h0Z"/><path class="cls-1" d="m55.38,77.51v11.84c0,.98.86,1.92,1.88,1.88s1.88-.82,1.88-1.88v-11.84c0-.98-.86-1.92-1.88-1.88s-1.88.82-1.88,1.88h0Z"/><path class="cls-1" d="m10.3,77.51v11.84c0,.98.86,1.92,1.88,1.88s1.88-.82,1.88-1.88v-11.84c0-.98-.86-1.92-1.88-1.88s-1.88.82-1.88,1.88h0Z"/><path class="cls-1" d="m62.58,78.34H7.61c-1.97,0-3.57-1.6-3.57-3.57V7.8c0-1.57,1.28-2.85,2.85-2.85h55.68c1.57,0,2.85,1.28,2.85,2.85v67.69c0,1.57-1.28,2.85-2.85,2.85Zm-.56-5.23V11.17c0-1.28-1.04-2.32-2.32-2.32H9.83c-1.28,0-2.32,1.04-2.32,2.32v61.94c0,1.28,1.04,2.32,2.32,2.32h49.87c1.28,0,2.32-1.04,2.32-2.32Z"/><path class="cls-1" d="m64.98,6.23c-20.15,0-40.3,0-60.46,0,1.69-2.08,3.38-4.15,5.07-6.23h51.27c1.37,2.08,2.75,4.15,4.12,6.23Z"/><path class="cls-2" d="m10.61,43.22h48.28c.83,0,1.51.7,1.51,1.57v27.59c0,.87-.67,1.57-1.51,1.57H10.61c-.83,0-1.51-.7-1.51-1.57v-27.59c0-.87.67-1.57,1.51-1.57Zm23.86,12.71c-1.47,0-2.65,1.19-2.65,2.65s1.19,2.65,2.65,2.65,2.65-1.19,2.65-2.65-1.19-2.65-2.65-2.65Z"/><path class="cls-2" d="m10.63,10.6h48.28c.83,0,1.51.7,1.51,1.57v27.59c0,.87-.67,1.57-1.51,1.57H10.63c-.83,0-1.51-.7-1.51-1.57V12.17c0-.87.67-1.57,1.51-1.57Zm23.86,12.71c-1.47,0-2.65,1.19-2.65,2.65s1.19,2.65,2.65,2.65,2.65-1.19,2.65-2.65-1.19-2.65-2.65-2.65Z"/></svg>