<svg width="759" height="779" viewBox="0 0 759 779" fill="none" xmlns="http://www.w3.org/2000/svg">
<g clip-path="url(#clip0_259_55)">
<circle cx="253.399" cy="222.347" r="5.31205" fill="white"/>
<circle cx="253.399" cy="287.154" r="5.31205" fill="white"/>
<circle cx="67.4781" cy="222.347" r="5.31205" fill="white"/>
<circle cx="5.85795" cy="222.347" r="5.31205" fill="white"/>
<circle cx="67.4781" cy="287.154" r="5.31205" fill="white"/>
<circle cx="5.85795" cy="287.154" r="5.31205" fill="white"/>
<circle cx="131.222" cy="287.154" r="5.31205" fill="white"/>
<circle cx="191.78" cy="287.154" r="5.31205" fill="white"/>
<circle cx="132.285" cy="222.347" r="5.31205" fill="white"/>
<circle cx="191.78" cy="222.347" r="5.31205" fill="white"/>
<circle cx="67.4781" cy="351.961" r="5.31205" fill="white"/>
<circle cx="5.85795" cy="351.961" r="5.31205" fill="white"/>
<circle cx="131.222" cy="351.961" r="5.31205" fill="white"/>
<circle cx="191.78" cy="351.961" r="5.31205" fill="white"/>
<circle cx="67.4781" cy="416.768" r="5.31205" fill="white"/>
<circle cx="67.4781" cy="481.575" r="5.31205" fill="white"/>
<circle cx="5.85795" cy="416.768" r="5.31205" fill="white"/>
<circle cx="5.85795" cy="481.575" r="5.31205" fill="white"/>
<circle cx="131.222" cy="416.768" r="5.31205" fill="white"/>
<circle cx="131.222" cy="481.575" r="5.31205" fill="white"/>
<circle cx="191.78" cy="416.768" r="5.31205" fill="white"/>
<circle cx="68.5396" cy="557.006" r="5.31205" fill="white"/>
<circle cx="6.92045" cy="557.006" r="5.31205" fill="white"/>
<circle cx="132.285" cy="557.006" r="5.31205" fill="white"/>
<circle cx="5.31205" cy="5.31205" r="5.31205" transform="matrix(-1 0 0 1 509.44 217.035)" fill="white"/>
<circle cx="5.31205" cy="5.31205" r="5.31205" transform="matrix(-1 0 0 1 509.44 152.228)" fill="white"/>
<circle cx="5.31205" cy="5.31205" r="5.31205" transform="matrix(-1 0 0 1 509.44 616.501)" fill="white"/>
<circle cx="5.31205" cy="5.31205" r="5.31205" transform="matrix(-1 0 0 1 509.44 87.421)" fill="white"/>
<circle cx="5.31205" cy="5.31205" r="5.31205" transform="matrix(-1 0 0 1 509.44 22.614)" fill="white"/>
<circle cx="5.31205" cy="5.31205" r="5.31205" transform="matrix(-1 0 0 1 512.627 746.115)" fill="white"/>
<circle cx="5.31205" cy="5.31205" r="5.31205" transform="matrix(-1 0 0 1 512.627 681.308)" fill="white"/>
<circle cx="5.31205" cy="5.31205" r="5.31205" transform="matrix(-1 0 0 1 197.092 152.228)" fill="white"/>
<circle cx="5.31205" cy="5.31205" r="5.31205" transform="matrix(-1 0 0 1 197.092 616.501)" fill="white"/>
<circle cx="5.31205" cy="5.31205" r="5.31205" transform="matrix(-1 0 0 1 197.092 87.421)" fill="white"/>
<circle cx="5.31205" cy="5.31205" r="5.31205" transform="matrix(-1 0 0 1 197.092 22.614)" fill="white"/>
<circle cx="5.31205" cy="5.31205" r="5.31205" transform="matrix(-1 0 0 1 200.279 746.115)" fill="white"/>
<circle cx="5.31205" cy="5.31205" r="5.31205" transform="matrix(-1 0 0 1 200.279 681.308)" fill="white"/>
<circle cx="5.31205" cy="5.31205" r="5.31205" transform="matrix(-1 0 0 1 509.44 281.842)" fill="white"/>
<circle cx="5.31205" cy="5.31205" r="5.31205" transform="matrix(-1 0 0 1 695.362 217.035)" fill="white"/>
<circle cx="5.31205" cy="5.31205" r="5.31205" transform="matrix(-1 0 0 1 695.362 152.228)" fill="white"/>
<circle cx="5.31205" cy="5.31205" r="5.31205" transform="matrix(-1 0 0 1 695.362 616.501)" fill="white"/>
<circle cx="5.31205" cy="5.31205" r="5.31205" transform="matrix(-1 0 0 1 695.362 87.421)" fill="white"/>
<circle cx="5.31205" cy="5.31205" r="5.31205" transform="matrix(-1 0 0 1 695.362 22.614)" fill="white"/>
<circle cx="5.31205" cy="5.31205" r="5.31205" transform="matrix(-1 0 0 1 698.549 746.115)" fill="white"/>
<circle cx="5.31205" cy="5.31205" r="5.31205" transform="matrix(-1 0 0 1 698.549 681.308)" fill="white"/>
<circle cx="5.31205" cy="5.31205" r="5.31205" transform="matrix(-1 0 0 1 383.013 152.228)" fill="white"/>
<circle cx="5.31205" cy="5.31205" r="5.31205" transform="matrix(-1 0 0 1 383.013 616.501)" fill="white"/>
<circle cx="5.31205" cy="5.31205" r="5.31205" transform="matrix(-1 0 0 1 383.013 87.421)" fill="white"/>
<circle cx="5.31205" cy="5.31205" r="5.31205" transform="matrix(-1 0 0 1 383.013 22.614)" fill="white"/>
<circle cx="5.31205" cy="5.31205" r="5.31205" transform="matrix(-1 0 0 1 386.201 746.115)" fill="white"/>
<circle cx="5.31205" cy="5.31205" r="5.31205" transform="matrix(-1 0 0 1 386.201 681.308)" fill="white"/>
<circle cx="5.31205" cy="5.31205" r="5.31205" transform="matrix(-1 0 0 1 380.889 551.694)" fill="white"/>
<circle cx="5.31205" cy="5.31205" r="5.31205" transform="matrix(-1 0 0 1 132.284 152.228)" fill="white"/>
<circle cx="5.31205" cy="5.31205" r="5.31205" transform="matrix(-1 0 0 1 132.284 616.501)" fill="white"/>
<circle cx="5.31205" cy="5.31205" r="5.31205" transform="matrix(-1 0 0 1 132.284 87.421)" fill="white"/>
<circle cx="5.31205" cy="5.31205" r="5.31205" transform="matrix(-1 0 0 1 132.284 22.614)" fill="white"/>
<circle cx="5.31205" cy="5.31205" r="5.31205" transform="matrix(-1 0 0 1 135.472 746.115)" fill="white"/>
<circle cx="5.31205" cy="5.31205" r="5.31205" transform="matrix(-1 0 0 1 135.472 681.308)" fill="white"/>
<circle cx="5.31205" cy="5.31205" r="5.31205" transform="matrix(-1 0 0 1 756.981 217.035)" fill="white"/>
<circle cx="5.31205" cy="5.31205" r="5.31205" transform="matrix(-1 0 0 1 756.981 152.228)" fill="white"/>
<circle cx="5.31205" cy="5.31205" r="5.31205" transform="matrix(-1 0 0 1 756.981 616.501)" fill="white"/>
<circle cx="5.31205" cy="5.31205" r="5.31205" transform="matrix(-1 0 0 1 756.981 87.421)" fill="white"/>
<circle cx="5.31205" cy="5.31205" r="5.31205" transform="matrix(-1 0 0 1 756.981 22.614)" fill="white"/>
<circle cx="5.31205" cy="5.31205" r="5.31205" transform="matrix(-1 0 0 1 760.169 746.115)" fill="white"/>
<circle cx="5.31205" cy="5.31205" r="5.31205" transform="matrix(-1 0 0 1 760.169 681.308)" fill="white"/>
<circle cx="5.31205" cy="5.31205" r="5.31205" transform="matrix(-1 0 0 1 444.633 152.228)" fill="white"/>
<circle cx="5.31205" cy="5.31205" r="5.31205" transform="matrix(-1 0 0 1 444.633 616.501)" fill="white"/>
<circle cx="5.31205" cy="5.31205" r="5.31205" transform="matrix(-1 0 0 1 444.633 87.421)" fill="white"/>
<circle cx="5.31205" cy="5.31205" r="5.31205" transform="matrix(-1 0 0 1 444.633 22.614)" fill="white"/>
<circle cx="5.31205" cy="5.31205" r="5.31205" transform="matrix(-1 0 0 1 447.82 746.115)" fill="white"/>
<circle cx="5.31205" cy="5.31205" r="5.31205" transform="matrix(-1 0 0 1 447.82 681.308)" fill="white"/>
<circle cx="5.31205" cy="5.31205" r="5.31205" transform="matrix(-1 0 0 1 695.362 281.842)" fill="white"/>
<circle cx="5.31205" cy="5.31205" r="5.31205" transform="matrix(-1 0 0 1 756.981 281.842)" fill="white"/>
<circle cx="5.31205" cy="5.31205" r="5.31205" transform="matrix(-1 0 0 1 631.617 281.842)" fill="white"/>
<circle cx="5.31205" cy="5.31205" r="5.31205" transform="matrix(-1 0 0 1 571.06 281.842)" fill="white"/>
<circle cx="5.31205" cy="5.31205" r="5.31205" transform="matrix(-1 0 0 1 630.555 217.035)" fill="white"/>
<circle cx="5.31205" cy="5.31205" r="5.31205" transform="matrix(-1 0 0 1 630.555 152.228)" fill="white"/>
<circle cx="5.31205" cy="5.31205" r="5.31205" transform="matrix(-1 0 0 1 630.555 616.501)" fill="white"/>
<circle cx="5.31205" cy="5.31205" r="5.31205" transform="matrix(-1 0 0 1 630.555 87.421)" fill="white"/>
<circle cx="5.31205" cy="5.31205" r="5.31205" transform="matrix(-1 0 0 1 630.555 22.614)" fill="white"/>
<circle cx="5.31205" cy="5.31205" r="5.31205" transform="matrix(-1 0 0 1 633.742 746.115)" fill="white"/>
<circle cx="5.31205" cy="5.31205" r="5.31205" transform="matrix(-1 0 0 1 633.742 681.308)" fill="white"/>
<circle cx="5.31205" cy="5.31205" r="5.31205" transform="matrix(-1 0 0 1 318.207 152.228)" fill="white"/>
<circle cx="5.31205" cy="5.31205" r="5.31205" transform="matrix(-1 0 0 1 318.207 616.501)" fill="white"/>
<circle cx="5.31205" cy="5.31205" r="5.31205" transform="matrix(-1 0 0 1 318.207 87.421)" fill="white"/>
<circle cx="5.31205" cy="5.31205" r="5.31205" transform="matrix(-1 0 0 1 318.207 22.614)" fill="white"/>
<circle cx="5.31205" cy="5.31205" r="5.31205" transform="matrix(-1 0 0 1 321.394 746.115)" fill="white"/>
<circle cx="5.31205" cy="5.31205" r="5.31205" transform="matrix(-1 0 0 1 321.394 681.308)" fill="white"/>
<circle cx="5.31205" cy="5.31205" r="5.31205" transform="matrix(-1 0 0 1 67.4775 152.228)" fill="white"/>
<circle cx="5.31205" cy="5.31205" r="5.31205" transform="matrix(-1 0 0 1 67.4775 616.501)" fill="white"/>
<circle cx="5.31205" cy="5.31205" r="5.31205" transform="matrix(-1 0 0 1 67.4775 87.421)" fill="white"/>
<circle cx="5.31205" cy="5.31205" r="5.31205" transform="matrix(-1 0 0 1 67.4775 22.614)" fill="white"/>
<circle cx="5.31205" cy="5.31205" r="5.31205" transform="matrix(-1 0 0 1 70.665 746.115)" fill="white"/>
<circle cx="5.31205" cy="5.31205" r="5.31205" transform="matrix(-1 0 0 1 70.665 681.308)" fill="white"/>
<circle cx="5.31205" cy="5.31205" r="5.31205" transform="matrix(-1 0 0 1 571.06 217.035)" fill="white"/>
<circle cx="5.31205" cy="5.31205" r="5.31205" transform="matrix(-1 0 0 1 571.06 152.228)" fill="white"/>
<circle cx="5.31205" cy="5.31205" r="5.31205" transform="matrix(-1 0 0 1 571.06 616.501)" fill="white"/>
<circle cx="5.31205" cy="5.31205" r="5.31205" transform="matrix(-1 0 0 1 571.06 87.421)" fill="white"/>
<circle cx="5.31205" cy="5.31205" r="5.31205" transform="matrix(-1 0 0 1 571.06 22.614)" fill="white"/>
<circle cx="5.31205" cy="5.31205" r="5.31205" transform="matrix(-1 0 0 1 574.247 746.115)" fill="white"/>
<circle cx="5.31205" cy="5.31205" r="5.31205" transform="matrix(-1 0 0 1 574.247 681.308)" fill="white"/>
<circle cx="5.31205" cy="5.31205" r="5.31205" transform="matrix(-1 0 0 1 258.711 152.228)" fill="white"/>
<circle cx="5.31205" cy="5.31205" r="5.31205" transform="matrix(-1 0 0 1 258.711 616.501)" fill="white"/>
<circle cx="5.31205" cy="5.31205" r="5.31205" transform="matrix(-1 0 0 1 258.711 87.421)" fill="white"/>
<circle cx="5.31205" cy="5.31205" r="5.31205" transform="matrix(-1 0 0 1 258.711 22.614)" fill="white"/>
<circle cx="5.31205" cy="5.31205" r="5.31205" transform="matrix(-1 0 0 1 261.898 746.115)" fill="white"/>
<circle cx="5.31205" cy="5.31205" r="5.31205" transform="matrix(-1 0 0 1 261.898 681.308)" fill="white"/>
<circle cx="5.31205" cy="5.31205" r="5.31205" transform="matrix(-1 0 0 1 7.98242 152.228)" fill="white"/>
<circle cx="5.31205" cy="5.31205" r="5.31205" transform="matrix(-1 0 0 1 7.98242 616.501)" fill="white"/>
<circle cx="5.31205" cy="5.31205" r="5.31205" transform="matrix(-1 0 0 1 7.98242 87.421)" fill="white"/>
<circle cx="5.31205" cy="5.31205" r="5.31205" transform="matrix(-1 0 0 1 7.98242 22.614)" fill="white"/>
<circle cx="5.31205" cy="5.31205" r="5.31205" transform="matrix(-1 0 0 1 11.1699 746.115)" fill="white"/>
<circle cx="5.31205" cy="5.31205" r="5.31205" transform="matrix(-1 0 0 1 11.1699 681.308)" fill="white"/>
<circle cx="5.31205" cy="5.31205" r="5.31205" transform="matrix(-1 0 0 1 695.362 346.649)" fill="white"/>
<circle cx="5.31205" cy="5.31205" r="5.31205" transform="matrix(-1 0 0 1 756.981 346.649)" fill="white"/>
<circle cx="5.31205" cy="5.31205" r="5.31205" transform="matrix(-1 0 0 1 631.617 346.649)" fill="white"/>
<circle cx="5.31205" cy="5.31205" r="5.31205" transform="matrix(-1 0 0 1 571.06 346.649)" fill="white"/>
<circle cx="5.31205" cy="5.31205" r="5.31205" transform="matrix(-1 0 0 1 695.362 411.456)" fill="white"/>
<circle cx="5.31205" cy="5.31205" r="5.31205" transform="matrix(-1 0 0 1 695.362 476.263)" fill="white"/>
<circle cx="5.31205" cy="5.31205" r="5.31205" transform="matrix(-1 0 0 1 756.981 411.456)" fill="white"/>
<circle cx="5.31205" cy="5.31205" r="5.31205" transform="matrix(-1 0 0 1 756.981 476.263)" fill="white"/>
<circle cx="5.31205" cy="5.31205" r="5.31205" transform="matrix(-1 0 0 1 631.617 411.456)" fill="white"/>
<circle cx="5.31205" cy="5.31205" r="5.31205" transform="matrix(-1 0 0 1 631.617 476.263)" fill="white"/>
<circle cx="5.31205" cy="5.31205" r="5.31205" transform="matrix(-1 0 0 1 571.06 411.456)" fill="white"/>
<circle cx="5.31205" cy="5.31205" r="5.31205" transform="matrix(-1 0 0 1 694.299 551.694)" fill="white"/>
<circle cx="5.31205" cy="5.31205" r="5.31205" transform="matrix(-1 0 0 1 755.919 551.694)" fill="white"/>
<circle cx="5.31205" cy="5.31205" r="5.31205" transform="matrix(-1 0 0 1 630.555 551.694)" fill="white"/>
<circle cx="5.31205" cy="5.31205" r="5.31205" transform="matrix(-1 0 0 1 380.889 416.768)" fill="white"/>
<ellipse cx="376.108" cy="223.409" rx="24.9666" ry="24.4354" fill="white"/>
<ellipse cx="274.117" cy="353.023" rx="24.9666" ry="24.4354" fill="white"/>
<ellipse cx="228.433" cy="482.637" rx="24.9666" ry="24.4354" fill="white"/>
<ellipse cx="281.553" cy="547.444" rx="24.9666" ry="24.4354" fill="white"/>
<ellipse cx="552.468" cy="546.382" rx="24.9666" ry="24.4354" fill="white"/>
<ellipse cx="199.748" cy="547.444" rx="24.9666" ry="24.4354" fill="white"/>
<ellipse cx="470.662" cy="546.382" rx="24.9666" ry="24.4354" fill="white"/>
<ellipse cx="524.845" cy="482.637" rx="24.9666" ry="24.4354" fill="white"/>
<ellipse cx="478.099" cy="353.023" rx="24.9666" ry="24.4354" fill="white"/>
<circle cx="344.236" cy="352.492" r="19.6546" fill="white"/>
<circle cx="246.493" cy="417.299" r="19.6546" fill="white"/>
<circle cx="299.614" cy="482.106" r="19.6546" fill="white"/>
<circle cx="453.663" cy="482.106" r="19.6546" fill="white"/>
<circle cx="405.855" cy="352.492" r="19.6546" fill="white"/>
<circle cx="506.784" cy="417.299" r="19.6546" fill="white"/>
<circle cx="375.045" cy="287.685" r="20.717" fill="white"/>
<ellipse cx="317.675" cy="223.409" rx="23.9042" ry="24.4354" fill="white"/>
<ellipse cx="302.802" cy="287.685" rx="31.3411" ry="32.4035" fill="white"/>
<ellipse cx="312.363" cy="417.299" rx="31.3411" ry="32.4035" fill="white"/>
<ellipse cx="376.108" cy="482.106" rx="31.3411" ry="32.4035" fill="white"/>
<ellipse cx="436.665" cy="417.299" rx="31.3411" ry="32.4035" fill="white"/>
<ellipse cx="446.227" cy="287.685" rx="31.3411" ry="32.4035" fill="white"/>
<ellipse cx="434.54" cy="223.409" rx="23.9042" ry="24.4354" fill="white"/>
</g>
<defs>
<clipPath id="clip0_259_55">
<rect width="759" height="779" rx="379.5" fill="white"/>
</clipPath>
</defs>
</svg>
