<svg width="759" height="779" viewBox="0 0 759 779" fill="none" xmlns="http://www.w3.org/2000/svg">
<ellipse cx="378.546" cy="204.103" rx="28.7142" ry="28.1032" fill="white"/>
<ellipse cx="261.246" cy="353.173" rx="28.7142" ry="28.1032" fill="white"/>
<ellipse cx="208.705" cy="502.242" rx="28.7142" ry="28.1032" fill="white"/>
<ellipse cx="269.799" cy="576.777" rx="28.7142" ry="28.1032" fill="white"/>
<ellipse cx="581.378" cy="575.555" rx="28.7142" ry="28.1032" fill="white"/>
<ellipse cx="175.714" cy="576.777" rx="28.7142" ry="28.1032" fill="white"/>
<ellipse cx="487.293" cy="575.555" rx="28.7142" ry="28.1032" fill="white"/>
<ellipse cx="549.609" cy="502.242" rx="28.7142" ry="28.1032" fill="white"/>
<ellipse cx="495.846" cy="353.173" rx="28.7142" ry="28.1032" fill="white"/>
<circle cx="341.89" cy="352.562" r="22.6048" fill="white"/>
<circle cx="229.476" cy="427.096" r="22.6048" fill="white"/>
<circle cx="290.571" cy="501.631" r="22.6048" fill="white"/>
<circle cx="467.743" cy="501.631" r="22.6048" fill="white"/>
<circle cx="412.759" cy="352.562" r="22.6048" fill="white"/>
<circle cx="528.837" cy="427.096" r="22.6048" fill="white"/>
<circle cx="377.324" cy="278.027" r="23.8267" fill="white"/>
<ellipse cx="311.343" cy="204.103" rx="27.4923" ry="28.1032" fill="white"/>
<ellipse cx="294.236" cy="278.027" rx="36.0455" ry="37.2673" fill="white"/>
<ellipse cx="305.233" cy="427.096" rx="36.0455" ry="37.2673" fill="white"/>
<ellipse cx="378.546" cy="501.631" rx="36.0455" ry="37.2673" fill="white"/>
<ellipse cx="448.193" cy="427.096" rx="36.0455" ry="37.2673" fill="white"/>
<ellipse cx="459.19" cy="278.027" rx="36.0455" ry="37.2673" fill="white"/>
<ellipse cx="445.75" cy="204.103" rx="27.4923" ry="28.1032" fill="white"/>
</svg>
