<svg width="1060" height="294" viewBox="0 0 1060 294" fill="none" xmlns="http://www.w3.org/2000/svg">
<g clip-path="url(#clip0_248_211)">
<path d="M355.062 34.625H369.125V119H355.062V34.625ZM369.125 20.5625H355.062V6.5H369.125V20.5625ZM441.781 44C436.312 44 431.576 44.1709 427.572 44.5127C423.617 44.8545 420.248 45.4648 417.465 46.3438C414.682 47.2227 412.411 48.4434 410.653 50.0059C408.944 51.5684 407.602 53.5703 406.625 56.0117C405.697 58.4531 405.062 61.4072 404.721 64.874C404.428 68.292 404.281 72.3203 404.281 76.959C404.281 81.5488 404.428 85.5527 404.721 88.9707C405.062 92.3398 405.697 95.2451 406.625 97.6865C407.602 100.079 408.944 102.057 410.653 103.619C412.411 105.182 414.682 106.402 417.465 107.281C420.248 108.16 423.617 108.771 427.572 109.112C431.576 109.454 436.312 109.625 441.781 109.625C446.469 109.625 450.644 109.527 454.306 109.332C457.968 109.088 461.19 108.6 463.974 107.867C466.757 107.086 469.101 105.987 471.005 104.571C472.958 103.106 474.545 101.178 475.766 98.7852C476.986 96.3438 477.865 93.3408 478.402 89.7764C478.988 86.1631 479.281 81.8174 479.281 76.7393C479.281 71.6611 478.988 67.3154 478.402 63.7021C477.865 60.0889 476.986 57.0859 475.766 54.6934C474.545 52.252 472.958 50.3232 471.005 48.9072C469.101 47.4912 466.757 46.417 463.974 45.6846C461.19 44.9521 457.968 44.4883 454.306 44.293C450.644 44.0977 446.469 44 441.781 44ZM493.344 107.281C493.344 115.484 492.416 122.296 490.561 127.716C488.705 133.136 485.727 137.506 481.625 140.826C477.523 144.195 472.201 146.539 465.658 147.857C459.115 149.176 451.156 149.835 441.781 149.835C432.992 149.835 425.595 149.444 419.589 148.663C413.632 147.882 408.822 146.637 405.16 144.928C401.498 143.268 398.861 141.095 397.25 138.409C395.688 135.772 394.906 132.55 394.906 128.741H408.969C408.969 130.646 409.457 132.208 410.434 133.429C411.459 134.649 413.217 135.602 415.707 136.285C418.197 136.969 421.542 137.433 425.741 137.677C429.989 137.97 435.336 138.116 441.781 138.116C448.812 138.116 454.721 137.848 459.506 137.311C464.291 136.822 468.148 135.626 471.078 133.722C474.008 131.817 476.107 128.937 477.377 125.079C478.646 121.222 479.281 116.07 479.281 109.625C478.598 110.797 477.499 112.066 475.985 113.434C474.521 114.801 472.348 116.07 469.467 117.242C466.635 118.414 462.973 119.391 458.48 120.172C453.988 120.953 448.422 121.344 441.781 121.344C432.406 121.344 424.447 120.636 417.904 119.22C411.361 117.853 406.039 115.484 401.938 112.115C397.836 108.746 394.857 104.205 393.002 98.4922C391.146 92.7793 390.219 85.6016 390.219 76.959C390.219 68.1699 391.146 60.8945 393.002 55.1328C394.857 49.3711 397.836 44.8057 401.938 41.4365C406.039 38.0674 411.361 35.6992 417.904 34.332C424.447 32.9648 432.406 32.2812 441.781 32.2812C448.422 32.2812 453.988 32.623 458.48 33.3066C462.973 33.9902 466.635 34.8447 469.467 35.8701C472.348 36.8955 474.521 38.0186 475.985 39.2393C477.499 40.4111 478.598 41.4854 479.281 42.4619V34.625H493.344V107.281ZM516.781 34.625H530.844V119H516.781V34.625ZM530.844 20.5625H516.781V6.5H530.844V20.5625ZM636.312 81.5C636.312 88.6777 635.727 94.6836 634.555 99.5176C633.383 104.303 631.405 108.136 628.622 111.017C625.888 113.897 622.274 115.948 617.782 117.169C613.29 118.39 607.748 119 601.156 119C594.76 119 589.389 118.512 585.043 117.535C580.697 116.559 577.182 114.898 574.496 112.555C571.811 110.211 569.882 107.086 568.71 103.18C567.538 99.2734 566.952 94.3906 566.952 88.5312V46.1973H549.594V34.625H566.952V11.5537H581.015V34.625H633.969V46.1973H581.015V88.5312C581.015 93.2188 581.356 96.832 582.04 99.3711C582.772 101.91 583.92 103.766 585.482 104.938C587.045 106.109 589.096 106.793 591.635 106.988C594.223 107.184 597.372 107.281 601.083 107.281C604.013 107.281 606.625 107.232 608.92 107.135C611.264 107.037 613.29 106.744 614.999 106.256C616.757 105.719 618.246 104.938 619.467 103.912C620.688 102.838 621.664 101.349 622.396 99.4443C623.178 97.54 623.739 95.1475 624.081 92.2666C624.423 89.3369 624.594 85.748 624.594 81.5H636.312ZM734.384 107.428C734.237 108.014 733.139 109.479 731.088 111.822C729.623 113.58 727.67 115.143 725.229 116.51C722.787 117.828 719.516 118.854 715.414 119.586C711.361 120.367 706.015 120.758 699.374 120.758C690.536 120.758 682.992 120.294 676.742 119.366C670.492 118.487 665.39 117.12 661.435 115.265C657.479 113.36 654.574 110.943 652.719 108.014C650.912 105.084 650.009 101.593 650.009 97.54C650.009 93.292 650.497 89.7031 651.474 86.7734C652.499 83.7949 653.964 81.3047 655.868 79.3027C657.821 77.3008 660.165 75.7383 662.899 74.6152C665.634 73.4922 668.734 72.6377 672.201 72.0518C675.717 71.4658 679.55 71.0996 683.7 70.9531C687.851 70.8066 692.27 70.7334 696.957 70.7334C703.646 70.7334 709.237 71.0264 713.729 71.6123C718.222 72.1494 721.884 72.8574 724.716 73.7363C727.597 74.5664 729.77 75.4697 731.234 76.4463C732.699 77.4229 733.749 78.3262 734.384 79.1562C734.384 73.6875 734.14 69.0244 733.651 65.167C733.212 61.3096 732.455 58.0869 731.381 55.499C730.355 52.9111 729.013 50.8604 727.353 49.3467C725.692 47.7842 723.642 46.6123 721.2 45.8311C718.808 45.0498 716 44.5615 712.777 44.3662C709.555 44.1221 705.868 44 701.718 44C695.272 44 689.926 44.1709 685.678 44.5127C681.43 44.8057 678.061 45.416 675.57 46.3438C673.08 47.2715 671.322 48.5654 670.297 50.2256C669.271 51.8369 668.759 53.9609 668.759 56.5977H654.696C654.696 52.1543 655.478 48.3945 657.04 45.3184C658.651 42.2422 661.288 39.752 664.95 37.8477C668.661 35.8945 673.52 34.4785 679.525 33.5996C685.531 32.7207 692.929 32.2812 701.718 32.2812C710.312 32.2812 717.587 32.9893 723.544 34.4053C729.501 35.8213 734.311 38.3115 737.973 41.876C741.684 45.4404 744.345 50.25 745.956 56.3047C747.616 62.3105 748.446 69.9277 748.446 79.1562V119H734.384V107.428ZM701.718 109.625C707.919 109.625 713.095 109.332 717.245 108.746C721.444 108.16 724.813 107.281 727.353 106.109C729.892 104.938 731.698 103.473 732.772 101.715C733.847 99.957 734.384 97.9062 734.384 95.5625C734.384 93.2188 733.749 91.2412 732.479 89.6299C731.259 87.9697 729.184 86.627 726.254 85.6016C723.373 84.5762 719.54 83.8438 714.755 83.4043C709.97 82.916 704.062 82.6719 697.03 82.6719C689.999 82.6719 684.311 82.7939 679.965 83.0381C675.668 83.2822 672.348 83.8438 670.004 84.7227C667.66 85.6016 666.073 86.8955 665.243 88.6045C664.462 90.3135 664.071 92.6328 664.071 95.5625C664.071 98.4922 664.486 100.885 665.316 102.74C666.195 104.547 667.953 105.963 670.59 106.988C673.227 108.014 677.011 108.722 681.942 109.112C686.923 109.454 693.515 109.625 701.718 109.625ZM771.957 6.5H786.02V119H771.957V6.5Z" fill="white"/>
<path d="M398.594 263.611C389.219 263.611 381.26 262.977 374.717 261.707C368.174 260.389 362.852 258.143 358.75 254.969C354.648 251.795 351.67 247.547 349.814 242.225C347.959 236.902 347.031 230.213 347.031 222.156C347.031 212.928 347.959 205.311 349.814 199.305C351.67 193.25 354.648 188.44 358.75 184.876C362.852 181.312 368.174 178.821 374.717 177.405C381.26 175.989 389.219 175.281 398.594 175.281C405.283 175.281 411.069 175.77 415.952 176.746C420.884 177.723 425.083 179.139 428.55 180.994C432.065 182.85 434.897 185.096 437.046 187.732C439.243 190.369 440.952 193.152 442.173 196.082C443.442 198.963 444.297 202.356 444.736 206.263C445.225 210.169 445.469 214.295 445.469 218.641L444.297 223.328H361.094C361.094 229.773 361.729 235.071 362.998 239.222C364.268 243.323 366.367 246.326 369.297 248.23C372.227 250.135 376.084 251.355 380.869 251.893C385.654 252.381 391.562 252.625 398.594 252.625C405.039 252.625 410.361 252.454 414.561 252.112C418.809 251.722 422.178 251.014 424.668 249.988C427.158 248.963 428.892 247.547 429.868 245.74C430.894 243.885 431.406 241.492 431.406 238.562H445.469C445.469 243.104 444.663 246.985 443.052 250.208C441.489 253.382 438.877 255.97 435.215 257.972C431.553 259.925 426.719 261.341 420.713 262.22C414.756 263.147 407.383 263.611 398.594 263.611ZM398.594 187C393.906 187 389.707 187.098 385.996 187.293C382.334 187.488 379.111 187.928 376.328 188.611C373.594 189.246 371.25 190.198 369.297 191.468C367.344 192.688 365.757 194.153 364.536 195.862C363.364 197.522 362.485 199.891 361.899 202.967C361.362 205.994 361.094 209.656 361.094 213.953H431.406C431.406 208.24 430.796 203.772 429.575 200.55C428.354 197.278 426.426 194.593 423.789 192.493C421.152 190.394 417.759 188.953 413.608 188.172C409.458 187.391 404.453 187 398.594 187ZM513.438 223.548C518.906 223.548 523.569 223.646 527.427 223.841C531.284 223.987 534.507 224.28 537.095 224.72C539.731 225.11 541.807 225.623 543.32 226.258C544.834 226.893 545.981 227.845 546.763 229.114C547.544 230.335 548.032 231.58 548.228 232.85C548.472 234.07 548.594 235.486 548.594 237.098C548.594 238.855 548.472 240.467 548.228 241.932C548.032 243.348 547.52 244.642 546.689 245.813C545.859 246.985 544.639 247.986 543.027 248.816C541.416 249.646 539.219 250.354 536.436 250.94C533.652 251.526 530.186 251.966 526.035 252.259C521.934 252.503 516.953 252.625 511.094 252.625C504.648 252.625 499.302 252.454 495.054 252.112C490.854 251.722 487.51 251.014 485.02 249.988C482.529 248.963 480.771 247.547 479.746 245.74C478.77 243.885 478.281 241.492 478.281 238.562H464.219C464.219 243.006 465 246.766 466.562 249.842C468.174 252.918 470.811 255.433 474.473 257.386C478.135 259.29 482.944 260.682 488.901 261.561C494.907 262.439 502.305 262.879 511.094 262.879C518.125 262.879 524.277 262.659 529.551 262.22C534.873 261.829 539.438 261.219 543.247 260.389C547.056 259.51 550.205 258.387 552.695 257.02C555.234 255.604 557.236 253.943 558.701 252.039C560.166 250.086 561.191 247.864 561.777 245.374C562.363 242.835 562.656 239.979 562.656 236.805C562.656 233.631 562.363 230.848 561.777 228.455C561.191 226.014 560.166 223.914 558.701 222.156C557.285 220.35 555.381 218.689 552.988 217.176C550.596 215.662 547.568 214.539 543.906 213.807C540.244 213.074 535.898 212.562 530.869 212.269C525.889 211.976 520.078 211.829 513.438 211.829C507.969 211.829 503.306 211.829 499.448 211.829C495.591 211.78 492.344 211.634 489.707 211.39C487.119 211.097 485.068 210.682 483.555 210.145C482.041 209.607 480.894 208.826 480.112 207.801C479.331 206.775 478.818 205.481 478.574 203.919C478.379 202.308 478.281 200.672 478.281 199.012C478.281 196.18 478.916 193.958 480.186 192.347C481.455 190.735 483.555 189.539 486.484 188.758C489.414 187.977 493.271 187.488 498.057 187.293C502.842 187.098 508.75 187 515.781 187C522.227 187 527.549 187.195 531.748 187.586C535.996 187.928 539.365 188.587 541.855 189.563C544.346 190.491 546.079 191.785 547.056 193.445C548.081 195.105 548.594 197.254 548.594 199.891H562.656C562.656 195.643 561.948 191.98 560.532 188.904C559.116 185.828 556.626 183.289 553.062 181.287C549.546 179.236 544.761 177.723 538.706 176.746C532.7 175.77 525.059 175.281 515.781 175.281C506.406 175.281 498.447 175.696 491.904 176.526C485.361 177.356 480.039 178.724 475.938 180.628C471.836 182.483 468.857 184.925 467.002 187.952C465.146 190.931 464.219 194.617 464.219 199.012C464.219 202.234 464.512 205.237 465.098 208.021C465.684 210.755 466.685 213.074 468.101 214.979C469.517 216.834 471.421 218.323 473.813 219.446C476.255 220.569 479.282 221.448 482.896 222.083C486.558 222.669 490.903 223.06 495.933 223.255C500.962 223.45 506.797 223.548 513.438 223.548ZM586.094 177.625H600.156V262H586.094V177.625ZM600.156 163.562H586.094V149.5H600.156V163.562ZM672.812 187C667.344 187 662.607 187.171 658.604 187.513C654.648 187.854 651.279 188.465 648.496 189.344C645.713 190.223 643.442 191.443 641.685 193.006C639.976 194.568 638.633 196.57 637.656 199.012C636.729 201.453 636.094 204.407 635.752 207.874C635.459 211.292 635.312 215.32 635.312 219.959C635.312 224.549 635.459 228.553 635.752 231.971C636.094 235.34 636.729 238.245 637.656 240.687C638.633 243.079 639.976 245.057 641.685 246.619C643.442 248.182 645.713 249.402 648.496 250.281C651.279 251.16 654.648 251.771 658.604 252.112C662.607 252.454 667.344 252.625 672.812 252.625C677.5 252.625 681.675 252.527 685.337 252.332C688.999 252.088 692.222 251.6 695.005 250.867C697.788 250.086 700.132 248.987 702.036 247.571C703.989 246.106 705.576 244.178 706.797 241.785C708.018 239.344 708.896 236.341 709.434 232.776C710.02 229.163 710.312 224.817 710.312 219.739C710.312 214.661 710.02 210.315 709.434 206.702C708.896 203.089 708.018 200.086 706.797 197.693C705.576 195.252 703.989 193.323 702.036 191.907C700.132 190.491 697.788 189.417 695.005 188.685C692.222 187.952 688.999 187.488 685.337 187.293C681.675 187.098 677.5 187 672.812 187ZM724.375 250.281C724.375 258.484 723.447 265.296 721.592 270.716C719.736 276.136 716.758 280.506 712.656 283.826C708.555 287.195 703.232 289.539 696.689 290.857C690.146 292.176 682.188 292.835 672.812 292.835C664.023 292.835 656.626 292.444 650.62 291.663C644.663 290.882 639.854 289.637 636.191 287.928C632.529 286.268 629.893 284.095 628.281 281.409C626.719 278.772 625.938 275.55 625.938 271.741H640C640 273.646 640.488 275.208 641.465 276.429C642.49 277.649 644.248 278.602 646.738 279.285C649.229 279.969 652.573 280.433 656.772 280.677C661.021 280.97 666.367 281.116 672.812 281.116C679.844 281.116 685.752 280.848 690.537 280.311C695.322 279.822 699.18 278.626 702.109 276.722C705.039 274.817 707.139 271.937 708.408 268.079C709.678 264.222 710.312 259.07 710.312 252.625C709.629 253.797 708.53 255.066 707.017 256.434C705.552 257.801 703.379 259.07 700.498 260.242C697.666 261.414 694.004 262.391 689.512 263.172C685.02 263.953 679.453 264.344 672.812 264.344C663.438 264.344 655.479 263.636 648.936 262.22C642.393 260.853 637.07 258.484 632.969 255.115C628.867 251.746 625.889 247.205 624.033 241.492C622.178 235.779 621.25 228.602 621.25 219.959C621.25 211.17 622.178 203.895 624.033 198.133C625.889 192.371 628.867 187.806 632.969 184.437C637.07 181.067 642.393 178.699 648.936 177.332C655.479 175.965 663.438 175.281 672.812 175.281C679.453 175.281 685.02 175.623 689.512 176.307C694.004 176.99 697.666 177.845 700.498 178.87C703.379 179.896 705.552 181.019 707.017 182.239C708.53 183.411 709.629 184.485 710.312 185.462V177.625H724.375V250.281ZM827.5 262V215.125C827.5 209.9 827.109 205.506 826.328 201.941C825.547 198.328 823.984 195.423 821.641 193.226C819.297 191.028 815.977 189.441 811.68 188.465C807.383 187.488 801.719 187 794.688 187C787.07 187 780.82 187.562 775.938 188.685C771.104 189.808 767.295 191.395 764.512 193.445C761.729 195.496 759.8 197.962 758.726 200.843C757.7 203.724 757.188 206.922 757.188 210.438V262H743.125V177.625H757.188V191.688C758.213 189.295 759.678 187.244 761.582 185.535C763.486 183.777 765.635 182.288 768.027 181.067C770.42 179.847 773.008 178.87 775.791 178.138C778.574 177.356 781.357 176.771 784.141 176.38C786.924 175.94 789.609 175.647 792.197 175.501C794.834 175.354 797.227 175.281 799.375 175.281C805.625 175.281 810.996 175.672 815.488 176.453C820.029 177.234 823.862 178.382 826.987 179.896C830.161 181.409 832.7 183.289 834.604 185.535C836.509 187.781 837.974 190.394 838.999 193.372C840.073 196.302 840.781 199.598 841.123 203.26C841.465 206.873 841.636 210.828 841.636 215.125L841.562 262H827.5ZM909.678 263.611C900.303 263.611 892.344 262.977 885.801 261.707C879.258 260.389 873.936 258.143 869.834 254.969C865.732 251.795 862.754 247.547 860.898 242.225C859.043 236.902 858.115 230.213 858.115 222.156C858.115 212.928 859.043 205.311 860.898 199.305C862.754 193.25 865.732 188.44 869.834 184.876C873.936 181.312 879.258 178.821 885.801 177.405C892.344 175.989 900.303 175.281 909.678 175.281C916.367 175.281 922.153 175.77 927.036 176.746C931.968 177.723 936.167 179.139 939.634 180.994C943.149 182.85 945.981 185.096 948.13 187.732C950.327 190.369 952.036 193.152 953.257 196.082C954.526 198.963 955.381 202.356 955.82 206.263C956.309 210.169 956.553 214.295 956.553 218.641L955.381 223.328H872.178C872.178 229.773 872.812 235.071 874.082 239.222C875.352 243.323 877.451 246.326 880.381 248.23C883.311 250.135 887.168 251.355 891.953 251.893C896.738 252.381 902.646 252.625 909.678 252.625C916.123 252.625 921.445 252.454 925.645 252.112C929.893 251.722 933.262 251.014 935.752 249.988C938.242 248.963 939.976 247.547 940.952 245.74C941.978 243.885 942.49 241.492 942.49 238.562H956.553C956.553 243.104 955.747 246.985 954.136 250.208C952.573 253.382 949.961 255.97 946.299 257.972C942.637 259.925 937.803 261.341 931.797 262.22C925.84 263.147 918.467 263.611 909.678 263.611ZM909.678 187C904.99 187 900.791 187.098 897.08 187.293C893.418 187.488 890.195 187.928 887.412 188.611C884.678 189.246 882.334 190.198 880.381 191.468C878.428 192.688 876.841 194.153 875.62 195.862C874.448 197.522 873.569 199.891 872.983 202.967C872.446 205.994 872.178 209.656 872.178 213.953H942.49C942.49 208.24 941.88 203.772 940.659 200.55C939.438 197.278 937.51 194.593 934.873 192.493C932.236 190.394 928.843 188.953 924.692 188.172C920.542 187.391 915.537 187 909.678 187ZM1047.96 205.091C1047.96 201.575 1047.69 198.67 1047.15 196.375C1046.67 194.031 1045.47 192.176 1043.56 190.809C1041.66 189.393 1038.83 188.416 1035.07 187.879C1031.36 187.293 1026.28 187 1019.83 187C1013.54 187 1008.41 187.562 1004.45 188.685C1000.5 189.759 997.397 191.297 995.151 193.299C992.905 195.301 991.367 197.693 990.537 200.477C989.756 203.26 989.365 206.36 989.365 209.778V262H975.303V177.625H989.365V191.028C989.854 189.515 990.757 187.854 992.075 186.048C993.394 184.192 995.396 182.483 998.081 180.921C1000.77 179.31 1004.23 177.967 1008.48 176.893C1012.78 175.818 1018.12 175.281 1024.52 175.281C1031.85 175.281 1037.8 175.94 1042.39 177.259C1046.98 178.528 1050.55 180.433 1053.09 182.972C1055.67 185.462 1057.41 188.562 1058.29 192.273C1059.21 195.984 1059.68 200.257 1059.68 205.091H1047.96Z" fill="white"/>
<path d="M197.517 234.656C211.986 234.656 224.234 234.257 234.26 233.46C244.286 232.662 252.546 231.067 259.04 228.675C265.534 226.168 270.547 222.579 274.079 217.908C277.611 213.237 280.174 207.085 281.77 199.451C283.479 191.704 284.447 182.247 284.675 171.082C285.017 159.803 285.188 146.359 285.188 130.75C285.188 115.141 285.017 101.754 284.675 90.5889C284.447 79.3096 283.479 69.8532 281.77 62.2197C280.174 54.4723 277.611 48.263 274.079 43.5918C270.547 38.9206 265.534 35.3887 259.04 32.9961C252.546 30.4896 244.286 28.8376 234.26 28.04C224.348 27.2425 212.1 26.8438 197.517 26.8438H33.625V234.656H197.517ZM0.8125 262V-0.5H197.517C217.569 -0.5 234.431 0.696289 248.103 3.08887C261.888 5.36751 273.225 8.89941 282.111 13.6846C291.112 18.4697 298.005 24.4512 302.79 31.6289C307.689 38.8066 311.221 47.2946 313.386 57.0928C315.664 66.777 316.975 77.7715 317.316 90.0762C317.772 102.267 318 115.825 318 130.75C318 145.675 317.772 159.29 317.316 171.595C316.975 183.785 315.664 194.78 313.386 204.578C311.221 214.262 307.689 222.693 302.79 229.871C298.005 237.049 291.112 243.03 282.111 247.815C273.225 252.601 261.888 256.189 248.103 258.582C234.431 260.861 217.569 262 197.517 262H0.8125Z" fill="white"/>
</g>
<defs>
<clipPath id="clip0_248_211">
<rect width="1060" height="294" fill="white"/>
</clipPath>
</defs>
</svg>
